<?xml version="1.0" encoding="UTF-8"?>
<svg id="Camada_2" data-name="Camada 2" xmlns="http://www.w3.org/2000/svg" viewBox="0 0 7690.79 2096.69">
  <defs>
    <style>
      .cls-1 {
        fill: #fff;
      }
    </style>
  </defs>
  <g id="Camada_1-2" data-name="Camada 1">
    <g>
      <g>
        <g>
          <g>
            <path class="cls-1" d="M2982.01,994.07c-122.58-.6-244.62-10.33-366.82-5.67-20.24.46-67.91-5.74-45.93-33.68,18.8-20.22,47.7-31.29,59.41-57.12,7.89-15.2,9.56-31.7,9.81-47.88,2.1-120.85.2-353.63.5-478.03-.34-13.15-1.31-28.65-6.14-43.57-5.2-16.54-15.9-30.53-29.89-41.49-11.96-9.96-27.23-17.87-35.73-31.1-15.52-33.02,45.78-29.95,64.81-30.15,114.83,7.93,229.29-3.9,343.95-5.59,151.17-4.03,309.94,64.57,387.86,198.35,77.53,131.1,56.88,309.74-38.49,426.66-81.96,101.08-214.42,150.14-342.47,149.26h-.87ZM2963.4,929.51c186.85,4.93,236.64-204.21,218.07-364.89-9.18-130.5-76.98-273.22-222.71-277.68-34.58-2.12-83.48-.53-103.05,30.86-9.54,15.84-9.12,34.27-9.89,52.67-1.72,75.07,1.25,194.63-.04,287.98.01,50.85-.18,90.53.01,132.8.11,17.33.48,37.12,4.13,55.34,9.6,56.13,56.39,83.65,112.52,82.92h.95Z"/>
            <path class="cls-1" d="M3467.46,987.42c-19.57-18.74,12.67-39.92,23.58-56.58,19.55-25.51,16.18-60.39,16.81-91.03,0-50.4.01-101.42,0-152.13-.22-25.17.56-51.6-7.35-75.62-5.38-16.9-18.06-34.58-20.86-53-5.12-30.59,29.69-41.34,53.29-49.06,27.11-8.21,53.95-16.46,80.65-25.94,29.5-9.52,59.36-20.99,73.68,4.75,10.5,14.72,4.84,54.39,25.22,57.49,19.99-.58,36.96-22.84,53.21-33.62,24.98-19.09,54.29-33.8,86.13-36.82,38.62-4.86,84.73,14.37,84.98,58.54,1.25,45.79-39.07,88.92-86.16,83.47-22.39-1.58-43.72-10.24-66.06-12.46-81.29-9.63-93.3,65.63-93.99,128.79-.56,31.8-.19,63.14-.26,94.91.4,29.49-1.03,62.58,13,86.22,10.81,19.12,31.73,31.33,45.77,47.4,33.78,47.22-78.89,32.37-100.99,32.71-35.52-1.44-70.55-.81-105.97.66-23.72.11-53.77,4.74-74.17-8.29l-.5-.39Z"/>
            <path class="cls-1" d="M3991.36,1025.39c-63.2.2-113.44-64.93-96.63-125.9,30.09-115.67,198.43-95.29,200.84,23.99.89,55.36-47.77,103.5-103.33,101.91h-.88Z"/>
          </g>
          <g>
            <path class="cls-1" d="M4977.18,1025.42c-144.15,1.32-216.55-70.39-292.79-182.97-18.86-27.24-36.67-54.95-53.19-83.66-15.99-27.01-29.42-56.52-50.13-80.13-15.84-18.09-43.48-35.97-55.55-9.06-7.04,15.51-6.23,44.11-6.29,76.55.36,39.55-.92,81.04.99,119.95,1.3,31.14,11.16,57.21,38.7,74.32,14.7,11.83,58.35,29.38,52.8,47.9-16.44,24.91-99.7,12.56-129.3,13.93-45.54-1.2-89.48-1.29-134.62.32-30.29-.63-90.89,9.66-112.21-12.07-12.77-17.17,47.27-48.61,57.24-63.67,10.92-11.61,16.62-27.24,18.11-42.3,2.25-129.85,2.18-397.11.04-523.29-3.63-48.28-48.46-63.35-69.91-93.91-11.62-26.6,44.56-26.89,63.74-26.08,58.16,3.92,117.62,6.91,176.28.93,104.76-8.44,230.22-12.78,322.91,40.35,35.74,21.4,64.13,55.51,74.14,96.54,15.27,58.83-1.84,122.93-47.5,163.07-21.36,20.84-55.57,35.98-71.66,53.31-23.02,22.29-6.48,53.31,9.86,76.07,60.64,80.88,132.9,189.87,225.58,233.49,30.18,14.53,66.51,14.93,97.06,26.61,45.25,18.03,23.98,58.39-9.05,74.45-30.85,15.66-67.13,18.93-104.3,19.37h-.94ZM4567.37,598.4c60.02,8.81,103.8-46.28,113.31-103.55,9.49-54.18,4.56-123.39-27.98-164.99-21.81-29.59-67.49-49.71-100.74-28.5-26.39,17.33-27.61,61.38-28.97,92.67-1.19,36.58-.92,72.75-.76,109.13.28,37.08,3.66,85.47,44.43,95.08l.72.16Z"/>
            <path class="cls-1" d="M5422.65,1019.53c-16.16-9.1-18.16-36.57-24.22-49.86-3.14-8.18-11.17-9.61-18.91-6.47-15.36,5.31-39.92,24.84-65.42,37.19-78.87,40.68-171.02,34.03-215.52-50.67-24.56-46.49-26.61-92.55-26.47-143.46-.06-32.13-.04-67.63-.04-100.28-.32-54.34,3.68-88.81-28.18-126.64-8.33-12.38-21.59-28.64-15.39-42.07,7.02-12.33,23.52-17.01,45.19-21.94,20.57-3.93,41.73-6.17,62.38-10.06,32.16-3.77,80.57-24.24,107.32.37,20.29,22.48,8.91,67.76,9.75,98.14-.65,41.46-.24,107.41-.34,154.99-.33,56.53-3.15,128.95,61,148.73,44.55,12.32,84.27-24.04,91.48-66.37,4.07-19.82,4.12-40.48,4.43-60.95.09-34.9.43-76.13-.25-111.6-.77-22.37-2.04-46.06-14.09-65.14-8.38-13.33-21.61-23.55-33.57-34.09-18.1-15.1-38.87-35.15-9.5-50.34,18.69-10.09,43.07-12.81,64.52-14.6,43.79-2.54,83.74-9.14,126.26-12.18,54.31-3.27,55.6,35.78,50.62,78.41-3.24,32.36-3.15,59.3-3.16,104.57-.02,47.13.02,97.73,0,145.21-.37,78.95,1.47,71.34,48.93,118.23,34.05,40.62-69.3,50.8-94.69,59.04-16.51,4.21-32.85,9.1-49.06,14.2-22.72,6.34-50.97,18.64-72.6,7.92l-.48-.28Z"/>
            <path class="cls-1" d="M5941.28,1023.16c-56.44,2.38-113.29-19.81-168.18-20.65-29.91-1.99-80.93,19.39-89.02-22.82,5.65-185.68,1.33-415.6-3.12-624.02-4.16-61.27-86.17-106.55,17.68-132.61,104.77-29.63,175.75-88.82,157.63,73.15-.21,53.69-.77,119.57-.71,174.72-1.34,41.1,10.03,60.33,54.07,46.78,99.1-42.11,223.16-22.27,284.37,72.2,126.5,191.31-22.47,444.27-251.79,433.26h-.93ZM5956.98,963.6c54.49-5.37,74.39-68.96,83.49-115.3,12.56-72.1,9.47-149.31-18.68-217.51-12.17-28.17-32.55-54.08-61.82-64.02-33.02-10.89-88.5-7.42-99.89,29.79-3.48,10.84-4.3,24.89-4.48,41.98-.12,29.81-.03,64.26-.05,95,1.48,59.61-6.83,121.02,18.7,171.57,14.75,31.25,45.76,60.81,82,58.52l.74-.05Z"/>
            <path class="cls-1" d="M6482.93,1017.89c-114.81.5-204.76-95.69-220.32-205.57-21.86-125.15,45.89-254.75,165.38-300.51,61.01-24.11,136.43-24.46,193.53,9.54,50.2,27.67,95.04,95.66,72,151.26-18.25,36.23-57.9,28.84-100.68,30.45-21.37,0-45.8,0-68.02,0-60.64.3-124.66-7.64-111.85,76.4,12.09,67.41,78,115.56,145.71,111.33,31.54-.05,64.4-15.16,92.4-25.18,39.09-14.04,46.26,8.44,32.84,38.8-34.9,74.21-120.23,114.91-200.11,113.49h-.89ZM6436.52,646.79c21.56,11.32,58.41,9.92,84.16,7.69,40.45-2.33,70.23-31.68,49.37-73.09-18.85-35.84-67.42-43.06-101.53-25.51-30.65,13.23-72.7,66.52-32.64,90.56l.64.35Z"/>
            <path class="cls-1" d="M6709.76,1004.08c-23.46-12-.44-32.37,14.85-50.56,31.7-30.88,23.51-72.22,24.77-114.23.02-41.06-.01-85.05,0-126.36-.16-32.91,1.42-67.6-8.92-89.95-8.52-22.89-32.07-50.75-16.97-74.68,21.96-25.06,63.76-29.33,94.54-40.48,30.81-9.04,70.67-27.09,91.48-24.38,16.08.89,23.26,16.13,27.56,29.73,10.8,41.41,31.3,26.14,60.14,10.95,88.26-57.01,222.85-49.37,265.61,59.29,18.6,47.75,16.82,83.59,17.15,141.38-.03,39.18.03,81.89,0,121.57.91,41.42-3.36,65.82,12.57,92.48,8.23,12.75,21.16,24.79,28.78,37.34,26.12,42.13-58.81,34.22-81.26,33.95-36.76-1.57-73.57-1.21-110.33.39-21.99.23-55.68,3.06-71.24-12.88-12.51-19.46,30.41-52.13,34-74.65,6.16-20.16,4.94-48.16,5.16-81.99,0-27.56,0-57.12,0-84.31-.31-38.29,1.26-78.04-11.23-106.1-18.8-46.68-72.92-61.25-115.89-38.57-35.68,16.29-39.68,52.96-38.82,88,.86,61.68-1.98,143.11,1.4,206.2,1.4,13.08,4.82,23.69,10.88,33.35,7.97,15.4,38.07,40.62,26.92,58.23-21.76,21.51-84.47,9.93-117.63,11.39-25.08-.32-50.21.47-75.28,1.47-22.93,1.22-54.31.71-67.75-6.35l-.5-.24Z"/>
            <path class="cls-1" d="M7493.02,1018.11c-47.3-.31-107.95-7.55-138.97-42.41-24.32-21.84-44.14-118.4-7.91-132.99,26.59-4.54,47.09,31.76,61.17,50.34,73.73,115.02,184.34,47.26,128.89-29.84-25.43-32.02-64.84-47.5-98.21-70.37-22.82-15.03-44.08-32.58-59.97-53.61-47.3-60.2-38.9-154.3,23.47-200.88,55.05-44.05,136.36-53.29,204.59-37.66,38.31,7.74,65.66,34.38,70.8,74.73,3.69,17.4.53,48.63-12.8,54.34-29.85,12.46-60.46-54.39-84.23-67.57-26.8-20.86-72-19.94-90.84,10.73-29,54.52,43.05,91.8,83.45,116.36,25.08,15.32,49.26,30.12,69.85,49.41,48.21,43.17,59.57,117.51,38.07,177.22-27.1,77.96-110.58,102.26-186.42,102.17h-.94Z"/>
          </g>
        </g>
        <g>
          <g>
            <path class="cls-1" d="M3008.69,2042.91c-269.42,2.54-501.24-195.23-433.06-477.29,55.4-218.8,286.21-327.57,499.42-311.28,23.09,1.49,45.88,4.33,68.65,8.4,34.79,6.95,71.04,13.16,101.08,31.49,29.61,17.56,42.7,52.44,45.65,86.86,3.05,22.49,6.65,97.53-28.1,82.62-17.3-8.55-34.74-45.33-48.56-65.06-32.23-47.24-84.89-71.32-142.05-77.87-184.43-23.51-292.99,138.63-292.69,307.43-2.81,167.5,64.06,350.63,259.65,346.33,87.41-.55,152.13-33.33,199.92-105.01,15.76-20.06,42.55-55.85,58.28-32.19,15.08,32.44-3.36,100.81-23.47,130.47-24.07,36.26-65.94,48.94-108.48,58.91-50.92,11.78-103,16.5-155.33,16.2h-.91Z"/>
            <path class="cls-1" d="M3486.9,2042.37c-57.57.94-117.46-40.6-120.73-100.76-4.74-58.01,44.91-99.12,93.18-121.74,37.98-20.16,82.09-32.74,116.83-57.68,28.77-21.88,33.31-56.88,32.28-93.23-1.02-27.43-7.93-60.17-34.1-71.17-14.77-6.67-33.05-4.51-45.98,5.41-23.36,18.21-28.49,50.22-49.48,70.87-13.82,14-33.05,23.12-53.1,26.21-21.45,4.35-49.24-4.36-46.68-28.78,2.1-22.32,19.65-41.67,36.54-56.91,68.65-57.01,180.92-116,270.95-89.7,52.63,14.5,88.78,60.41,97.61,112.96,5.2,25.65,4.43,54.82,3.73,84.88-.76,30.97-1.81,66.91-2.67,100.83.63,43.56-9.15,89.98,16.13,118.55,9.7,10.32,25.81,15.45,39.24,19.22,10.74,2.85,24.62,8.03,19.36,21.18-3.75,11.54-19.61,28.92-39.34,40.06-22.91,13.47-49.67,20.48-76.21,19.4-30.93.07-58.4-16.63-84.9-30.08-48.07-24.42-76.99,5.45-121.2,21.95-16.26,5.58-33.35,8.57-50.59,8.53h-.87ZM3565.68,1963.7c42.59-3.26,42.08-72.56,41.51-106.05-1.6-15.81-2.59-38.24-20.82-41.76-14.18-1.53-35.02,12.49-46.75,34.79-12.91,24.24-16.19,54.68-8,80.85,4.99,16.18,16.7,32.18,33.41,32.17h.63Z"/>
            <path class="cls-1" d="M4062.16,2049.87c-114.08-.99-171.32-63.71-171.92-176.11-.97-58.53-.1-130.89-.44-188.68-.5-20.8.39-43.83-10.89-61.42-13.78-23.73-60.42-40.09-42.6-72.91,21.89-31.72,66.77-48.32,97.36-72.33,31.35-19.05,103.35-90.08,125.9-47.49,8.83,17.64,9.52,41.61,15.87,59.98,16.57,50.16,95.98,28.06,135.72,40.83,29,6.21,49.89,32.1,19.53,53.6-35.26,23.89-90.54,10.25-127.75,29.02-29.89,15.3-28.03,53.69-28.97,83.04-.15,28.12-.05,62.26-.07,90.87.47,59.43-5.06,141.94,62.77,166.21,20.21,7.33,45.64,5.89,66.8,6.43,67.8-.78,22.57,42.95-11.05,58.74-39.64,19.74-83.48,30.46-129.27,30.22h-.97Z"/>
          </g>
          <g>
            <path class="cls-1" d="M4358.11,1940.84v-301.25h65.73v301.25h-65.73ZM4404.21,1855.94v-51.58h68.92c21.91,0,38.34-4.49,49.3-13.46,10.95-8.97,16.43-23.8,16.43-44.5,0-18.26-5.1-32.18-15.29-41.76-10.2-9.59-25.95-14.38-47.24-14.38h-72.12v-50.66h73.94c19.47,0,37.04,2.28,52.72,6.85,15.67,4.56,29.05,11.34,40.16,20.31,11.1,8.98,19.55,20.24,25.33,33.77,5.77,13.54,8.67,29.44,8.67,47.7,0,23.43-5.33,43.13-15.97,59.11-10.66,15.97-26.4,28.07-47.24,36.29-20.85,8.22-46.79,12.32-77.82,12.32h-59.79Z"/>
            <path class="cls-1" d="M4652.05,1940.84v-301.25h66.18v301.25h-66.18ZM4697.7,1692.54v-52.95h185.77v52.95h-185.77ZM4697.7,1813.04v-48.84h163.86v48.84h-163.86ZM4697.7,1940.84v-53.4h186.68v53.4h-186.68Z"/>
            <path class="cls-1" d="M4935.5,1940.84v-301.25h65.73v301.25h-65.73ZM4966.99,1940.84v-53.4h87.64c17.04,0,31.19-3.72,42.45-11.18,11.25-7.45,19.78-18.33,25.56-32.63,5.78-14.3,8.67-31.79,8.67-52.49,0-17.04-1.83-31.72-5.48-44.05-3.65-12.32-9.06-22.43-16.2-30.35-7.15-7.91-16.13-13.85-26.93-17.8-10.81-3.95-23.51-5.93-38.11-5.93h-77.59v-53.4h75.31c36.51,0,66.33,5.94,89.46,17.8,23.12,11.87,40.16,28.83,51.12,50.89,10.95,22.07,16.43,48.46,16.43,79.19,0,23.13-2.74,43.21-8.22,60.25-5.48,17.05-12.86,31.49-22.14,43.36-9.29,11.87-20.01,21.45-32.18,28.76-12.17,7.3-25.1,12.63-38.8,15.98-13.69,3.35-27.54,5.02-41.54,5.02h-89.46Z"/>
            <path class="cls-1" d="M5254.09,1940.84v-301.25h67.1v301.25h-67.1Z"/>
            <path class="cls-1" d="M5362.72,1940.84l103.15-301.25h95.85l103.15,301.25h-71.2l-76.22-249.22h-6.85l-76.68,249.22h-71.2ZM5420.68,1881.51v-44.73h195.81v44.73h-195.81Z"/>
            <path class="cls-1" d="M5651.65,1694.82v-55.23h243.74v55.23h-243.74ZM5740.65,1940.84v-301.25h65.73v301.25h-65.73Z"/>
            <path class="cls-1" d="M5937.38,1940.84v-301.25h122.32c16.43,0,31.34,1.3,44.73,3.88,13.39,2.59,25.26,6.32,35.6,11.18,10.34,4.87,19.09,10.89,26.24,18.03,7.15,7.15,12.55,15.37,16.21,24.65,3.65,9.28,5.48,19.55,5.48,30.81,0,10.66-1.68,20.31-5.02,28.98-3.35,8.67-8.37,16.21-15.06,22.6-6.7,6.39-15.06,11.64-25.1,15.75-10.04,4.11-21.76,6.92-35.15,8.44v6.85c15.52,1.53,27.91,5.1,37.2,10.73,9.28,5.63,16.58,13.17,21.91,22.59,5.32,9.44,9.96,21.16,13.92,35.15l18.26,61.62h-72.57l-14.15-57.06c-2.74-12.16-6.7-21.68-11.87-28.53-5.18-6.85-11.72-11.71-19.63-14.6-7.92-2.89-17.5-4.34-28.76-4.34h-48.84v104.52h-65.73ZM6003.1,1787.02h52.03c20.69,0,36.66-3.95,47.93-11.87,11.25-7.91,16.89-20.23,16.89-36.97s-5.25-28.53-15.75-36.29c-10.5-7.76-26.24-11.64-47.24-11.64h-53.86v96.77Z"/>
            <path class="cls-1" d="M6247.29,1940.84v-301.25h67.1v301.25h-67.1Z"/>
            <path class="cls-1" d="M6355.92,1940.84l103.15-301.25h95.85l103.15,301.25h-71.2l-76.22-249.22h-6.85l-76.68,249.22h-71.2ZM6413.89,1881.51v-44.73h195.81v44.73h-195.81Z"/>
          </g>
        </g>
      </g>
      <g>
        <path class="cls-1" d="M912.35,339.55c-3.81-3.65-6.5-4.37-8.15-4.37-.75,0-1.28.14-1.6.23-7.38,2.03-14.63,16.96-18.24,29.98-9.89,35.54-8.67,73.71,3.74,116.68,9.69,33.54,18.09,41.28,20.27,41.35.05,0,4.1-.59,9.56-15.87,9.33-26.19,14.25-78.87,12.25-106.72-1.07-14.84-10.39-54.18-17.82-61.29Z"/>
        <path class="cls-1" d="M892.78,280.05c-10.94,2.26-20.37,16.87-26.6,26.54l-.45.68c-38.5,59.65-46.49,144.03-19.89,209.97,9.04,22.41,25.7,49.27,45.37,57.46,8.37,3.49,16.59,3.43,25.13-.16,64.68-27.22,75.26-153.93,59.47-213.85-4.09-15.49-27.19-92.23-83.03-80.64ZM936.55,537.84c-8.13,11.45-17.95,17.68-28.4,18.03-.29,0-.58.01-.88.01-7.14,0-17.51-2.83-27.9-15.6-34.03-41.81-34.69-140.21-20.2-189.58,9.43-32.14,27.1-49,51.2-48.92,30.07.17,46.68,55.67,50.13,75.1,6.81,38.34-1.57,129.44-23.96,160.97Z"/>
        <path class="cls-1" d="M934.25,216.05l-1.74,2.94c-5.64,9.53-10.64,17.98-12.57,27.89l63.81,3.26,1.3.78c81.4,48.72,100.93,180.4,64.01,265.59-6.56,15.12-34.96,62.94-46.8,74.07-3.59,3.37-5.86,5.16-11.21,6.99-13.69,4.69-31.04,6.38-47.83,8.01-7.39.72-14.48,1.41-20.96,2.33,6.73,32.4,27.65,57.57,56.8,84.93,109.93,103.2,245.05,144.21,401.6,121.83,102.83-14.68,196.42-79.41,256.76-177.57,61.81-100.54,78.16-221.19,43.76-322.76-37.92-111.97-65.03-159.01-160.65-235.12-102.65-81.7-235.04-101.27-363.19-53.72-75.72,28.1-179.98,117.15-223.1,190.56ZM1365.1,222.04c27.2-2.44,94.92,1.8,122.07,8.97,36.65,9.68,114.77,66.55,139.34,94.06,80.76,90.45,30.79,235.88,5.55,294.2-41.82,96.66-129.8,118.32-215.1,118.32-19.94,0-39.73-1.18-58.75-2.87-102.93-9.12-178.11-78.21-206.26-189.56-18.76-74.19,25.14-179.84,59.22-232.75,29.38-45.6,96.99-85.3,153.93-90.38Z"/>
        <path class="cls-1" d="M962.13,575.93c11.92-1.8,19.2-4.81,28.87-16.91,53.05-66.32,72.25-184.01,10.75-258.49-7.73-9.36-17.78-19.44-27.84-23.52,6.58,7,12.62,15.55,18.29,25.8,31.76,57.6,25.56,161.71,1.6,225.15-7.04,18.63-19.05,33.77-31.66,47.97Z"/>
        <path class="cls-1" d="M806.93,636.72c-.48,1.94-.96,3.91-1.45,5.87,24.92-13.4,55.46-24.72,86.47-31.95-1.06-2.84-4.1-4.48-10.79-7.37-4.24-1.84-9.04-3.91-13.49-7.27-5.22-3.94-12.35-10.7-17.01-17.98-30.06,3.05-36.7,30.11-43.72,58.7Z"/>
        <path class="cls-1" d="M776.61,1094.38l-61.44-14.27c-1.12,9.03-3.53,18.43-5.88,27.58-2.91,11.34-5.67,22.06-5.95,31.48-.49,16.21,17.2,44.53,37.86,60.6,11.48,8.93,22.59,13.23,31.75,12.45l3.66-117.85Z"/>
        <path class="cls-1" d="M1307.77,1055.57c11.97,12.29,16.23,70.1,19.28,72.3l66.47-11.05c-.19-13.77-6.47-59.06,2.92-68.16,3.09-3,19.44-4.01,25.3-5.93,10.33-3.39,19.43-10.33,30.21-11.79v-48.46c0-.32-2.25-5.27-3.44-5.39l-67.69,12.08c-1.42-.66-3.2-1.25-4.25-2.38-5.83-6.33-4.65-39.76-6.98-51.18-.67-3.3-6.52-21.16-8.01-22.17-4.41-3-29.9,4.76-37.82,5.47-9.48.85-19.52-.53-29.05.02.45,20.45-.54,41.02-.08,61.48.18,7.87,5.3,16.26.28,23.8-4.42,5.73-13.61.78-20.54.78-16.88.02-34,2.79-50.68,4.45l6.44,49.46c15.96,2.32,66.96-14.31,77.64-3.34Z"/>
        <path class="cls-1" d="M1260.78,667.32c-47.48-62.73-66.12-151.23-48.67-233.17,14-65.72,48.58-119.1,98.54-153.07-52.95,29.07-95.05,79.09-117.12,142.34-15.74,45.09-22.35,83.8-6.71,137.38,13.91,47.68,37.77,82.25,73.97,106.51Z"/>
        <path class="cls-1" d="M778.98,724.42c6.54-1.27,13.23-1.83,19.93-1.83,26.4,0,53.06,8.85,72.35,19.24,69.56,37.47,101.3,126.3,129.31,204.67,9.63,26.96,18.74,52.43,28.85,74.66,24.66,54.18,47.18,92.17,61.79,104.24,17.57,14.52,90.5,57.65,109.52,60.25,11.87,1.67,45.29-6.16,69.67-11.83,11.68-2.72,21.76-5.07,28.81-6.31,11.42-2,22.06-3.71,32.07-5.32,66.15-10.62,102.59-16.46,157.25-74.85,58.13-62.1,91.62-101.3,104-184.75,10.63-71.77,11.74-102.64,10.8-115.89-1.19-16.64-9.51-21.27-24.64-29.69l-1.35-.76-1.22.2c-7.31,5.01-14.77,10.46-21.99,15.74-13.92,10.17-28.32,20.69-43.09,29.23-43.35,25.05-93.76,52.33-143.38,58.86-48.86,6.43-109.61,4.94-171.05-4.19-35.43-5.26-76.65-26.34-115.93-48.34-47.47-26.58-109.51-64.45-135.48-93.89-12.8-14.51-21.61-30.42-30.13-45.8-3.26-5.89-6.61-11.94-10.18-17.89-5.92,1.77-11.97,3.46-18.08,5.15-27.39,7.62-55.72,15.49-76.82,32.94-6.54,5.41-24.35,20.14-31.02,36.17ZM1205.56,983.77c3.34-2.09,34-4.6,40.66-4.69,8.01-.11,14.81,2.58,22.65,2.33,3.18-3.12-6.79-71.51-4.31-85.08.93-5.13,5.14-6.7,9.83-7.4,20.83-3.11,45.4-2.83,66.61-4.47,17.81-1.37,43.77-14.17,48.25,9.95,4.11,22.12,6.91,45.15,6.71,67.61,2.17,2.16,50.05-14.68,59.47-14.96,21.79-.64,14.56,38.13,16.13,52.42,1.23,11.14,10.92,29.96,6.8,39.5-6.19,14.36-41.64,15.94-53.85,24.83-10.89,30.35,14.43,60.26-25.89,72.11-16.52,4.86-74.08,13.91-89.4,10.84-24.79-4.98-12.75-45.64-23.33-63.9-2.57-2.23-55.69,1.59-65.43-.27-3.67-.7-5.55-2.45-7.33-5.59l-12.26-87.08c.94-2.45,2.44-4.73,4.7-6.14Z"/>
        <path class="cls-1" d="M697.6,1212.85c-1.92-2.31-3.38-4.78-4.74-7.23-1.57,10.59-2.11,18.08,5.01,28.04,11.66,16.32,38.49,31.58,56.84,27.56,7.36-1.61,12.66-6.29,15.84-13.97-26.17.79-54.87-12.64-72.95-34.41Z"/>
        <path class="cls-1" d="M1265.58,367.08c-37.72,63.4-42.45,165.99-11.01,238.65,14.63,33.81,43.83,76.71,99.85,89.08,77.92,17.2,184.95,2,229.89-60.06,19.28-26.62,51.82-127.22,54.57-161.39,5.91-73.19-51.49-152.55-110.38-186.99-21.78-12.73-66.56-20.83-96.59-20.83-1.08,0-2.14.01-3.18.04-61.29,1.24-135.17,54.49-163.15,101.51ZM1408.97,316.36c49.66-5.45,129.46,28.34,157.9,67.06,28.84,39.24,37.95,91.61,24.99,143.66-14.09,56.59-51.51,104.36-100.09,127.77-20.41,9.84-41.64,14.77-62.97,14.77-17.38,0-34.82-3.28-51.96-9.84-43.88-16.82-81.51-54.75-100.66-101.44-19.22-46.82-11.85-108.41,19.2-160.72,27.74-46.73,69.14-76.35,113.58-81.26Z"/>
        <path class="cls-1" d="M1422.85,628.74c42.48,11.13,83.94-18.82,99.5-54.16,14.92-33.93,1.28-150.76-17.29-183.24-13.45-23.5-48.62-43.53-76.81-43.73h-.6c-49.7,0-87.8,42.89-106.94,83.17-25.2,53.05-24.09,108.38,2.83,140.95,17.63,21.32,69.34,49.16,99.31,57Z"/>
        <path class="cls-1" d="M275.81,843.51c10.26,5.19,20.23,10.98,29.92,16.62,9.72,5.66,19.77,11.5,29.87,16.57,64.33,32.29,127.31,66.38,181.29,95.8,4.56,2.49,8.83,5.86,12.96,9.13,4.45,3.52,8.65,6.85,12.67,8.67,12.96,5.88,40.82,13.43,59.25,18.42l8.86,2.41c36.51,10.06,74.45,17.79,111.13,25.27,20.49,4.17,41.65,8.49,62.39,13.17,11.67-2.74,24.29-8.74,36.52-14.55,13.48-6.4,27.42-13.02,40.79-15.69,6.49-1.31,15.29-1.78,20.26,3.29,1.63,1.67,4.17,5.39,2.8,11.62-2.22,10.1-19.33,20.37-40.09,31.73l15.28,7.49.73,2.63c2.04,7.36-.26,11.86-2.54,14.36-6.99,7.64-21.45,5.68-38.22,2.56-1.54-.29-2.97-.55-4.25-.77-2.2,5.13-3.88,19.87-4.98,43.93-.15,3.29-.27,5.82-.39,7.17-3.07,34.84-4.59,64.76-2.05,97.55.39,4.91,1.6,14.53,2.37,17.08,2.66,6.15,38.31,43.17,49.16,53.51,28.1,26.77,113.61,108.25,171.2,127.09,36.57,11.95,126.85,30.83,159.14,26.23,3.2-.45,5.58-1.34,8.22-3.06,7.49-4.88,37.3-38.24,42.24-47.18,9.01-26.3,19.33-52.61,29.32-78.07,16.03-40.87,32.58-83.04,44-125.97-1.66.34-3.33.69-4.99,1.03-33.67,7-68.48,14.25-103.7,9.5-40.95-5.54-64.14-13.59-103.38-35.86l-2.28-1.3c-25.24-14.31-59.81-33.91-73.84-59.39-24.77-45.02-40.73-94.67-56.16-142.69-13.21-41.1-26.87-83.61-45.94-122.6-47.55-97.27-111.14-102.45-204.9-78.55l-1.39.19-102.94,1.96c4.34,6.93,11.74,17.58,17.2,25.42,13.21,18.99,19.12,27.76,20.32,31.94,2.41,8.46-.04,13.11-2.51,15.53-2.45,2.38-7.1,4.7-15.34,2.15-2.72-.84-4.2-2.28-20.58-22.25-6.58-8.02-14.05-17.12-16.79-19.73-17.84-17-46.39-38.95-73.03-49.62-43.27-17.32-89.19-29.89-133.58-42.04-21.31-5.83-43.26-11.84-64.82-18.35.67,4.06,1.4,8.13,2.11,12.11,1.88,10.48,3.82,21.32,4.82,32.15,2.37,25.56,2.67,40.56.96,47.21-5.17,20.08-23.15,28.63-39.02,36.19-6.78,3.23-13.25,6.3-18.08,9.96Z"/>
        <path class="cls-1" d="M916.07,1701.01c-9.56,4.21-24.45,10.78-30.93,14.36,8.63,17.67,23.72,31.53,38.2,41.61-4.12-20.58-.55-41.86,3.85-60.9-3.16,1.43-6.87,3.06-11.11,4.94Z"/>
        <path class="cls-1" d="M1235.21,1494.9c-38.63,7.76-141.6,3.8-180.64-6.95-24.55-6.76-42.43-16.84-65.01-31.94-47.5-31.8-88.22-65.66-140.55-116.87l-57.85-59.89c-7.65,10.53-16.17,20.8-24.45,30.79-12.62,15.21-25.68,30.95-35.38,47.35-28.47,48.18-51.81,100.44-74.38,150.97-11.06,24.75-22.49,50.35-34.37,75.11-9.04,18.84-18.63,26.62-28.47,23.1-13.68-4.86-18.24-32.1-13.19-53.21l.24-.76c1.64-4.29,9.43-16,23.05-36.34,9.97-14.9,25.32-37.81,31.72-49.32-19.07,1.04-40.74,4.94-60.81,10.99-37.22,11.23-51.48,28.48-56.51,68.35-4.16,32.9-4.85,77.34,15.49,102.24,33.94,41.59,74.03,86.93,120.38,98.74,14.77,3.74,61.09-7.01,88.61-15.18,46.44-13.77,93.88-35.04,139.75-55.61,6.99-3.13,13.93-6.24,20.8-9.3,14.78-6.58,28.44-13.2,41.64-19.61,49.01-23.79,91.53-44.42,156.19-44.42,1.88,0,3.77.02,5.69.05,12.22.22,20.49,4.92,22.14,12.58,1.64,7.64-3.98,15.32-15.05,20.56-22.84,10.81-50.12,16.6-76.49,22.22-22.16,4.71-45.06,9.58-64.81,17.35-2.54,1-4.61,1.71-6.31,2.3q-5.02,1.72-8.03,9.89c-15.77,42.86,19.87,77.52,60.73,108.59,2.72,2.06,5.46,4.66,8.11,7.17,5.48,5.19,11.66,11.03,16.57,11.03.03,0,.06,0,.09,0,17.16-7.74,37.64-13.34,57.45-18.77,21.03-5.76,42.77-11.71,59.52-20.02,21.55-10.7,54.68-69.77,81.31-117.24,16.33-29.12,30.48-54.32,41.24-68l65.77-135.34c-2.14.89-4.28,1.77-6.43,2.66-34.78,14.41-70.73,29.31-107.77,36.76Z"/>
        <path class="cls-1" d="M987.74,2070.53c-.1-28.08-.66-55.51-3.13-81.98-2.08-22.29-6.6-44.77-10.97-66.52-6.33-31.47-12.88-63.96-12.37-97.21-27.35-3.37-48.27-19.18-68.35-37.52-11.53,37.67-14.07,92.57-16.31,141.14-1.01,21.74-1.95,42.26-3.61,60.08l-.12.74-13.98,63.46-4.25-35.73c-10.03-84.27,9.44-170.26,25.19-239.47-.17-1.42-1.42-2.67-4.16-5.1-1.67-1.47-3.55-3.14-5.13-5.22-2.6-3.43-4.9-7-7.14-10.46-.94-1.45-1.86-2.88-2.79-4.27-3.58,26.52-7.7,54.1-13.51,80.98-5.59,25.89-11.8,50.35-17.82,74.01-12.3,48.41-23.91,94.14-29.67,148.28-.7,6.64-.99,13.47-1.28,20.69-.18,4.2-.35,8.46-.62,12.72,13.24-15.18,29.98-30.94,50.27-30.94.45,0,.9,0,1.35.02,19.42.67,32.9,17.18,44.79,31.74,1.89,2.3,3.73,4.56,5.54,6.7,1.85-14.74,5.85-29.83,11.04-41.01,5.27-11.34,12.86-17.62,22.59-18.67,18.62-2.15,40.24,17.45,54.43,33.52ZM928.79,1995.06l-5.17.05h-.1c-8.02,0-8.85-9.22-9.21-13.16-.07-.74-.11-1.4-.2-1.88-6.05-30.7-5.52-62.61-5.01-93.48.25-14.56.49-29.62.03-44.15l-.18-5.49,5.45-.74c2.59-.37,5.02.38,6.76,2.08,3.02,2.93,2.6,7,2.32,9.7-.05.49-.12.96-.11,1.34,1.49,36.51,4.07,75.24,8.37,125.56l.07.73-3.01,19.46Z"/>
        <path class="cls-1" d="M2266.23,598.5c-5.38.11-9.63.2-12.48.03-6.27-.36-12.19-.76-17.82-1.13-42.4-2.83-67.99-4.54-111.33,18.84-45,24.29-74.04,62.11-98.42,99.9.86.9,1.72,1.8,2.58,2.68,6.13,6.36,11.91,12.36,17.27,20.56l2.65,4.04c6.47,9.84,16.25,24.7,19.5,31.57,1.09,2.31,1.99,5.72,2.95,9.32.48,1.8,1.14,4.3,1.65,5.8,6.3,1.53,31.52,2.1,36.31.88,11.67-2.97,20.09-11.9,28.99-21.34,10-10.6,20.34-21.56,35.81-23.7,7.23-1.01,15.32-1.67,23.9-2.38,16.3-1.34,33.15-2.74,45.74-6.55,4.96-1.5,14.77-13.67,20.46-21.09l-70.44,11.69-.79-.08c-5.2-.5-9.61-3.4-11.77-7.74-2.08-4.16-1.77-8.99.83-13.23,3.35-5.46,14.47-7.74,56.84-14.37,20.59-3.22,47.93-7.5,58.3-11.38l-1.19-16.36c-4.8.81-9.61,1.71-14.41,2.61-9.32,1.74-18.97,3.54-28.56,4.72-6.69.82-13.81,1.04-20.7,1.25-6.71.21-13.06.4-18.89,1.11-10.98,1.33-21.08,11.21-31.76,21.66-8.27,8.09-16.81,16.45-26.75,21.83-2.39,1.28-7.64,3.24-15.39,6.06-2.66.97-5.97,2.18-8.22,3.05-.04,1.24-.07,2.74-.1,4.07-.3,16.39-.8,43.82-17.25,43.92h-.11c-13.93,0-14.77-17.03-15.22-26.18-.1-2-.15-3.74-.37-4.88-.35-1.83-1.01-4.01-1.69-6.35-2.56-8.72-5.75-19.57.04-26.95,3.85-4.88,11.41-7.29,18.73-9.62,3.22-1.02,6.26-1.99,8.15-2.94,27.43-13.73,51.36-36.08,64.74-59.97-23.4,6.65-80.39,28.44-89.85,35.06l-1.92,1.34-2.32-.29c-9.72-1.21-12.18-6.48-12.78-9.52-1.48-7.45,5.36-15.1,12.34-19.06,18.9-10.73,87.86-38.29,110.37-38.29h.02c8.31,0,14.29,2.62,17.77,7.77,6.14,9.06,1.77,22.43-1.84,31.7,20.17-1.26,61.9-4.66,70.18-15.24,2.29-2.93,12.04-20.37,14.65-25.58.36-.73.86-1.55,1.39-2.42.34-.55.84-1.36,1.17-2.01-5.84-3.5-32.09-2.98-40.98-2.81Z"/>
        <path class="cls-1" d="M2025.54,763.1l-41.25-36c-12.95,4.03-26.11,7.89-38.89,11.63-46.52,13.64-94.62,27.75-137.53,51.42l-1.37.75h-1.56c-14.65.05-29.75-.4-44.25-.83-37.27-1.12-75.79-2.26-112.91,5.08-11.56,31.83-13.74,66.25-15.86,99.59-1.38,21.77-2.8,44.27-6.8,66.09-8.75,47.82-40.21,78.47-70.65,108.1-10.8,10.51-21.96,21.38-31.8,32.78-3.76,4.37-7.15,9.36-10.74,14.65-4.15,6.11-8.45,12.44-13.52,17.97-19.47,21.21-68.45,44-82.99,50.48-8.55,3.81-17.46,6.74-26.08,9.58-9.66,3.18-18.82,6.18-27.54,10.33-1.37,5.43-2.74,10.89-4.1,16.35-6.25,25.01-12.72,50.86-20.43,75.62l-1.62,5.19c-13.98,45.05-29.43,92.7-38.07,104.58-3.23,4.44-7.71,8.52-12.04,12.46-3.59,3.26-7.3,6.64-9.98,9.97-4.85,6.04-9.44,13.12-13.87,19.98-.68,1.06-1.37,2.12-2.07,3.19,95.99-17.93,157.8-54.63,193.84-114.86,34.2-57.13,70.61-133.49,111.34-233.44,2.78-6.84,5.29-14.28,7.95-22.15,8.34-24.71,17.79-52.71,39.34-69.24.31-.24,31.6-23.44,45.6-15.06,3.38,2.02,7.09,6.44,5.52,15.96-.96,5.85-8.84,16.48-25.33,37.72-1.65,2.12-3.45,4.44-5.24,6.77,5.11-2.44,10.23-4.89,15.35-7.34,48.36-23.17,98.37-47.13,150.81-63.86,7.47-2.38,17.69-4.75,28.51-7.26,16.13-3.74,34.42-7.97,42.82-12.33,6.93-3.59,16.03-12.39,24.83-20.9,6.02-5.83,11.72-11.34,16.95-15.44,8.49-6.65,17.47-12.86,26.16-18.86,10.34-7.14,21.03-14.53,30.72-22.57l.54-.39,75.03-49.56c5.09-23.68-5.76-47.46-16.25-70.47l-2.58-5.66Z"/>
        <path class="cls-1" d="M413.4,1541.97c-2.63-8.86-4-16.82-5.32-24.52-.14-.82-.29-1.65-.43-2.47-17.23,40.58-41.93,77.3-65.91,112.94-16.77,24.94-34.12,50.72-48.59,77.4-14.39,26.55-26.56,54.85-38.33,82.22-.83,1.93-1.66,3.85-2.49,5.78,5.92-5.72,12.22-11.25,19.9-14.94,5.7-2.74,11.4-4.11,16.9-4.11,4.29,0,8.45.83,12.41,2.5,10.71,4.52,19.21,14.77,23.94,28.85,6.14,18.29,6.99,39.07,7.81,59.16,0,.18.01.37.03.55.51-.68,1.01-1.38,1.53-2.07,14.3-19.37,31.65-42.87,50.78-48.87l2.12-53.8c1.81-7.06,3.55-14.14,5.29-21.21,5.65-23.04,11.49-46.86,19.98-69.66l18.46-41.75,11.41,4.19-53.65,181.34c1.58-.31,3.18-.52,4.79-.56.25,0,.5,0,.75,0,17.78,0,37.76,15.16,41.44,31.61l1.34,5.15c.18-1.13.35-2.27.53-3.4,3.6-23.16,7.33-47.11,9.68-70.76.79-7.94.87-17,.96-25.75.1-10.37.2-21.08,1.43-30.76,3.11-24.48,12.8-47.24,22.17-69.25,1.12-2.62,2.23-5.23,3.33-7.84-27.53-22.84-50.09-58.98-62.25-99.98ZM378.77,1689.43c-9.43,28.3-19.18,57.57-30.46,85.83l-1.33,3.34-3.56.45c-.48.06-.93.09-1.35.09-3.36,0-5.22-1.71-6.08-2.81-2.7-3.48-1.12-7.48-.27-9.63.13-.33.27-.65.35-.93,8.73-41.68,25.73-84.96,42.17-126.83,3.2-8.15,6.35-16.18,9.38-24.03l.32-.69,16.46-30.69,10.96,5.27c-13.99,32.79-25.48,67.28-36.6,100.64Z"/>
        <path class="cls-1" d="M130.18,659.11c-1.16,24.65,13.82,30.45,34.06,38.29,8.02,3.1,16.31,6.31,23.78,11.05,12.29,7.79,17.35,21.17,22.25,34.11,3.27,8.65,6.36,16.81,11.39,23.27.22.2.81.65,1.49,1.2,3.87,3.15,9.72,7.9,9.51,14.67-.08,2.61-1.16,6.42-5.83,9.75-1.78,1.27-4.45,2.49-8.13,2.49-1.81,0-3.87-.3-6.2-1.03-15.75-4.97-37.28-28.6-41.34-40.04-1.09-3.07-1.9-8.14-2.75-13.5-.58-3.62-1.5-9.43-2.25-11.73-2.28-1.25-8.52-3.63-13.21-5.43-7.8-2.98-15.86-6.07-20.46-8.94-11.07-6.92-18.63-14.71-23.03-23.67-1.46,1.36-3.21,2.42-5.23,2.99l-1.66.23H24.98c-2.49,0-5.48-1.05-9.82-2.82.34,1.14.67,2.3,1.02,3.47,2.01,6.9,5.04,17.34,8.18,19.41,4.04,2.08,37.16,9.71,46.28,11.36,3.47.64,8.75.84,13.85,1.03,7.52.29,14.62.55,19.58,2.09,4.06,1.26,6.96,4.59,7.75,8.91.95,5.17-1.24,11-5.31,14.18-8.7,6.77-31.08,2.36-64.27-5.15-5.7-1.29-10.93-2.47-15.02-3.28.57,5.07,5.16,7.42,16.16,11.49l2.58.96c7.15,2.69,14.71,4.35,22.72,6.1,9.5,2.08,19.33,4.23,28.39,8.27,4.87,2.18,9.25,5.07,13.48,7.87,3.93,2.6,7.64,5.06,11.68,6.96l3.46,1.62c24.58,11.55,89.71,42.15,112.91,42.15h.26c9.7-.1,42.32-18.81,46.53-26.7,1.44-3.06,8.56-29.67,9.14-34.24,2.02-15.8.58-39.18-10.1-53.06-8.18-10.65-26.49-26.39-46.72-41.4-.05,2.48-.71,5.01-2.02,7.35-2.54,4.53-7.04,7.42-11.53,7.15-1.85-.02-2.87-.43-13.66-5.42-5.12-2.37-12.14-5.62-14.43-6.35-9.78-3.11-51.82-13.84-65.88-15.68Z"/>
        <path class="cls-1" d="M576.42,1450.24c5.76-1.51,11.3-2.96,16.76-4.6-3.33-2.09-6.71-4.42-10.19-6.83-10.15-7.02-20.64-14.27-29.12-14.27-.1,0-.21,0-.31,0-39.06.83-71.53,14.09-89.08,36.38-14.49,18.39-18.71,42-12.57,70.16,1.62,7.39,14.74,32.96,23,45.08.22-24.82,2.88-55.47,12.46-79.69,5.84-14.8,31.86-26.67,56.54-36.32,10.97-4.28,21.92-7.15,32.51-9.92Z"/>
        <path class="cls-1" d="M67.4,625.73c-20.6,1.52-40.85,8.17-60.44,14.59-2.32.76-4.64,1.52-6.96,2.28,8.23,23.38,31.7,24.22,65.63,22.66,13.06-.6,25.41-1.15,35.94.88.87.17,1.7.39,2.5.67-1.05-12.12,0-26.35,8.2-31.52,16.83-10.6,87.45,12.51,88.15,12.74.08.03,2.02.73,4.93,1.82-13.68-8.59-26.28-15.42-35.22-18.59-17.38-6.18-78.7-7.32-102.73-5.54Z"/>
      </g>
    </g>
  </g>
</svg>