<?xml version="1.0" encoding="UTF-8"?>
<svg id="Camada_2" data-name="Camada 2" xmlns="http://www.w3.org/2000/svg" viewBox="0 0 7649.45 2131.44">
  <defs>
    <style>
      .cls-1 {
        fill: #3c608a;
      }
    </style>
  </defs>
  <g id="Camada_1-2" data-name="Camada 1">
    <g>
      <g>
        <g>
          <path class="cls-1" d="M2965.98,988.73c-121.92-.6-243.3-10.28-364.85-5.63-20.13.46-67.55-5.71-45.68-33.49,18.7-20.11,47.44-31.12,59.09-56.81,7.85-15.12,9.51-31.53,9.76-47.62,2.09-120.2.2-351.73.49-475.46-.34-13.08-1.3-28.49-6.11-43.34-5.17-16.45-15.82-30.37-29.73-41.27-11.9-9.91-27.09-17.77-35.54-30.93-15.44-32.85,45.54-29.79,64.46-29.99,114.21,7.89,228.06-3.87,342.1-5.56,150.36-4.01,308.27,64.22,385.78,197.28,77.11,130.4,56.57,308.07-38.28,424.37-81.52,100.54-213.27,149.33-340.63,148.46h-.86ZM2947.47,924.52c185.85,4.91,235.37-203.12,216.89-362.93-9.13-129.8-76.57-271.75-221.51-276.18-34.4-2.11-83.03-.52-102.49,30.69-9.49,15.75-9.07,34.09-9.84,52.38-1.71,74.67,1.24,193.58-.04,286.43.01,50.58-.18,90.05.01,132.09.11,17.23.48,36.92,4.11,55.04,9.54,55.83,56.09,83.2,111.92,82.47h.95Z"/>
          <path class="cls-1" d="M3448.82,982.11c-19.47-18.64,12.6-39.7,23.46-56.28,19.44-25.37,16.09-60.07,16.72-90.54,0-50.13.01-100.88,0-151.32-.22-25.04.56-51.32-7.31-75.22-5.35-16.81-17.96-34.4-20.75-52.71-5.09-30.42,29.53-41.12,53-48.79,26.96-8.17,53.66-16.37,80.22-25.8,29.34-9.46,59.04-20.88,73.28,4.72,10.44,14.64,4.82,54.1,25.08,57.19,19.89-.58,36.76-22.71,52.92-33.44,24.84-18.99,54-33.62,85.67-36.62,38.42-4.83,84.28,14.29,84.52,58.23,1.24,45.55-38.86,88.44-85.7,83.02-22.27-1.57-43.48-10.19-65.71-12.39-80.86-9.58-92.8,65.28-93.48,128.1-.56,31.63-.19,62.8-.26,94.4.4,29.33-1.02,62.24,12.93,85.75,10.76,19.01,31.56,31.16,45.52,47.15,33.6,46.96-78.46,32.2-100.45,32.54-35.33-1.44-70.17-.8-105.4.66-23.59.11-53.48,4.71-73.77-8.25l-.49-.39Z"/>
          <path class="cls-1" d="M3969.91,1019.88c-62.86.2-112.83-64.58-96.11-125.22,29.93-115.05,197.36-94.78,199.76,23.87.89,55.07-47.51,102.95-102.77,101.37h-.88Z"/>
        </g>
        <g>
          <path class="cls-1" d="M4950.43,1019.91c-143.37,1.31-215.39-70.02-291.21-181.99-18.76-27.09-36.47-54.66-52.9-83.21-15.91-26.87-29.26-56.22-49.86-79.7-15.75-17.99-43.25-35.78-55.25-9.02-7,15.42-6.2,43.88-6.26,76.14.36,39.34-.92,80.61.98,119.3,1.3,30.97,11.1,56.9,38.49,73.92,14.63,11.77,58.03,29.22,52.51,47.64-16.36,24.77-99.16,12.5-128.61,13.85-45.29-1.19-89-1.28-133.89.32-30.13-.63-90.41,9.6-111.61-12-12.7-17.08,47.01-48.34,56.93-63.33,10.86-11.54,16.53-27.09,18.01-42.07,2.24-129.15,2.17-394.98.04-520.48-3.61-48.02-48.2-63.01-69.54-93.4-11.56-26.45,44.32-26.75,63.4-25.94,57.85,3.9,116.99,6.87,175.33.93,104.19-8.4,228.98-12.71,321.18,40.13,35.55,21.29,63.79,55.21,73.74,96.02,15.19,58.51-1.83,122.27-47.24,162.2-21.25,20.72-55.27,35.78-71.28,53.03-22.89,22.17-6.45,53.02,9.81,75.66,60.31,80.45,132.18,188.85,224.36,232.23,30.01,14.45,66.15,14.85,96.54,26.47,45.01,17.93,23.85,58.07-9,74.05-30.68,15.57-66.77,18.83-103.74,19.26h-.93ZM4542.82,595.18c59.7,8.76,103.24-46.03,112.7-103,9.44-53.89,4.54-122.73-27.83-164.1-21.69-29.43-67.13-49.44-100.2-28.35-26.25,17.23-27.47,61.05-28.81,92.17-1.19,36.39-.92,72.35-.76,108.54.28,36.89,3.64,85.01,44.19,94.57l.71.16Z"/>
          <path class="cls-1" d="M5393.5,1014.05c-16.07-9.05-18.07-36.38-24.09-49.59-3.12-8.14-11.11-9.55-18.8-6.44-15.28,5.29-39.7,24.71-65.06,36.99-78.45,40.46-170.1,33.84-214.36-50.4-24.43-46.24-26.47-92.05-26.33-142.69-.06-31.96-.04-67.27-.04-99.74-.32-54.05,3.66-88.33-28.03-125.96-8.28-12.32-21.47-28.49-15.31-41.84,6.98-12.27,23.39-16.92,44.95-21.82,20.46-3.91,41.51-6.14,62.05-10,31.99-3.75,80.14-24.11,106.74.37,20.18,22.36,8.86,67.4,9.7,97.61-.65,41.24-.24,106.83-.34,154.16-.33,56.23-3.14,128.26,60.67,147.93,44.31,12.26,83.82-23.92,90.98-66.01,4.05-19.72,4.1-40.26,4.41-60.62.08-34.71.42-75.72-.25-111-.77-22.25-2.03-45.81-14.01-64.79-8.33-13.26-21.5-23.43-33.39-33.91-18-15.02-38.66-34.96-9.45-50.07,18.59-10.03,42.84-12.74,64.18-14.52,43.56-2.52,83.29-9.09,125.58-12.12,54.02-3.25,55.3,35.59,50.35,77.99-3.23,32.18-3.13,58.98-3.14,104.01-.02,46.88.02,97.21,0,144.43-.37,78.52,1.46,70.96,48.66,117.59,33.87,40.4-68.92,50.53-94.19,58.72-16.42,4.19-32.67,9.05-48.8,14.12-22.6,6.3-50.7,18.54-72.21,7.88l-.47-.28Z"/>
          <path class="cls-1" d="M5909.35,1017.66c-56.13,2.37-112.68-19.7-167.28-20.54-29.75-1.98-80.49,19.28-88.54-22.7,5.62-184.69,1.33-413.37-3.1-620.67-4.14-60.94-85.71-105.98,17.58-131.9,104.21-29.47,174.81-88.34,156.78,72.76-.21,53.4-.77,118.93-.7,173.78-1.33,40.88,9.98,60.01,53.78,46.53,98.57-41.89,221.96-22.15,282.84,71.81,125.82,190.28-22.35,441.88-250.43,430.93h-.92ZM5924.96,958.42c54.2-5.34,73.99-68.59,83.04-114.68,12.49-71.72,9.42-148.51-18.58-216.34-12.11-28.02-32.38-53.79-61.49-63.67-32.84-10.83-88.02-7.38-99.35,29.63-3.46,10.78-4.28,24.76-4.46,41.76-.12,29.65-.03,63.91-.05,94.49,1.48,59.29-6.79,120.37,18.6,170.65,14.67,31.08,45.52,60.48,81.56,58.21l.73-.05Z"/>
          <path class="cls-1" d="M6448.08,1012.42c-114.2.49-203.65-95.17-219.13-204.46-21.74-124.47,45.64-253.38,164.49-298.89,60.68-23.98,135.7-24.32,192.49,9.49,49.93,27.52,94.53,95.15,71.62,150.45-18.16,36.04-57.59,28.68-100.14,30.29-21.25,0-45.55,0-67.65,0-60.32.3-123.99-7.6-111.25,75.99,12.02,67.05,77.58,114.94,144.93,110.73,31.37-.05,64.05-15.08,91.9-25.05,38.88-13.96,46.01,8.39,32.66,38.59-34.71,73.81-119.58,114.29-199.03,112.88h-.88ZM6401.93,643.31c21.45,11.26,58.1,9.86,83.7,7.65,40.23-2.31,69.85-31.51,49.1-72.7-18.75-35.65-67.06-42.82-100.98-25.37-30.49,13.16-72.31,66.16-32.46,90.08l.64.35Z"/>
          <path class="cls-1" d="M6673.7,998.68c-23.33-11.94-.44-32.2,14.77-50.28,31.53-30.71,23.39-71.83,24.64-113.62.02-40.84-.01-84.59,0-125.68-.16-32.73,1.41-67.24-8.88-89.46-8.48-22.77-31.9-50.48-16.88-74.28,21.85-24.93,63.42-29.18,94.03-40.26,30.64-8.99,70.29-26.94,90.99-24.25,16,.89,23.14,16.04,27.41,29.57,10.75,41.18,31.13,26,59.81,10.89,87.79-56.71,221.66-49.1,264.18,58.97,18.5,47.49,16.73,83.14,17.06,140.62-.03,38.97.02,81.45,0,120.91.91,41.19-3.35,65.47,12.5,91.99,8.18,12.69,21.04,24.65,28.63,37.14,25.98,41.9-58.49,34.03-80.82,33.76-36.56-1.56-73.18-1.2-109.73.39-21.87.23-55.38,3.04-70.86-12.81-12.44-19.36,30.25-51.85,33.82-74.25,6.12-20.05,4.91-47.9,5.13-81.55,0-27.41,0-56.81,0-83.86-.31-38.08,1.25-77.62-11.17-105.53-18.7-46.43-72.53-60.92-115.27-38.36-35.48,16.2-39.46,52.68-38.61,87.52.85,61.35-1.97,142.34,1.4,205.09,1.39,13.01,4.8,23.57,10.82,33.18,7.93,15.32,37.86,40.4,26.78,57.91-21.64,21.39-84.02,9.88-117,11.33-24.95-.32-49.94.47-74.88,1.46-22.8,1.22-54.01.71-67.38-6.32l-.49-.24Z"/>
          <path class="cls-1" d="M7452.75,1012.64c-47.05-.31-107.37-7.51-138.23-42.18-24.19-21.72-43.91-117.76-7.87-132.28,26.45-4.51,46.84,31.59,60.84,50.07,73.33,114.4,183.35,47.01,128.19-29.68-25.29-31.85-64.49-47.25-97.68-69.99-22.7-14.95-43.84-32.4-59.65-53.32-47.05-59.87-38.69-153.47,23.34-199.8,54.75-43.81,135.62-53,203.49-37.46,38.1,7.7,65.31,34.2,70.42,74.33,3.67,17.31.53,48.37-12.73,54.05-29.69,12.39-60.14-54.09-83.78-67.2-26.66-20.75-71.62-19.83-90.35,10.68-28.84,54.22,42.82,91.3,83,115.74,24.95,15.24,49,29.96,69.48,49.14,47.95,42.93,59.25,116.88,37.87,176.27-26.95,77.54-109.99,101.71-185.42,101.62h-.93Z"/>
        </g>
      </g>
      <g>
        <g>
          <path class="cls-1" d="M2992.52,2031.93c-267.97,2.53-498.54-194.18-430.73-474.73,55.1-217.62,284.67-325.81,496.73-309.6,22.97,1.48,45.63,4.31,68.28,8.35,34.6,6.92,70.66,13.09,100.53,31.32,29.45,17.46,42.47,52.16,45.4,86.39,3.03,22.37,6.62,97-27.95,82.18-17.21-8.5-34.56-45.09-48.3-64.71-32.05-46.99-84.43-70.94-141.28-77.46-183.44-23.39-291.41,137.89-291.11,305.78-2.8,166.6,63.72,348.74,258.25,344.47,86.94-.55,151.32-33.15,198.85-104.44,15.67-19.95,42.32-55.55,57.97-32.02,15,32.26-3.34,100.26-23.34,129.77-23.94,36.06-65.58,48.68-107.9,58.59-50.65,11.72-102.45,16.41-154.5,16.11h-.91Z"/>
          <path class="cls-1" d="M3468.16,2031.39c-57.26.94-116.82-40.38-120.08-100.22-4.71-57.69,44.67-98.59,92.68-121.09,37.78-20.05,81.64-32.57,116.2-57.37,28.61-21.77,33.13-56.57,32.1-92.73-1.02-27.28-7.89-59.85-33.92-70.79-14.69-6.64-32.87-4.49-45.73,5.38-23.24,18.11-28.34,49.95-49.21,70.49-13.75,13.92-32.87,23-52.82,26.07-21.33,4.33-48.97-4.33-46.43-28.63,2.09-22.2,19.55-41.44,36.34-56.6,68.28-56.7,179.94-115.38,269.49-89.21,52.35,14.42,88.3,60.09,97.08,112.35,5.17,25.52,4.41,54.52,3.71,84.43-.75,30.81-1.8,66.55-2.66,100.29.63,43.33-9.1,89.5,16.04,117.91,9.65,10.26,25.67,15.36,39.03,19.12,10.68,2.84,24.49,7.99,19.26,21.06-3.73,11.48-19.5,28.77-39.13,39.85-22.79,13.4-49.41,20.37-75.8,19.29-30.77.07-58.09-16.54-84.44-29.92-47.81-24.29-76.58,5.42-120.54,21.83-16.18,5.55-33.18,8.52-50.32,8.49h-.86ZM3546.52,1953.14c42.36-3.25,41.86-72.17,41.29-105.48-1.59-15.72-2.57-38.04-20.71-41.54-14.1-1.52-34.83,12.43-46.5,34.61-12.84,24.11-16.1,54.38-7.95,80.42,4.97,16.09,16.61,32.01,33.23,32h.63Z"/>
          <path class="cls-1" d="M4040.33,2038.86c-113.47-.98-170.4-63.37-171-175.16-.96-58.21-.1-130.19-.44-187.67-.49-20.69.39-43.6-10.83-61.09-13.71-23.6-60.1-39.87-42.37-72.51,21.77-31.55,66.41-48.06,96.84-71.94,31.18-18.95,102.8-89.59,125.22-47.23,8.79,17.54,9.47,41.39,15.78,59.66,16.49,49.89,95.46,27.9,134.99,40.61,28.84,6.18,49.62,31.93,19.42,53.32-35.07,23.76-90.05,10.19-127.07,28.86-29.73,15.22-27.88,53.4-28.81,82.6-.15,27.97-.05,61.93-.07,90.39.46,59.11-5.03,141.18,62.43,165.32,20.1,7.29,45.4,5.86,66.44,6.39,67.44-.77,22.45,42.72-11,58.42-39.43,19.64-83.03,30.3-128.57,30.06h-.97Z"/>
        </g>
        <g>
          <path class="cls-1" d="M4334.69,1930.41v-299.63h65.37v299.63h-65.37ZM4380.54,1845.97v-51.3h68.55c21.79,0,38.14-4.46,49.03-13.39,10.89-8.92,16.34-23.68,16.34-44.26,0-18.16-5.07-32.01-15.21-41.54-10.15-9.54-25.81-14.3-46.99-14.3h-71.73v-50.39h73.55c19.36,0,36.84,2.27,52.43,6.81,15.58,4.54,28.9,11.28,39.95,20.2,11.04,8.93,19.45,20.13,25.2,33.59,5.74,13.47,8.62,29.28,8.62,47.44,0,23.31-5.3,42.9-15.89,58.79-10.6,15.89-26.26,27.92-46.99,36.09-20.74,8.17-46.53,12.26-77.41,12.26h-59.47Z"/>
          <path class="cls-1" d="M4627.05,1930.41v-299.63h65.83v299.63h-65.83ZM4672.45,1683.44v-52.66h184.77v52.66h-184.77ZM4672.45,1803.3v-48.58h162.98v48.58h-162.98ZM4672.45,1930.41v-53.12h185.68v53.12h-185.68Z"/>
          <path class="cls-1" d="M4908.97,1930.41v-299.63h65.37v299.63h-65.37ZM4940.29,1930.41v-53.12h87.17c16.95,0,31.02-3.7,42.22-11.12,11.19-7.41,19.67-18.23,25.42-32.46,5.75-14.22,8.62-31.62,8.62-52.21,0-16.95-1.82-31.55-5.45-43.81-3.63-12.26-9.01-22.31-16.11-30.19-7.12-7.87-16.05-13.77-26.78-17.71-10.75-3.93-23.38-5.9-37.91-5.9h-77.18v-53.12h74.91c36.32,0,65.98,5.9,88.98,17.7,23,11.8,39.95,28.68,50.85,50.62,10.9,21.95,16.34,48.2,16.34,78.77,0,23-2.72,42.98-8.17,59.93-5.45,16.95-12.79,31.32-22.02,43.13-9.24,11.8-19.9,21.34-32.01,28.6-12.11,7.26-24.97,12.56-38.59,15.89-13.62,3.33-27.39,4.99-41.31,4.99h-88.98Z"/>
          <path class="cls-1" d="M5225.85,1930.41v-299.63h66.74v299.63h-66.74Z"/>
          <path class="cls-1" d="M5333.89,1930.41l102.6-299.63h95.34l102.6,299.63h-70.82l-75.81-247.88h-6.81l-76.27,247.88h-70.82ZM5391.55,1871.39v-44.49h194.76v44.49h-194.76Z"/>
          <path class="cls-1" d="M5621.27,1685.71v-54.93h242.43v54.93h-242.43ZM5709.8,1930.41v-299.63h65.38v299.63h-65.38Z"/>
          <path class="cls-1" d="M5905.46,1930.41v-299.63h121.67c16.34,0,31.17,1.29,44.49,3.86,13.32,2.58,25.12,6.29,35.41,11.12,10.29,4.84,18.99,10.83,26.1,17.93,7.11,7.11,12.49,15.29,16.12,24.52,3.63,9.23,5.45,19.45,5.45,30.64,0,10.6-1.67,20.2-5,28.83-3.33,8.63-8.33,16.12-14.98,22.47-6.66,6.36-14.98,11.57-24.97,15.66-9.99,4.08-21.64,6.89-34.96,8.4v6.81c15.44,1.52,27.76,5.07,37,10.67,9.23,5.6,16.49,13.1,21.79,22.47,5.29,9.38,9.91,21.04,13.85,34.96l18.16,61.29h-72.18l-14.07-56.75c-2.72-12.1-6.66-21.56-11.8-28.37-5.15-6.81-11.65-11.65-19.52-14.52-7.87-2.87-17.41-4.31-28.6-4.31h-48.58v103.96h-65.37ZM5970.84,1777.42h51.75c20.58,0,36.47-3.93,47.67-11.8,11.19-7.87,16.8-20.12,16.8-36.77s-5.22-28.37-15.66-36.09c-10.44-7.72-26.1-11.58-46.99-11.58h-53.57v96.25Z"/>
          <path class="cls-1" d="M6213.71,1930.41v-299.63h66.74v299.63h-66.74Z"/>
          <path class="cls-1" d="M6321.76,1930.41l102.6-299.63h95.34l102.6,299.63h-70.82l-75.81-247.88h-6.81l-76.27,247.88h-70.82ZM6379.41,1871.39v-44.49h194.76v44.49h-194.76Z"/>
        </g>
      </g>
      <g>
        <path class="cls-1" d="M1145.49,567.9c26.94,106.54,98.87,172.64,197.36,181.37,18.2,1.61,37.13,2.74,56.21,2.74,81.62,0,165.8-20.72,205.82-113.21,24.14-55.81,71.96-194.95-5.31-281.5-23.51-26.33-98.26-80.74-133.33-90-25.97-6.86-90.77-10.92-116.79-8.58-54.48,4.86-119.17,42.85-147.28,86.48-32.61,50.62-74.61,151.71-56.66,222.7ZM1410.3,300.38c.99-.02,2.01-.03,3.04-.03,28.74,0,71.58,7.75,92.42,19.93,56.35,32.95,111.26,108.88,105.61,178.91-2.63,32.7-33.77,128.95-52.22,154.42-43,59.38-145.41,73.93-219.96,57.46-53.6-11.84-81.54-52.88-95.54-85.23-30.08-69.52-25.55-167.68,10.54-228.34,26.77-44.99,97.46-95.94,156.1-97.12ZM1185.27,451.41c21.12-60.51,61.4-108.38,112.07-136.19-47.8,32.5-80.88,83.57-94.28,146.46-16.7,78.4,1.13,163.08,46.57,223.1-34.64-23.22-57.46-56.3-70.77-101.92-14.96-51.27-8.63-88.31,6.43-131.45Z"/>
        <path class="cls-1" d="M926.77,1815.75c0-.36.06-.81.11-1.28.27-2.58.66-6.48-2.23-9.28-1.67-1.62-3.99-2.34-6.47-1.99l-5.21.71.17,5.26c.44,13.91.2,28.31-.03,42.24-.49,29.53-.99,60.06,4.8,89.44.09.46.13,1.09.19,1.8.34,3.77,1.14,12.59,8.81,12.59h.09l4.95-.05,2.89-18.62-.06-.69c-4.11-48.14-6.58-85.2-8.01-120.13Z"/>
        <path class="cls-1" d="M414.47,1590.79l-.31.66c-2.9,7.52-5.91,15.2-8.97,22.99-15.73,40.06-32,81.48-40.36,121.35-.07.27-.21.57-.33.89-.81,2.06-2.33,5.88.26,9.22.82,1.06,2.61,2.69,5.82,2.69.4,0,.84-.03,1.29-.09l3.41-.43,1.27-3.19c10.79-27.05,20.12-55.05,29.15-82.13,10.64-31.92,21.63-64.92,35.02-96.29l-10.49-5.04-15.75,29.36Z"/>
        <path class="cls-1" d="M914.34,335.02c-23.06-.07-39.97,16.06-48.99,46.81-13.87,47.24-13.24,141.39,19.32,181.39,9.94,12.22,19.86,14.93,26.69,14.93.29,0,.57,0,.84-.01,10-.33,19.4-6.29,27.18-17.25,21.42-30.17,29.44-117.34,22.92-154.02-3.3-18.59-19.19-71.7-47.97-71.86ZM921.56,531.92c-5.22,14.62-9.1,15.18-9.15,15.18-2.09-.07-10.13-7.47-19.4-39.56-11.87-41.12-13.04-77.63-3.58-111.64,3.46-12.46,10.4-26.74,17.46-28.68.31-.09.82-.22,1.54-.22,1.58,0,4.16.69,7.8,4.18,7.11,6.81,16.02,44.44,17.05,58.64,1.92,26.64-2.79,77.05-11.72,102.11Z"/>
        <path class="cls-1" d="M1264.36,580.51c18.33,44.68,54.33,80.96,96.32,97.06,16.39,6.28,33.08,9.42,49.71,9.42,20.4,0,40.72-4.72,60.25-14.13,46.49-22.41,82.29-68.11,95.77-122.26,12.4-49.8,3.68-99.91-23.92-137.46-27.21-37.04-103.57-69.38-151.08-64.16-42.52,4.7-82.14,33.04-108.67,77.75-29.71,50.06-36.76,108.98-18.37,153.78ZM1306.96,458.46c18.31-38.54,54.77-79.58,102.32-79.58h.57c26.97.19,60.63,19.35,73.49,41.84,17.77,31.07,30.82,142.86,16.55,175.32-14.89,33.82-54.56,62.48-95.21,51.83-28.67-7.5-78.15-34.14-95.02-54.54-25.76-31.16-26.82-84.11-2.71-134.87Z"/>
        <path class="cls-1" d="M1211.02,1082.12c9.32,1.78,60.15-1.88,62.61.26,10.12,17.47-1.4,56.37,22.32,61.14,14.66,2.94,69.74-5.72,85.54-10.37,38.58-11.34,14.35-39.95,24.77-69,11.68-8.5,45.6-10.02,51.53-23.75,3.94-9.13-5.33-27.14-6.51-37.79-1.5-13.67,5.41-50.77-15.43-50.16-9.01.26-54.82,16.38-56.9,14.31.2-21.49-2.49-43.53-6.42-64.69-4.28-23.08-29.12-10.84-46.16-9.52-20.29,1.56-43.81,1.3-63.73,4.27-4.48.67-8.51,2.17-9.41,7.08-2.37,12.99,7.17,78.42,4.12,81.41-7.5.24-14.01-2.33-21.67-2.23-6.37.09-35.71,2.49-38.9,4.49-2.17,1.35-3.59,3.53-4.49,5.88l11.73,83.32c1.7,3,3.5,4.68,7.02,5.35ZM1262.61,1007.88c6.63,0,15.42,4.73,19.66-.75,4.81-7.22-.1-15.24-.27-22.77-.44-19.58.51-39.26.07-58.83,9.12-.53,18.73.79,27.8-.02,7.58-.68,31.97-8.1,36.19-5.23,1.42.96,7.02,18.05,7.66,21.21,2.23,10.92,1.1,42.91,6.68,48.97,1,1.09,2.71,1.64,4.07,2.28l64.77-11.55c1.14.11,3.29,4.85,3.29,5.15v46.37c-10.32,1.4-19.03,8.04-28.91,11.28-5.61,1.84-21.25,2.81-24.21,5.68-8.98,8.7-2.98,52.04-2.79,65.21l-63.6,10.58c-2.91-2.11-6.99-57.42-18.44-69.18-10.23-10.5-59.01,5.41-74.29,3.19l-6.16-47.32c15.96-1.59,32.34-4.24,48.49-4.26Z"/>
        <path class="cls-1" d="M2294.81,616.43l-.28-2.56-.14-.63c-6.16-27.35-33.75-30.76-50.24-32.8l-3.89-.49c-19.61-2.62-43.19-3.89-59.5-4.49l-6.19-.24c-13.47-.52-33.84-1.3-52.29-1.3s-31.56.79-39.6,2.41c-19.94,4.05-83.06,57.61-93.77,71.61-6.67,8.72-10.86,16.24-14.55,22.9-5.11,9.2-9.16,16.46-19.03,25.66-.28.27-.57.55-.84.83-4.92-2.61-10.65-4.98-16.65-5.24l-1.21-.03c-6.4,0-14.64,2.11-23.23,4.44l-2.18.59c-39.86,10.63-73.81,25-109.87,40.25-8.66,3.66-17.4,7.36-26.33,11.05-27.72,11.44-43.37,13.68-61.03,13.68-7.59,0-15.84-.43-25.39-.93-7.1-.38-14.86-.77-23.53-1.06-1.42-.06-2.91-.09-4.45-.09-4.8,0-10.15.25-15.74.52l.55,11.64-1.42-11.6c-5.56.26-11.2.52-16.29.52-3.5,0-6.34-.13-8.48-.39-2.54-1.83-7.74-6.37-10.14-8.47-3.55-3.08-7.15-6.22-10.78-9.12.11-.09.22-.17.31-.25,0,0,79.32-88.59,93.82-144.63,14.49-56.04,11.09-204.67,0-277.49-3.92-25.71-28.32-72.96-58.24-123.32.95,5.92,1.8,11.8,2.81,17.75l-.06-.08c-1.01-5.96-1.87-11.84-2.82-17.77-6.48-10.9-13.2-21.93-20.05-32.93-57.1-70.28-134.74-122.13-222-147.49-38.46-11.18-77.85-16.84-117.1-16.84-63.53,0-126.55,15.22-182.24,44.02-109.11,56.43-158.28,118.32-210.84,212.78-2.34,4.2-4.16,9.16-6.11,14.41-.97,2.65-2.67,7.27-3.69,9.35-.7.45-1.54.93-2.25,1.35-3.19,1.91-7.16,4.27-10.6,7.74-26.99,27.2-48.35,86.15-54.89,119.31-9.58,48.54-5.13,98.45,12.82,145.22-35.22,13.46-50.65,63.83-59.43,92.47l-.57,1.88c-3.2,10.44-5.51,22.99-7.79,35.38-2.35,12.78-4.77,25.99-7.71,33.4-1.13,2.42-7.4,10.92-10.86,15.61-4.81,6.5-10.25,13.87-13.37,19.37-.72,1.27-1.34,2.53-1.88,3.76l-102.7,1.87c-53.51-25.57-110.53-40.2-165.71-54.36-23.02-5.9-46.81-12-70.18-18.9-2.78-.81-6.02-2.15-9.48-3.57-8.24-3.37-18.5-7.57-29.98-7.57-3.84,0-7.57.48-11.18,1.43-9.36-7-18.8-14.74-28.07-22.35-38.87-31.89-79.08-64.87-134.45-64.87l-2.52.02c-14.46.27-27.35,3.91-38.77,7.15-7.04,1.99-13.69,3.87-19.76,4.68-6.58.87-12.74,1.29-19.07,1.73-22.02,1.5-42.81,2.92-68.11,24.55-21.5,18.41-18.13,51.96-5.89,75.34,7.47,14.27,8.81,17.33,14.34,32.67,1.47,4.1,3.7,7.97,5.67,11.4.7,1.22,1.93,3.36,2.46,4.48-.02.89-.41,2.8-.7,4.24-1.49,7.39-4.98,24.68,14.03,37.69,11.61,7.95,26.54,12.87,41.19,17.69,7.13,2.34,13.87,4.56,19.02,6.82,10.83,4.75,21.89,10.41,33.59,16.4,17.62,9.02,35.83,18.35,54.72,25.2,10.92,3.95,24.34,6.9,37.41,9.78,15.42,3.39,31.37,6.9,41.11,11.63,1.49.72,4.71,3.25,7.07,5.11,3.6,2.82,7.67,6.01,12.1,8.49,43.08,24.08,86.26,49.62,128.32,74.5l3.49,2.07c20.56,12.16,41.13,24.33,61.81,36.38,4.01,2.33,8.36,5,13.08,7.88,14.46,8.85,30.85,18.89,45.29,24.17,16.59,6.05,35.24,8.86,53.27,11.57,14.07,2.12,28.6,4.31,40.91,7.97,7.51,2.23,15.03,5.56,23.02,9.11,3.58,1.59,7.42,3.29,11.41,4.94-6.22,22.07-9.5,44.04-12.69,65.4-1.07,7.19-2.15,14.42-3.34,21.69-1.13,6.86-2.63,13.39-4.14,19.98-3.75,16.31-7.63,33.17-5.27,55.26,4.83,45.38,24.29,74.62,57.93,87.18-11.43,15.49-20.4,33.17-28.55,49.24l-1.42,2.79c-1.49,2.92-4.02,8.94-8.03,18.54-1.75,4.2-4.67,11.18-7.17,16.95-5.7-2.91-18.85-10.33-47.72-29.03-4.36-2.83-9.31-6.75-14.7-11-15.63-12.37-35.07-27.77-57.61-27.77-6.56,0-12.98,1.33-19.56,4.17l-90.18,43.44-2.91,1.99-.64.6c-11.37,10.62-17.5,32.88-24.6,58.67-3.85,13.96-8.21,29.79-12.03,36.56-7.46,13.19-20.56,29.37-33.23,45.02-10.81,13.35-21.99,27.16-30.51,40.08-39.68,60.14-76.22,156.74-99.9,227.19l-.2.6c-6.75,20.07-15.14,45.07,1.45,56.79,3.66,2.58,7.99,3.95,12.53,3.95,9.47,0,18.12-5.84,24.59-10.91,4.49-3.52,10.21-9.2,16.97-15.91,12-11.91,20.74-19.95,26.12-24.01,2.18,10.39,3.86,31.39,4.76,42.62,1.24,15.56,2.41,30.25,4.58,39.72,2.04,8.91,7.45,32.57,27.15,34.66.72.06,1.44.1,2.15.1,19.71,0,30.19-22.5,41.29-46.32,2.35-5.05,4.78-10.28,6.36-12.96,10.3-17.44,16.63-24.88,19.95-28.02,1.43,2.57,3.47,7.17,5.66,15.11,3.81,13.84,4.49,28.12,5.21,43.23.39,8.2.83,17.49,1.88,26.76.78,6.82,2.85,24.92,18.05,30.41,2.49.9,5.1,1.35,7.75,1.35,10.4,0,18.82-6.81,24.98-12.73,17.42-16.72,41.76-102.26,44.46-116.41,5.27-27.63,5.11-55.52,4.96-82.53-.14-26.51-.28-51.9,4.45-75.84,7.32,9.07,15.05,17.72,23.79,25.59,19.07,17.2,83.2,61.78,113.07,67.87,6.15,1.25,13.03,1.6,19.68,1.93,4.48.23,9.12.47,12.71.98,4.7.67,8.9,1.54,13.01,2.4,6.87,1.43,13.97,2.91,22,2.91,9.17,0,18.05-1.87,27.96-5.9l.47-.19,51.78-26.48c-.5,2.21-.99,4.42-1.48,6.63-1.77,7.92-3.6,16.11-5.84,23.73-4.19,14.29-9.1,28.82-13.85,42.87-11.22,33.19-22.82,67.51-27.15,104.2-9.91,83.93-12.59,143.32-7.98,176.5l.24,1.78c1.32,9.65,2.95,21.66,11.13,32l5.25,6.65h16.75l3.8-1.96c10.27-5.34,21.33-18.03,35.37-34.15,6.33-7.26,20.17-23.13,27.08-28.51,3.28,2.2,9.33,7.14,17.78,16.59.71.84,2.08,2.77,3.6,4.86l.4.55c14.41,19.97,24.88,33.06,38.57,33.06,4.1,0,8.1-1.3,11.54-3.74,6.41-4.51,9.14-11,20.41-42.68,1.41-3.95,3.29-9.26,4.97-13.84,3.51,3.72,8.49,9.86,15.09,19.92,1.31,2.01,2.86,4.87,4.43,7.77,5.96,11,13.37,24.69,28.02,24.69.81,0,1.62-.04,2.35-.13,16.84-1.76,22.47-20.88,24.87-29.05,14.49-49.16,17.32-128.71,6.18-173.71-2.28-9.21-8.07-25.02-14.2-41.75-5.58-15.24-15.98-43.62-16.39-49.36v-8.62c3.27,1.81,6.78,3.5,10.56,4.91,8.35,3.11,17.48,5.98,27.76,5.98l1.69-.02c24.32-.87,88.4-18.44,110.39-27.77,8.24-3.49,51.43-28.72,59.04-36.08,8.27-7.99,22.31-30.2,45.34-68.4l1.34-2.21c2.31-3.82,4.27-7.08,5.76-9.49,26.21-42.49,48.13-85.95,69.34-127.99,9.9-19.63,20.14-39.92,30.88-60.24l.39-.72c31.82-60.23,45.49-78.81,51.34-83.79,1.06-.86,5-2.91,7.45-4.19,5.23-2.73,10.63-5.54,15.34-9.23,41.92-32.98,64.37-95.46,84.18-150.62,7.18-19.99,13.97-38.87,21.11-54.8,8.25-18.42,26.45-55.12,30.39-60.01,4.22-4.41,36.92-25.99,46.66-30.78,39.53-19.48,79.8-31.05,122.43-43.3,18.54-5.32,37.7-10.83,56.76-17.04,42.8-13.94,54.12-24.43,72.98-41.91,6.13-5.68,13.08-12.13,22.55-20.01,14.95-12.45,31.63-23.98,47.76-35.14,12.84-8.88,26.12-18.07,38.83-27.89,13.17-10.19,36.63-28.81,45.76-39.06,7.25-8.13,9.09-17.02,8.94-24.96,6.77.9,13.66,1.39,20.11,1.39,16.21,0,28.68-2.95,37.08-8.77,6.58-4.55,13.08-11.98,19.96-19.85,4.2-4.81,12.02-13.75,14.73-15.27,6.55-2.91,15.72-3.3,23.82-3.3,2.97,0,6,.05,9.09.11,3.24.06,6.5.11,9.77.11h0c13.53,0,29.27-.98,43.53-8.2,12.91-6.53,21.78-19.73,30.37-32.49,4.72-7.01,9.6-14.26,13.28-17.49.73-.46,1.67-.8,2.71-1.23,2.8-1.19,6.63-2.82,10.21-5.76,20.34-16.58,9.9-42.87,4.26-57.05-.79-1.98-1.55-3.9-2.19-5.63l16.48-42.86v-13.92ZM1958.6,710.94c1.5-2.17,3.05-4.43,4.65-5.91,11.24-10.47,15.9-18.85,21.29-28.55,3.67-6.61,7.47-13.43,13.61-21.46,10.24-13.37,70.94-64.04,86.84-67.27,3.39-.68,7.78-1.18,12.85-1.52-5.04.34-9.42.83-12.8,1.51-15.9,3.23-76.61,53.9-86.84,67.27-6.15,8.03-9.94,14.86-13.61,21.46-5.39,9.7-10.05,18.08-21.29,28.55-1.6,1.49-3.15,3.74-4.65,5.91-.32.47-.7,1.02-1.09,1.56-.01,0-.02-.01-.03-.02.38-.53.75-1.08,1.07-1.54ZM1779.45,759.14c8.97-3.7,17.74-7.41,26.43-11.09,35.6-15.06,69.21-29.28,108.33-39.72l2.24-.61c6.19-1.69,12.14-3.22,16.78-3.79-4.63.58-10.56,2.11-16.73,3.79l-2.24.61c-39.12,10.44-72.74,24.66-108.33,39.72-8.69,3.68-17.46,7.39-26.43,11.09-22.27,9.19-37.5,12.92-52.73,14.1,15.21-1.19,30.44-4.92,52.68-14.1ZM1498.16,122.07c91.49,72.82,117.43,117.82,153.71,224.96,32.92,97.18,17.27,212.63-41.87,308.82-57.74,93.93-147.28,155.86-245.68,169.91-149.79,21.41-279.07-17.83-384.26-116.57-27.89-26.17-47.91-50.26-54.35-81.26,6.2-.88,12.98-1.54,20.06-2.22,16.06-1.56,32.67-3.18,45.76-7.66,5.12-1.75,7.29-3.47,10.73-6.69,11.32-10.65,38.5-56.41,44.78-70.88,35.33-81.51,16.64-207.51-61.24-254.12l-1.25-.75-61.06-3.12c1.84-9.49,6.63-17.57,12.02-26.69l1.66-2.81c41.26-70.24,141.01-155.44,213.46-182.33,122.62-45.5,249.29-26.77,347.51,51.4ZM992.62,336.01c-5.42-9.81-11.2-17.99-17.5-24.68,9.63,3.9,19.25,13.55,26.64,22.5,58.85,71.27,40.48,183.88-10.28,247.33-9.26,11.58-16.22,14.46-27.62,16.18,12.06-13.58,23.56-28.07,30.29-45.9,22.93-60.7,28.86-160.32-1.53-215.43ZM976.95,391.39c15.11,57.33,4.99,178.57-56.9,204.62-8.17,3.44-16.03,3.49-24.04.15-18.82-7.84-34.77-33.54-43.42-54.98-25.45-63.09-17.8-143.82,19.03-200.9l.43-.65c5.96-9.25,14.98-23.23,25.45-25.39,53.42-11.09,75.54,62.34,79.44,77.16ZM857.19,599.34c4.46,6.96,11.28,13.43,16.28,17.2,4.26,3.21,8.85,5.19,12.91,6.95,6.4,2.77,9.31,4.34,10.33,7.06-29.67,6.93-58.89,17.75-82.73,30.57.47-1.88.93-3.76,1.39-5.62,6.71-27.35,13.07-53.25,41.83-56.17ZM818.29,704.81c20.19-16.69,47.29-24.23,73.5-31.52,5.84-1.62,11.63-3.23,17.3-4.93,3.41,5.7,6.62,11.48,9.74,17.12,8.16,14.72,16.59,29.94,28.83,43.83,24.84,28.17,84.2,64.4,129.63,89.84,37.58,21.05,77.02,41.22,110.92,46.25,58.78,8.73,116.91,10.16,163.66,4.01,47.47-6.24,95.71-32.34,137.19-56.31,14.14-8.17,27.92-18.24,41.23-27.97,6.91-5.05,14.05-10.26,21.04-15.06l1.17-.19,1.3.73c14.47,8.05,22.44,12.48,23.57,28.4.9,12.68-.16,42.22-10.33,110.89-11.85,79.84-43.89,117.35-99.51,176.77-52.3,55.87-87.17,61.46-150.46,71.62-9.58,1.54-19.76,3.17-30.69,5.09-6.75,1.19-16.39,3.44-27.57,6.04-23.32,5.43-55.3,12.92-66.66,11.32-18.2-2.49-87.98-43.76-104.79-57.65-13.98-11.55-35.52-47.9-59.12-99.74-9.68-21.26-18.39-45.63-27.61-71.43-26.8-74.99-57.17-159.99-123.72-195.84-18.46-9.94-43.97-18.41-69.23-18.41-6.41,0-12.81.54-19.07,1.75,6.38-15.34,23.42-29.43,29.68-34.61ZM723.78,767.56c.98-3.1,1.99-6.3,3.81-9.53,2.72-4.8,7.74-11.61,12.6-18.18,4.89-6.63,10.98-14.88,12.26-18.09,3.43-8.65,5.97-22.48,8.43-35.85,2.18-11.86,4.43-24.11,7.45-33.95l.58-1.9c9.35-30.52,26.12-85.25,64.34-87.52-21.44-48.32-27.48-100.42-17.45-151.32,6.08-30.81,26.71-88.15,51.73-113.35,2.41-2.43,5.55-4.3,8.31-5.95,1.89-1.12,4.47-2.66,5.14-3.55,1.78-2.36,3.89-8.07,5.75-13.12,1.78-4.82,3.47-9.37,5.36-12.78,51.45-92.46,99.51-153.01,206.01-208.09,49.77-25.74,104.21-39.96,159.94-42.35-55.72,2.4-110.14,16.62-159.9,42.35-106.5,55.08-154.56,115.63-206.01,208.09-1.89,3.41-3.58,7.96-5.36,12.78-1.86,5.05-3.97,10.76-5.75,13.12-.67.89-3.25,2.43-5.14,3.55-2.76,1.65-5.91,3.52-8.31,5.95-25.01,25.21-45.65,82.54-51.73,113.35-10.04,50.89-4,103,17.45,151.32-38.21,2.28-54.99,57-64.34,87.52l-.58,1.9c-3.02,9.84-5.27,22.09-7.45,33.95-2.46,13.37-5,27.2-8.43,35.85-1.27,3.21-7.36,11.45-12.26,18.09-4.86,6.57-9.88,13.38-12.6,18.18-1.82,3.22-2.83,6.42-3.81,9.53,0,0,0,0,0,0h-.04s0,0,0,0ZM361.81,809.21c1.64-6.36,1.35-20.71-.92-45.17-.96-10.37-2.82-20.73-4.61-30.77-.68-3.81-1.38-7.7-2.02-11.59,20.63,6.22,41.63,11.97,62.02,17.55,42.48,11.63,86.42,23.65,127.82,40.22,25.5,10.21,52.82,31.22,69.88,47.48,2.62,2.5,9.76,11.2,16.06,18.87,15.67,19.11,17.08,20.48,19.69,21.29,7.89,2.45,12.34.23,14.68-2.05,2.37-2.32,4.71-6.77,2.41-14.86-1.14-4-6.8-12.39-19.44-30.56-5.22-7.5-12.3-17.68-16.46-24.32l98.5-1.87,1.33-.18c89.72-22.87,150.55-17.91,196.05,75.15,18.24,37.31,31.31,77.98,43.96,117.31,14.77,45.94,30.03,93.45,53.74,136.53,13.42,24.38,46.49,43.14,70.65,56.83l2.18,1.24c37.55,21.31,59.73,29.01,98.92,34.31,33.7,4.55,67.01-2.38,99.22-9.09,1.59-.33,3.19-.66,4.77-.99-10.92,41.08-26.75,81.43-42.1,120.53-9.55,24.36-19.43,49.54-28.05,74.7-4.72,8.56-33.25,40.48-40.42,45.15-2.53,1.65-4.8,2.5-7.86,2.93-30.9,4.4-117.28-13.66-152.27-25.09-55.1-18.03-136.93-95.99-163.81-121.6-10.38-9.89-44.48-45.32-47.03-51.2-.73-2.44-1.9-11.64-2.27-16.34-2.44-31.38-.98-60.01,1.96-93.34.11-1.29.23-3.72.38-6.86,1.05-23.02,2.66-37.13,4.76-42.03,1.22.21,2.6.47,4.07.74,16.04,2.99,29.88,4.86,36.56-2.45,2.19-2.38,4.38-6.7,2.43-13.74l-.7-2.52-14.62-7.17c19.86-10.87,36.23-20.69,38.36-30.36,1.31-5.96-1.12-9.53-2.69-11.12-4.76-4.86-13.17-4.4-19.39-3.15-12.8,2.55-26.13,8.88-39.03,15.01-11.7,5.56-23.77,11.29-34.94,13.92-19.85-4.48-40.1-8.61-59.7-12.6-35.1-7.16-71.39-14.56-106.33-24.18l-8.48-2.31c-17.64-4.78-44.3-12.01-56.7-17.63-3.85-1.74-7.87-4.93-12.13-8.3-3.95-3.13-8.03-6.36-12.4-8.74-51.65-28.15-111.91-60.77-173.46-91.67-9.66-4.85-19.28-10.44-28.58-15.85-9.27-5.39-18.82-10.94-28.63-15.9,4.62-3.5,10.8-6.44,17.3-9.53,15.18-7.23,32.39-15.41,37.33-34.62ZM752.47,1194.25c-19.76-15.38-36.69-42.48-36.22-57.99.27-9.01,2.9-19.27,5.69-30.12,2.25-8.76,4.56-17.75,5.63-26.39l58.79,13.65-3.5,112.76c-8.77.75-19.4-3.37-30.39-11.92ZM780.55,1239.69c-3.04,7.35-8.11,11.83-15.15,13.37-17.56,3.85-43.23-10.75-54.39-26.37-6.81-9.53-6.29-16.7-4.79-26.83,1.3,2.34,2.7,4.71,4.54,6.91,17.3,20.83,44.76,33.68,69.8,32.92ZM334.74,685.29c-3.4.29-6.84,1.11-10.29,2.67,0,0,0,0-.01,0,3.45-1.56,6.9-2.39,10.3-2.67ZM257.75,703.19c4.3.26,8.6-2.51,11.03-6.84,1.26-2.23,1.88-4.65,1.94-7.03,19.36,14.36,36.87,29.42,44.71,39.61,10.22,13.29,11.59,35.65,9.66,50.77-.56,4.37-7.37,29.83-8.75,32.76-4.03,7.55-35.23,25.45-44.52,25.54h-.25c-22.2,0-84.52-29.28-108.03-40.33l-3.31-1.55c-3.87-1.82-7.42-4.17-11.18-6.66-4.05-2.68-8.23-5.45-12.9-7.53-8.67-3.87-18.07-5.93-27.16-7.91-7.66-1.68-14.9-3.27-21.74-5.84l-2.47-.92c-10.52-3.89-14.91-6.14-15.46-10.99,3.91.77,8.91,1.9,14.37,3.14,31.75,7.19,53.17,11.4,61.49,4.93,3.9-3.04,5.99-8.61,5.08-13.57-.76-4.13-3.53-7.32-7.41-8.52-4.75-1.47-11.54-1.72-18.74-2-4.88-.18-9.92-.38-13.25-.98-8.72-1.58-40.41-8.88-44.28-10.87-3.01-1.99-5.91-11.97-7.83-18.57-.33-1.12-.65-2.23-.97-3.32,4.15,1.69,7.02,2.7,9.4,2.7h74.25l1.59-.22c1.93-.55,3.61-1.56,5-2.86,4.21,8.58,11.44,16.03,22.03,22.65,4.4,2.75,12.11,5.7,19.57,8.55,4.48,1.72,10.46,4,12.64,5.2.71,2.2,1.59,7.76,2.15,11.22.81,5.13,1.59,9.98,2.63,12.92,3.89,10.94,24.49,33.56,39.56,38.31,2.23.7,4.19.98,5.93.98,3.52,0,6.08-1.17,7.78-2.38,4.47-3.19,5.51-6.83,5.58-9.33.21-6.48-5.39-11.03-9.1-14.04-.65-.52-1.21-.96-1.42-1.15-4.82-6.18-7.77-13.99-10.9-22.27-4.69-12.38-9.53-25.18-21.29-32.64-7.15-4.53-15.08-7.6-22.75-10.57-19.37-7.5-33.7-13.05-32.59-36.63,13.45,1.76,53.68,12.03,63.03,15,2.19.69,8.9,3.8,13.81,6.07,10.32,4.77,11.29,5.16,13.07,5.18ZM206.05,650.28c8.55,3.04,20.61,9.57,33.7,17.79-2.79-1.05-4.64-1.72-4.72-1.75-.67-.23-68.24-22.33-84.34-12.19-7.85,4.95-8.85,18.56-7.85,30.16-.76-.27-1.56-.48-2.39-.64-10.07-1.95-21.89-1.42-34.38-.84-32.46,1.49-54.92.69-62.8-21.68,2.22-.72,4.43-1.45,6.66-2.18,18.74-6.15,38.12-12.51,57.83-13.96,23-1.71,81.67-.61,98.3,5.3ZM677.58,1395.96c3.39-8.1,6.31-15.1,7.66-17.75l1.42-2.78c10.58-20.85,22.4-44.16,38.83-61-39.95-7.06-61.89-33.91-67-81.94-2.15-20.16,1.35-35.36,5.05-51.46,1.51-6.57,3.07-13.35,4.27-20.67,1.2-7.33,2.29-14.61,3.37-21.86,3.63-24.33,7.37-49.42,15.48-74.12-7.23-2.49-14.2-5.58-21-8.6-8.33-3.69-16.19-7.18-24.43-9.63-13.05-3.88-28.02-6.14-42.49-8.32-17.47-2.63-35.55-5.35-51.01-10.99-13.37-4.88-29.26-14.62-43.28-23.2-4.65-2.85-9.11-5.58-13.21-7.97-21.82-12.72-43.53-25.57-65.24-38.41-41.91-24.79-85.25-50.43-128.57-74.64-3.62-2.03-7.16-4.8-10.59-7.49-3.23-2.53-6.56-5.15-9.17-6.42-10.98-5.34-27.63-9-43.73-12.54-12.63-2.78-25.69-5.64-35.92-9.35-18.19-6.59-36.07-15.76-53.37-24.62-11.87-6.08-23.08-11.82-34.23-16.7-5.69-2.49-12.72-4.8-20.18-7.25-13.69-4.51-27.85-9.16-38.12-16.19-12.64-8.65-10.65-18.55-9.19-25.77.71-3.5,1.31-6.52.61-9.45-.39-1.61-2.16-4.69-3.71-7.4-1.81-3.15-3.68-6.4-4.8-9.51-5.71-15.84-7.24-19.35-14.98-34.14-10.17-19.42-13.52-46.82,3.14-61.08,22.36-19.12,40.41-20.35,61.32-21.78,6.25-.43,12.71-.87,19.8-1.8,6.92-.91,13.99-2.91,21.46-5.03,11.21-3.17,22.81-6.45,35.76-6.69h0c-12.94.25-24.53,3.52-35.73,6.69-7.48,2.12-14.54,4.12-21.46,5.03-7.08.93-13.55,1.37-19.8,1.8-20.91,1.43-38.97,2.66-61.32,21.78-16.66,14.26-13.31,41.66-3.14,61.08,7.74,14.79,9.27,18.3,14.98,34.14,1.12,3.12,2.99,6.37,4.8,9.51,1.56,2.71,3.33,5.79,3.72,7.4.7,2.93.09,5.95-.61,9.45-1.46,7.22-3.45,17.12,9.19,25.77,10.27,7.03,24.43,11.69,38.12,16.19,7.45,2.45,14.49,4.76,20.18,7.25,11.14,4.88,22.36,10.62,34.23,16.7,17.3,8.86,35.19,18.02,53.37,24.62,10.23,3.7,23.28,6.57,35.92,9.35,16.1,3.54,32.75,7.2,43.73,12.54,2.61,1.27,5.95,3.89,9.17,6.42,3.43,2.69,6.97,5.46,10.59,7.49,43.31,24.21,86.65,49.85,128.57,74.64,21.71,12.84,43.41,25.68,65.24,38.41,4.1,2.39,8.56,5.12,13.21,7.97,14.02,8.59,29.91,18.32,43.28,23.2,15.46,5.64,33.53,8.36,51.01,10.99,14.48,2.18,29.45,4.44,42.49,8.32,8.24,2.45,16.1,5.93,24.43,9.63,6.79,3.02,13.77,6.11,21,8.6-8.1,24.7-11.85,49.79-15.48,74.12-1.08,7.25-2.17,14.53-3.37,21.86-1.2,7.31-2.76,14.1-4.27,20.67-3.7,16.09-7.2,31.3-5.05,51.46,5.11,48.03,27.05,74.88,67,81.94-16.43,16.85-28.25,40.15-38.83,61l-1.42,2.78c-1.35,2.65-4.27,9.64-7.66,17.75-3.48,8.34-9.05,21.64-11.42,26.27-.01,0-.03,0-.04,0,2.38-4.62,7.94-17.92,11.42-26.26ZM237.18,1802.05l-.2.59c-8.03,23.9-10.86,37.92-2.88,43.56,1.72,1.22,3.58,1.76,5.52,1.81-1.95-.04-3.83-.58-5.57-1.81-7.98-5.64-5.15-19.66,2.88-43.56l.2-.59c23.45-69.81,59.6-165.41,98.57-224.49,8.22-12.45,19.22-26.04,29.85-39.18,12.97-16.02,26.38-32.59,34.31-46.61,4.54-8.03,8.9-23.88,13.12-39.22,6.35-23.07,12.35-44.86,21.31-53.24l1.45-1,89.38-43.05c4.48-1.92,8.92-2.85,13.3-3-4.37.15-8.79,1.07-13.25,2.99l-89.38,43.05-1.45,1c-8.97,8.38-14.96,30.17-21.31,53.24-4.22,15.33-8.59,31.19-13.12,39.22-7.93,14.01-21.34,30.58-34.31,46.61-10.63,13.14-21.63,26.73-29.85,39.18-38.98,59.07-75.12,154.68-98.58,224.49ZM345.09,1914.25c-9.96-1.06-14.24-14.27-16.84-25.66-1.98-8.64-3.12-22.93-4.32-38.07-1.57-19.66-3.72-46.6-8.08-53.06-2.05-3.03-2.12-3.01-5.62-2.9,0,0,.01,0,.01,0,3.54-.12,3.59-.14,5.65,2.9,4.36,6.46,6.51,33.4,8.08,53.06,1.21,15.14,2.34,29.42,4.33,38.07,2.61,11.39,6.88,24.6,16.84,25.66.74.07,1.47.06,2.19,0-.73.07-1.47.07-2.23,0ZM448.55,1943.19c-7.4-2.67-9.42-11.99-10.42-20.76-1-8.75-1.42-17.51-1.82-25.99-.75-15.79-1.46-30.7-5.61-45.78-6.09-22.12-12.39-25.25-14.81-25.58-.61-.09-1.24-.06-1.9.06.67-.13,1.32-.15,1.95-.06,2.42.32,8.72,3.46,14.81,25.58,4.15,15.07,4.86,29.99,5.61,45.78.4,8.48.82,17.24,1.82,25.99,1,8.77,3.02,18.09,10.42,20.76,1.85.67,3.71.79,5.54.53-1.84.27-3.72.15-5.58-.53ZM495.19,1624.84c-8.96,21.06-18.24,42.83-21.21,66.26-1.18,9.26-1.27,19.51-1.37,29.43-.08,8.38-.16,17.04-.92,24.64-2.25,22.64-5.82,45.55-9.26,67.71-.17,1.08-.33,2.17-.51,3.25l-1.29-4.93c-3.52-15.74-22.64-30.24-39.65-30.24-.25,0-.48,0-.72,0-1.54.04-3.06.24-4.58.53l51.34-173.51-10.91-4.01-17.67,39.94c-8.13,21.82-13.71,44.61-19.12,66.65-1.66,6.77-3.32,13.54-5.06,20.3l-2.03,51.47c-18.31,5.73-34.91,28.22-48.59,46.76-.5.66-.98,1.33-1.46,1.98-.01-.18-.02-.35-.02-.53-.79-19.23-1.6-39.11-7.47-56.61-4.52-13.47-12.66-23.28-22.9-27.61-3.78-1.59-7.77-2.39-11.87-2.39-5.26,0-10.71,1.31-16.17,3.93-7.36,3.54-13.38,8.83-19.04,14.3.8-1.84,1.59-3.69,2.38-5.53,11.26-26.19,22.91-53.26,36.68-78.67,13.84-25.53,30.44-50.2,46.49-74.06,22.94-34.09,46.58-69.23,63.06-108.06.14.79.27,1.58.41,2.37,1.26,7.37,2.57,14.99,5.09,23.47,11.63,39.23,33.21,73.81,59.56,95.66-1.05,2.5-2.12,5-3.19,7.51ZM509.6,1478.14c-9.17,23.17-11.71,52.5-11.92,76.25-7.9-11.6-20.45-36.06-22-43.14-5.88-26.94-1.84-49.53,12.02-67.13,16.79-21.33,47.86-34.02,85.24-34.81.1,0,.2,0,.3,0,8.11,0,18.15,6.94,27.86,13.66,3.32,2.3,6.56,4.54,9.75,6.54-5.22,1.57-10.53,2.95-16.03,4.4-10.13,2.65-20.62,5.39-31.11,9.49-23.61,9.23-48.5,20.59-54.09,34.75ZM715.8,1755.34c-4.26-.89-8.65-1.8-13.71-2.52-4.08-.57-8.99-.83-13.75-1.08-6.23-.32-12.68-.65-17.97-1.72-25.92-5.28-86.93-46.49-107.58-65.1-14.09-12.69-25.59-27.79-36.6-42.59,0-.01,0-.03.01-.04,11.02,14.82,22.53,29.93,36.63,42.64,20.65,18.61,81.65,59.82,107.58,65.1,5.29,1.07,11.74,1.4,17.97,1.72,4.76.24,9.67.5,13.75,1.08,5.05.72,9.45,1.63,13.71,2.52,8.27,1.72,15.84,3.3,24.87,2.42-9.05.89-16.63-.69-24.91-2.41ZM778.96,1915.88c-9.79,82.93-12.49,141.32-8.01,173.55l.24,1.79c1.18,8.68,2.53,18.52,8.73,26.36l1.75,2.21h8.22,0s-8.26,0-8.26,0l-1.75-2.21c-6.2-7.84-7.55-17.68-8.74-26.36l-.24-1.79c-4.48-32.22-1.79-90.61,8.01-173.55,4.19-35.47,15.59-69.21,26.62-101.83,4.78-14.16,9.74-28.81,13.99-43.32,2.37-8.07,4.26-16.56,6.09-24.76,2.3-10.31,4.65-20.85,8.03-31.15l.05-.03c-3.39,10.3-5.74,20.85-8.04,31.17-1.83,8.2-3.72,16.68-6.09,24.76-4.26,14.5-9.21,29.16-13.99,43.32-11.03,32.62-22.43,66.36-26.62,101.83ZM890.21,2082c-2.01-2.78-3.91-5.42-4.72-6.32-14.57-16.28-23.98-21.77-26.96-21.6,0,0,.02,0,.02,0,2.95-.19,12.38,5.29,26.98,21.61.81.9,2.7,3.53,4.72,6.32,12.37,17.14,22.13,29.53,30.44,28.11-8.32,1.47-18.09-10.94-30.48-28.11ZM936.28,1995.33c-9.3,1.01-16.57,7.02-21.61,17.87-4.96,10.7-8.79,25.13-10.56,39.24-1.74-2.04-3.5-4.2-5.3-6.41-11.37-13.94-24.27-29.73-42.85-30.37-.43-.02-.86-.02-1.3-.02-19.41,0-35.43,15.08-48.1,29.61.26-4.08.42-8.15.59-12.17.28-6.91.56-13.45,1.23-19.8,5.51-51.8,16.62-95.56,28.39-141.88,5.75-22.64,11.7-46.05,17.05-70.82,5.56-25.72,9.5-52.11,12.92-77.48.89,1.33,1.77,2.7,2.67,4.09,2.13,3.31,4.34,6.73,6.83,10.01,1.51,1.99,3.31,3.58,4.9,4.99,2.62,2.32,3.82,3.52,3.98,4.88-15.07,66.22-33.7,148.49-24.1,229.13l4.07,34.19,13.38-60.72.11-.71c1.59-17.05,2.49-36.69,3.45-57.49,2.15-46.48,4.57-99,15.6-135.05,19.22,17.55,39.23,32.68,65.4,35.9-.48,31.82,5.78,62.9,11.83,93.02,4.19,20.81,8.51,42.32,10.5,63.65,2.36,25.32,2.9,51.57,2.99,78.44-13.58-15.37-34.26-34.13-52.08-32.08ZM926.74,1727.39c-13.85-9.64-28.29-22.91-36.55-39.81,6.2-3.43,20.44-9.71,29.59-13.74,4.06-1.79,7.61-3.36,10.63-4.72-4.21,18.22-7.63,38.58-3.68,58.27ZM1004.93,2102.28c-8.32.94-13.5-8.54-18.91-18.52-1.64-3.02-3.33-6.15-4.93-8.59-18.83-28.72-27.41-30.33-28.95-30.36-.12-.01-.24-.02-.38,0,.15-.02.29-.01.42,0,1.53.03,10.11,1.64,28.95,30.36,1.6,2.45,3.29,5.57,4.93,8.59,5.4,9.97,10.58,19.44,18.88,18.52,0,0,0,0-.01,0ZM1046.2,1810.6c-9.2.28-17.71-2.53-24.97-5.23-7.19-2.67-13.35-6.67-19.32-10.54-2.34-1.52-4.62-2.99-6.91-4.36v-.03c2.3,1.38,4.6,2.86,6.95,4.39,5.97,3.87,12.14,7.87,19.32,10.54,7.26,2.7,15.77,5.51,24.96,5.23-.01,0-.03,0-.04,0ZM1271.49,1568.41c-10.3,13.09-23.83,37.2-39.46,65.07-25.47,45.42-57.18,101.94-77.8,112.18-16.02,7.95-36.83,13.65-56.95,19.16-18.96,5.19-38.55,10.56-54.97,17.96-.03,0-.06,0-.08,0-4.71,0-10.62-5.59-15.86-10.56-2.54-2.4-5.16-4.88-7.76-6.86-39.1-29.73-73.2-62.89-58.11-103.9q2.88-7.82,7.68-9.46c1.63-.56,3.61-1.24,6.04-2.2,18.89-7.44,40.81-12.1,62.01-16.6,25.24-5.37,51.34-10.92,73.19-21.26,10.59-5.01,15.97-12.36,14.4-19.67-1.58-7.32-9.5-11.82-21.18-12.03-1.83-.03-3.64-.05-5.44-.05-61.87,0-102.55,19.74-149.45,42.5-12.64,6.13-25.7,12.47-39.85,18.77-6.57,2.92-13.21,5.9-19.9,8.9-43.89,19.69-89.28,40.04-133.72,53.21-26.33,7.81-70.65,18.1-84.79,14.52-44.35-11.29-82.71-54.68-115.18-94.47-19.45-23.83-18.79-66.35-14.82-97.83,4.82-38.15,18.46-54.65,54.07-65.4,19.2-5.79,39.93-9.52,58.18-10.52-6.12,11.02-20.81,32.94-30.35,47.19-13.04,19.46-20.48,30.67-22.06,34.77l-.23.73c-4.84,20.2-.47,46.27,12.62,50.91,9.42,3.36,18.6-4.08,27.24-22.11,11.36-23.69,22.31-48.18,32.88-71.87,21.59-48.35,43.93-98.36,71.17-144.45,9.28-15.7,21.77-30.76,33.85-45.31,7.93-9.55,16.08-19.38,23.4-29.46l55.35,57.3c50.07,49,89.03,81.4,134.48,111.82,21.6,14.45,38.7,24.09,62.2,30.56,37.35,10.29,135.88,14.08,172.84,6.65,35.44-7.12,69.85-21.38,103.12-35.17,2.05-.85,4.1-1.7,6.15-2.55l-62.93,129.5ZM1999.37,849.28l-71.78,47.42-.51.38c-9.28,7.7-19.51,14.77-29.4,21.6-8.32,5.75-16.92,11.69-25.04,18.05-5,3.93-10.45,9.2-16.22,14.78-8.41,8.14-17.12,16.56-23.76,20-8.05,4.17-25.54,8.22-40.97,11.8-10.35,2.4-20.13,4.67-27.28,6.95-50.18,16.01-98.02,38.93-144.3,61.11-4.9,2.34-9.79,4.69-14.69,7.03,1.71-2.22,3.44-4.44,5.01-6.48,15.78-20.32,23.31-30.5,24.23-36.09,1.5-9.1-2.05-13.33-5.29-15.27-13.4-8.02-43.34,14.18-43.63,14.41-20.62,15.81-29.66,42.61-37.64,66.25-2.54,7.53-4.94,14.65-7.61,21.2-38.97,95.63-73.81,168.69-106.53,223.36-34.49,57.63-93.62,92.74-185.47,109.9.67-1.02,1.33-2.04,1.98-3.05,4.24-6.56,8.63-13.34,13.27-19.12,2.56-3.19,6.11-6.42,9.55-9.54,4.14-3.77,8.42-7.68,11.52-11.92,8.27-11.37,23.06-56.96,36.43-100.07l1.55-4.97c7.38-23.69,13.57-48.43,19.55-72.36,1.31-5.23,2.61-10.45,3.93-15.65,8.34-3.97,17.11-6.85,26.35-9.88,8.25-2.71,16.78-5.52,24.96-9.17,13.92-6.2,60.78-28.01,79.41-48.3,4.85-5.29,8.96-11.34,12.93-17.19,3.44-5.06,6.68-9.84,10.28-14.01,9.41-10.9,20.09-21.3,30.42-31.36,29.12-28.35,59.23-57.68,67.6-103.43,3.82-20.87,5.19-42.41,6.51-63.23,2.03-31.89,4.12-64.83,15.17-95.29,35.52-7.02,72.37-5.93,108.03-4.86,13.87.41,28.31.84,42.33.8h1.49s1.31-.72,1.31-.72c41.05-22.65,87.08-36.14,131.59-49.2,12.22-3.58,24.82-7.28,37.21-11.13l39.47,34.44,2.46,5.42c10.04,22.02,20.42,44.77,15.55,67.43ZM2027.66,832.12s0,0,0-.01c10.9,2.78,25.55,4.72,38.75,4.16-13.2.56-27.84-1.36-38.75-4.14ZM2166.57,789.3c-7.04-.13-13.86-.25-20.24.24,6.39-.5,13.23-.38,20.29-.25,6.11.11,12.3.22,18.43-.08-6.14.3-12.35.19-18.48.08ZM2249.74,623.54c-.51.83-.98,1.62-1.33,2.32-2.5,4.99-11.82,21.67-14.02,24.48-7.93,10.12-47.86,13.37-67.15,14.58,3.45-8.88,7.63-21.66,1.76-30.33-3.33-4.93-9.06-7.43-17.01-7.44h-.02c-21.54,0-87.52,26.37-105.61,36.64-6.68,3.79-13.23,11.11-11.81,18.24.57,2.9,2.93,7.94,12.23,9.1l2.22.28,1.84-1.29c9.05-6.33,63.58-27.18,85.97-33.54-12.81,22.86-35.7,44.25-61.95,57.38-1.81.91-4.72,1.84-7.8,2.82-7,2.22-14.24,4.53-17.92,9.2-5.54,7.06-2.49,17.44-.04,25.78.65,2.24,1.28,4.33,1.62,6.08.21,1.09.26,2.75.35,4.67.43,8.76,1.23,25.05,14.56,25.05h.11c15.74-.1,16.22-26.35,16.51-42.03.02-1.27.05-2.71.09-3.89,2.15-.84,5.32-1.99,7.86-2.92,7.41-2.7,12.44-4.57,14.73-5.8,9.51-5.14,17.69-13.14,25.59-20.88,10.23-10,19.89-19.45,30.39-20.73,5.58-.68,11.65-.87,18.07-1.06,6.59-.21,13.4-.42,19.8-1.2,9.17-1.12,18.4-2.85,27.32-4.51,4.6-.86,9.2-1.72,13.79-2.5l1.14,15.65c-9.92,3.71-36.08,7.81-55.78,10.89-40.54,6.35-51.18,8.53-54.39,13.75-2.49,4.06-2.78,8.67-.8,12.65,2.07,4.16,6.28,6.93,11.26,7.41l.76.07,67.4-11.19c-5.45,7.1-14.83,18.75-19.58,20.18-12.05,3.64-28.17,4.98-43.76,6.26-8.2.68-15.94,1.32-22.86,2.28-14.8,2.05-24.69,12.54-34.27,22.68-8.52,9.04-16.57,17.58-27.74,20.42-4.59,1.17-28.72.62-34.74-.84-.49-1.44-1.12-3.84-1.58-5.55-.92-3.45-1.78-6.71-2.82-8.92-3.11-6.57-12.47-20.79-18.66-30.2l-2.54-3.86c-5.13-7.85-10.66-13.59-16.52-19.68-.81-.85-1.64-1.7-2.46-2.57,23.33-36.15,51.12-72.34,94.17-95.58,41.47-22.37,65.96-20.73,106.52-18.03,5.39.36,11.04.74,17.05,1.08,2.72.16,6.79.08,11.94-.03,8.51-.17,33.62-.67,39.21,2.69-.32.62-.79,1.39-1.12,1.92Z"/>
      </g>
    </g>
  </g>
</svg>