<?xml version="1.0" encoding="UTF-8"?>
<svg id="Camada_2" data-name="Camada 2" xmlns="http://www.w3.org/2000/svg" viewBox="0 0 5127.19 1862.2">
  <defs>
    <style>
      .cls-1 {
        fill: #fff;
      }
    </style>
  </defs>
  <g id="Camada_1-2" data-name="Camada 1">
    <g>
      <g>
        <g>
          <path class="cls-1" d="M418.41,806.38c-122.58-.6-244.62-10.33-366.82-5.67-20.24.46-67.91-5.74-45.93-33.68,18.8-20.22,47.7-31.29,59.41-57.12,7.89-15.2,9.56-31.7,9.81-47.88,2.1-120.85.2-353.63.5-478.03-.34-13.15-1.31-28.65-6.14-43.57-5.2-16.54-15.9-30.53-29.89-41.49-11.96-9.96-27.23-17.87-35.73-31.1-15.52-33.02,45.78-29.95,64.81-30.15,114.83,7.93,229.29-3.9,343.95-5.59,151.17-4.03,309.94,64.57,387.86,198.35,77.53,131.1,56.88,309.74-38.49,426.66-81.96,101.08-214.42,150.14-342.47,149.26h-.87ZM399.81,741.83c186.85,4.93,236.64-204.21,218.07-364.89-9.18-130.5-76.98-273.22-222.71-277.68-34.58-2.12-83.48-.53-103.05,30.86-9.54,15.84-9.12,34.27-9.89,52.67-1.72,75.07,1.25,194.63-.04,287.98.01,50.85-.18,90.53.01,132.8.11,17.33.48,37.12,4.13,55.34,9.6,56.13,56.39,83.65,112.52,82.92h.95Z"/>
          <path class="cls-1" d="M903.87,799.73c-19.57-18.74,12.67-39.92,23.58-56.58,19.55-25.51,16.18-60.39,16.81-91.03,0-50.4.01-101.42,0-152.13-.22-25.17.56-51.6-7.35-75.62-5.38-16.9-18.06-34.58-20.86-53-5.12-30.59,29.69-41.34,53.29-49.06,27.11-8.21,53.95-16.46,80.65-25.94,29.5-9.52,59.36-20.99,73.68,4.75,10.5,14.72,4.84,54.39,25.22,57.49,19.99-.58,36.96-22.84,53.21-33.62,24.98-19.09,54.29-33.8,86.13-36.82,38.62-4.86,84.73,14.37,84.98,58.54,1.25,45.79-39.07,88.92-86.16,83.47-22.39-1.58-43.72-10.24-66.06-12.46-81.29-9.63-93.3,65.63-93.99,128.79-.56,31.8-.19,63.14-.26,94.91.4,29.49-1.03,62.58,13,86.22,10.81,19.12,31.73,31.33,45.77,47.4,33.78,47.22-78.89,32.37-100.99,32.71-35.52-1.44-70.55-.81-105.97.66-23.72.11-53.77,4.74-74.17-8.29l-.5-.39Z"/>
          <path class="cls-1" d="M1427.76,837.7c-63.2.2-113.44-64.93-96.63-125.9,30.09-115.67,198.43-95.29,200.84,23.99.89,55.36-47.77,103.5-103.33,101.91h-.88Z"/>
        </g>
        <g>
          <path class="cls-1" d="M2413.59,837.74c-144.15,1.32-216.55-70.39-292.79-182.97-18.86-27.24-36.67-54.95-53.19-83.66-15.99-27.01-29.42-56.52-50.13-80.13-15.84-18.09-43.48-35.97-55.55-9.06-7.04,15.51-6.23,44.11-6.29,76.55.36,39.55-.92,81.04.99,119.95,1.3,31.14,11.16,57.21,38.7,74.32,14.7,11.83,58.35,29.38,52.8,47.9-16.44,24.91-99.7,12.56-129.3,13.93-45.54-1.2-89.48-1.29-134.62.32-30.29-.63-90.89,9.66-112.21-12.07-12.77-17.17,47.27-48.61,57.24-63.67,10.92-11.61,16.62-27.24,18.11-42.3,2.25-129.85,2.18-397.11.04-523.29-3.63-48.28-48.46-63.35-69.91-93.91-11.62-26.6,44.56-26.89,63.74-26.08,58.16,3.92,117.62,6.91,176.28.93,104.76-8.44,230.22-12.78,322.91,40.35,35.74,21.4,64.13,55.51,74.14,96.54,15.27,58.83-1.84,122.93-47.5,163.07-21.36,20.84-55.57,35.98-71.66,53.31-23.02,22.29-6.48,53.31,9.86,76.07,60.64,80.88,132.9,189.87,225.58,233.49,30.18,14.53,66.51,14.93,97.06,26.61,45.25,18.03,23.98,58.39-9.05,74.45-30.85,15.66-67.13,18.93-104.3,19.37h-.94ZM2003.77,410.71c60.02,8.81,103.8-46.28,113.31-103.55,9.49-54.18,4.56-123.39-27.98-164.99-21.81-29.59-67.49-49.71-100.74-28.5-26.39,17.33-27.61,61.38-28.97,92.67-1.19,36.58-.92,72.75-.76,109.13.28,37.08,3.66,85.47,44.43,95.08l.72.16Z"/>
          <path class="cls-1" d="M2859.05,831.85c-16.16-9.1-18.16-36.57-24.22-49.86-3.14-8.18-11.17-9.61-18.91-6.47-15.36,5.31-39.92,24.84-65.42,37.19-78.87,40.68-171.02,34.03-215.52-50.67-24.56-46.49-26.61-92.55-26.47-143.46-.06-32.13-.04-67.63-.04-100.28-.32-54.34,3.68-88.81-28.18-126.64-8.33-12.38-21.59-28.64-15.39-42.07,7.02-12.33,23.52-17.01,45.19-21.94,20.57-3.93,41.73-6.17,62.38-10.06,32.16-3.77,80.57-24.24,107.32.37,20.29,22.48,8.91,67.76,9.75,98.14-.65,41.46-.24,107.41-.34,154.99-.33,56.53-3.15,128.95,61,148.73,44.55,12.32,84.27-24.04,91.48-66.37,4.07-19.82,4.12-40.48,4.43-60.95.09-34.9.43-76.13-.25-111.6-.77-22.37-2.04-46.06-14.09-65.14-8.38-13.33-21.61-23.55-33.57-34.09-18.1-15.1-38.87-35.15-9.5-50.34,18.69-10.09,43.07-12.81,64.52-14.6,43.79-2.54,83.74-9.14,126.26-12.18,54.31-3.27,55.6,35.78,50.62,78.41-3.24,32.36-3.15,59.3-3.16,104.57-.02,47.13.02,97.73,0,145.21-.37,78.95,1.47,71.34,48.93,118.23,34.05,40.62-69.3,50.8-94.69,59.04-16.51,4.21-32.85,9.1-49.06,14.2-22.72,6.34-50.97,18.64-72.6,7.92l-.48-.28Z"/>
          <path class="cls-1" d="M3377.68,835.47c-56.44,2.38-113.29-19.81-168.18-20.65-29.91-1.99-80.93,19.39-89.02-22.82,5.65-185.68,1.33-415.6-3.12-624.02-4.16-61.27-86.17-106.55,17.68-132.61,104.77-29.63,175.75-88.82,157.63,73.15-.21,53.69-.77,119.57-.71,174.72-1.34,41.1,10.03,60.33,54.07,46.78,99.1-42.11,223.16-22.27,284.37,72.2,126.5,191.31-22.47,444.27-251.79,433.26h-.93ZM3393.38,775.92c54.49-5.37,74.39-68.96,83.49-115.3,12.56-72.1,9.47-149.31-18.68-217.51-12.17-28.17-32.55-54.08-61.82-64.02-33.02-10.89-88.5-7.42-99.89,29.79-3.48,10.84-4.3,24.89-4.48,41.98-.12,29.81-.03,64.26-.05,95,1.48,59.61-6.83,121.02,18.7,171.57,14.75,31.25,45.76,60.81,82,58.52l.74-.05Z"/>
          <path class="cls-1" d="M3919.33,830.21c-114.81.5-204.76-95.69-220.32-205.57-21.86-125.15,45.89-254.75,165.38-300.51,61.01-24.11,136.43-24.46,193.53,9.54,50.2,27.67,95.04,95.66,72,151.26-18.25,36.23-57.9,28.84-100.68,30.45-21.37,0-45.8,0-68.02,0-60.64.3-124.66-7.64-111.85,76.4,12.09,67.41,78,115.56,145.71,111.33,31.54-.05,64.4-15.16,92.4-25.18,39.09-14.04,46.26,8.44,32.84,38.8-34.9,74.21-120.23,114.91-200.11,113.49h-.89ZM3872.93,459.1c21.56,11.32,58.41,9.92,84.16,7.69,40.45-2.33,70.23-31.68,49.37-73.09-18.85-35.84-67.42-43.06-101.53-25.51-30.65,13.23-72.7,66.52-32.64,90.56l.64.35Z"/>
          <path class="cls-1" d="M4146.17,816.39c-23.46-12-.44-32.37,14.85-50.56,31.7-30.88,23.51-72.22,24.77-114.23.02-41.06-.01-85.05,0-126.36-.16-32.91,1.42-67.6-8.92-89.95-8.52-22.89-32.07-50.75-16.97-74.68,21.96-25.06,63.76-29.33,94.54-40.48,30.81-9.04,70.67-27.09,91.48-24.38,16.08.89,23.26,16.13,27.56,29.73,10.8,41.41,31.3,26.14,60.14,10.95,88.26-57.01,222.85-49.37,265.61,59.29,18.6,47.75,16.82,83.59,17.15,141.38-.03,39.18.03,81.89,0,121.57.91,41.42-3.36,65.82,12.57,92.48,8.23,12.75,21.16,24.79,28.78,37.34,26.12,42.13-58.81,34.22-81.26,33.95-36.76-1.57-73.57-1.21-110.33.39-21.99.23-55.68,3.06-71.24-12.88-12.51-19.46,30.41-52.13,34-74.65,6.16-20.16,4.94-48.16,5.16-81.99,0-27.56,0-57.12,0-84.31-.31-38.29,1.26-78.04-11.23-106.1-18.8-46.68-72.92-61.25-115.89-38.57-35.68,16.29-39.68,52.96-38.82,88,.86,61.68-1.98,143.11,1.4,206.2,1.4,13.08,4.82,23.69,10.88,33.35,7.97,15.4,38.07,40.62,26.92,58.23-21.76,21.51-84.47,9.93-117.63,11.39-25.08-.32-50.21.47-75.28,1.47-22.93,1.22-54.31.71-67.75-6.35l-.5-.24Z"/>
          <path class="cls-1" d="M4929.42,830.43c-47.3-.31-107.95-7.55-138.97-42.41-24.32-21.84-44.14-118.4-7.91-132.99,26.59-4.54,47.09,31.76,61.17,50.34,73.73,115.02,184.34,47.26,128.89-29.84-25.43-32.02-64.84-47.5-98.21-70.37-22.82-15.03-44.08-32.58-59.97-53.61-47.3-60.2-38.9-154.3,23.47-200.88,55.05-44.05,136.36-53.29,204.59-37.66,38.31,7.74,65.66,34.38,70.8,74.73,3.69,17.4.53,48.63-12.8,54.34-29.85,12.46-60.46-54.39-84.23-67.57-26.8-20.86-72-19.94-90.84,10.73-29,54.52,43.05,91.8,83.45,116.36,25.08,15.32,49.26,30.12,69.85,49.41,48.21,43.17,59.57,117.51,38.07,177.22-27.1,77.96-110.58,102.26-186.42,102.17h-.94Z"/>
        </g>
      </g>
      <g>
        <g>
          <path class="cls-1" d="M445.1,1855.23c-269.42,2.54-501.24-195.23-433.06-477.29,55.4-218.8,286.21-327.57,499.42-311.28,23.09,1.49,45.88,4.33,68.65,8.4,34.79,6.95,71.04,13.16,101.08,31.49,29.61,17.56,42.7,52.44,45.65,86.86,3.05,22.49,6.65,97.53-28.1,82.62-17.3-8.55-34.74-45.33-48.56-65.06-32.23-47.24-84.89-71.32-142.05-77.87-184.43-23.51-292.99,138.63-292.69,307.43-2.81,167.5,64.06,350.63,259.65,346.33,87.41-.55,152.13-33.33,199.92-105.01,15.76-20.06,42.55-55.85,58.28-32.19,15.08,32.44-3.36,100.81-23.47,130.47-24.07,36.26-65.94,48.94-108.48,58.91-50.92,11.78-103,16.5-155.33,16.2h-.91Z"/>
          <path class="cls-1" d="M923.31,1854.69c-57.57.94-117.46-40.6-120.73-100.76-4.74-58.01,44.91-99.12,93.18-121.74,37.98-20.16,82.09-32.74,116.83-57.68,28.77-21.88,33.31-56.88,32.28-93.23-1.02-27.43-7.93-60.17-34.1-71.17-14.77-6.67-33.05-4.51-45.98,5.41-23.36,18.21-28.49,50.22-49.48,70.87-13.82,14-33.05,23.12-53.1,26.21-21.45,4.35-49.24-4.36-46.68-28.78,2.1-22.32,19.65-41.67,36.54-56.91,68.65-57.01,180.92-116,270.95-89.7,52.63,14.5,88.78,60.41,97.61,112.96,5.2,25.65,4.43,54.82,3.73,84.88-.76,30.97-1.81,66.91-2.67,100.83.63,43.56-9.15,89.98,16.13,118.55,9.7,10.32,25.81,15.45,39.24,19.22,10.74,2.85,24.62,8.03,19.36,21.18-3.75,11.54-19.61,28.92-39.34,40.06-22.91,13.47-49.67,20.48-76.21,19.4-30.93.07-58.4-16.63-84.9-30.08-48.07-24.42-76.99,5.45-121.2,21.95-16.26,5.58-33.35,8.57-50.59,8.53h-.87ZM1002.09,1776.01c42.59-3.26,42.08-72.56,41.51-106.05-1.6-15.81-2.59-38.24-20.82-41.76-14.18-1.53-35.02,12.49-46.75,34.79-12.91,24.24-16.19,54.68-8,80.85,4.99,16.18,16.7,32.18,33.41,32.17h.63Z"/>
          <path class="cls-1" d="M1498.56,1862.19c-114.08-.99-171.32-63.71-171.92-176.11-.97-58.53-.1-130.89-.44-188.68-.5-20.8.39-43.83-10.89-61.42-13.78-23.73-60.42-40.09-42.6-72.91,21.89-31.72,66.77-48.32,97.36-72.33,31.35-19.05,103.35-90.08,125.9-47.49,8.83,17.64,9.52,41.61,15.87,59.98,16.57,50.16,95.98,28.06,135.72,40.83,29,6.21,49.89,32.1,19.53,53.6-35.26,23.89-90.54,10.25-127.75,29.02-29.89,15.3-28.03,53.69-28.97,83.04-.15,28.12-.05,62.26-.07,90.87.47,59.43-5.06,141.94,62.77,166.21,20.21,7.33,45.64,5.89,66.8,6.43,67.8-.78,22.57,42.95-11.05,58.74-39.64,19.74-83.48,30.46-129.27,30.22h-.97Z"/>
        </g>
        <g>
          <path class="cls-1" d="M1794.52,1753.16v-301.25h65.73v301.25h-65.73ZM1840.62,1668.26v-51.58h68.92c21.91,0,38.34-4.49,49.3-13.46,10.95-8.97,16.43-23.8,16.43-44.5,0-18.26-5.1-32.18-15.29-41.76-10.2-9.59-25.95-14.38-47.24-14.38h-72.12v-50.66h73.94c19.47,0,37.04,2.28,52.72,6.85,15.67,4.56,29.05,11.34,40.16,20.31,11.1,8.98,19.55,20.24,25.33,33.77,5.77,13.54,8.67,29.44,8.67,47.7,0,23.43-5.33,43.13-15.97,59.11-10.66,15.97-26.4,28.07-47.24,36.29-20.85,8.22-46.79,12.32-77.82,12.32h-59.79Z"/>
          <path class="cls-1" d="M2088.46,1753.16v-301.25h66.18v301.25h-66.18ZM2134.1,1504.85v-52.95h185.77v52.95h-185.77ZM2134.1,1625.36v-48.84h163.86v48.84h-163.86ZM2134.1,1753.16v-53.4h186.68v53.4h-186.68Z"/>
          <path class="cls-1" d="M2371.9,1753.16v-301.25h65.73v301.25h-65.73ZM2403.39,1753.16v-53.4h87.64c17.04,0,31.19-3.72,42.45-11.18,11.25-7.45,19.78-18.33,25.56-32.63,5.78-14.3,8.67-31.79,8.67-52.49,0-17.04-1.83-31.72-5.48-44.05-3.65-12.32-9.06-22.43-16.2-30.35-7.15-7.91-16.13-13.85-26.93-17.8-10.81-3.95-23.51-5.93-38.11-5.93h-77.59v-53.4h75.31c36.51,0,66.33,5.94,89.46,17.8,23.12,11.87,40.16,28.83,51.12,50.89,10.95,22.07,16.43,48.46,16.43,79.19,0,23.13-2.74,43.21-8.22,60.25-5.48,17.05-12.86,31.49-22.14,43.36-9.29,11.87-20.01,21.45-32.18,28.76-12.17,7.3-25.1,12.63-38.8,15.98-13.69,3.35-27.54,5.02-41.54,5.02h-89.46Z"/>
          <path class="cls-1" d="M2690.49,1753.16v-301.25h67.1v301.25h-67.1Z"/>
          <path class="cls-1" d="M2799.12,1753.16l103.15-301.25h95.85l103.15,301.25h-71.2l-76.22-249.22h-6.85l-76.68,249.22h-71.2ZM2857.09,1693.82v-44.73h195.81v44.73h-195.81Z"/>
          <path class="cls-1" d="M3088.05,1507.14v-55.23h243.74v55.23h-243.74ZM3177.05,1753.16v-301.25h65.73v301.25h-65.73Z"/>
          <path class="cls-1" d="M3373.78,1753.16v-301.25h122.32c16.43,0,31.34,1.3,44.73,3.88,13.39,2.59,25.26,6.32,35.6,11.18,10.34,4.87,19.09,10.89,26.24,18.03,7.15,7.15,12.55,15.37,16.21,24.65,3.65,9.28,5.48,19.55,5.48,30.81,0,10.66-1.68,20.31-5.02,28.98-3.35,8.67-8.37,16.21-15.06,22.6-6.7,6.39-15.06,11.64-25.1,15.75-10.04,4.11-21.76,6.92-35.15,8.44v6.85c15.52,1.53,27.91,5.1,37.2,10.73,9.28,5.63,16.58,13.17,21.91,22.59,5.32,9.44,9.96,21.16,13.92,35.15l18.26,61.62h-72.57l-14.15-57.06c-2.74-12.16-6.7-21.68-11.87-28.53-5.18-6.85-11.72-11.71-19.63-14.6-7.92-2.89-17.5-4.34-28.76-4.34h-48.84v104.52h-65.73ZM3439.51,1599.34h52.03c20.69,0,36.66-3.95,47.93-11.87,11.25-7.91,16.89-20.23,16.89-36.97s-5.25-28.53-15.75-36.29c-10.5-7.76-26.24-11.64-47.24-11.64h-53.86v96.77Z"/>
          <path class="cls-1" d="M3683.69,1753.16v-301.25h67.1v301.25h-67.1Z"/>
          <path class="cls-1" d="M3792.32,1753.16l103.15-301.25h95.85l103.15,301.25h-71.2l-76.22-249.22h-6.85l-76.68,249.22h-71.2ZM3850.29,1693.82v-44.73h195.81v44.73h-195.81Z"/>
        </g>
      </g>
    </g>
  </g>
</svg>