<?xml version="1.0" encoding="UTF-8"?>
<svg id="Camada_2" data-name="Camada 2" xmlns="http://www.w3.org/2000/svg" viewBox="0 0 5099.63 1852.19">
  <defs>
    <style>
      .cls-1 {
        fill: #3c608a;
      }
    </style>
  </defs>
  <g id="Camada_1-2" data-name="Camada 1">
    <g>
      <g>
        <g>
          <path class="cls-1" d="M416.17,802.05c-121.92-.6-243.3-10.28-364.85-5.63-20.13.46-67.55-5.71-45.68-33.49,18.7-20.11,47.44-31.12,59.09-56.81,7.85-15.12,9.51-31.53,9.76-47.62,2.09-120.2.2-351.73.49-475.46-.34-13.08-1.3-28.49-6.11-43.34-5.17-16.45-15.82-30.37-29.73-41.27-11.9-9.91-27.09-17.77-35.54-30.93-15.44-32.85,45.54-29.79,64.46-29.99,114.21,7.89,228.06-3.87,342.1-5.56,150.36-4.01,308.27,64.22,385.78,197.28,77.11,130.4,56.57,308.07-38.28,424.37-81.52,100.54-213.27,149.33-340.63,148.46h-.86ZM397.66,737.84c185.85,4.91,235.37-203.12,216.89-362.93-9.13-129.8-76.57-271.75-221.51-276.18-34.4-2.11-83.03-.52-102.49,30.69-9.49,15.75-9.07,34.09-9.84,52.38-1.71,74.67,1.24,193.58-.04,286.43.01,50.58-.18,90.05.01,132.09.11,17.23.48,36.92,4.11,55.04,9.54,55.83,56.09,83.2,111.92,82.47h.95Z"/>
          <path class="cls-1" d="M899.01,795.43c-19.47-18.64,12.6-39.7,23.46-56.28,19.44-25.37,16.09-60.07,16.72-90.54,0-50.13.01-100.88,0-151.32-.22-25.04.56-51.32-7.31-75.22-5.35-16.81-17.96-34.4-20.75-52.71-5.09-30.42,29.53-41.12,53-48.79,26.96-8.17,53.66-16.37,80.22-25.8,29.34-9.46,59.04-20.88,73.28,4.72,10.44,14.64,4.82,54.1,25.08,57.19,19.89-.58,36.76-22.71,52.92-33.44,24.84-18.99,54-33.62,85.67-36.62,38.42-4.83,84.28,14.29,84.52,58.23,1.24,45.55-38.86,88.44-85.7,83.02-22.27-1.57-43.48-10.19-65.71-12.39-80.86-9.58-92.8,65.28-93.48,128.1-.56,31.63-.19,62.8-.26,94.4.4,29.33-1.02,62.24,12.93,85.75,10.76,19.01,31.56,31.16,45.52,47.15,33.6,46.96-78.46,32.2-100.45,32.54-35.33-1.44-70.17-.8-105.4.66-23.59.11-53.48,4.71-73.77-8.25l-.49-.39Z"/>
          <path class="cls-1" d="M1420.09,833.2c-62.86.2-112.83-64.58-96.11-125.22,29.93-115.05,197.36-94.78,199.76,23.87.89,55.07-47.51,102.95-102.77,101.37h-.88Z"/>
        </g>
        <g>
          <path class="cls-1" d="M2400.61,833.23c-143.37,1.31-215.39-70.02-291.21-181.99-18.76-27.09-36.47-54.66-52.9-83.21-15.91-26.87-29.26-56.22-49.86-79.7-15.75-17.99-43.25-35.78-55.25-9.02-7,15.42-6.2,43.88-6.26,76.14.36,39.34-.92,80.61.98,119.3,1.3,30.97,11.1,56.9,38.49,73.92,14.63,11.77,58.03,29.22,52.51,47.64-16.36,24.77-99.16,12.5-128.61,13.85-45.29-1.19-89-1.28-133.89.32-30.13-.63-90.41,9.6-111.61-12-12.7-17.08,47.01-48.34,56.93-63.33,10.86-11.54,16.53-27.09,18.01-42.07,2.24-129.15,2.17-394.98.04-520.48-3.61-48.02-48.2-63.01-69.54-93.4-11.56-26.45,44.32-26.75,63.4-25.94,57.85,3.9,116.99,6.87,175.33.93,104.19-8.4,228.98-12.71,321.18,40.13,35.55,21.29,63.79,55.21,73.74,96.02,15.19,58.51-1.83,122.27-47.24,162.2-21.25,20.72-55.27,35.78-71.28,53.03-22.89,22.17-6.45,53.02,9.81,75.66,60.31,80.45,132.18,188.85,224.36,232.23,30.01,14.45,66.15,14.85,96.54,26.47,45.01,17.93,23.85,58.07-9,74.05-30.68,15.57-66.77,18.83-103.74,19.26h-.93ZM1993,408.5c59.7,8.76,103.24-46.03,112.7-103,9.44-53.89,4.54-122.73-27.83-164.1-21.69-29.43-67.13-49.44-100.2-28.35-26.25,17.23-27.47,61.05-28.81,92.17-1.19,36.39-.92,72.35-.76,108.54.28,36.89,3.64,85.01,44.19,94.57l.71.16Z"/>
          <path class="cls-1" d="M2843.69,827.38c-16.07-9.05-18.07-36.38-24.09-49.59-3.12-8.14-11.11-9.55-18.8-6.44-15.28,5.29-39.7,24.71-65.06,36.99-78.45,40.46-170.1,33.84-214.36-50.4-24.43-46.24-26.47-92.05-26.33-142.69-.06-31.96-.04-67.27-.04-99.74-.32-54.05,3.66-88.33-28.03-125.96-8.28-12.32-21.47-28.49-15.31-41.84,6.98-12.27,23.39-16.92,44.95-21.82,20.46-3.91,41.51-6.14,62.05-10,31.99-3.75,80.14-24.11,106.74.37,20.18,22.36,8.86,67.4,9.7,97.61-.65,41.24-.24,106.83-.34,154.16-.33,56.23-3.14,128.26,60.67,147.93,44.31,12.26,83.82-23.92,90.98-66.01,4.05-19.72,4.1-40.26,4.41-60.62.08-34.71.42-75.72-.25-111-.77-22.25-2.03-45.81-14.01-64.79-8.33-13.26-21.5-23.43-33.39-33.91-18-15.02-38.66-34.96-9.45-50.07,18.59-10.03,42.84-12.74,64.18-14.52,43.56-2.52,83.29-9.09,125.58-12.12,54.02-3.25,55.3,35.59,50.35,77.99-3.23,32.18-3.13,58.98-3.14,104.01-.02,46.88.02,97.21,0,144.43-.37,78.52,1.46,70.96,48.66,117.59,33.87,40.4-68.92,50.53-94.19,58.72-16.42,4.19-32.67,9.05-48.8,14.12-22.6,6.3-50.7,18.54-72.21,7.88l-.47-.28Z"/>
          <path class="cls-1" d="M3359.53,830.98c-56.13,2.37-112.68-19.7-167.28-20.54-29.75-1.98-80.49,19.28-88.54-22.7,5.62-184.69,1.33-413.37-3.1-620.67-4.14-60.94-85.71-105.98,17.58-131.9,104.21-29.47,174.81-88.34,156.78,72.76-.21,53.4-.77,118.93-.7,173.78-1.33,40.88,9.98,60.01,53.78,46.53,98.57-41.89,221.96-22.15,282.84,71.81,125.82,190.28-22.35,441.88-250.43,430.93h-.92ZM3375.15,771.75c54.2-5.34,73.99-68.59,83.04-114.68,12.49-71.72,9.42-148.51-18.58-216.34-12.11-28.02-32.38-53.79-61.49-63.67-32.84-10.83-88.02-7.38-99.35,29.63-3.46,10.78-4.28,24.76-4.46,41.76-.12,29.65-.03,63.91-.05,94.49,1.48,59.29-6.79,120.37,18.6,170.65,14.67,31.08,45.52,60.48,81.56,58.21l.73-.05Z"/>
          <path class="cls-1" d="M3898.26,825.74c-114.2.49-203.65-95.17-219.13-204.46-21.74-124.47,45.64-253.38,164.49-298.89,60.68-23.98,135.7-24.32,192.49,9.49,49.93,27.52,94.53,95.15,71.62,150.45-18.16,36.04-57.59,28.68-100.14,30.29-21.25,0-45.55,0-67.65,0-60.32.3-123.99-7.6-111.25,75.99,12.02,67.05,77.58,114.94,144.93,110.73,31.37-.05,64.05-15.08,91.9-25.05,38.88-13.96,46.01,8.39,32.66,38.59-34.71,73.81-119.58,114.29-199.03,112.88h-.88ZM3852.11,456.63c21.45,11.26,58.1,9.86,83.7,7.65,40.23-2.31,69.85-31.51,49.1-72.7-18.75-35.65-67.06-42.82-100.98-25.37-30.49,13.16-72.31,66.16-32.46,90.08l.64.35Z"/>
          <path class="cls-1" d="M4123.88,812c-23.33-11.94-.44-32.2,14.77-50.28,31.53-30.71,23.39-71.83,24.64-113.62.02-40.84-.01-84.59,0-125.68-.16-32.73,1.41-67.24-8.88-89.46-8.48-22.77-31.9-50.48-16.88-74.28,21.85-24.93,63.42-29.18,94.03-40.26,30.64-8.99,70.29-26.94,90.99-24.25,16,.89,23.14,16.04,27.41,29.57,10.75,41.18,31.13,26,59.81,10.89,87.79-56.71,221.66-49.1,264.18,58.97,18.5,47.49,16.73,83.14,17.06,140.62-.03,38.97.02,81.45,0,120.91.91,41.19-3.35,65.47,12.5,91.99,8.18,12.69,21.04,24.65,28.63,37.14,25.98,41.9-58.49,34.03-80.82,33.76-36.56-1.56-73.18-1.2-109.73.39-21.87.23-55.38,3.04-70.86-12.81-12.44-19.36,30.25-51.85,33.82-74.25,6.12-20.05,4.91-47.9,5.13-81.55,0-27.41,0-56.81,0-83.86-.31-38.08,1.25-77.62-11.17-105.53-18.7-46.43-72.53-60.92-115.27-38.36-35.48,16.2-39.46,52.68-38.61,87.52.85,61.35-1.97,142.34,1.4,205.09,1.39,13.01,4.8,23.57,10.82,33.18,7.93,15.32,37.86,40.4,26.78,57.91-21.64,21.39-84.02,9.88-117,11.33-24.95-.32-49.94.47-74.88,1.46-22.8,1.22-54.01.71-67.38-6.32l-.49-.24Z"/>
          <path class="cls-1" d="M4902.93,825.96c-47.05-.31-107.37-7.51-138.23-42.18-24.19-21.72-43.91-117.76-7.87-132.28,26.45-4.51,46.84,31.59,60.84,50.07,73.33,114.4,183.35,47.01,128.19-29.68-25.29-31.85-64.49-47.25-97.68-69.99-22.7-14.95-43.84-32.4-59.65-53.32-47.05-59.87-38.69-153.47,23.34-199.8,54.75-43.81,135.62-53,203.49-37.46,38.1,7.7,65.31,34.2,70.42,74.33,3.67,17.31.53,48.37-12.73,54.05-29.69,12.39-60.14-54.09-83.78-67.2-26.66-20.75-71.62-19.83-90.35,10.68-28.84,54.22,42.82,91.3,83,115.74,24.95,15.24,49,29.96,69.48,49.14,47.95,42.93,59.25,116.88,37.87,176.27-26.95,77.54-109.99,101.71-185.42,101.62h-.93Z"/>
        </g>
      </g>
      <g>
        <g>
          <path class="cls-1" d="M442.7,1845.26c-267.97,2.53-498.54-194.18-430.73-474.73,55.1-217.62,284.67-325.81,496.73-309.6,22.97,1.48,45.63,4.31,68.28,8.35,34.6,6.92,70.66,13.09,100.53,31.32,29.45,17.46,42.47,52.16,45.4,86.39,3.03,22.37,6.62,97-27.95,82.18-17.21-8.5-34.56-45.09-48.3-64.71-32.05-46.99-84.43-70.94-141.28-77.46-183.44-23.39-291.41,137.89-291.11,305.78-2.8,166.6,63.72,348.74,258.25,344.47,86.94-.55,151.32-33.15,198.85-104.44,15.67-19.95,42.32-55.55,57.97-32.02,15,32.26-3.34,100.26-23.34,129.77-23.94,36.06-65.58,48.68-107.9,58.59-50.65,11.72-102.45,16.41-154.5,16.11h-.91Z"/>
          <path class="cls-1" d="M918.34,1844.72c-57.26.94-116.82-40.38-120.08-100.22-4.71-57.69,44.67-98.59,92.68-121.09,37.78-20.05,81.64-32.57,116.2-57.37,28.61-21.77,33.13-56.57,32.1-92.73-1.02-27.28-7.89-59.85-33.92-70.79-14.69-6.64-32.87-4.49-45.73,5.38-23.24,18.11-28.34,49.95-49.21,70.49-13.75,13.92-32.87,23-52.82,26.07-21.33,4.33-48.97-4.33-46.43-28.63,2.09-22.2,19.55-41.44,36.34-56.6,68.28-56.7,179.94-115.38,269.49-89.21,52.35,14.42,88.3,60.09,97.08,112.35,5.17,25.52,4.41,54.52,3.71,84.43-.75,30.81-1.8,66.55-2.66,100.29.63,43.33-9.1,89.5,16.04,117.91,9.65,10.26,25.67,15.36,39.03,19.12,10.68,2.84,24.49,7.99,19.26,21.06-3.73,11.48-19.5,28.77-39.13,39.85-22.79,13.4-49.41,20.37-75.8,19.29-30.77.07-58.09-16.54-84.44-29.92-47.81-24.29-76.58,5.42-120.54,21.83-16.18,5.55-33.18,8.52-50.32,8.49h-.86ZM996.7,1766.47c42.36-3.25,41.86-72.17,41.29-105.48-1.59-15.72-2.57-38.04-20.71-41.54-14.1-1.52-34.83,12.43-46.5,34.61-12.84,24.11-16.1,54.38-7.95,80.42,4.97,16.09,16.61,32.01,33.23,32h.63Z"/>
          <path class="cls-1" d="M1490.51,1852.18c-113.47-.98-170.4-63.37-171-175.16-.96-58.21-.1-130.19-.44-187.67-.49-20.69.39-43.6-10.83-61.09-13.71-23.6-60.1-39.87-42.37-72.51,21.77-31.55,66.41-48.06,96.84-71.94,31.18-18.95,102.8-89.59,125.22-47.23,8.79,17.54,9.47,41.39,15.78,59.66,16.49,49.89,95.46,27.9,134.99,40.61,28.84,6.18,49.62,31.93,19.42,53.32-35.07,23.76-90.05,10.19-127.07,28.86-29.73,15.22-27.88,53.4-28.81,82.6-.15,27.97-.05,61.93-.07,90.39.46,59.11-5.03,141.18,62.43,165.32,20.1,7.29,45.4,5.86,66.44,6.39,67.44-.77,22.45,42.72-11,58.42-39.43,19.64-83.03,30.3-128.57,30.06h-.97Z"/>
        </g>
        <g>
          <path class="cls-1" d="M1784.87,1743.73v-299.63h65.37v299.63h-65.37ZM1830.72,1659.29v-51.3h68.55c21.79,0,38.14-4.46,49.03-13.39,10.89-8.92,16.34-23.68,16.34-44.26,0-18.16-5.07-32.01-15.21-41.54-10.15-9.54-25.81-14.3-46.99-14.3h-71.73v-50.39h73.55c19.36,0,36.84,2.27,52.43,6.81,15.58,4.54,28.9,11.28,39.95,20.2,11.04,8.93,19.45,20.13,25.2,33.59,5.74,13.47,8.62,29.28,8.62,47.44,0,23.31-5.3,42.9-15.89,58.79-10.6,15.89-26.26,27.92-46.99,36.09-20.74,8.17-46.53,12.26-77.41,12.26h-59.47Z"/>
          <path class="cls-1" d="M2077.23,1743.73v-299.63h65.83v299.63h-65.83ZM2122.63,1496.77v-52.66h184.77v52.66h-184.77ZM2122.63,1616.62v-48.58h162.98v48.58h-162.98ZM2122.63,1743.73v-53.12h185.68v53.12h-185.68Z"/>
          <path class="cls-1" d="M2359.15,1743.73v-299.63h65.37v299.63h-65.37ZM2390.48,1743.73v-53.12h87.17c16.95,0,31.02-3.7,42.22-11.12,11.19-7.41,19.67-18.23,25.42-32.46,5.75-14.22,8.62-31.62,8.62-52.21,0-16.95-1.82-31.55-5.45-43.81-3.63-12.26-9.01-22.31-16.11-30.19-7.12-7.87-16.05-13.77-26.78-17.71-10.75-3.93-23.38-5.9-37.91-5.9h-77.18v-53.12h74.91c36.32,0,65.98,5.9,88.98,17.7,23,11.8,39.95,28.68,50.85,50.62,10.9,21.95,16.34,48.2,16.34,78.77,0,23-2.72,42.98-8.17,59.93-5.45,16.95-12.79,31.32-22.02,43.13-9.24,11.8-19.9,21.34-32.01,28.6-12.11,7.26-24.97,12.56-38.59,15.89-13.62,3.33-27.39,4.99-41.31,4.99h-88.98Z"/>
          <path class="cls-1" d="M2676.03,1743.73v-299.63h66.74v299.63h-66.74Z"/>
          <path class="cls-1" d="M2784.08,1743.73l102.6-299.63h95.34l102.6,299.63h-70.82l-75.81-247.88h-6.81l-76.27,247.88h-70.82ZM2841.73,1684.72v-44.49h194.76v44.49h-194.76Z"/>
          <path class="cls-1" d="M3071.45,1499.04v-54.93h242.43v54.93h-242.43ZM3159.98,1743.73v-299.63h65.38v299.63h-65.38Z"/>
          <path class="cls-1" d="M3355.65,1743.73v-299.63h121.67c16.34,0,31.17,1.29,44.49,3.86,13.32,2.58,25.12,6.29,35.41,11.12,10.29,4.84,18.99,10.83,26.1,17.93,7.11,7.11,12.49,15.29,16.12,24.52,3.63,9.23,5.45,19.45,5.45,30.64,0,10.6-1.67,20.2-5,28.83-3.33,8.63-8.33,16.12-14.98,22.47-6.66,6.36-14.98,11.57-24.97,15.66-9.99,4.08-21.64,6.89-34.96,8.4v6.81c15.44,1.52,27.76,5.07,37,10.67,9.23,5.6,16.49,13.1,21.79,22.47,5.29,9.38,9.91,21.04,13.85,34.96l18.16,61.29h-72.18l-14.07-56.75c-2.72-12.1-6.66-21.56-11.8-28.37-5.15-6.81-11.65-11.65-19.52-14.52-7.87-2.87-17.41-4.31-28.6-4.31h-48.58v103.96h-65.37ZM3421.02,1590.74h51.75c20.58,0,36.47-3.93,47.67-11.8,11.19-7.87,16.8-20.12,16.8-36.77s-5.22-28.37-15.66-36.09c-10.44-7.72-26.1-11.58-46.99-11.58h-53.57v96.25Z"/>
          <path class="cls-1" d="M3663.89,1743.73v-299.63h66.74v299.63h-66.74Z"/>
          <path class="cls-1" d="M3771.94,1743.73l102.6-299.63h95.34l102.6,299.63h-70.82l-75.81-247.88h-6.81l-76.27,247.88h-70.82ZM3829.59,1684.72v-44.49h194.76v44.49h-194.76Z"/>
        </g>
      </g>
    </g>
  </g>
</svg>