<?xml version="1.0" encoding="UTF-8"?>
<svg id="Camada_2" data-name="Camada 2" xmlns="http://www.w3.org/2000/svg" viewBox="0 0 6779.75 1641.61">
  <defs>
    <style>
      .cls-1 {
        fill: #232429;
      }
    </style>
  </defs>
  <g id="Camada_1-2" data-name="Camada 1">
    <g>
      <g>
        <g>
          <path class="cls-1" d="M2628.77,710.86c-108.06-.53-215.64-9.11-323.37-4.99-17.84.41-59.87-5.06-40.49-29.69,16.58-17.82,42.05-27.58,52.38-50.35,6.96-13.4,8.42-27.94,8.65-42.21,1.85-106.53.18-311.74.44-421.4-.3-11.59-1.16-25.25-5.42-38.41-4.58-14.58-14.02-26.91-26.35-36.58-10.55-8.78-24.01-15.75-31.5-27.41-13.68-29.11,40.36-26.4,57.14-26.58,101.23,6.99,202.13-3.43,303.2-4.93,133.26-3.55,273.23,56.92,341.92,174.85,68.35,115.57,50.14,273.05-33.93,376.12-72.25,89.11-189.02,132.36-301.91,131.58h-.76ZM2612.36,653.95c164.72,4.35,208.61-180.02,192.24-321.67-8.09-115.04-67.86-240.86-196.32-244.78-30.49-1.87-73.59-.47-90.84,27.2-8.41,13.96-8.04,30.21-8.72,46.43-1.52,66.18,1.1,171.57-.03,253.87,0,44.83-.16,79.81,0,117.07.1,15.27.43,32.72,3.64,48.78,8.46,49.48,49.71,73.74,99.19,73.09h.84Z"/>
          <path class="cls-1" d="M3056.71,705c-17.25-16.52,11.17-35.19,20.79-49.88,17.23-22.49,14.26-53.24,14.82-80.25,0-44.43.01-89.41,0-134.11-.2-22.19.5-45.49-6.48-66.67-4.74-14.9-15.92-30.48-18.39-46.72-4.51-26.97,26.17-36.44,46.98-43.24,23.9-7.24,47.56-14.51,71.1-22.87,26-8.39,52.33-18.5,64.95,4.19,9.25,12.98,4.27,47.95,22.23,50.68,17.63-.51,32.58-20.13,46.9-29.64,22.02-16.83,47.86-29.8,75.93-32.46,34.05-4.28,74.7,12.67,74.91,51.61,1.1,40.37-34.44,78.38-75.96,73.59-19.74-1.39-38.54-9.03-58.23-10.98-71.66-8.49-82.25,57.86-82.85,113.53-.5,28.04-.17,55.66-.23,83.67.36,26-.91,55.16,11.46,76,9.53,16.85,27.97,27.62,40.35,41.79,29.78,41.62-69.54,28.53-89.03,28.84-31.31-1.27-62.19-.71-93.42.58-20.91.1-47.4,4.17-65.39-7.31l-.44-.34Z"/>
          <path class="cls-1" d="M3518.55,738.47c-55.72.18-100-57.24-85.18-110.98,26.53-101.97,174.92-84,177.05,21.15.79,48.8-42.11,91.24-91.09,89.84h-.78Z"/>
        </g>
        <g>
          <path class="cls-1" d="M4387.6,738.5c-127.07,1.16-190.9-62.06-258.1-161.3-16.62-24.01-32.33-48.44-46.89-73.75-14.1-23.81-25.93-49.83-44.19-70.64-13.96-15.94-38.33-31.71-48.97-7.99-6.2,13.67-5.5,38.89-5.55,67.48.32,34.87-.81,71.44.87,105.74,1.15,27.45,9.84,50.43,34.12,65.52,12.96,10.43,51.43,25.9,46.54,42.22-14.5,21.96-87.89,11.08-113.99,12.28-40.14-1.06-78.88-1.14-118.67.28-26.7-.55-80.13,8.51-98.92-10.64-11.25-15.13,41.67-42.85,50.46-56.13,9.62-10.23,14.65-24.01,15.96-37.29,1.99-114.47,1.92-350.07.03-461.3-3.2-42.56-42.72-55.84-61.63-82.78-10.24-23.45,39.28-23.71,56.19-22.99,51.27,3.46,103.69,6.09,155.4.82,92.35-7.44,202.95-11.27,284.66,35.57,31.51,18.87,56.54,48.94,65.36,85.1,13.46,51.86-1.62,108.37-41.87,143.76-18.83,18.37-48.99,31.71-63.17,47-20.29,19.65-5.72,46.99,8.69,67.06,53.46,71.3,117.15,167.38,198.86,205.83,26.6,12.81,58.63,13.16,85.57,23.46,39.89,15.89,21.14,51.47-7.98,65.63-27.19,13.8-59.18,16.69-91.94,17.07h-.83ZM4026.33,362.06c52.91,7.76,91.5-40.8,99.88-91.29,8.36-47.76,4.02-108.77-24.67-145.44-19.23-26.08-59.5-43.82-88.8-25.12-23.27,15.28-24.34,54.11-25.54,81.69-1.05,32.25-.81,64.13-.67,96.2.25,32.69,3.23,75.35,39.16,83.82l.63.14Z"/>
          <path class="cls-1" d="M4780.29,733.31c-14.24-8.02-16.01-32.24-21.35-43.95-2.77-7.21-9.85-8.47-16.67-5.71-13.54,4.69-35.19,21.9-57.67,32.78-69.53,35.86-150.76,29.99-189.99-44.67-21.65-40.98-23.46-81.58-23.33-126.46-.05-28.32-.03-59.62-.03-88.4-.28-47.9,3.24-78.29-24.84-111.64-7.34-10.92-19.03-25.25-13.57-37.09,6.19-10.87,20.73-14.99,39.84-19.34,18.14-3.46,36.79-5.44,54.99-8.87,28.35-3.32,71.02-21.37,94.6.32,17.89,19.82,7.85,59.73,8.59,86.51-.57,36.55-.21,94.69-.3,136.63-.29,49.83-2.78,113.68,53.78,131.11,39.27,10.86,74.29-21.2,80.64-58.51,3.59-17.48,3.63-35.68,3.91-53.73.08-30.76.38-67.11-.22-98.38-.68-19.72-1.8-40.6-12.42-57.43-7.39-11.75-19.05-20.76-29.6-30.05-15.95-13.32-34.26-30.99-8.37-44.37,16.48-8.89,37.97-11.29,56.88-12.87,38.6-2.24,73.82-8.06,111.3-10.74,47.88-2.88,49.01,31.54,44.62,69.12-2.86,28.52-2.78,52.28-2.78,92.19-.02,41.55.01,86.15,0,128.01-.32,69.6,1.29,62.89,43.13,104.22,30.02,35.81-61.09,44.78-83.48,52.05-14.55,3.71-28.95,8.02-43.25,12.51-20.03,5.59-44.93,16.43-64,6.98l-.42-.25Z"/>
          <path class="cls-1" d="M5237.49,736.51c-49.75,2.1-99.87-17.46-148.26-18.2-26.37-1.76-71.34,17.09-78.48-20.12,4.98-163.69,1.18-366.37-2.75-550.1-3.67-54.01-75.96-93.93,15.58-116.9,92.36-26.12,154.93-78.3,138.95,64.49-.19,47.33-.68,105.41-.62,154.02-1.18,36.23,8.85,53.18,47.66,41.24,87.36-37.13,196.73-19.63,250.68,63.64,111.52,168.65-19.81,391.64-221.96,381.93h-.82ZM5251.33,684c48.03-4.73,65.58-60.79,73.6-101.64,11.07-63.56,8.35-131.62-16.47-191.74-10.73-24.83-28.69-47.68-54.5-56.43-29.11-9.6-78.01-6.54-88.06,26.27-3.07,9.56-3.79,21.94-3.95,37.01-.1,26.28-.02,56.65-.05,83.75,1.31,52.55-6.02,106.69,16.48,151.25,13,27.55,40.34,53.6,72.29,51.59l.65-.04Z"/>
          <path class="cls-1" d="M5714.97,731.86c-101.21.44-180.5-84.35-194.22-181.22-19.27-110.32,40.45-224.57,145.79-264.91,53.78-21.25,120.27-21.56,170.6,8.41,44.25,24.39,83.78,84.33,63.48,133.34-16.09,31.94-51.04,25.42-88.76,26.84-18.83,0-40.37,0-59.96,0-53.46.27-109.9-6.74-98.6,67.35,10.66,59.43,68.76,101.87,128.45,98.14,27.8-.04,56.77-13.36,81.45-22.2,34.46-12.37,40.78,7.44,28.95,34.21-30.76,65.42-105.99,101.29-176.4,100.04h-.78ZM5674.06,404.72c19.01,9.98,51.49,8.74,74.19,6.78,35.66-2.05,61.91-27.93,43.52-64.43-16.62-31.6-59.43-37.95-89.5-22.49-27.02,11.66-64.09,58.64-28.77,79.83l.56.31Z"/>
          <path class="cls-1" d="M5914.94,719.68c-20.68-10.58-.39-28.54,13.09-44.57,27.95-27.22,20.73-63.67,21.84-100.7.02-36.2-.01-74.98,0-111.39-.14-29.01,1.25-59.59-7.87-79.29-7.51-20.18-28.27-44.74-14.96-65.83,19.36-22.09,56.21-25.86,83.34-35.69,27.16-7.97,62.3-23.88,80.64-21.49,14.18.79,20.51,14.22,24.3,26.21,9.52,36.5,27.59,23.04,53.01,9.65,77.81-50.26,196.45-43.52,234.14,52.27,16.4,42.09,14.83,73.69,15.12,124.64-.03,34.54.02,72.19,0,107.17.8,36.51-2.96,58.02,11.08,81.53,7.25,11.24,18.65,21.85,25.37,32.92,23.03,37.14-51.84,30.16-71.63,29.93-32.41-1.38-64.86-1.06-97.26.34-19.39.2-49.09,2.69-62.8-11.35-11.02-17.16,26.81-45.95,29.97-65.8,5.43-17.77,4.35-42.46,4.55-72.28,0-24.29,0-50.35,0-74.32-.27-33.75,1.11-68.8-9.9-93.53-16.57-41.15-64.28-54-102.16-34-31.45,14.36-34.98,46.69-34.22,77.57.76,54.38-1.74,126.16,1.24,181.77,1.23,11.53,4.25,20.89,9.59,29.4,7.02,13.58,33.56,35.81,23.73,51.33-19.18,18.96-74.47,8.75-103.7,10.04-22.11-.29-44.26.41-66.36,1.3-20.21,1.08-47.87.63-59.72-5.6l-.44-.21Z"/>
          <path class="cls-1" d="M6605.41,732.06c-41.7-.27-95.17-6.66-122.51-37.39-21.44-19.25-38.91-104.37-6.97-117.24,23.44-4,41.51,28,53.92,44.38,64.99,101.39,162.5,41.66,113.62-26.3-22.42-28.23-57.16-41.88-86.57-62.03-20.12-13.25-38.86-28.72-52.87-47.26-41.7-53.07-34.29-136.02,20.69-177.08,48.53-38.83,120.2-46.98,180.36-33.2,33.77,6.82,57.88,30.31,62.41,65.88,3.25,15.34.47,42.87-11.28,47.9-26.32,10.98-53.3-47.94-74.25-59.56-23.63-18.39-63.47-17.57-80.08,9.46-25.56,48.06,37.95,80.92,73.56,102.58,22.11,13.51,43.43,26.55,61.58,43.56,42.5,38.05,52.52,103.59,33.56,156.23-23.89,68.73-97.48,90.15-164.33,90.07h-.83Z"/>
        </g>
      </g>
      <g>
        <g>
          <path class="cls-1" d="M2652.29,1635.46c-237.5,2.24-441.86-172.1-381.76-420.75,48.84-192.88,252.3-288.77,440.26-274.4,20.35,1.31,40.44,3.82,60.51,7.4,30.67,6.13,62.63,11.6,89.1,27.76,26.1,15.48,37.64,46.23,40.24,76.57,2.69,19.83,5.86,85.97-24.77,72.83-15.25-7.54-30.63-39.96-42.81-57.35-28.41-41.65-74.83-62.87-125.22-68.65-162.58-20.73-258.28,122.21-258.02,271.01-2.48,147.66,56.47,309.09,228.89,305.3,77.05-.49,134.11-29.38,176.24-92.57,13.89-17.68,37.51-49.24,51.38-28.38,13.29,28.59-2.96,88.86-20.69,115.02-21.22,31.96-58.12,43.14-95.63,51.93-44.89,10.38-90.8,14.55-136.93,14.28h-.8Z"/>
          <path class="cls-1" d="M3073.85,1634.98c-50.75.83-103.54-35.79-106.43-88.82-4.18-51.14,39.59-87.38,82.14-107.32,33.48-17.77,72.36-28.86,102.99-50.85,25.36-19.29,29.36-50.14,28.45-82.19-.9-24.18-6.99-53.05-30.06-62.74-13.02-5.88-29.13-3.98-40.53,4.77-20.6,16.05-25.11,44.27-43.62,62.48-12.18,12.34-29.14,20.38-46.81,23.11-18.91,3.84-43.41-3.84-41.15-25.37,1.85-19.68,17.33-36.73,32.21-50.16,60.52-50.26,159.49-102.26,238.85-79.07,46.4,12.78,78.26,53.26,86.04,99.58,4.59,22.62,3.91,48.32,3.29,74.83-.67,27.3-1.59,58.98-2.36,88.88.55,38.4-8.07,79.33,14.22,104.5,8.55,9.1,22.75,13.62,34.59,16.95,9.46,2.51,21.71,7.08,17.07,18.67-3.31,10.17-17.28,25.5-34.68,35.32-20.2,11.87-43.79,18.05-67.18,17.1-27.27.06-51.48-14.66-74.84-26.52-42.38-21.53-67.87,4.81-106.84,19.35-14.34,4.92-29.4,7.55-44.6,7.52h-.77ZM3143.3,1565.63c37.55-2.88,37.1-63.96,36.6-93.49-1.41-13.94-2.28-33.71-18.35-36.82-12.5-1.35-30.87,11.01-41.21,30.67-11.38,21.37-14.27,48.2-7.05,71.28,4.4,14.26,14.72,28.37,29.46,28.36h.56Z"/>
          <path class="cls-1" d="M3580.96,1641.6c-100.57-.87-151.03-56.17-151.55-155.25-.85-51.59-.09-115.39-.39-166.33-.44-18.34.34-38.64-9.6-54.15-12.15-20.92-53.27-35.34-37.55-64.27,19.29-27.96,58.86-42.59,85.83-63.76,27.64-16.8,91.11-79.41,110.99-41.86,7.79,15.55,8.39,36.68,13.99,52.87,14.61,44.22,84.61,24.73,119.64,36,25.56,5.47,43.98,28.3,17.22,47.25-31.08,21.06-79.82,9.04-112.62,25.58-26.35,13.49-24.71,47.33-25.54,73.21-.14,24.79-.04,54.89-.06,80.11.41,52.39-4.46,125.13,55.33,146.52,17.82,6.46,40.23,5.19,58.88,5.67,59.77-.69,19.9,37.87-9.75,51.78-34.94,17.4-73.59,26.85-113.96,26.64h-.86Z"/>
        </g>
        <g>
          <path class="cls-1" d="M3841.86,1545.48v-265.56h57.94v265.56h-57.94ZM3882.5,1470.64v-45.47h60.76c19.31,0,33.8-3.95,43.46-11.87,9.65-7.91,14.48-20.99,14.48-39.23,0-16.1-4.49-28.37-13.48-36.82-8.99-8.45-22.87-12.68-41.64-12.68h-63.57v-44.66h65.18c17.16,0,32.65,2.01,46.47,6.04,13.81,4.02,25.61,9.99,35.41,17.91,9.79,7.91,17.23,17.84,22.33,29.77,5.09,11.94,7.64,25.95,7.64,42.05,0,20.66-4.7,38.02-14.08,52.11-9.39,14.08-23.27,24.74-41.64,31.99-18.38,7.24-41.24,10.86-68.61,10.86h-52.71Z"/>
          <path class="cls-1" d="M4100.98,1545.48v-265.56h58.34v265.56h-58.34ZM4141.22,1326.59v-46.67h163.76v46.67h-163.76ZM4141.22,1432.82v-43.05h144.45v43.05h-144.45ZM4141.22,1545.48v-47.08h164.57v47.08h-164.57Z"/>
          <path class="cls-1" d="M4350.85,1545.48v-265.56h57.94v265.56h-57.94ZM4378.61,1545.48v-47.08h77.26c15.02,0,27.49-3.28,37.42-9.86,9.92-6.57,17.43-16.16,22.53-28.77,5.09-12.61,7.64-28.03,7.64-46.27,0-15.02-1.61-27.96-4.83-38.83-3.22-10.86-7.98-19.78-14.28-26.75-6.31-6.97-14.22-12.21-23.74-15.69-9.53-3.48-20.72-5.23-33.6-5.23h-68.4v-47.08h66.39c32.19,0,58.48,5.23,78.86,15.69,20.38,10.46,35.41,25.42,45.06,44.86,9.66,19.45,14.49,42.72,14.49,69.81,0,20.39-2.41,38.09-7.24,53.11-4.83,15.03-11.34,27.76-19.51,38.23-8.19,10.46-17.64,18.91-28.37,25.35-10.73,6.44-22.13,11.14-34.2,14.08-12.07,2.95-24.28,4.42-36.62,4.42h-78.86Z"/>
          <path class="cls-1" d="M4631.7,1545.48v-265.56h59.15v265.56h-59.15Z"/>
          <path class="cls-1" d="M4727.46,1545.48l90.93-265.56h84.5l90.93,265.56h-62.77l-67.19-219.69h-6.03l-67.6,219.69h-62.77ZM4778.56,1493.17v-39.43h172.62v39.43h-172.62Z"/>
          <path class="cls-1" d="M4982.16,1328.61v-48.69h214.86v48.69h-214.86ZM5060.62,1545.48v-265.56h57.94v265.56h-57.94Z"/>
          <path class="cls-1" d="M5234.05,1545.48v-265.56h107.83c14.49,0,27.63,1.14,39.43,3.42,11.8,2.28,22.26,5.57,31.39,9.86,9.12,4.29,16.83,9.6,23.13,15.89,6.3,6.3,11.07,13.55,14.29,21.73,3.22,8.18,4.83,17.24,4.83,27.16,0,9.39-1.48,17.91-4.43,25.55-2.95,7.65-7.38,14.29-13.28,19.92-5.9,5.63-13.28,10.26-22.13,13.88-8.85,3.62-19.18,6.1-30.98,7.44v6.03c13.68,1.35,24.61,4.5,32.79,9.46,8.18,4.97,14.62,11.61,19.31,19.92,4.69,8.32,8.78,18.65,12.27,30.98l16.1,54.32h-63.98l-12.47-50.3c-2.41-10.72-5.9-19.11-10.46-25.15-4.56-6.03-10.33-10.32-17.3-12.87-6.98-2.55-15.43-3.82-25.35-3.82h-43.05v92.14h-57.94ZM5291.99,1409.88h45.87c18.24,0,32.32-3.48,42.25-10.46,9.92-6.97,14.89-17.84,14.89-32.59s-4.63-25.15-13.88-31.99c-9.25-6.84-23.13-10.26-41.64-10.26h-47.48v85.3Z"/>
          <path class="cls-1" d="M5507.25,1545.48v-265.56h59.15v265.56h-59.15Z"/>
          <path class="cls-1" d="M5603.01,1545.48l90.93-265.56h84.5l90.93,265.56h-62.77l-67.19-219.69h-6.03l-67.6,219.69h-62.77ZM5654.11,1493.17v-39.43h172.62v39.43h-172.62Z"/>
        </g>
      </g>
      <g>
        <path class="cls-1" d="M.37,259.47c2.41,40.09,11.91,57.99,25.05,82.76,3.52,6.65,7.52,14.18,11.7,22.77,3.47,7.12,5.91,13.26,8.07,18.67,6.92,17.39,11.5,28.89,37.33,44.28,22.55,13.44,48.88,24.75,74.35,35.68,22.92,9.84,46.62,20.01,67.81,31.81,35.71,19.88,61.87,36.73,66.64,42.93,6.71,8.73,23.65,45.37,30.81,62.14,8.14,19.07,13.94,38.97,20.08,60.05,5.09,17.47,10.35,35.54,17.05,52.93,5.91,15.36,13,30.1,19.84,44.37,5.82,12.12,11.83,24.65,16.91,37.15,12.79,31.5,22.97,65.31,32.82,98.01,9.41,31.27,19.15,63.6,31.17,93.92,15.59,39.33,31.05,63.51,47.26,73.92,42.77,27.48,93.06,47.98,141.69,67.8,42.45,17.3,86.34,35.2,125.19,57.68,10.02,5.8,19.66,13.11,22.09,16.62-.93,1.53-1.89,3.11-2.89,4.74-11.79,19.3-27.95,45.73-28.68,67.88-.25,7.59.89,16.62,1.98,25.36.74,5.89,1.44,11.45,1.7,16.32.31,5.84.55,11.9.77,17.77.86,22.22,1.74,45.2,6.97,66.93,2.14,8.89,7.29,24.16,17.67,26.47,4.09.91,8.69,1.32,13.65,1.32,25.29,0,60.12-10.55,86.73-18.61,6.72-2.04,13.08-3.96,18.37-5.43,58.75-16.33,86.8-25.26,136.12-65.69,1.81-1.48,4.06-3.95,6.45-6.57,1.8-1.97,4.77-5.22,5.9-6.03,2.72-1.08,5.61-.59,8.95-.04,2.72.45,5.81.96,9.04.59,12.65-1.45,57.9-27.37,66.32-37.99,3.11-3.93,5.31-8.76,7.43-13.44,1.54-3.4,2.99-6.61,4.68-9.26,4.05-6.35,8.4-12.72,12.6-18.88,7.87-11.55,16.01-23.48,22.85-36.13l1.49-1.29c.12,0,.24,0,.35,0,16.56,0,32.87-3.55,48.67-6.99,7.95-1.73,16.11-3.5,24.21-4.79-1.27,5.18-2.39,10.49-3.5,15.69-2.43,11.47-4.94,23.34-8.88,33.31-2.05,5.2-6.49,13.3-11.18,21.87-12.95,23.64-22.03,41.26-20.94,52.59,1.78,18.49,37.56,28.95,41.64,30.08,28.66,7.95,74.31-11.58,96.76-24.39,76.35-43.53,138.09-113.79,178.66-203.3,31.89-13.73,65.07-24.56,97.17-35.04,40.61-13.26,82.61-26.97,122.49-46.68,30.56-15.1,41.12-27.7,55.73-45.14,4.96-5.93,10.59-12.64,17.71-20.27,5.06-5.43,10.06-10.75,14.99-16,42.81-45.58,79.78-84.94,111.68-142.03,25.99-46.51,30.46-107.27,31.57-148.93.14-5.31-.43-12.33-1.03-19.77-.79-9.68-1.67-20.65-.6-25.4.51-2.25,4.64-7.63,7.37-11.18,2.44-3.17,4.74-6.17,6.26-8.81.35-.6,34.61-60.99,30.04-85.63-.59-3.16-2.14-6.25-3.52-8.98-.42-.85-.84-1.66-1.19-2.44-45.49-99.45-127.21-197.42-207-289.25-3.2-3.69-6.83-8.71-10.68-14.03-5.61-7.76-11.4-15.78-16.59-20.5-11.47-10.43-48.27-30.61-81.87-48.72-3.65-1.97-6.85-3.69-9.4-5.08-66.87-36.42-141.1-64.11-226.93-84.64-28.86-6.9-134.49,22.45-152.73,28.14-51.35,16.02-86.3,36.96-132.85,69.99-71.68,50.88-154.47,113.26-224.96,190.2-23.6,25.76-45.98,54.21-67.63,81.73-24.06,30.59-48.94,62.22-75.45,90.08-28.23,29.66-75.56,59.88-113.59,84.17l-9.24,5.91c-2.05,1.32-4.06,2.61-6.03,3.89-23.68,15.32-40.8,26.38-70.84,24.28-21.2-1.49-77.64-27.54-83.63-43.89-6.87-18.76-2.84-75.72,4.88-94.75,2.82-6.97,35.92-54.66,43.4-63.26,16.03-18.44,34.15-36.78,51.67-54.53,26.81-27.15,54.53-55.23,77.17-85.75,39.83-53.7,24.25-112.3,6.22-157.34-8.31-20.77-22.48-35.63-38.87-40.77-14.17-4.44-29.46-1.67-44.21,8.04-16.73,11-33.21,24.81-49.15,38.16-13.76,11.52-27.97,23.43-42.11,33.31-8.73.24-18.49-.35-28.79-.97-32.79-1.98-69.96-4.2-92.5,19.46-19.07,20.01-33.13,45.48-39.54,71.22-1.47-2.49-3-5.05-4.95-7.36-32.88-38.93-62.39-37.35-93.62-35.69-17.74.94-36.08,1.92-56.69-4.5-34.42-10.74-43.17-24.69-55.29-43.98-5.64-8.98-12.03-19.15-21.8-30.42-12.34-14.23-53.81-49.28-78.6-47.5-28.88,2.05-51.16,27.32-64.45,73.07C1.89,192.79-1.16,234.14.37,259.47ZM1271.46,1311.61c22.54-35.95,41.99-76.08,40.11-125.43l155.36-42.72c-8.33,17.18-29.77,54.17-34.15,60.43-25.78,36.89-80.7,84.29-127.99,99.75-11.91,3.89-23.49,6.65-33.34,7.97ZM945.1,1274.35c-35.51-9.82-49.25-14.53-77.94-40.3-18.42-16.54-35.55-36.66-48.51-56.92,4.24-7.91,7.88-16.2,11.42-24.24,4.13-9.4,8.4-19.11,13.5-27.88,6.23-10.7,13.94-21.33,21.4-31.61,8.34-11.5,16.98-23.39,23.98-35.91,7.66-13.68,13.65-28.29,19.45-42.42,5.63-13.72,11.42-27.81,18.68-40.83,18.32,26.74,46.07,40.11,72.98,53.07,7.02,3.38,14.28,6.88,21.28,10.57,5.23,2.76,10.31,6.1,15.68,9.63,6.08,4,12.37,8.14,18.97,11.4,26.83,13.26,91.29,27.89,120.44,24.64,10.49-1.16,19.08-6.05,27.39-10.77,3.82-2.17,7.52-4.28,11.29-5.96-8.92,31.04-22.85,64.42-42.43,101.67-14.36,27.32-34.28,55.56-59.21,83.94-11.4,12.98-39.66,39.62-47.83,41.6-44.67-.34-85.98-10.14-120.53-19.69ZM817.83,1264.82c.14-10.53,3.96-15.64,10.95-23.15,1.9,1.81,3.84,3.68,5.82,5.57,17.83,17.13,38.04,36.55,59.46,45.65,21.51,9.14,45.7,14.05,69.09,18.79,13.1,2.66,25.61,5.2,37.54,8.39-6.55,3.68-12.85,7.71-19.01,11.65-8.85,5.66-18,11.52-27.49,16.02-12.54,5.95-29.86,12.67-43.09,16.72-19.44,5.96-73.16,18.17-87.88,16.13l-.05-.07c2.38-14,3.36-26.71,2.99-38.76-.36-11.7-2.32-24.57-4.22-37.01-2.1-13.76-4.26-27.98-4.11-39.94ZM525.6,976.76l85.65,55.58c26.44,15.54,61.15,21.97,103.19,19.09,6.14-.42,12.12-1.67,17.91-2.89,5.54-1.16,10.77-2.26,15.97-2.63,30.97-2.25,70.62-.47,106.99,4.75-5.05,7.65-10.48,15.22-15.77,22.59-13.87,19.34-28.19,39.3-37.02,62.26-3.69-1.2-7.38-2.73-11.21-4.32-5.02-2.09-10.22-4.25-15.84-5.81-9-2.5-18.17-4.14-27.03-5.73-11.82-2.11-22.99-4.11-33.96-7.98-49.39-17.43-89.99-44.93-132.99-74.04-10.82-7.32-22-14.9-33.3-22.27-10.51-9.25-15.99-22.56-21.78-36.63-.27-.65-.54-1.31-.81-1.96ZM68.8,132.24c10.61-6.31,12.38-6.14,21.11,2.03,10.87,10.18,20.79,25.06,30.39,39.44,7.59,11.38,15.45,23.16,23.82,32.68,33.02,37.55,81.52,48,128.42,58.11,13.33,2.87,25.91,5.59,38.14,8.9,19.1,5.18,27.03,14.86,37.08,27.12,4.52,5.51,9.19,11.21,15.3,17.01,7.1,6.74,21.87,20.77,36.47,6.7,6.97-6.72,12-21.19,16.86-35.2,2.27-6.54,4.42-12.72,6.39-16.85,20.55-43.03,53.5-48.59,91.65-55.03,24.22-4.09,49.26-8.32,73.21-22.54,8.74-5.19,20.73-15.85,33.41-27.13,15.06-13.39,35.68-31.74,43.59-32.52l.87-.09c2.61-.27,2.76-.28,3.6.42,2.1,2.37,10.05,16.99,12.4,22.01,9.74,20.82,20.18,57.32,12.91,73.3-6.47,14.21-25.55,43.53-36.2,54.06-21.74,21.49-49.16,44.88-73.35,65.52l-7.82,6.68c-10.13,8.66-19.99,16.59-29.52,24.25-60.66,48.78-104.49,84.03-63.41,187.93,4.4,11.12,27.58,56.09,35.98,65.26,8.7,9.51,18.46,12.85,27.89,16.08,3.52,1.21,7.16,2.45,10.72,4.02,2.79,1.23,5.43,2.83,8.24,4.52,4.42,2.67,8.98,5.44,14.83,7.25,9.23,2.86,19.13,4.1,29.34,4.1,56.92,0,124.11-38.6,145.97-52.19,60.06-37.33,100.81-91.87,140.21-144.62,25.59-34.26,52.05-69.68,83.69-100.35,22.01-21.33,46.5-40.79,70.18-59.61,17.38-13.81,35.35-28.09,52.32-43.07,12.51-11.05,23.89-21.7,34.89-32,37.56-35.16,70.01-65.52,124.1-89.47,93.58-41.42,236.66-25.91,323.77,9.71,143.29,58.59,289.76,185.95,356.18,309.73,24.03,44.77,26.41,92.32,6.84,134.39-86.07-16.73-173.17,1.56-231.48,20.04-14.02,4.44-27.89,9.99-41.31,15.35-15.08,6.03-30.66,12.26-46.28,16.83-45.19,13.23-104.03,21.68-159.35,23.02l15.26-8.09c.91-.65,3.53-.95,5.45-1.18,2.91-.34,5.92-.68,8.45-2.22,4.74-2.87,6.92-8.29,5.84-14.49-1.19-6.79-6.46-14.82-13.9-16.32-7.79-1.56-39.78,2.65-46.46,4.5-9.38,2.6-23.26,10.08-30.33,15.44-7.37,5.58-35.7,32.88-38.33,52.46-.67,5.02.31,9.29,2.94,12.71,3.37,4.38,7.28,5.61,9.97,5.86,8.35.79,16.18-6.19,23.11-12.34,2.72-2.42,6.8-6.04,8.46-6.58.69.11,2.26.72,3.33,1.13,2.39.92,5.37,2.07,8.52,2.31,97.83,7.41,196.35-1.38,263.56-23.51,15.15-4.99,29.86-10.35,44.09-15.53,53.11-19.35,103.26-37.63,164.86-32.54,7.83.65,15.21,2.84,23.01,5.16,8.26,2.46,16.75,4.98,25.85,5.53-.1,1.33-.19,2.66-.28,3.98-.26,3.97-.53,8.08-1.2,11.28-20.42,98.84-100.14,191.62-158.33,252.8-18.59,19.54-58.53,46.88-79.98,61.56-90.14,61.69-186.6,88.23-288.72,116.34-31.57,8.69-64.21,17.67-96.6,27.76-10.11,3.15-20.3,7.18-30.16,11.08-11.35,4.49-22.07,8.73-32.73,11.77-9.87,2.81-20.44,4.46-30.66,6.06-3.4.53-6.85,1.07-10.31,1.65,1.55-3.09,3.23-6.17,4.95-9.33,2.62-4.81,5.33-9.78,7.66-14.98,4.34-9.69,32.36-78.38,29.29-97.99-1.62-10.3-8.16-17.9-13.93-24.59-1.97-2.29-3.86-4.48-5.51-6.7,1.87-5.52,3.65-11.04,5.39-16.41,7.56-23.41,14.7-45.52,27.89-66.02,5.76-8.96,12.36-17.74,18.73-26.22,6.78-9.02,13.79-18.36,20.01-28.15,8.21-12.92,13.49-24.64,18.61-35.97,8-17.73,14.91-33.04,31.13-49.06,1-.98,2.51-2.29,4.11-3.66,7.22-6.2,17.1-14.7,16.68-24.32-.13-3.11-1.44-7.64-6.91-11.57-9.88-7.1-19.04,3.01-24.51,9.04-1.83,2.01-3.55,3.91-5.02,5.12-26.85,22.1-56.24,67.38-79.85,103.76-5.02,7.74-9.77,15.05-14.15,21.61-3.22,4.83-6.73,9.96-10.35,15.26-12.89,18.86-27.49,40.25-36.65,58.63-6.39,12.83-10.19,26.71-13.86,40.14-3.15,11.51-6.13,22.43-10.61,32.76-2.49.37-5.01.75-7.54,1.13-18.84,2.84-38.31,5.79-56.63,4.09-21.14-1.95-101.73-36.49-121.2-50.44-1.71-1.23-4.59-3.57-6.76-5.53,29.74-18.37,68.34-44.74,88.81-68.99,1.94-2.3,3.23-4.91,4.49-7.43.96-1.94,1.87-3.78,3-5.32.11-.07.9-.51,1.42-.8,1.49-.83,3.35-1.86,4.73-3.69,3.33-4.43,6.78-18.89,2.92-25.19-5.49-8.97-28.57-10.73-42.04-8-15.03,3.04-18.36,10.7-19.01,14.99-.64,4.23.65,8.52,3.63,12.08,1.41,1.68,3.09,3.08,4.94,4.15-5.97,3.36-11.84,6.83-17.61,10.24-16.7,9.87-33.96,20.07-52.22,26.66-4.67.4-10.81.17-17.3-.05-15.07-.53-32.15-1.13-42.57,5.31-10.7,6.62-20.87,27.59-31.2,50.34-2.07,4.56-4.36,9.6-5.73,12.15-48.73,1.78-98.39,6.84-147.65,15.06-7.23,1.21-14.43,2.92-21.4,4.57-15.86,3.77-30.85,7.34-46.42,5.5-67.98-27.15-124.83-61.92-169.01-103.37-6.77-12.26-14.04-24.94-21.08-37.21-26.94-46.93-54.79-95.47-69.28-145.29-5.3-18.22-9.16-37.8-12.9-56.73-3.27-16.56-6.65-33.68-10.98-49.9-8.91-33.34-54.36-125.87-77.41-153.21-25.51-30.27-74.2-44.46-121.27-58.18-26.62-7.76-51.77-15.09-70.89-24.85-13.14-6.71-44.94-32.3-49.17-42.12-8.47-19.67-27.39-92.97-29.93-113.13-3.81-30.22,8.57-85.78,33.48-100.6Z"/>
        <path class="cls-1" d="M1352.76,516.56c27.74-29.34,97.14-31.99,126.51-3.37,11.04,10.75,24.12,34.77,8.79,46.49-32.63,24.95-43.02-6.61-70.9-18.3-4.68-.38-22.85,13.87-25.24,18.81-8.41,17.35,13.82,67.35-24.91,52.72-11.93-4.5-19.07-12.6-21.24-25.29-1.65-9.63-3.43-39.65-2.56-49.31.75-8.29,3.87-15.74,9.56-21.75Z"/>
        <path class="cls-1" d="M894.71,1206.86c18.75,11.22,35.44,26.01,54.11,37.24,5.26,3.16,39.5,21.49,42.74,21.78,2.21.19,5.88-.66,7.48-2.21l29.95-47.69c15.3,3.83,43.39,33.93,54.98,13.61,9.74-17.06,15.61-41.46,24.85-59.46,0-8.47-6.92-6.95-11.5-10.09-12.67-8.68-25.04-16.75-38.63-24.07,2.64-10.33,24.43-37.87,18.68-47.25-5.6-9.13-66.3-34.6-78.77-42.83-9.95-.07-22.12,30.18-24.19,39.24-3.97,2.88-39.31-30.6-52.43-26.54-6.2,1.92-14.46,26.67-18.22,33.73-4.15,7.8-21.97,34.47-22.38,40.37-.26,3.67,1.25,6.15,3.69,8.7,3.75,3.92,33.87,23.01,33.85,25.19-5.14,8.77-20.43,23.45-23.64,31.83-1.11,2.91-2.4,5.37-.56,8.44ZM940.15,1154.35l-42.68-23.67c6.69-11.25,11.78-23.71,18.92-34.66,2.78-4.26,6.72-13.23,11.99-12.45,1.85.28,16.02,9.58,19.04,11.57,6.28,4.15,25.81,23.35,31.89,16.32l26.44-42.4,48.42,30.34c.38,10.48-20.06,37.15-16.26,44.81,2.46,4.95,24.76,12.34,30.82,15.79,8.42,4.8,14.1,12.87,23.84,14.67l-20.58,48.27c-8.99-5.44-37.51-29.47-46.44-28.62-13.94,1.34-25.88,43.06-34.06,43.04l-68.19-37.66c-3.05-13.37,20.68-34,16.84-45.36Z"/>
      </g>
    </g>
  </g>
</svg>