<?xml version="1.0" encoding="UTF-8"?>
<svg id="Camada_2" data-name="Camada 2" xmlns="http://www.w3.org/2000/svg" viewBox="0 0 6779.75 1641.95">
  <defs>
    <style>
      .cls-1 {
        fill: #fff;
      }
    </style>
  </defs>
  <g id="Camada_1-2" data-name="Camada 1">
    <g>
      <g>
        <g>
          <g>
            <path class="cls-1" d="M2627.9,711.01c-108.08-.53-215.69-9.11-323.44-5-17.85.41-59.88-5.07-40.49-29.69,16.58-17.83,42.06-27.59,52.39-50.36,6.96-13.4,8.43-27.95,8.65-42.22,1.85-106.55.18-311.8.44-421.49-.3-11.59-1.16-25.26-5.42-38.42-4.58-14.58-14.02-26.92-26.36-36.58-10.55-8.78-24.01-15.75-31.5-27.42-13.68-29.12,40.37-26.41,57.15-26.59,101.25,6.99,202.17-3.43,303.27-4.93,133.29-3.55,273.28,56.93,341.99,174.89,68.36,115.59,50.15,273.1-33.94,376.2-72.27,89.13-189.06,132.38-301.97,131.6h-.76ZM2611.5,654.09c164.75,4.35,208.65-180.06,192.28-321.74-8.09-115.07-67.87-240.91-196.36-244.83-30.49-1.87-73.6-.47-90.86,27.21-8.41,13.96-8.04,30.22-8.72,46.44-1.52,66.19,1.1,171.61-.03,253.92,0,44.84-.16,79.83,0,117.09.1,15.28.43,32.73,3.64,48.79,8.46,49.49,49.72,73.76,99.21,73.11h.84Z"/>
            <path class="cls-1" d="M3055.94,705.14c-17.26-16.53,11.17-35.2,20.79-49.89,17.23-22.49,14.27-53.25,14.82-80.27,0-44.44.01-89.43,0-134.14-.2-22.19.5-45.5-6.48-66.68-4.74-14.9-15.92-30.49-18.4-46.73-4.52-26.97,26.17-36.45,46.99-43.25,23.9-7.24,47.57-14.51,71.11-22.87,26.01-8.39,52.34-18.51,64.96,4.19,9.25,12.98,4.27,47.96,22.24,50.69,17.63-.51,32.59-20.14,46.91-29.64,22.02-16.83,47.87-29.8,75.94-32.47,34.06-4.28,74.71,12.67,74.93,51.62,1.1,40.38-34.45,78.4-75.97,73.6-19.74-1.39-38.55-9.03-58.25-10.98-71.68-8.49-82.27,57.87-82.87,113.56-.5,28.04-.17,55.67-.23,83.69.36,26-.91,55.17,11.46,76.02,9.53,16.86,27.98,27.62,40.36,41.8,29.79,41.63-69.56,28.54-89.04,28.84-31.32-1.27-62.21-.71-93.44.58-20.91.1-47.41,4.18-65.4-7.31l-.44-.34Z"/>
            <path class="cls-1" d="M3517.87,738.62c-55.73.18-100.02-57.25-85.2-111.01,26.53-101.99,174.96-84.02,177.09,21.16.79,48.81-42.12,91.26-91.11,89.86h-.78Z"/>
          </g>
          <g>
            <path class="cls-1" d="M4387.1,738.65c-127.1,1.16-190.94-62.07-258.16-161.33-16.63-24.01-32.33-48.45-46.9-73.76-14.1-23.82-25.94-49.84-44.2-70.66-13.96-15.95-38.34-31.72-48.98-7.99-6.2,13.67-5.5,38.9-5.55,67.5.32,34.87-.81,71.46.87,105.76,1.15,27.46,9.84,50.45,34.12,65.53,12.96,10.43,51.45,25.9,46.55,42.23-14.5,21.96-87.91,11.08-114.01,12.28-40.15-1.06-78.9-1.14-118.7.28-26.71-.55-80.14,8.51-98.94-10.64-11.26-15.14,41.68-42.86,50.47-56.14,9.62-10.23,14.66-24.01,15.96-37.3,1.99-114.49,1.92-350.14.03-461.4-3.2-42.57-42.73-55.86-61.64-82.8-10.25-23.45,39.29-23.71,56.2-23,51.28,3.46,103.71,6.09,155.43.82,92.37-7.44,202.99-11.27,284.72,35.57,31.52,18.87,56.55,48.95,65.37,85.12,13.46,51.87-1.62,108.39-41.88,143.79-18.84,18.37-49,31.72-63.19,47.01-20.29,19.65-5.72,47,8.69,67.07,53.47,71.32,117.18,167.41,198.9,205.87,26.61,12.81,58.64,13.16,85.58,23.47,39.9,15.89,21.14,51.48-7.98,65.64-27.2,13.8-59.19,16.7-91.96,17.08h-.83ZM4025.75,362.13c52.92,7.76,91.52-40.81,99.9-91.31,8.36-47.77,4.02-108.8-24.67-145.47-19.23-26.09-59.51-43.83-88.82-25.13-23.27,15.28-24.35,54.12-25.54,81.71-1.05,32.26-.82,64.14-.67,96.22.25,32.7,3.23,75.36,39.17,83.84l.63.14Z"/>
            <path class="cls-1" d="M4779.88,733.46c-14.25-8.02-16.02-32.25-21.36-43.96-2.77-7.21-9.85-8.47-16.67-5.71-13.54,4.69-35.19,21.9-57.68,32.79-69.54,35.87-150.79,30-190.03-44.68-21.65-40.99-23.47-81.6-23.34-126.49-.05-28.33-.03-59.63-.03-88.42-.28-47.91,3.25-78.3-24.85-111.66-7.34-10.92-19.04-25.26-13.57-37.09,6.19-10.87,20.74-15,39.84-19.35,18.14-3.46,36.8-5.44,55.01-8.87,28.35-3.32,71.04-21.37,94.62.32,17.89,19.82,7.85,59.75,8.59,86.53-.57,36.56-.21,94.71-.3,136.66-.29,49.85-2.78,113.7,53.79,131.14,39.28,10.87,74.3-21.2,80.66-58.52,3.59-17.48,3.63-35.69,3.91-53.74.08-30.77.38-67.13-.22-98.4-.68-19.73-1.8-40.61-12.42-57.44-7.39-11.75-19.06-20.77-29.6-30.06-15.96-13.32-34.27-30.99-8.38-44.38,16.48-8.89,37.97-11.3,56.89-12.87,38.61-2.24,73.83-8.06,111.32-10.74,47.89-2.88,49.02,31.55,44.63,69.14-2.86,28.53-2.78,52.29-2.78,92.21-.02,41.56.01,86.17,0,128.04-.32,69.61,1.29,62.9,43.14,104.25,30.03,35.82-61.1,44.79-83.49,52.06-14.55,3.71-28.96,8.03-43.26,12.52-20.04,5.59-44.94,16.44-64.01,6.98l-.42-.25Z"/>
            <path class="cls-1" d="M5237.17,736.66c-49.76,2.1-99.89-17.47-148.29-18.21-26.37-1.76-71.36,17.1-78.49-20.12,4.98-163.72,1.18-366.45-2.75-550.22-3.67-54.02-75.98-93.95,15.59-116.93,92.38-26.12,154.96-78.31,138.98,64.5-.19,47.34-.68,105.43-.62,154.05-1.18,36.24,8.85,53.2,47.67,41.25,87.38-37.13,196.77-19.63,250.73,63.66,111.54,168.68-19.81,391.72-222.01,382.01h-.82ZM5251.01,684.15c48.04-4.73,65.6-60.81,73.61-101.66,11.07-63.58,8.35-131.65-16.47-191.78-10.73-24.84-28.7-47.69-54.51-56.44-29.11-9.6-78.03-6.54-88.07,26.27-3.07,9.56-3.8,21.95-3.95,37.02-.1,26.28-.02,56.66-.05,83.77,1.31,52.56-6.02,106.71,16.48,151.28,13,27.56,40.35,53.61,72.3,51.6l.65-.04Z"/>
            <path class="cls-1" d="M5714.75,732.01c-101.23.44-180.54-84.37-194.26-181.25-19.27-110.34,40.46-224.62,145.82-264.96,53.79-21.26,120.29-21.56,170.64,8.41,44.26,24.39,83.8,84.35,63.49,133.37-16.09,31.94-51.05,25.42-88.77,26.85-18.84,0-40.38,0-59.97,0-53.47.27-109.92-6.74-98.62,67.36,10.66,59.44,68.77,101.89,128.48,98.16,27.81-.04,56.78-13.37,81.47-22.2,34.47-12.38,40.79,7.44,28.96,34.21-30.77,65.43-106.01,101.32-176.44,100.07h-.78ZM5673.83,404.8c19.01,9.98,51.5,8.74,74.2,6.78,35.66-2.05,61.92-27.93,43.53-64.45-16.62-31.61-59.45-37.96-89.52-22.49-27.03,11.67-64.1,58.65-28.78,79.85l.56.31Z"/>
            <path class="cls-1" d="M5914.76,719.83c-20.68-10.58-.39-28.55,13.09-44.58,27.95-27.23,20.73-63.68,21.84-100.72.02-36.2-.01-74.99,0-111.41-.14-29.01,1.25-59.61-7.87-79.31-7.52-20.18-28.28-44.75-14.96-65.85,19.37-22.1,56.22-25.86,83.36-35.69,27.17-7.97,62.31-23.88,80.66-21.49,14.18.79,20.51,14.22,24.3,26.22,9.53,36.51,27.6,23.05,53.02,9.65,77.82-50.27,196.5-43.53,234.19,52.28,16.4,42.1,14.83,73.7,15.13,124.66-.03,34.54.02,72.2,0,107.19.8,36.52-2.97,58.04,11.08,81.55,7.25,11.25,18.65,21.85,25.38,32.92,23.03,37.15-51.85,30.17-71.64,29.93-32.41-1.38-64.87-1.06-97.28.34-19.39.2-49.1,2.69-62.82-11.36-11.03-17.16,26.81-45.96,29.98-65.82,5.43-17.77,4.35-42.47,4.55-72.3,0-24.3,0-50.36,0-74.34-.27-33.76,1.11-68.81-9.9-93.55-16.57-41.16-64.29-54.01-102.18-34.01-31.46,14.36-34.98,46.7-34.23,77.59.76,54.39-1.74,126.18,1.24,181.81,1.23,11.53,4.25,20.89,9.59,29.41,7.03,13.58,33.56,35.81,23.74,51.34-19.18,18.97-74.48,8.76-103.72,10.04-22.12-.29-44.27.41-66.38,1.3-20.22,1.08-47.88.63-59.73-5.6l-.44-.21Z"/>
            <path class="cls-1" d="M6605.37,732.21c-41.71-.27-95.19-6.66-122.54-37.39-21.45-19.26-38.92-104.39-6.97-117.26,23.45-4,41.52,28,53.93,44.39,65.01,101.41,162.54,41.67,113.64-26.31-22.42-28.23-57.17-41.89-86.59-62.05-20.12-13.25-38.86-28.72-52.88-47.27-41.71-53.08-34.29-136.05,20.69-177.12,48.54-38.84,120.23-46.99,180.4-33.2,33.78,6.82,57.9,30.32,62.42,65.89,3.25,15.34.47,42.88-11.28,47.91-26.32,10.99-53.31-47.95-74.27-59.58-23.63-18.39-63.49-17.58-80.1,9.47-25.57,48.07,37.96,80.94,73.58,102.6,22.11,13.51,43.43,26.56,61.59,43.57,42.51,38.06,52.53,103.61,33.57,156.26-23.89,68.74-97.5,90.17-164.37,90.09h-.83Z"/>
          </g>
        </g>
        <g>
          <g>
            <path class="cls-1" d="M2651.43,1635.8c-237.55,2.24-441.95-172.14-381.84-420.84,48.85-192.92,252.36-288.83,440.35-274.46,20.36,1.31,40.45,3.82,60.53,7.41,30.67,6.13,62.64,11.6,89.12,27.76,26.1,15.48,37.65,46.24,40.25,76.58,2.69,19.83,5.86,85.99-24.77,72.85-15.25-7.54-30.63-39.97-42.81-57.36-28.42-41.66-74.85-62.88-125.25-68.66-162.62-20.73-258.34,122.24-258.07,271.07-2.48,147.69,56.48,309.16,228.94,305.37,77.07-.49,134.14-29.39,176.27-92.59,13.89-17.69,37.52-49.25,51.39-28.38,13.29,28.6-2.96,88.88-20.69,115.04-21.22,31.97-58.14,43.15-95.65,51.94-44.9,10.39-90.82,14.55-136.96,14.28h-.8Z"/>
            <path class="cls-1" d="M3073.08,1635.32c-50.76.83-103.56-35.8-106.45-88.84-4.18-51.15,39.6-87.4,82.16-107.34,33.49-17.78,72.38-28.87,103.01-50.86,25.37-19.3,29.37-50.15,28.46-82.2-.9-24.18-6.99-53.06-30.07-62.76-13.03-5.88-29.14-3.98-40.54,4.77-20.6,16.05-25.12,44.28-43.63,62.49-12.19,12.34-29.14,20.39-46.82,23.11-18.91,3.84-43.42-3.84-41.16-25.38,1.85-19.68,17.33-36.74,32.22-50.17,60.53-50.27,159.52-102.28,238.9-79.09,46.4,12.79,78.28,53.27,86.06,99.6,4.59,22.62,3.91,48.33,3.29,74.85-.67,27.31-1.59,59-2.36,88.9.55,38.41-8.07,79.34,14.22,104.52,8.55,9.1,22.76,13.62,34.6,16.95,9.47,2.51,21.71,7.08,17.07,18.67-3.31,10.18-17.29,25.5-34.69,35.33-20.2,11.88-43.8,18.06-67.19,17.1-27.27.06-51.49-14.66-74.86-26.53-42.39-21.54-67.88,4.81-106.86,19.35-14.34,4.92-29.41,7.55-44.61,7.52h-.77ZM3142.54,1565.95c37.56-2.88,37.11-63.98,36.6-93.51-1.41-13.94-2.28-33.72-18.35-36.82-12.5-1.35-30.87,11.02-41.22,30.68-11.38,21.37-14.27,48.21-7.05,71.29,4.4,14.27,14.72,28.37,29.46,28.37h.56Z"/>
            <path class="cls-1" d="M3580.3,1641.94c-100.59-.87-151.06-56.18-151.59-155.28-.85-51.61-.09-115.41-.39-166.36-.44-18.34.34-38.65-9.6-54.16-12.15-20.92-53.28-35.35-37.56-64.28,19.3-27.97,58.87-42.6,85.85-63.77,27.64-16.8,91.13-79.42,111.01-41.87,7.79,15.55,8.39,36.69,13.99,52.89,14.61,44.23,84.62,24.74,119.67,36,25.57,5.48,43.99,28.3,17.22,47.26-31.09,21.06-79.83,9.04-112.64,25.59-26.35,13.49-24.71,47.34-25.54,73.22-.14,24.8-.04,54.9-.06,80.13.41,52.4-4.46,125.15,55.34,146.55,17.82,6.46,40.24,5.19,58.9,5.67,59.79-.69,19.9,37.87-9.75,51.79-34.95,17.41-73.6,26.86-113.98,26.65h-.86Z"/>
          </g>
          <g>
            <path class="cls-1" d="M3841.25,1545.8v-265.62h57.95v265.62h-57.95ZM3881.9,1470.95v-45.48h60.77c19.32,0,33.81-3.95,43.47-11.87,9.66-7.91,14.49-20.99,14.49-39.24,0-16.1-4.5-28.37-13.48-36.82-8.99-8.45-22.88-12.68-41.65-12.68h-63.59v-44.67h65.2c17.17,0,32.66,2.01,46.48,6.04,13.81,4.02,25.62,10,35.41,17.91,9.79,7.92,17.24,17.85,22.34,29.78,5.09,11.94,7.65,25.96,7.65,42.06,0,20.66-4.7,38.03-14.08,52.12-9.39,14.08-23.28,24.75-41.65,31.99-18.38,7.24-41.25,10.87-68.62,10.87h-52.72Z"/>
            <path class="cls-1" d="M4100.42,1545.8v-265.62h58.36v265.62h-58.36ZM4140.67,1326.87v-46.68h163.8v46.68h-163.8ZM4140.67,1433.12v-43.06h144.48v43.06h-144.48ZM4140.67,1545.8v-47.09h164.6v47.09h-164.6Z"/>
            <path class="cls-1" d="M4350.34,1545.8v-265.62h57.95v265.62h-57.95ZM4378.11,1545.8v-47.09h77.27c15.02,0,27.5-3.28,37.43-9.86,9.92-6.57,17.44-16.16,22.54-28.77,5.09-12.61,7.65-28.03,7.65-46.28,0-15.02-1.61-27.97-4.83-38.84-3.22-10.87-7.99-19.78-14.29-26.76-6.31-6.97-14.22-12.21-23.74-15.7-9.53-3.48-20.73-5.23-33.61-5.23h-68.42v-47.09h66.41c32.19,0,58.49,5.23,78.88,15.69,20.38,10.46,35.41,25.42,45.07,44.87,9.66,19.46,14.49,42.73,14.49,69.83,0,20.39-2.41,38.1-7.24,53.12-4.83,15.03-11.34,27.77-19.52,38.23-8.19,10.46-17.64,18.91-28.37,25.35-10.73,6.44-22.13,11.14-34.21,14.09-12.07,2.96-24.28,4.43-36.62,4.43h-78.88Z"/>
            <path class="cls-1" d="M4631.25,1545.8v-265.62h59.16v265.62h-59.16Z"/>
            <path class="cls-1" d="M4727.03,1545.8l90.95-265.62h84.52l90.95,265.62h-62.78l-67.21-219.74h-6.04l-67.61,219.74h-62.78ZM4778.14,1493.48v-39.44h172.65v39.44h-172.65Z"/>
            <path class="cls-1" d="M4981.79,1328.88v-48.7h214.91v48.7h-214.91ZM5060.27,1545.8v-265.62h57.96v265.62h-57.96Z"/>
            <path class="cls-1" d="M5233.72,1545.8v-265.62h107.86c14.49,0,27.63,1.14,39.44,3.42,11.8,2.28,22.27,5.57,31.39,9.86,9.12,4.29,16.83,9.6,23.14,15.9,6.3,6.31,11.07,13.55,14.29,21.73,3.22,8.19,4.83,17.24,4.83,27.16,0,9.39-1.48,17.91-4.43,25.55-2.96,7.65-7.38,14.29-13.28,19.92-5.9,5.63-13.28,10.26-22.13,13.88-8.85,3.62-19.18,6.11-30.99,7.44v6.04c13.68,1.35,24.61,4.5,32.8,9.46,8.18,4.97,14.62,11.61,19.32,19.92,4.69,8.32,8.78,18.65,12.27,30.99l16.1,54.33h-63.99l-12.48-50.31c-2.41-10.73-5.9-19.12-10.46-25.15-4.57-6.04-10.33-10.32-17.3-12.88-6.98-2.55-15.43-3.82-25.35-3.82h-43.06v92.16h-57.95ZM5291.68,1410.18h45.88c18.24,0,32.33-3.48,42.26-10.46,9.92-6.97,14.89-17.84,14.89-32.6s-4.63-25.15-13.88-31.99c-9.26-6.84-23.14-10.26-41.65-10.26h-47.49v85.32Z"/>
            <path class="cls-1" d="M5506.98,1545.8v-265.62h59.16v265.62h-59.16Z"/>
            <path class="cls-1" d="M5602.77,1545.8l90.95-265.62h84.52l90.95,265.62h-62.78l-67.21-219.74h-6.04l-67.61,219.74h-62.78ZM5653.88,1493.48v-39.44h172.65v39.44h-172.65Z"/>
          </g>
        </g>
      </g>
      <g>
        <path class="cls-1" d="M1203.87,1084.63c-30.73,3.43-98.69-11.99-126.98-25.98-6.95-3.44-13.58-7.8-20-12.02-5.67-3.73-11.02-7.25-16.53-10.16-7.38-3.89-15.03-7.58-22.44-11.14-28.37-13.67-57.63-27.76-76.94-55.95-7.66,13.72-13.77,28.58-19.7,43.04-6.11,14.9-12.44,30.3-20.51,44.72-7.38,13.19-16.49,25.73-25.28,37.86-7.87,10.84-16,22.05-22.57,33.33-5.38,9.25-9.88,19.49-14.24,29.4-3.73,8.48-7.57,17.21-12.04,25.56,13.67,21.37,31.73,42.58,51.15,60.02,30.25,27.17,44.74,32.13,82.18,42.49,36.43,10.08,79.99,20.41,127.09,20.76,8.62-2.09,38.42-30.18,50.43-43.86,26.29-29.93,47.29-59.7,62.43-88.51,20.64-39.28,35.33-74.47,44.74-107.2-3.97,1.77-7.87,3.99-11.9,6.28-8.76,4.98-17.82,10.14-28.88,11.36ZM1106.38,1238.6c-12.23,21.43-41.84-10.31-57.97-14.35l-31.58,50.28c-1.69,1.64-5.56,2.54-7.89,2.33-3.41-.3-39.51-19.62-45.06-22.96-19.69-11.84-37.28-27.44-57.05-39.27-1.95-3.24-.59-5.83.59-8.9,3.39-8.84,19.51-24.32,24.93-33.56.02-2.29-31.74-22.42-35.69-26.56-2.57-2.68-4.16-5.3-3.89-9.17.43-6.22,19.23-34.33,23.6-42.56,3.95-7.44,12.67-33.54,19.21-35.56,13.83-4.28,51.09,31.02,55.28,27.98,2.19-9.56,15.02-41.45,25.51-41.38,13.16,8.68,77.15,35.54,83.05,45.16,6.07,9.89-16.91,38.93-19.69,49.82,14.33,7.72,27.37,16.22,40.73,25.37,4.83,3.31,12.11,1.71,12.12,10.64-9.74,18.97-15.93,44.7-26.2,62.69Z"/>
        <path class="cls-1" d="M906.13,1305.34c-22.59-9.6-43.89-30.07-62.69-48.13-2.08-2-4.13-3.97-6.13-5.88-7.37,7.91-11.4,13.31-11.54,24.41-.16,12.61,2.12,27.6,4.33,42.11,2,13.12,4.07,26.69,4.45,39.02.39,12.71-.64,26.1-3.15,40.87l.05.07c15.52,2.15,72.16-10.73,92.66-17.01,13.95-4.28,32.2-11.36,45.43-17.63,10-4.74,19.65-10.92,28.98-16.89,6.5-4.16,13.14-8.41,20.04-12.29-12.58-3.37-25.77-6.05-39.58-8.85-24.66-5-50.16-10.18-72.85-19.81Z"/>
        <path class="cls-1" d="M1304.06,1325.08c10.38-1.39,22.59-4.3,35.15-8.41,49.87-16.3,107.77-66.27,134.95-105.17,4.61-6.6,27.23-45.6,36-63.71l-163.81,45.04c1.98,52.03-18.53,94.34-42.29,132.25Z"/>
        <path class="cls-1" d="M865.29,1049.94c-38.34-5.5-80.15-7.37-112.8-5.01-5.48.4-11,1.55-16.84,2.78-6.1,1.28-12.42,2.6-18.89,3.04-44.32,3.04-80.93-3.74-108.8-20.13l-90.31-58.6c.29.69.57,1.38.85,2.07,6.11,14.84,11.88,28.87,22.97,38.63,11.91,7.77,23.7,15.76,35.11,23.48,45.33,30.69,88.15,59.68,140.22,78.06,11.57,4.09,23.34,6.19,35.81,8.42,9.35,1.67,19.02,3.4,28.5,6.04,5.93,1.65,11.41,3.92,16.71,6.13,4.04,1.68,7.93,3.3,11.82,4.56,9.32-24.21,24.41-45.25,39.03-65.65,5.57-7.77,11.3-15.75,16.62-23.82Z"/>
        <path class="cls-1" d="M1057.82,1148.58c-4-8.07,17.55-36.19,17.15-47.24l-51.06-31.99-27.88,44.71c-6.41,7.41-27-12.84-33.63-17.21-3.18-2.1-18.12-11.91-20.07-12.2-5.56-.83-9.71,8.63-12.64,13.12-7.54,11.55-12.9,24.69-19.95,36.55l45,24.95c4.05,11.98-20.97,33.73-17.75,47.82l71.89,39.7c8.63.02,21.21-43.97,35.91-45.38,9.41-.9,39.48,24.44,48.96,30.17l21.7-50.9c-10.26-1.89-16.25-10.41-25.13-15.47-6.39-3.64-29.91-11.42-32.5-16.64Z"/>
        <path class="cls-1" d="M1635.94,109.47c-91.85-37.55-242.71-53.91-341.38-10.24-57.04,25.24-91.24,57.26-130.85,94.33-11.6,10.86-23.59,22.08-36.79,33.74-17.88,15.8-36.83,30.85-55.16,45.41-24.97,19.84-50.79,40.36-74,62.85-33.36,32.33-61.26,69.68-88.24,105.8-41.55,55.62-84.51,113.13-147.83,152.48-23.05,14.33-93.89,55.03-153.9,55.02-10.77,0-21.2-1.31-30.93-4.32-6.17-1.91-10.98-4.82-15.64-7.64-2.95-1.78-5.74-3.47-8.68-4.76-3.75-1.65-7.59-2.97-11.3-4.24-9.95-3.41-20.23-6.93-29.41-16.96-8.85-9.68-33.3-57.09-37.94-68.81-43.31-109.55,2.9-146.71,66.86-198.15,10.05-8.08,20.44-16.44,31.12-25.57l8.25-7.04c25.5-21.76,54.41-46.43,77.33-69.08,11.23-11.1,31.35-42.02,38.17-57,7.67-16.84-3.34-55.33-13.61-77.28-2.48-5.3-10.86-20.71-13.07-23.21-.89-.74-1.04-.73-3.79-.44l-.92.09c-8.34.82-30.08,20.16-45.96,34.29-13.38,11.89-26.01,23.13-35.23,28.61-25.25,15-51.65,19.46-77.19,23.77-40.22,6.79-74.97,12.65-96.63,58.03-2.08,4.35-4.34,10.87-6.73,17.76-5.12,14.76-10.42,30.03-17.77,37.11-15.39,14.83-30.97.04-38.45-7.06-6.44-6.11-11.37-12.12-16.13-17.94-10.59-12.92-18.96-23.13-39.09-28.59-12.89-3.49-26.16-6.35-40.21-9.38-49.45-10.66-100.58-21.68-135.4-61.27-8.83-10.04-17.11-22.45-25.12-34.45-10.12-15.17-20.58-30.85-32.04-41.58-9.2-8.61-11.07-8.8-22.25-2.14C9.75,97.21-3.3,155.79.71,187.65c2.68,21.26,22.63,98.54,31.56,119.28,4.46,10.36,37.98,37.34,51.84,44.41,20.16,10.29,46.68,18.02,74.75,26.2,49.64,14.47,100.97,29.43,127.87,61.34,24.3,28.83,72.23,126.39,81.62,161.54,4.57,17.11,8.13,35.16,11.58,52.62,3.94,19.96,8.01,40.6,13.6,59.82,15.28,52.53,44.64,103.7,73.04,153.19,7.42,12.93,15.09,26.3,22.23,39.23,46.58,43.7,106.53,80.36,178.2,108.99,16.42,1.94,32.23-1.83,48.94-5.8,7.35-1.75,14.94-3.55,22.56-4.82,51.94-8.67,104.3-14.01,155.68-15.88,1.45-2.69,3.86-8,6.04-12.81,10.9-23.99,21.61-46.1,32.9-53.08,10.98-6.79,28.99-6.16,44.89-5.6,6.84.24,13.31.47,18.24.06,19.25-6.95,37.45-17.71,55.06-28.11,6.09-3.6,12.28-7.26,18.57-10.79-1.95-1.13-3.72-2.61-5.2-4.38-3.15-3.75-4.51-8.28-3.83-12.74.69-4.53,4.2-12.6,20.05-15.8,14.21-2.88,38.54-1.02,44.33,8.44,4.07,6.64.43,21.89-3.08,26.56-1.45,1.93-3.41,3.02-4.99,3.89-.55.31-1.39.77-1.5.84-1.19,1.62-2.15,3.56-3.16,5.61-1.32,2.66-2.69,5.41-4.73,7.84-21.58,25.57-62.28,53.38-93.63,72.74,2.29,2.06,5.32,4.53,7.12,5.83,20.53,14.72,105.5,51.13,127.79,53.19,19.31,1.79,39.85-1.32,59.71-4.31,2.67-.4,5.32-.8,7.95-1.19,4.72-10.9,7.87-22.41,11.19-34.54,3.87-14.16,7.87-28.79,14.62-42.32,9.66-19.38,25.06-41.93,38.64-61.82,3.82-5.59,7.51-11,10.91-16.09,4.62-6.92,9.62-14.63,14.92-22.79,24.9-38.36,55.88-86.09,84.19-109.4,1.55-1.28,3.37-3.28,5.29-5.4,5.77-6.36,15.43-17.01,25.85-9.53,5.77,4.14,7.15,8.92,7.29,12.2.44,10.14-9.98,19.1-17.59,25.64-1.69,1.45-3.29,2.82-4.34,3.86-17.11,16.89-24.39,33.03-32.82,51.72-5.39,11.95-10.96,24.3-19.62,37.93-6.56,10.33-13.95,20.17-21.1,29.68-6.72,8.95-13.67,18.2-19.75,27.65-13.91,21.62-21.44,44.93-29.41,69.61-1.83,5.66-3.71,11.49-5.68,17.3,1.75,2.34,3.74,4.65,5.81,7.06,6.08,7.06,12.98,15.07,14.69,25.93,3.24,20.68-26.3,93.1-30.88,103.32-2.45,5.48-5.31,10.72-8.07,15.79-1.82,3.34-3.59,6.59-5.22,9.84,3.65-.62,7.29-1.18,10.87-1.74,10.78-1.68,21.93-3.42,32.33-6.39,11.24-3.21,22.54-7.68,34.51-12.41,10.39-4.11,21.14-8.37,31.8-11.69,34.14-10.64,68.56-20.11,101.85-29.26,107.68-29.63,209.38-57.61,304.42-122.66,22.62-15.48,64.73-44.3,84.33-64.91,61.35-64.51,145.4-162.33,166.94-266.55.7-3.37.98-7.7,1.26-11.89.09-1.39.19-2.79.3-4.19-9.6-.58-18.54-3.24-27.25-5.83-8.23-2.45-16-4.76-24.26-5.44-64.95-5.37-117.83,13.91-173.82,34.31-15,5.46-30.51,11.12-46.49,16.38-70.86,23.33-174.74,32.6-277.89,24.79-3.33-.25-6.46-1.46-8.99-2.44-1.12-.43-2.78-1.07-3.51-1.19-1.75.56-6.05,4.38-8.92,6.93-7.31,6.49-15.57,13.85-24.37,13.02-2.83-.27-6.96-1.56-10.51-6.18-2.77-3.6-3.81-8.1-3.1-13.4,2.77-20.64,32.64-49.43,40.41-55.31,7.46-5.65,22.09-13.54,31.98-16.28,7.04-1.95,40.78-6.39,48.99-4.75,7.84,1.58,13.4,10.04,14.65,17.2,1.14,6.54-1.16,12.25-6.15,15.27-2.67,1.62-5.85,1.98-8.91,2.34-2.02.23-4.78.55-5.74,1.24l-16.09,8.53c58.33-1.41,120.36-10.33,168.01-24.27,16.47-4.82,32.91-11.39,48.8-17.75,14.15-5.65,28.77-11.5,43.56-16.19,61.49-19.49,153.32-38.76,244.07-21.13,20.63-44.36,18.12-94.49-7.22-141.7-70.04-130.5-224.46-264.79-375.54-326.57ZM1532.43,532.26c-34.4,26.31-45.36-6.97-74.76-19.29-4.93-.4-24.09,14.63-26.61,19.83-8.87,18.29,14.58,71.01-26.26,55.59-12.58-4.75-20.1-13.28-22.4-26.66-1.74-10.15-3.62-41.81-2.7-51.99.79-8.74,4.09-16.6,10.08-22.94,29.25-30.94,102.42-33.73,133.39-3.56,11.64,11.34,25.43,36.66,9.27,49.02Z"/>
      </g>
    </g>
  </g>
</svg>