<?xml version="1.0" encoding="UTF-8"?>
<svg id="Camada_2" data-name="Camada 2" xmlns="http://www.w3.org/2000/svg" viewBox="0 0 6373.08 1909.15">
  <defs>
    <style>
      .cls-1 {
        fill: #fff;
      }
    </style>
  </defs>
  <g id="Camada_1-2" data-name="Camada 1">
    <g>
      <g>
        <g>
          <g>
            <path class="cls-1" d="M2192.37,883.47c-108.83-.54-217.19-9.17-325.68-5.03-17.97.41-60.29-5.1-40.78-29.9,16.69-17.95,42.35-27.78,52.75-50.71,7.01-13.49,8.49-28.14,8.71-42.51,1.86-107.3.18-313.97.44-424.42-.3-11.67-1.16-25.43-5.46-38.69-4.62-14.68-14.12-27.11-26.54-36.84-10.62-8.84-24.18-15.86-31.72-27.61-13.78-29.32,40.65-26.59,57.54-26.77,101.95,7.04,203.58-3.46,305.37-4.97,134.22-3.58,275.18,57.33,344.37,176.11,68.84,116.4,50.5,275-34.17,378.81-72.77,89.75-190.38,133.3-304.07,132.52h-.77ZM2175.85,826.15c165.9,4.38,210.1-181.31,193.61-323.97-8.15-115.87-68.35-242.58-197.73-246.53-30.7-1.88-74.12-.47-91.49,27.4-8.47,14.06-8.09,30.43-8.79,46.76-1.53,66.65,1.11,172.8-.03,255.68,0,45.15-.16,80.38,0,117.91.1,15.38.43,32.96,3.67,49.13,8.52,49.83,50.07,74.27,99.9,73.62h.85Z"/>
            <path class="cls-1" d="M2623.38,877.56c-17.38-16.64,11.25-35.44,20.94-50.24,17.35-22.65,14.36-53.62,14.93-80.82,0-44.75.01-90.05,0-135.07-.2-22.35.5-45.81-6.53-67.14-4.78-15-16.03-30.7-18.52-47.05-4.55-27.16,26.36-36.7,47.31-43.55,24.07-7.29,47.9-14.61,71.61-23.03,26.19-8.45,52.7-18.64,65.42,4.22,9.32,13.07,4.3,48.29,22.39,51.05,17.75-.51,32.82-20.28,47.24-29.85,22.18-16.95,48.2-30.01,76.47-32.69,34.29-4.31,75.23,12.76,75.45,51.98,1.11,40.66-34.69,78.95-76.5,74.11-19.88-1.4-38.82-9.09-58.65-11.06-72.18-8.55-82.84,58.27-83.45,114.34-.5,28.24-.17,56.06-.23,84.27.36,26.19-.91,55.56,11.54,76.55,9.6,16.97,28.17,27.81,40.64,42.09,29.99,41.92-70.04,28.74-89.66,29.04-31.53-1.28-62.64-.72-94.09.58-21.06.1-47.74,4.2-65.85-7.36l-.44-.35Z"/>
            <path class="cls-1" d="M3088.52,911.27c-56.11.18-100.72-57.65-85.79-111.78,26.72-102.7,176.18-84.61,178.32,21.3.79,49.15-42.41,91.9-91.74,90.49h-.78Z"/>
          </g>
          <g>
            <path class="cls-1" d="M3963.79,911.3c-127.98,1.17-192.27-62.5-259.95-162.45-16.74-24.18-32.56-48.79-47.22-74.28-14.2-23.99-26.12-50.18-44.51-71.15-14.06-16.06-38.61-31.94-49.32-8.05-6.25,13.77-5.54,39.17-5.59,67.97.32,35.12-.82,71.95.88,106.5,1.16,27.65,9.91,50.8,34.36,65.99,13.06,10.5,51.8,26.08,46.88,42.53-14.6,22.11-88.52,11.16-114.8,12.37-40.43-1.06-79.44-1.15-119.52.28-26.89-.56-80.7,8.57-99.63-10.71-11.33-15.24,41.97-43.16,50.82-56.53,9.69-10.3,14.76-24.18,16.08-37.56,2-115.28,1.94-352.58.03-464.6-3.22-42.87-43.02-56.24-62.07-83.38-10.32-23.61,39.56-23.88,56.59-23.16,51.64,3.48,104.43,6.13,156.51.83,93.01-7.5,204.4-11.35,286.7,35.82,31.74,19,56.94,49.29,65.82,85.71,13.56,52.23-1.63,109.15-42.17,144.78-18.97,18.5-49.34,31.94-63.62,47.33-20.44,19.79-5.76,47.33,8.75,67.54,53.84,71.81,117.99,168.57,200.28,207.3,26.79,12.9,59.05,13.26,86.18,23.63,40.17,16,21.29,51.84-8.03,66.1-27.39,13.9-59.6,16.81-92.6,17.2h-.83ZM3599.94,532.17c53.29,7.82,92.16-41.09,100.6-91.94,8.42-48.1,4.05-109.55-24.84-146.48-19.36-26.27-59.92-44.13-89.44-25.3-23.43,15.38-24.52,54.49-25.72,82.27-1.06,32.48-.82,64.59-.68,96.89.25,32.93,3.25,75.88,39.44,84.42l.64.14Z"/>
            <path class="cls-1" d="M4359.3,906.07c-14.35-8.08-16.13-32.47-21.51-44.27-2.79-7.26-9.92-8.53-16.79-5.75-13.64,4.72-35.44,22.05-58.08,33.02-70.03,36.12-151.84,30.21-191.35-44.99-21.81-41.28-23.63-82.17-23.5-127.37-.05-28.52-.03-60.05-.03-89.03-.29-48.25,3.27-78.85-25.02-112.44-7.39-10.99-19.17-25.43-13.66-37.35,6.23-10.95,20.88-15.1,40.12-19.48,18.26-3.49,37.05-5.48,55.39-8.93,28.55-3.35,71.53-21.52,95.28.33,18.01,19.96,7.91,60.16,8.65,87.13-.58,36.81-.21,95.37-.3,137.61-.3,50.19-2.8,114.49,54.16,132.05,39.55,10.94,74.82-21.35,81.22-58.93,3.62-17.6,3.66-35.94,3.94-54.11.08-30.99.38-67.59-.22-99.08-.69-19.87-1.81-40.89-12.51-57.84-7.44-11.84-19.19-20.91-29.81-30.27-16.07-13.41-34.51-31.21-8.43-44.69,16.59-8.95,38.24-11.38,57.29-12.96,38.88-2.25,74.35-8.12,112.1-10.82,48.22-2.9,49.36,31.77,44.94,69.62-2.88,28.73-2.8,52.65-2.8,92.85-.02,41.85.01,86.77,0,128.93-.33,70.09,1.3,63.34,43.44,104.97,30.24,36.07-61.53,45.1-84.07,52.42-14.65,3.74-29.16,8.08-43.56,12.6-20.18,5.63-45.25,16.55-64.45,7.03l-.42-.25Z"/>
            <path class="cls-1" d="M4819.77,909.29c-50.11,2.11-100.59-17.59-149.32-18.33-26.56-1.77-71.85,17.21-79.04-20.26,5.02-164.86,1.18-368.99-2.77-554.04-3.69-54.4-76.51-94.6,15.69-117.74,93.02-26.3,156.04-78.86,139.95,64.95-.19,47.67-.68,106.16-.63,155.13-1.19,36.49,8.91,53.56,48.01,41.53,87.99-37.39,198.14-19.77,252.48,64.1,112.32,169.85-19.95,394.45-223.55,384.67h-.82ZM4833.71,856.42c48.38-4.76,66.05-61.23,74.12-102.37,11.15-64.02,8.41-132.57-16.59-193.11-10.81-25.01-28.9-48.02-54.89-56.84-29.31-9.67-78.57-6.59-88.69,26.45-3.09,9.62-3.82,22.1-3.98,37.27-.1,26.46-.02,57.05-.05,84.35,1.32,52.93-6.06,107.45,16.6,152.33,13.09,27.75,40.63,53.99,72.81,51.96l.66-.04Z"/>
            <path class="cls-1" d="M5300.67,904.62c-101.94.44-181.79-84.96-195.61-182.51-19.41-111.11,40.74-226.18,146.83-266.81,54.16-21.41,121.13-21.71,171.82,8.47,44.57,24.56,84.38,84.93,63.93,134.3-16.21,32.17-51.41,25.6-89.39,27.04-18.97,0-40.66,0-60.39,0-53.84.27-110.68-6.79-99.31,67.83,10.73,59.85,69.25,102.6,129.37,98.85,28-.04,57.18-13.46,82.04-22.36,34.71-12.46,41.07,7.49,29.16,34.45-30.98,65.89-106.75,102.02-177.67,100.76h-.79ZM5259.47,575.13c19.15,10.05,51.86,8.81,74.72,6.83,35.91-2.07,62.35-28.12,43.83-64.9-16.74-31.82-59.86-38.23-90.14-22.65-27.21,11.75-64.54,59.06-28.98,80.41l.57.31Z"/>
            <path class="cls-1" d="M5502.07,892.35c-20.83-10.66-.39-28.74,13.18-44.89,28.15-27.41,20.87-64.12,22-101.42.02-36.45-.01-75.51,0-112.19-.14-29.22,1.26-60.02-7.92-79.86-7.57-20.32-28.47-45.06-15.07-66.3,19.5-22.25,56.61-26.04,83.94-35.94,27.35-8.03,62.74-24.05,81.22-21.64,14.28.79,20.66,14.32,24.47,26.4,9.59,36.76,27.79,23.21,53.39,9.72,78.37-50.62,197.86-43.83,235.82,52.64,16.51,42.39,14.94,74.22,15.23,125.53-.03,34.78.02,72.7,0,107.93.81,36.77-2.99,58.44,11.16,82.11,7.3,11.32,18.78,22.01,25.55,33.15,23.19,37.4-52.21,30.38-72.14,30.14-32.64-1.39-65.32-1.07-97.95.35-19.53.2-49.44,2.71-63.25-11.44-11.1-17.28,27-46.28,30.19-66.28,5.47-17.89,4.38-42.76,4.58-72.8,0-24.47,0-50.71,0-74.85-.27-33.99,1.12-69.29-9.97-94.2-16.69-41.45-64.74-54.38-102.89-34.25-31.68,14.46-35.23,47.02-34.47,78.13.76,54.77-1.76,127.06,1.25,183.07,1.24,11.61,4.28,21.04,9.66,29.61,7.08,13.67,33.8,36.06,23.9,51.7-19.32,19.1-75,8.82-104.44,10.11-22.27-.29-44.58.42-66.84,1.31-20.36,1.09-48.22.63-60.15-5.64l-.44-.21Z"/>
            <path class="cls-1" d="M6197.49,904.81c-42-.28-95.85-6.7-123.39-37.65-21.6-19.39-39.19-105.12-7.02-118.08,23.61-4.03,41.81,28.2,54.31,44.7,65.46,102.12,163.67,41.96,114.43-26.49-22.58-28.43-57.57-42.18-87.19-62.48-20.26-13.35-39.13-28.92-53.24-47.59-42-53.45-34.53-137,20.83-178.35,48.88-39.11,121.06-47.31,181.65-33.44,34.01,6.87,58.3,30.53,62.86,66.35,3.28,15.45.47,43.18-11.36,48.25-26.5,11.06-53.68-48.29-74.79-59.99-23.8-18.52-63.93-17.7-80.65,9.53-25.74,48.4,38.22,81.5,74.09,103.31,22.27,13.61,43.74,26.74,62.02,43.87,42.8,38.33,52.89,104.33,33.8,157.35-24.06,69.22-98.18,90.79-165.51,90.71h-.83Z"/>
          </g>
        </g>
        <g>
          <g>
            <path class="cls-1" d="M2216.06,1814.69c-239.21,2.26-445.03-173.34-384.49-423.76,49.19-194.26,254.11-290.83,443.41-276.37,20.5,1.32,40.73,3.85,60.95,7.46,30.89,6.17,63.07,11.69,89.74,27.95,26.29,15.59,37.91,46.56,40.53,77.12,2.71,19.97,5.91,86.59-24.95,73.36-15.36-7.59-30.85-40.25-43.11-57.76-28.61-41.95-75.37-63.32-126.12-69.14-163.75-20.88-260.13,123.09-259.86,272.95-2.5,148.72,56.88,311.31,230.53,307.49,77.61-.49,135.07-29.59,177.5-93.23,13.99-17.81,37.78-49.59,51.74-28.58,13.39,28.8-2.98,89.5-20.84,115.84-21.37,32.19-58.54,43.45-96.31,52.3-45.21,10.46-91.45,14.65-137.91,14.38h-.81Z"/>
            <path class="cls-1" d="M2640.64,1814.21c-51.12.84-104.28-36.05-107.19-89.46-4.21-51.5,39.88-88.01,82.73-108.09,33.72-17.9,72.88-29.07,103.73-51.21,25.54-19.43,29.57-50.5,28.66-82.77-.91-24.35-7.04-53.43-30.28-63.19-13.12-5.92-29.34-4.01-40.83,4.8-20.74,16.17-25.29,44.59-43.93,62.92-12.27,12.43-29.34,20.53-47.15,23.27-19.04,3.87-43.72-3.87-41.45-25.55,1.86-19.82,17.45-36.99,32.44-50.52,60.95-50.61,160.63-102.99,240.56-79.64,46.73,12.87,78.82,53.64,86.66,100.29,4.62,22.78,3.93,48.67,3.31,75.37-.67,27.5-1.6,59.41-2.37,89.52.56,38.68-8.13,79.89,14.32,105.25,8.61,9.16,22.92,13.71,34.84,17.07,9.53,2.53,21.86,7.13,17.19,18.8-3.33,10.25-17.41,25.68-34.93,35.57-20.34,11.96-44.1,18.18-67.66,17.22-27.46.06-51.85-14.77-75.38-26.71-42.68-21.68-68.35,4.84-107.6,19.49-14.44,4.96-29.61,7.61-44.92,7.58h-.77ZM2710.59,1744.35c37.82-2.9,37.36-64.42,36.86-94.16-1.42-14.04-2.3-33.95-18.48-37.08-12.59-1.36-31.09,11.09-41.5,30.89-11.46,21.52-14.37,48.55-7.1,71.79,4.43,14.37,14.83,28.57,29.67,28.56h.56Z"/>
            <path class="cls-1" d="M3151.39,1820.87c-101.29-.88-152.11-56.57-152.64-156.36-.86-51.96-.09-116.21-.39-167.52-.44-18.47.34-38.92-9.67-54.54-12.24-21.07-53.65-35.59-37.82-64.73,19.43-28.16,59.28-42.9,86.44-64.22,27.83-16.92,91.76-79.98,111.78-42.16,7.84,15.66,8.45,36.94,14.09,53.25,14.72,44.53,85.21,24.91,120.5,36.25,25.75,5.51,44.29,28.5,17.34,47.59-31.31,21.21-80.39,9.1-113.43,25.76-26.54,13.59-24.88,47.67-25.72,73.73-.14,24.97-.04,55.28-.06,80.68.41,52.77-4.49,126.02,55.73,147.57,17.94,6.51,40.52,5.23,59.31,5.71,60.2-.69,20.04,38.14-9.81,52.15-35.19,17.53-74.12,27.05-114.77,26.83h-.86Z"/>
          </g>
          <g>
            <path class="cls-1" d="M3414.15,1724.06v-267.46h58.36v267.46h-58.36ZM3455.08,1648.69v-45.79h61.19c19.45,0,34.04-3.98,43.77-11.95,9.72-7.96,14.59-21.14,14.59-39.51,0-16.21-4.53-28.57-13.57-37.08-9.06-8.51-23.04-12.77-41.94-12.77h-64.03v-44.98h65.65c17.28,0,32.89,2.03,46.81,6.08,13.91,4.05,25.8,10.07,35.66,18.03,9.86,7.97,17.36,17.97,22.49,29.99,5.13,12.02,7.7,26.14,7.7,42.35,0,20.8-4.73,38.29-14.18,52.48-9.46,14.18-23.44,24.92-41.94,32.22-18.51,7.29-41.54,10.94-69.1,10.94h-53.09Z"/>
            <path class="cls-1" d="M3675.13,1724.06v-267.46h58.76v267.46h-58.76ZM3715.65,1503.61v-47.01h164.94v47.01h-164.94ZM3715.65,1610.59v-43.36h145.48v43.36h-145.48ZM3715.65,1724.06v-47.41h165.75v47.41h-165.75Z"/>
            <path class="cls-1" d="M3926.78,1724.06v-267.46h58.36v267.46h-58.36ZM3954.74,1724.06v-47.41h77.81c15.13,0,27.69-3.3,37.69-9.93,9.99-6.62,17.56-16.27,22.69-28.97,5.13-12.7,7.7-28.23,7.7-46.6,0-15.13-1.62-28.16-4.86-39.11-3.24-10.94-8.04-19.92-14.38-26.95-6.35-7.02-14.32-12.29-23.91-15.81-9.59-3.51-20.87-5.27-33.84-5.27h-68.89v-47.41h66.87c32.42,0,58.89,5.27,79.43,15.8,20.53,10.54,35.66,25.6,45.39,45.18,9.73,19.59,14.59,43.03,14.59,70.31,0,20.54-2.43,38.37-7.29,53.49-4.86,15.13-11.42,27.96-19.65,38.5-8.25,10.54-17.77,19.05-28.57,25.53-10.81,6.48-22.29,11.22-34.45,14.19-12.16,2.98-24.45,4.46-36.88,4.46h-79.43Z"/>
            <path class="cls-1" d="M4209.64,1724.06v-267.46h59.57v267.46h-59.57Z"/>
            <path class="cls-1" d="M4306.09,1724.06l91.58-267.46h85.1l91.58,267.46h-63.22l-67.68-221.27h-6.08l-68.08,221.27h-63.22ZM4357.56,1671.38v-39.72h173.85v39.72h-173.85Z"/>
            <path class="cls-1" d="M4562.62,1505.63v-49.04h216.4v49.04h-216.4ZM4641.64,1724.06v-267.46h58.36v267.46h-58.36Z"/>
            <path class="cls-1" d="M4816.3,1724.06v-267.46h108.61c14.59,0,27.82,1.15,39.71,3.44,11.89,2.3,22.42,5.61,31.61,9.93,9.18,4.32,16.95,9.66,23.3,16.01,6.35,6.35,11.15,13.64,14.39,21.88,3.24,8.24,4.86,17.36,4.86,27.35,0,9.46-1.49,18.03-4.46,25.73-2.98,7.7-7.43,14.39-13.37,20.06-5.95,5.67-13.37,10.33-22.29,13.98-8.92,3.65-19.32,6.15-31.2,7.5v6.08c13.78,1.35,24.78,4.53,33.03,9.52,8.24,5,14.72,11.69,19.45,20.06,4.72,8.38,8.85,18.78,12.36,31.2l16.21,54.71h-64.44l-12.56-50.66c-2.43-10.8-5.95-19.25-10.54-25.33-4.6-6.08-10.4-10.4-17.42-12.97-7.03-2.57-15.54-3.85-25.53-3.85h-43.36v92.8h-58.36ZM4874.66,1587.5h46.2c18.37,0,32.55-3.51,42.55-10.54,9.99-7.02,14.99-17.96,14.99-32.83s-4.66-25.33-13.98-32.22c-9.32-6.89-23.3-10.34-41.94-10.34h-47.82v85.91Z"/>
            <path class="cls-1" d="M5091.46,1724.06v-267.46h59.57v267.46h-59.57Z"/>
            <path class="cls-1" d="M5187.91,1724.06l91.58-267.46h85.1l91.58,267.46h-63.22l-67.68-221.27h-6.08l-68.08,221.27h-63.22ZM5239.37,1671.38v-39.72h173.85v39.72h-173.85Z"/>
          </g>
        </g>
      </g>
      <g>
        <path class="cls-1" d="M841.16,1490.03c-108.71,0-218.63-26.14-334.28-79.31-47.84-21.99-92.47-51.01-135.62-79.07-16.47-10.71-33.45-21.75-50.41-32.27-.29,1.08-.54,2.2-.68,2.81-.17.78-.33,1.46-.47,1.97-5.53,20.32-10.77,43.67-15.61,65.88-.42,1.93-.99,4.2-1.62,6.71-2.28,9.04-7.01,27.85-2.34,32.96,6.79,7.44,33.62,26.17,45.8,34.07,18.17,11.79,29.16,14.57,44.39,18.41,5.83,1.47,12.45,3.14,20.22,5.51,19.83,6.04,39.41,12.46,58.35,18.65,39.44,12.91,76.7,25.11,117.56,34.84,103.61,24.69,216.63,47.98,340.94,51.26,103.93,2.73,158.6-21.35,246.25-64.19,48.2-23.55,94.51-66.39,135.38-104.19l3.74-3.45c23.26-21.5,45.44-45.39,66.89-68.49l1.44-1.55-7.67-40.24c-10.21,7.96-19.39,15.57-28.3,22.95-27.76,23.01-51.74,42.89-91.41,60.88l-11.27,5.12c-42.06,19.12-85.56,38.88-130.04,54.41-70.94,24.77-140.57,47.53-212.48,53.77-19.55,1.69-39.13,2.55-58.73,2.55Z"/>
        <path class="cls-1" d="M192,759.63c-14.74-16.91-35.52-34.46-44.44-34.46-.28,0-.54.02-.79.05h0c-14.36,1.93-31.18,40-37.52,54.34l-1.1,2.48c-23.98,53.93-32.06,98.08-25.45,138.93,8.38,51.77,54.22,124.21,91.79,159.38,9.67,9.05,19.94,14.23,27.55,13.9,3.9-.18,7.15-1.8,9.94-4.95,24.62-27.75,31.52-107.46,30.09-151.18-2.21-67.5-4.12-125.79-50.07-178.49Z"/>
        <path class="cls-1" d="M1311.52,1463.14c-66.2,63.13-128.74,122.76-237.45,143.91-60.82,11.83-107.02,16.49-176.83,7.28-67.37-8.89-134.46-23.97-199.34-38.55-21.79-4.9-44.32-9.96-66.51-14.71-12.41-2.66-25.19-4.81-37.55-6.89-14.64-2.47-29.77-5.01-44.71-8.45-25.27-5.82-50.1-13.94-74.1-21.8-21.81-7.14-44.36-14.51-66.95-20.05-14.78-3.62-27.7-5.99-40.2-8.27-28.95-5.3-53.96-9.87-87.58-27.58-.45-.24-45.33-24.58-48.08-29.19-5.75-9.6-.9-20.01,3.38-29.19.43-.92.85-1.84,1.27-2.76-44.79,21.07-90.88,44.94-132.17,75.79,1.15-.04,2.3-.05,3.45-.05,21.34,0,43.01,5.83,62.77,11.15l3.45.93c58.95,15.81,111.5,43.92,169.18,76.32,69.11,38.82,133.28,82.82,195.34,125.37,177.29,121.56,344.73,236.39,593.23,208.52,40.67-4.56,75.62-17.45,106.86-39.39,33.55-23.57,84.63-62.88,117.35-92.38,32.29-29.13,60.77-71.86,88.31-113.2,8.85-13.27,17.2-25.81,25.51-37.63,28.13-40,28.29-91.37,28.44-141.05.03-10.36.06-20.14.34-29.9.19-6.5.78-14.43,1.4-22.83,3.09-41.59,7.76-104.44-26.69-119.09-13.85-5.89-30.8-7.42-47.19-8.89-.67-.06-1.34-.12-2-.18.23.5.47,1.01.71,1.53,11.01,23.63,20.27,45.89,12.7,58.59-1.29,2.16-3.92,3.92-20.11,13.42-7.42,4.35-15.83,9.29-18.73,11.53-32.22,24.97-60.32,51.77-87.49,77.68Z"/>
        <path class="cls-1" d="M590.84,70.27c27.66,15.74,46.92,18.09,78.83,21.99l.84.1c83.82,10.22,162.08,8.37,232.57-5.49,47.02-9.25,92.99-21.82,136.8-37.4-13.25-7.89-29.73-13.65-44.59-18.86l-1.86-.65c-106.31-37.27-217.93-39.7-351.28-7.67-16.76,4.03-61.27,14.73-77.24,24.88l-.83.52c-2.32,1.46-4.05,2.65-5.17,3.59,3.34,2,6.7,4.02,10.07,6.05,7.18,4.33,14.61,8.82,21.85,12.94Z"/>
        <path class="cls-1" d="M911.31,385.03c4.8-2.56,9.9-4.43,15.13-5.87,8.48-2.34,27.02-8.53,34.38-9.25,15.93-1.57,5.54,13.77,5.92,17.48.46,4.59,11.66,36.83,14.75,37.76l82.3-15.69c2.27-2.69-6.69-40.87-6.71-47.99-.05-19.39,61.5-19.66,62.72-24.27l-19.19-71.36c-2.19-1.5-44.6,10.45-51.91,11.07-9.47.81-15.3-17.73-18.66-25.75-5.69-13.56-9.33-28.06-15-41.62l-73.94,24.16c-3.27,16.37,15.3,53.37,6.99,66.14-5.96,9.15-47.95,10.8-57.99,21.98l18.84,62.7,2.36.52Z"/>
        <path class="cls-1" d="M1128.58,884.42c-.72,10.03-1.61,20.26-2.57,31.1-2.16,24.65-4.4,50.14-4.36,72.98,0,1.5.43,3.49.89,5.59.52,2.41,1.08,5,1.23,7.71,5.99-.36,18.97-1.91,42.99-6.1,16.77-2.92,32.21-5.96,41.33-7.98l-79.37-111.36c.06,2.64.06,5.34-.13,8.05Z"/>
        <path class="cls-1" d="M901.14,541.16c-6.96,2.74-13.91,5.64-20.51,8.85-26.56,12.93-72.43,49.78-95.1,69.97-58.33,51.94-107.28,137.33-134.29,234.25-27.23,97.71-28.77,195.81-4.23,269.15,12.66,37.82,54.47,94.46,94.98,132.4l-1.6-1.62c-56.71-64.07-71.16-132.21-75.4-214.81-9.23-179.42,48.24-313.81,198.35-463.88,12.84-12.84,25.18-24.06,37.8-34.31Z"/>
        <path class="cls-1" d="M234.85,567.83c2.54.28,4.47,1.56,5.89,2.5.54.36,1.35.9,1.65.97,87.4,15.36,170.73,102.38,185.76,193.98,21.59,131.68,11.99,261.23-26.34,355.45-9.34,22.95-30.09,62.74-49.02,78.33-12.06,9.93-31.14,15.76-47.98,20.91-1.19.36-2.36.72-3.51,1.08,24.64,16.74,51.78,30.65,78.11,44.14,16.95,8.68,34.47,17.66,51.24,27.33,19.09,11.01,39.31,24.61,58.87,37.76,26.06,17.52,53.01,35.63,77.77,48.01,18.63,9.32,46.17,19.14,70.46,27.8,6.41,2.28,12.51,4.46,18.05,6.49,4.04,1.48,8.18,3,12.38,4.56,21.32,7.87,43.37,16,63.45,21.87,76.2,22.27,192.19,14.62,260.3-5.65,17.72-5.27,35.13-12.84,51.96-20.17,10.64-4.63,21.49-9.35,32.59-13.57-133.32-6.88-216.1-33.75-262.68-55.62-70.21-32.98-162.64-132.41-193.92-208.61-40.09-97.66-20.6-261.48,22.75-353.22,39.05-82.63,123.21-230.59,248.2-293.06,56.15-28.07,189.33-46.42,247.74-39.62,9.64,1.12,18.65,2.34,27.38,3.52,14.37,1.94,27.93,3.78,43.84,5.18,43.47,3.8,99.25,31.47,128.62,47.62,45.29,24.9,88.4,55.61,112.5,80.14,20.54,20.9,38.61,44.29,55.94,67.36-.84-10.56-2.2-21.14-3.53-31.5-.88-6.87-1.8-13.98-2.55-20.99-.6-5.62-1.12-10.81-1.61-15.68-3.18-31.88-4.93-49.44-20.3-83.96-62.47-140.42-162.04-243.03-332.93-343.1-6.87-4.02-13.17-7.49-19.05-10.5,0,.31,0,.63,0,.94-.01,2.61-.02,4.86.64,6.85.93,2.78,6.49,7.87,10.95,11.96,9.76,8.93,20.82,19.05,14.6,29.25-1.97,3.24-6.87,5.33-9.64,5.59-9.89.97-48.95-23.66-54.16-30.36-8.19-10.53-8.05-23.05-7.92-34.1.07-5.76.13-11.2-.86-16.15-.83-3.46-10.44-29.24-15.34-39.86-1.08.67-2.25,1.28-3.5,1.85-146.16,66.8-326.05,76.9-481.21,27.02-18.16-5.84-38.23-13.74-53.2-28.28-3.88,11.51-7.32,23.37-10.67,34.92-10.73,37.04-21.83,75.34-48.23,106.18-17.31,20.22-29.77,28.6-37.08,24.88-4.6-2.34-6.18-5.77-6.68-8.22-.49-2.39-.21-4.81.58-7.23-6.74,5.55-13.59,10.89-20.33,16.15-10.09,7.88-20.52,16.02-30.23,24.55l-3.19,2.81c-50.11,44.04-101.92,89.58-134.59,145.94-26.66,45.98-43.75,93.77-61.85,144.37-2.18,6.09-4.41,12.31-6.66,18.55,10.22-4.84,19.9-8.95,32.33-11.56.3-.06,31-6.2,34.2-5.81ZM874.08,300.69c5.2-8.09,37.19-11.46,46.38-16.35,3.36-4.91-10.8-47.32-6.64-57.06,2.99-7,21.44-14.7,28.84-18.17,9.46-4.43,21-9.19,30.85-12.68,7.79-2.76,47.56-15.37,52.87-14.86,18.53,1.8,17.28,50.86,25.65,64.16,8.34,5.33,56.95-13.57,69.49-9.44,8.4,2.77,11.49,27.11,13.01,35.76,2.28,12.98,2.59,26.06,4.53,38.99.98,6.51,8.44,35.1,7.74,37.72-2.7,10.19-33.38,12.92-43.52,15.73-7.39,2.04-14.48,4.99-21.89,6.89-1.49,2.01,11.79,39.49,9.75,46.99-2.99,11.01-37.06,15.17-47.68,16.87-20.44,3.28-48.98,7.84-69.15,9.17-6.06.4-11.77,1.84-15.18-3.92-4.19-7.06-12.1-45.48-15.18-47.55-14.62.48-31.13,12.41-44.99,12.81-15.56.45-14.28-31.34-16.59-43.45-2.27-11.95-13.4-53.63-8.28-61.61Z"/>
        <path class="cls-1" d="M328.42,1162.78c56.71-74.23,66-204.79,50.64-294.68-17.96-105.08-56.99-180-126.55-242.93-12.36-11.18-24.86-21.07-29.31-23.26-12.43,5.97-24.98,12.18-37.14,18.18-12.55,6.21-25.53,12.62-38.37,18.78-7.01,3.36-14.3,6.38-21.36,9.31-17.81,7.38-34.63,14.34-48.44,26.7-20.46,18.31-38.68,80.67-47.43,110.65l-1.52,5.17c-11.7,39.83-33.48,113.97-28.11,156.64,5.38,42.71,40.84,126.52,64.39,160.31,15.23,21.85,70.46,82.34,91.09,88.42,27.58,8.13,85.14,2.2,117.21-4.6,8.51-1.8,34.14-8.48,38.54-10.75,2.5-2.41,15.09-16.29,16.35-17.93ZM233.33,1117.91c-12.46,16.15-27.18,24.31-43.78,24.31-1.07,0-2.14-.03-3.23-.1-53.87-3.36-108.08-90.84-118.4-108.35-48.09-81.57-54.04-146.11-21.92-238.13.38-1.09,39.85-109.42,79.73-117.62,18.64-3.84,32,5.49,44.93,14.51l1.35.94c59.22,41.25,108.12,151.88,112.28,223.25,3.53,60.68-16.1,156.01-50.97,201.19Z"/>
        <path class="cls-1" d="M1277.54,656.76c-22.76-13.3-81.41-29.41-140.18-29.41-6.5,0-12.98.2-19.43.61-157.07,10.19-299.99,170.11-294.08,329.07,2.33,62.6,19.24,123.13,48.9,175.03,30.88,54.03,75.21,97.65,128.21,126.15,24.43,13.14,42.54,15.76,69.95,19.73l.18.03c1.55.22,3.29.48,5.18.76,18.44,2.74,56.82,8.43,69.44,4.05,22.91-7.95,61.11-33.49,79.97-51.02,64.28-59.74,140.14-185.95,146.22-271.52,6.96-97.95,1.68-173.5-46.08-247.39-9.04-14-38.3-50.26-48.28-56.09ZM985.34,911.46c-3.78,5.33-9.09,8.6-15.77,9.73-2.41.41-4.73.6-6.94.6-20.15,0-32-16.06-34.96-33.47-4.41-25.94,8.48-44.1,23.5-46.68,9.32-1.6,18.43.48,25.66,5.86,7.05,5.24,11.8,13.22,13.38,22.47,2.18,12.73,3.1,30.26-4.87,41.49ZM1229.93,1102.92c-1.85,2.18-3.61,4.23-4.42,5.49-2.46,3.79-4.11,7.22-5.71,10.53-4.07,8.44-7.91,16.41-22.53,23-19,8.57-38.28,12.86-58.5,12.86-21.88,0-44.86-5.02-69.79-15.08-.43-.17-43.06-17.6-45.48-37.49-.5-4.11.44-10.12,7.73-15.39,14.13-10.2,27.87.1,36.97,6.91,2.58,1.93,5.01,3.76,7.15,4.99,5.88,3.39,31.96,15.57,36.94,16.85,13.75,3.54,51.59-2.93,64.27-10.97,4.35-2.76,9.88-9.36,15.21-15.75,9.13-10.91,18.57-22.2,29.08-24.36,4.87-1,14.44-1.34,19.4,3.68,10.35,10.48-2.58,25.65-10.31,34.72ZM1247.24,1001.6c-2.98,7.49-11.57,12.46-28.71,16.63-18.37,4.47-65.87,14.14-98.03,14.14-6.15,0-11.73-.35-16.44-1.16-19.15-3.29-18.29-28.43-17.83-41.93.03-.97.06-1.88.08-2.73.67-25.53,5.22-57.08,8.87-82.42l.21-1.46c.4-2.78.84-6.09,1.33-9.72,2.29-17.09,5.43-40.49,9.68-52.03,2.38-6.47,7.86-13.21,16.13-12.93,4.83.19,12.28,3.5,30.93,26.58,21.6,26.75,55.02,70.9,78.11,107.3,1.33,2.1,2.63,4.11,3.87,6.03,9.06,14.01,15.6,24.14,11.79,33.72ZM1279.69,869.3c-5.33,7.74-13.03,11.87-21.72,11.88-2.23,0-4.53-.27-6.87-.83-15.74-3.71-25.85-19.27-25.77-39.62.06-15.01,6.26-32.55,19.73-35.62,14.7-3.33,27.04,1.08,34.73,12.44,9.72,14.35,9.67,37.56-.1,51.74Z"/>
        <path class="cls-1" d="M1541.21,584.09c4.36,16.48,8.76,33.46,11.62,50.6,8.32,49.72,15.59,124.99,11.08,187.14-.59,8.09-2.07,16.17-3.51,23.99-1.49,8.1-3.03,16.48-3.5,24.63-.61,10.62-.4,21.59-.19,32.19.17,8.66.34,17.49.08,26.35,16.88-28.48,28.57-64.32,32.76-101.28,11.83-104.56-6.79-169.06-24.55-204.82l-23.79-38.8Z"/>
        <path class="cls-1" d="M1270.35,524.93c-38.43-20.64-97.6-35.56-152.19-35.56-25.92,0-50.8,3.37-71.94,11.08-67.8,24.75-143.3,81.85-207.13,156.66-63.04,73.88-108.39,157.22-124.44,228.67-21.53,95.89-19.27,185.31,6.55,258.58,29.41,83.46,87.64,143.95,173.07,179.79,88.26,37.03,256.71,52.16,341.61,16.19,35.71-15.14,99.22-56.08,132.15-82.57,36.65-29.49,73.29-84.15,103.15-153.9,26.2-61.19,45.06-129.26,50.45-182.1,12.25-119.99-24.06-219.97-62.99-262.09-54.22-58.66-122.54-99.43-188.3-134.75ZM1390.5,1152.65c-25.58,47.62-64.48,78.23-105.67,110.65-3.73,2.94-7.47,5.88-11.22,8.86-27.96,22.16-70.54,37.52-119.9,43.24-13.58,1.57-27.16,2.35-40.42,2.35-32.19,0-62.56-4.56-86.89-13.31-43.1-15.51-75.72-31.33-102.67-49.81-33.48-22.95-58.74-50.38-77.23-83.87-47.14-85.39-61.24-166.08-47.12-269.81,8.94-65.64,39.27-131.79,85.41-186.25,47.35-55.89,108.16-95.21,171.22-110.69,35.73-8.78,61.44-13.6,78.61-14.75,53.54-3.56,141.77,18.71,192.68,48.68,101.55,59.78,122.95,134.36,126.93,251.08,2.78,81.53-22.83,187.48-63.74,263.63Z"/>
      </g>
    </g>
  </g>
</svg>