<?xml version="1.0" encoding="UTF-8"?>
<svg id="Camada_2" data-name="Camada 2" xmlns="http://www.w3.org/2000/svg" viewBox="0 0 6382.34 1886.35">
  <defs>
    <style>
      .cls-1 {
        fill: #232429;
      }
    </style>
  </defs>
  <g id="Camada_1-2" data-name="Camada 1">
    <g>
      <g>
        <g>
          <path class="cls-1" d="M2195.56,884.75c-108.99-.54-217.5-9.19-326.16-5.04-18,.41-60.38-5.11-40.83-29.94,16.72-17.98,42.41-27.82,52.83-50.79,7.02-13.51,8.5-28.18,8.72-42.57,1.86-107.45.18-314.43.44-425.04-.3-11.69-1.17-25.47-5.46-38.74-4.62-14.7-14.14-27.15-26.58-36.89-10.64-8.86-24.21-15.89-31.77-27.65-13.8-29.36,40.71-26.63,57.63-26.81,102.1,7.05,203.87-3.46,305.82-4.97,134.41-3.58,275.58,57.41,344.87,176.36,68.94,116.57,50.57,275.4-34.22,379.36-72.88,89.88-190.65,133.5-304.51,132.71h-.77ZM2179.01,827.35c166.14,4.39,210.41-181.58,193.89-324.44-8.16-116.04-68.45-242.93-198.02-246.89-30.75-1.89-74.22-.47-91.62,27.44-8.48,14.08-8.1,30.47-8.8,46.83-1.53,66.75,1.11,173.05-.03,256.06,0,45.22-.16,80.5,0,118.08.1,15.4.43,33.01,3.67,49.2,8.53,49.91,50.14,74.38,100.05,73.73h.85Z"/>
          <path class="cls-1" d="M2627.19,878.84c-17.4-16.67,11.26-35.49,20.97-50.31,17.38-22.68,14.39-53.7,14.95-80.94,0-44.81.01-90.18,0-135.27-.2-22.38.5-45.88-6.54-67.24-4.78-15.02-16.06-30.75-18.55-47.12-4.55-27.2,26.39-36.75,47.38-43.62,24.1-7.3,47.97-14.63,71.71-23.06,26.23-8.46,52.78-18.66,65.51,4.22,9.33,13.09,4.31,48.36,22.42,51.12,17.78-.52,32.87-20.31,47.31-29.89,22.21-16.97,48.27-30.05,76.58-32.74,34.34-4.32,75.34,12.77,75.56,52.05,1.11,40.72-34.74,79.06-76.61,74.22-19.91-1.4-38.87-9.11-58.74-11.08-72.28-8.57-82.96,58.36-83.57,114.51-.5,28.28-.17,56.14-.23,84.39.36,26.22-.91,55.64,11.56,76.66,9.61,17,28.21,27.85,40.7,42.15,30.04,41.98-70.14,28.78-89.79,29.09-31.58-1.28-62.73-.72-94.23.59-21.09.1-47.81,4.21-65.95-7.37l-.44-.35Z"/>
          <path class="cls-1" d="M3093.01,912.6c-56.2.18-100.86-57.73-85.92-111.94,26.76-102.85,176.43-84.73,178.58,21.33.79,49.23-42.47,92.03-91.87,90.62h-.79Z"/>
        </g>
        <g>
          <path class="cls-1" d="M3969.55,912.63c-128.17,1.17-192.55-62.59-260.33-162.69-16.77-24.22-32.6-48.86-47.29-74.38-14.22-24.02-26.16-50.26-44.57-71.25-14.08-16.08-38.66-31.98-49.4-8.06-6.26,13.79-5.54,39.22-5.59,68.06.32,35.17-.82,72.06.88,106.65,1.16,27.69,9.93,50.87,34.41,66.08,13.07,10.52,51.88,26.12,46.94,42.59-14.62,22.15-88.65,11.17-114.97,12.39-40.49-1.07-79.56-1.15-119.69.28-26.93-.56-80.82,8.59-99.77-10.73-11.35-15.26,42.03-43.22,50.89-56.62,9.71-10.32,14.78-24.22,16.1-37.61,2-115.45,1.94-353.09.03-465.28-3.22-42.93-43.09-56.33-62.16-83.5-10.33-23.65,39.62-23.91,56.67-23.19,51.71,3.49,104.58,6.14,156.74.83,93.14-7.51,204.7-11.36,287.12,35.87,31.78,19.03,57.02,49.36,65.92,85.84,13.58,52.3-1.63,109.3-42.23,144.99-18.99,18.53-49.41,31.99-63.72,47.4-20.47,19.82-5.76,47.4,8.77,67.63,53.92,71.92,118.16,168.82,200.57,207.6,26.83,12.92,59.13,13.28,86.3,23.66,40.23,16.03,21.32,51.92-8.04,66.19-27.43,13.92-59.69,16.84-92.74,17.22h-.83ZM3605.17,532.94c53.37,7.83,92.29-41.15,100.74-92.07,8.43-48.17,4.06-109.71-24.88-146.7-19.39-26.31-60.01-44.2-89.57-25.34-23.47,15.41-24.55,54.57-25.76,82.39-1.06,32.53-.82,64.68-.68,97.03.25,32.97,3.26,75.99,39.5,84.54l.64.14Z"/>
          <path class="cls-1" d="M4365.64,907.39c-14.37-8.09-16.15-32.52-21.54-44.33-2.79-7.27-9.93-8.54-16.81-5.76-13.66,4.73-35.49,22.09-58.16,33.07-70.13,36.17-152.06,30.25-191.62-45.05-21.84-41.34-23.66-82.29-23.53-127.56-.05-28.57-.03-60.13-.03-89.16-.29-48.32,3.27-78.96-25.06-112.6-7.41-11.01-19.2-25.47-13.68-37.41,6.24-10.97,20.91-15.12,40.18-19.51,18.29-3.49,37.1-5.49,55.47-8.94,28.59-3.35,71.64-21.55,95.42.33,18.04,19.99,7.92,60.25,8.67,87.26-.58,36.86-.21,95.5-.31,137.81-.3,50.26-2.8,114.66,54.24,132.24,39.61,10.96,74.93-21.38,81.33-59.01,3.62-17.63,3.66-35.99,3.94-54.19.08-31.03.38-67.69-.22-99.23-.69-19.89-1.82-40.95-12.53-57.92-7.45-11.85-19.22-20.94-29.85-30.31-16.09-13.43-34.56-31.26-8.45-44.76,16.62-8.97,38.29-11.39,57.37-12.98,38.94-2.26,74.45-8.13,112.26-10.83,48.29-2.9,49.43,31.81,45.01,69.72-2.88,28.77-2.8,52.73-2.81,92.98-.02,41.91.01,86.9,0,129.11-.33,70.2,1.3,63.43,43.5,105.12,30.28,36.12-61.62,45.17-84.2,52.5-14.68,3.74-29.2,8.09-43.62,12.62-20.21,5.63-45.32,16.57-64.55,7.04l-.42-.25Z"/>
          <path class="cls-1" d="M4826.77,910.62c-50.18,2.12-100.73-17.61-149.54-18.36-26.6-1.77-71.96,17.24-79.15-20.29,5.03-165.1,1.19-369.53-2.77-554.85-3.7-54.48-76.62-94.74,15.72-117.91,93.16-26.34,156.27-78.97,140.15,65.04-.19,47.74-.69,106.32-.63,155.35-1.19,36.55,8.92,53.64,48.08,41.59,88.12-37.45,198.42-19.8,252.84,64.19,112.48,170.1-19.98,395.02-223.87,385.23h-.82ZM4840.73,857.66c48.45-4.77,66.15-61.32,74.23-102.52,11.16-64.11,8.42-132.76-16.61-193.39-10.82-25.05-28.94-48.09-54.97-56.92-29.36-9.68-78.69-6.6-88.82,26.49-3.1,9.64-3.83,22.13-3.99,37.33-.1,26.5-.02,57.13-.05,84.47,1.32,53-6.07,107.61,16.62,152.55,13.11,27.79,40.69,54.07,72.91,52.03l.66-.04Z"/>
          <path class="cls-1" d="M5308.37,905.93c-102.09.44-182.06-85.08-195.9-182.78-19.43-111.27,40.8-226.51,147.05-267.19,54.24-21.44,121.31-21.74,172.07,8.48,44.63,24.6,84.5,85.06,64.02,134.49-16.23,32.21-51.48,25.64-89.52,27.07-19,0-40.72,0-60.48,0-53.92.27-110.84-6.8-99.45,67.93,10.75,59.94,69.35,102.75,129.56,98.99,28.04-.04,57.26-13.48,82.16-22.39,34.76-12.48,41.13,7.5,29.2,34.5-31.03,65.98-106.9,102.17-177.93,100.91h-.79ZM5267.12,575.97c19.17,10.06,51.94,8.82,74.83,6.84,35.96-2.07,62.44-28.17,43.9-64.99-16.76-31.87-59.95-38.28-90.27-22.68-27.25,11.76-64.64,59.15-29.02,80.52l.57.31Z"/>
          <path class="cls-1" d="M5510.07,893.65c-20.86-10.67-.39-28.79,13.2-44.95,28.19-27.45,20.91-64.21,22.03-101.57.02-36.51-.01-75.62,0-112.35-.14-29.26,1.26-60.11-7.93-79.97-7.58-20.35-28.51-45.13-15.09-66.4,19.53-22.28,56.69-26.08,84.06-35.99,27.39-8.04,62.83-24.08,81.34-21.68,14.3.79,20.69,14.34,24.51,26.44,9.61,36.82,27.83,23.24,53.47,9.73,78.48-50.69,198.15-43.89,236.16,52.72,16.54,42.45,14.96,74.32,15.25,125.71-.03,34.84.02,72.81,0,108.09.81,36.82-2.99,58.52,11.18,82.23,7.31,11.34,18.81,22.04,25.59,33.2,23.23,37.46-52.29,30.42-72.25,30.18-32.69-1.4-65.42-1.07-98.1.35-19.55.2-49.51,2.72-63.34-11.45-11.12-17.3,27.04-46.35,30.23-66.37,5.47-17.92,4.39-42.82,4.59-72.9,0-24.5,0-50.79,0-74.96-.28-34.04,1.12-69.39-9.99-94.34-16.71-41.51-64.83-54.46-103.04-34.3-31.72,14.48-35.28,47.09-34.52,78.24.76,54.85-1.76,127.24,1.25,183.34,1.24,11.63,4.29,21.07,9.67,29.66,7.09,13.69,33.85,36.12,23.94,51.77-19.35,19.13-75.11,8.83-104.59,10.13-22.3-.29-44.64.42-66.94,1.31-20.39,1.09-48.29.63-60.24-5.65l-.44-.21Z"/>
          <path class="cls-1" d="M6206.49,906.13c-42.06-.28-95.99-6.71-123.57-37.71-21.63-19.42-39.25-105.27-7.03-118.25,23.65-4.04,41.87,28.24,54.39,44.76,65.56,102.27,163.9,42.02,114.6-26.53-22.61-28.47-57.65-42.24-87.32-62.57-20.29-13.36-39.19-28.96-53.32-47.66-42.06-53.52-34.58-137.2,20.86-178.61,48.95-39.16,121.24-47.38,181.91-33.48,34.06,6.88,58.38,30.57,62.95,66.45,3.28,15.47.47,43.24-11.38,48.32-26.54,11.08-53.76-48.36-74.89-60.08-23.83-18.55-64.02-17.73-80.77,9.54-25.78,48.47,38.28,81.62,74.19,103.46,22.3,13.63,43.8,26.78,62.11,43.93,42.86,38.38,52.97,104.48,33.85,157.58-24.09,69.32-98.32,90.92-165.75,90.85h-.83Z"/>
        </g>
      </g>
      <g>
        <g>
          <path class="cls-1" d="M2219.28,1817.32c-239.55,2.26-445.67-173.59-385.05-424.38,49.26-194.54,254.48-291.26,444.05-276.77,20.53,1.33,40.79,3.85,61.04,7.47,30.93,6.18,63.17,11.7,89.87,28,26.32,15.61,37.96,46.62,40.59,77.23,2.71,20,5.91,86.72-24.98,73.46-15.38-7.6-30.89-40.31-43.17-57.85-28.65-42.01-75.48-63.41-126.3-69.24-163.99-20.91-260.51,123.26-260.24,273.35-2.5,148.94,56.96,311.76,230.86,307.94,77.72-.49,135.27-29.64,177.76-93.37,14.01-17.84,37.84-49.66,51.82-28.62,13.41,28.84-2.99,89.63-20.87,116.01-21.4,32.24-58.63,43.52-96.45,52.38-45.28,10.47-91.58,14.67-138.11,14.4h-.81Z"/>
          <path class="cls-1" d="M2644.48,1816.84c-51.19.84-104.43-36.1-107.34-89.59-4.21-51.58,39.93-88.14,82.85-108.24,33.77-17.93,72.99-29.11,103.88-51.29,25.58-19.46,29.61-50.57,28.7-82.89-.91-24.39-7.05-53.5-30.32-63.28-13.14-5.93-29.39-4.01-40.88,4.81-20.77,16.19-25.33,44.66-43.99,63.02-12.29,12.44-29.39,20.56-47.22,23.31-19.07,3.87-43.78-3.88-41.51-25.59,1.87-19.85,17.48-37.05,32.49-50.6,61.04-50.69,160.86-103.14,240.91-79.75,46.8,12.89,78.94,53.72,86.79,100.44,4.63,22.81,3.94,48.74,3.32,75.47-.67,27.54-1.61,59.49-2.38,89.65.56,38.73-8.14,80.01,14.34,105.4,8.62,9.17,22.95,13.73,34.89,17.09,9.55,2.53,21.89,7.14,17.22,18.83-3.33,10.26-17.43,25.72-34.98,35.62-20.37,11.98-44.17,18.21-67.76,17.25-27.5.06-51.93-14.79-75.49-26.75-42.74-21.72-68.45,4.85-107.76,19.52-14.46,4.96-29.66,7.62-44.98,7.59h-.77ZM2714.52,1746.89c37.87-2.9,37.42-64.52,36.91-94.29-1.42-14.06-2.3-34-18.51-37.13-12.61-1.36-31.13,11.11-41.56,30.94-11.47,21.55-14.39,48.62-7.11,71.89,4.44,14.39,14.85,28.61,29.71,28.61h.56Z"/>
          <path class="cls-1" d="M3155.96,1823.51c-101.44-.88-152.33-56.65-152.86-156.59-.86-52.04-.09-116.38-.39-167.76-.44-18.49.34-38.97-9.68-54.62-12.25-21.1-53.72-35.64-37.88-64.82,19.46-28.2,59.37-42.96,86.57-64.31,27.88-16.94,91.9-80.09,111.94-42.22,7.85,15.68,8.46,37,14.11,53.33,14.74,44.6,85.34,24.94,120.67,36.31,25.78,5.52,44.36,28.54,17.36,47.66-31.35,21.24-80.5,9.11-113.59,25.8-26.57,13.61-24.92,47.74-25.76,73.84-.14,25.01-.04,55.36-.06,80.8.41,52.84-4.5,126.21,55.81,147.78,17.97,6.52,40.58,5.24,59.39,5.71,60.29-.69,20.07,38.19-9.83,52.23-35.24,17.55-74.22,27.09-114.94,26.87h-.86Z"/>
        </g>
        <g>
          <path class="cls-1" d="M3419.11,1726.57v-267.85h58.44v267.85h-58.44ZM3460.1,1651.08v-45.86h61.28c19.48,0,34.09-3.99,43.83-11.97,9.74-7.98,14.61-21.17,14.61-39.57,0-16.23-4.53-28.61-13.59-37.13-9.07-8.52-23.07-12.79-42-12.79h-64.12v-45.05h65.75c17.31,0,32.93,2.03,46.87,6.09,13.93,4.06,25.83,10.08,35.71,18.06,9.87,7.98,17.38,18,22.53,30.03,5.13,12.04,7.71,26.18,7.71,42.41,0,20.83-4.74,38.35-14.2,52.56-9.47,14.2-23.48,24.96-42,32.26-18.54,7.31-41.6,10.96-69.2,10.96h-53.16Z"/>
          <path class="cls-1" d="M3680.47,1726.57v-267.85h58.85v267.85h-58.85ZM3721.05,1505.79v-47.08h165.18v47.08h-165.18ZM3721.05,1612.93v-43.43h145.69v43.43h-145.69ZM3721.05,1726.57v-47.48h165.99v47.48h-165.99Z"/>
          <path class="cls-1" d="M3932.49,1726.57v-267.85h58.44v267.85h-58.44ZM3960.49,1726.57v-47.48h77.92c15.15,0,27.73-3.31,37.74-9.94,10.01-6.63,17.59-16.3,22.73-29.02,5.14-12.71,7.71-28.27,7.71-46.67,0-15.15-1.62-28.2-4.87-39.16-3.25-10.96-8.05-19.95-14.41-26.99-6.36-7.03-14.34-12.31-23.94-15.83-9.61-3.51-20.9-5.27-33.89-5.27h-68.99v-47.48h66.96c32.47,0,58.98,5.28,79.54,15.83,20.56,10.55,35.71,25.64,45.45,45.25,9.74,19.62,14.61,43.09,14.61,70.41,0,20.57-2.44,38.42-7.31,53.57-4.87,15.16-11.43,28-19.68,38.55-8.26,10.55-17.79,19.07-28.61,25.57-10.82,6.49-22.32,11.23-34.5,14.21-12.18,2.98-24.49,4.46-36.93,4.46h-79.54Z"/>
          <path class="cls-1" d="M4215.76,1726.57v-267.85h59.66v267.85h-59.66Z"/>
          <path class="cls-1" d="M4312.35,1726.57l91.72-267.85h85.23l91.72,267.85h-63.31l-67.77-221.59h-6.09l-68.18,221.59h-63.31ZM4363.89,1673.81v-39.77h174.1v39.77h-174.1Z"/>
          <path class="cls-1" d="M4569.25,1507.82v-49.11h216.72v49.11h-216.72ZM4648.39,1726.57v-267.85h58.44v267.85h-58.44Z"/>
          <path class="cls-1" d="M4823.3,1726.57v-267.85h108.76c14.61,0,27.86,1.15,39.77,3.45,11.9,2.3,22.46,5.62,31.66,9.94,9.2,4.33,16.98,9.68,23.33,16.03,6.36,6.36,11.16,13.66,14.41,21.92,3.25,8.25,4.87,17.39,4.87,27.39,0,9.47-1.49,18.06-4.47,25.77-2.98,7.71-7.44,14.41-13.39,20.09-5.95,5.68-13.39,10.35-22.32,14-8.93,3.65-19.35,6.16-31.25,7.51v6.09c13.8,1.36,24.82,4.54,33.07,9.54,8.25,5.01,14.74,11.71,19.48,20.09,4.73,8.39,8.86,18.81,12.38,31.25l16.23,54.79h-64.53l-12.58-50.73c-2.44-10.82-5.95-19.28-10.55-25.37-4.6-6.09-10.42-10.41-17.45-12.98-7.04-2.57-15.56-3.86-25.57-3.86h-43.43v92.94h-58.44ZM4881.74,1589.8h46.26c18.4,0,32.6-3.51,42.61-10.55,10.01-7.03,15.02-17.99,15.02-32.87s-4.67-25.37-14-32.26c-9.33-6.9-23.33-10.35-42-10.35h-47.89v86.04Z"/>
          <path class="cls-1" d="M5098.86,1726.57v-267.85h59.66v267.85h-59.66Z"/>
          <path class="cls-1" d="M5195.45,1726.57l91.72-267.85h85.23l91.72,267.85h-63.31l-67.77-221.59h-6.09l-68.18,221.59h-63.31ZM5246.99,1673.81v-39.77h174.1v39.77h-174.1Z"/>
        </g>
      </g>
      <g>
        <path class="cls-1" d="M1074.17,400.35c9.42-2.6,37.9-5.14,40.41-14.6.65-2.44-6.28-28.99-7.19-35.03-1.8-12.01-2.1-24.15-4.21-36.2-1.41-8.03-4.28-30.63-12.08-33.2-11.64-3.84-56.78,13.71-64.52,8.77-7.77-12.35-6.61-57.9-23.81-59.57-4.93-.48-41.85,11.23-49.09,13.79-9.14,3.24-19.85,7.65-28.64,11.77-6.87,3.22-24.01,10.37-26.78,16.87-3.86,9.05,9.28,48.42,6.17,52.98-8.54,4.54-38.23,7.67-43.06,15.18-4.76,7.4,5.58,46.1,7.69,57.2,2.14,11.25.95,40.76,15.4,40.35,12.87-.37,28.19-11.44,41.77-11.9,2.86,1.93,10.21,37.6,14.1,44.16,3.17,5.34,8.46,4.01,14.09,3.64,18.73-1.24,45.23-5.48,64.21-8.52,9.87-1.58,41.5-5.44,44.28-15.66,1.89-6.96-10.44-41.76-9.05-43.63,6.88-1.76,13.47-4.5,20.33-6.39ZM1037.51,442.1l-76.42,14.57c-2.87-.86-13.27-30.79-13.7-35.06-.35-3.45,9.3-17.69-5.49-16.23-6.83.67-24.05,6.42-31.92,8.59-4.86,1.34-9.59,3.08-14.05,5.45l-2.19-.48-17.5-58.21c9.33-10.38,48.32-11.91,53.85-20.41,7.71-11.85-9.52-46.21-6.49-61.41l68.66-22.44c5.26,12.6,8.64,26.05,13.92,38.65,3.12,7.44,8.53,24.66,17.33,23.91,6.79-.58,46.16-11.67,48.2-10.28l17.82,66.26c-1.14,4.29-58.29,4.53-58.24,22.54.02,6.61,8.33,42.06,6.23,44.55Z"/>
        <path class="cls-1" d="M1282.19,654.23c-47.26-27.82-129.19-48.5-178.9-45.19-15.94,1.06-39.81,5.54-72.99,13.69-58.55,14.38-115.01,50.88-158.98,102.78-42.85,50.57-71.01,111.99-79.31,172.94-13.11,96.31-.03,171.24,43.75,250.52,17.16,31.09,40.62,56.56,71.71,77.87,25.02,17.15,55.31,31.85,95.33,46.25,22.59,8.13,50.79,12.36,80.68,12.36,12.31,0,24.92-.72,37.53-2.18,45.83-5.31,85.36-19.57,111.32-40.15,3.48-2.76,6.96-5.5,10.42-8.22,38.24-30.1,74.36-58.53,98.11-102.74,37.99-70.71,61.77-169.08,59.18-244.78-3.7-108.38-23.57-177.63-117.86-233.13ZM1323.59,953.51c-5.65,79.46-76.08,196.63-135.76,252.1-17.51,16.27-52.98,39.99-74.25,47.37-11.72,4.07-47.35-1.22-64.48-3.76-1.76-.26-3.37-.5-4.82-.71l-.17-.02c-25.44-3.68-42.26-6.11-64.94-18.32-49.2-26.46-90.37-66.97-119.04-117.13-27.54-48.19-43.24-104.38-45.4-162.51-5.49-147.59,127.21-296.08,273.05-305.54,5.99-.39,12.01-.57,18.04-.57,54.57,0,109.03,14.95,130.15,27.3,9.27,5.42,36.43,39.09,44.83,52.08,44.35,68.61,49.25,138.76,42.79,229.71Z"/>
        <path class="cls-1" d="M222.79,1122.38c1.01.06,2,.09,3,.09,15.42,0,29.08-7.59,40.65-22.58,32.37-41.95,50.6-130.46,47.32-186.81-3.86-66.26-49.26-168.98-104.25-207.28l-1.26-.88c-12-8.37-24.4-17.03-41.71-13.47-37.03,7.62-73.67,108.2-74.03,109.21-29.82,85.45-24.3,145.37,20.35,221.11,9.58,16.25,59.91,97.48,109.93,100.6ZM150.21,788.05l1.02-2.3c5.88-13.31,21.5-48.66,34.83-50.45h0c.23-.03.48-.05.73-.05,8.28,0,27.57,16.3,41.26,32,42.66,48.93,44.43,103.05,46.49,165.73,1.33,40.6-5.08,114.61-27.94,140.37-2.59,2.93-5.61,4.43-9.23,4.6-7.07.3-16.6-4.5-25.58-12.91-34.88-32.66-77.45-99.92-85.22-147.99-6.14-37.93,1.37-78.92,23.63-128.99Z"/>
        <path class="cls-1" d="M1193.3,955c-21.44-33.79-52.47-74.79-72.53-99.63-17.31-21.43-24.23-24.5-28.72-24.67-7.68-.25-12.76,6-14.98,12.01-3.95,10.71-6.87,32.44-8.99,48.31-.45,3.37-.87,6.44-1.24,9.03l-.19,1.35c-3.39,23.53-7.61,52.82-8.24,76.53-.02.79-.05,1.64-.08,2.54-.43,12.54-1.22,35.87,16.56,38.93,4.38.75,9.56,1.08,15.27,1.08,29.86,0,73.96-8.98,91.02-13.13,15.92-3.88,23.89-8.49,26.66-15.44,3.54-8.9-2.53-18.3-10.94-31.31-1.15-1.78-2.36-3.65-3.59-5.59ZM1133.11,986.42c-22.3,3.89-34.35,5.33-39.91,5.66-.14-2.52-.66-4.92-1.14-7.16-.42-1.95-.82-3.8-.82-5.19-.03-21.21,2.04-44.87,4.05-67.76.88-10.06,1.72-19.56,2.38-28.87.18-2.52.18-5.03.13-7.48l73.7,103.39c-8.47,1.88-22.81,4.7-38.38,7.41Z"/>
        <path class="cls-1" d="M1183.34,1050.32c-9.76,2-18.52,12.48-27,22.61-4.96,5.93-10.09,12.06-14.13,14.62-11.78,7.46-46.91,13.47-59.68,10.19-4.62-1.19-28.84-12.49-34.3-15.64-1.99-1.15-4.24-2.84-6.64-4.63-8.44-6.33-21.2-15.89-34.32-6.42-6.78,4.89-7.65,10.47-7.18,14.29,2.24,18.47,41.83,34.65,42.23,34.81,23.15,9.34,44.49,14,64.8,14,18.78,0,36.68-3.98,54.32-11.94,13.57-6.12,17.14-13.52,20.92-21.36,1.48-3.08,3.02-6.26,5.3-9.77.76-1.16,2.38-3.07,4.11-5.1,7.17-8.42,19.17-22.5,9.57-32.24-4.6-4.66-13.49-4.35-18.01-3.42Z"/>
        <path class="cls-1" d="M956.77,848.83c-6.71-4.99-15.17-6.93-23.82-5.44-13.94,2.39-25.91,19.26-21.82,43.34,2.75,16.17,13.75,31.08,32.46,31.08,2.05,0,4.2-.18,6.44-.56,6.2-1.05,11.13-4.09,14.64-9.04,7.4-10.43,6.54-26.7,4.52-38.53-1.47-8.59-5.88-16-12.42-20.86Z"/>
        <path class="cls-1" d="M1205.82,809.47c-12.5,2.85-18.26,19.14-18.32,33.07-.08,18.9,9.31,33.34,23.93,36.79,2.17.51,4.31.76,6.38.76,8.08,0,15.22-3.83,20.17-11.02,9.08-13.17,9.12-34.72.1-48.04-7.15-10.55-18.6-14.65-32.25-11.55Z"/>
        <path class="cls-1" d="M1586.2,764.07l-64.56-187.31-54.05-82.83-95.85-147.35-148.51-126.22-117.86-67.52-44.93-80.3-68.05-29.9-1.45-.46c-64.05-20.25-97.88-30.86-100.58-31.54-3.23-.81-5.79-1.45-164.58-10.36l-4.91-.28-142.61,42.45-83.55,55.7-34.93,112.72-159.11,100.13-93.33,128.96-45.46,134.63-5.95,27.71-41.79,24.54-58.54,51.11-38.28,138.58L0,918.35l11.37,48.28c.34,6.03,1.01,11.69,2.19,16.7,2.83,11.98,7.5,24.02,13.38,36l16.82,46.65,78.64,112.29,33.19,20.1c2.31,2.71,4.63,5.41,7.08,7.99,8.52,8.97,18.17,19.13,33.35,20.17l.62.04,67.4-12.02,12.74-.51,14.97,13.96,5.64,7.52-11.89,42.38-77.26,55.09-146.46,95.25,6.8,26.77c-10.32,15.59-16.3,33.44-6.45,49.27,9.08,14.59,32.16,32.31,45.64,40.22,92.44,54.28,196.37,79.18,294.88,100.03,11.71,2.48,24.3,4.43,36.48,6.31,14.57,2.25,29.64,4.58,42.99,7.81.18.04.37.1.55.15l150.2,80.13c10.73,6.83,21.1,13.28,31.02,18.98,22.53,12.94,43.19,22.88,63.48,31.43l26.07,13.91,120.55,51.53,53.28,8.82c31.2,8.03,65,13.72,97.22,16.1.01,0,.02,0,.03,0l40.09,6.64,20.24-6.09c29.25-1.79,55.46-6.72,77.39-14.8,58.79-21.64,135.15-81.87,177.62-140.09,3.34-4.57,6.07-9.4,8.71-14.06.98-1.73,1.95-3.42,2.93-5.09l16.51-20.08c.5-.46.96-.92,1.47-1.39,3.66-3.38,7.45-6.87,10.7-10.62,9.39-10.83,18.24-22.55,26.59-35.14l16-19.46,44.33-89.76,13.41-92.55-.23-41.01c1.66-12.54,2.81-25.07,2.12-36.86-.33-5.61-1.39-11.54-2.42-17.28l-.32-58.46-32.49-57.52-67.26-5.25,43.76-51.42,17.05-36.56c1.96-3.14,3.89-6.35,5.78-9.73,7.22-12.97,13.07-27.02,18.14-41.53l5.83-12.5,23.42-83.3,15.81-13.7c21.93-15.05,40.16-39.98,51.38-64.98l9.94-12.89,15.19-130.15ZM1441.06,1434.49l-12.08,83.43-39.55,80.09-114.55,139.36c-10.89,8.84-22.27,17.77-33.38,26.27l-82.47,52.67c-1.51.61-3,1.27-4.53,1.84l-25.87,7.78c-8.91,2.07-18.12,3.65-27.68,4.72-43.74,4.91-84.76,5.03-123.67,1.27l-74.79-12.38c-9.35-2.2-18.57-4.66-27.71-7.29l-104.29-44.58-125.84-67.14c-31.57-20.34-62.87-41.79-94.52-63.49-57.62-39.51-117.21-80.36-181.37-116.4-53.56-30.08-102.35-56.18-157.09-70.86l-3.2-.86c-18.35-4.94-38.46-10.36-58.28-10.36-1.07,0-2.14.02-3.21.05,38.34-28.65,81.13-50.81,122.72-70.37-.39.86-.79,1.71-1.18,2.56-3.97,8.53-8.47,18.19-3.13,27.11,2.56,4.28,44.23,26.88,44.65,27.1,31.22,16.44,54.43,20.69,81.32,25.6,11.6,2.12,23.6,4.32,37.32,7.68,20.98,5.14,41.92,11.99,62.16,18.61,22.29,7.29,45.34,14.84,68.8,20.24,13.87,3.19,27.93,5.56,41.52,7.85,11.48,1.93,23.34,3.93,34.86,6.39,20.61,4.41,41.52,9.11,61.75,13.66,60.24,13.54,122.53,27.53,185.09,35.79,64.82,8.55,107.71,4.22,164.19-6.76,100.94-19.63,159-75,220.47-133.61,25.23-24.06,51.32-48.94,81.24-72.13,2.69-2.08,10.5-6.67,17.39-10.71,15.04-8.82,17.48-10.45,18.68-12.46,7.02-11.79-1.57-32.46-11.79-54.4-.22-.48-.44-.96-.66-1.42.62.06,1.24.11,1.86.17,15.22,1.37,30.96,2.79,43.82,8.26,11.67,4.96,18.47,15.92,22.3,29.67l.7,127.07ZM76.67,796.08l1.41-4.81c8.13-27.83,25.04-85.73,44.04-102.73,12.82-11.47,28.44-17.94,44.98-24.79,6.55-2.71,13.33-5.52,19.83-8.64,11.92-5.72,23.97-11.68,35.63-17.44,11.29-5.58,22.94-11.34,34.48-16.89,4.13,2.03,15.74,11.21,27.21,21.59,64.59,58.44,100.83,128,117.5,225.56,14.26,83.46,5.63,204.69-47.02,273.61-1.17,1.53-12.86,14.41-15.18,16.65-4.09,2.11-27.89,8.31-35.79,9.99-29.78,6.31-83.22,11.81-108.82,4.27-19.16-5.64-70.44-61.81-84.58-82.09-21.87-31.37-54.79-109.19-59.79-148.85-4.99-39.61,15.23-108.45,26.1-145.43ZM1522.68,700.79c6.44,32.85,9.13,75.44,2.99,129.65-3.89,34.32-14.74,67.59-30.41,94.04.25-8.23.09-16.42-.07-24.47-.2-9.85-.39-20.03.18-29.89.44-7.56,1.87-15.34,3.25-22.86,1.33-7.26,2.71-14.77,3.26-22.28,4.19-57.7-2.57-127.59-10.29-173.76-2.66-15.91-6.75-31.68-10.79-46.98l19.66,32.07,22.23,64.48ZM667.23,1026.95c3.94,76.69,17.36,139.96,70.01,199.45l1.49,1.5c-37.61-35.23-76.44-87.82-88.19-122.93-22.79-68.1-21.36-159.18,3.93-249.9,25.08-89.99,70.52-169.27,124.69-217.5,21.05-18.74,63.63-52.96,88.3-64.97,6.13-2.98,12.58-5.67,19.04-8.22-11.71,9.52-23.17,19.94-35.09,31.86-139.38,139.33-192.73,264.12-184.16,430.71ZM876.93,516.06c-116.05,58-194.2,195.38-230.45,272.11-40.25,85.18-58.35,237.29-21.12,327.96,29.05,70.75,114.86,163.07,180.06,193.69,43.25,20.31,120.11,45.26,243.9,51.65-10.31,3.92-20.38,8.3-30.26,12.6-15.63,6.8-31.8,13.83-48.25,18.73-63.24,18.82-170.93,25.92-241.69,5.24-18.65-5.45-39.12-13-58.91-20.31-3.91-1.44-7.75-2.86-11.5-4.24-5.15-1.88-10.82-3.9-16.76-6.03-22.56-8.04-48.12-17.16-65.42-25.81-22.99-11.5-48.01-28.32-72.21-44.58-18.16-12.21-36.94-24.83-54.66-35.06-15.57-8.98-31.84-17.32-47.58-25.38-24.45-12.53-49.65-25.44-72.53-40.98,1.07-.33,2.16-.66,3.26-1,15.63-4.78,33.35-10.2,44.54-19.42,17.57-14.47,36.85-51.42,45.51-72.73,35.59-87.48,44.5-207.77,24.46-330.03-13.95-85.05-91.32-165.85-172.47-180.11-.28-.07-1.04-.57-1.54-.9-1.31-.87-3.11-2.07-5.47-2.32-2.97-.37-31.47,5.33-31.75,5.39-11.54,2.43-20.52,6.24-30.01,10.74,2.09-5.79,4.15-11.57,6.18-17.23,16.81-46.98,32.68-91.36,57.43-134.05,30.33-52.32,78.44-94.61,124.97-135.5l2.97-2.61c9.01-7.92,18.7-15.48,28.07-22.8,6.25-4.88,12.61-9.84,18.87-14.99-.74,2.25-1,4.5-.54,6.71.47,2.28,1.93,5.46,6.21,7.64,6.79,3.46,18.36-4.32,34.43-23.1,24.51-28.64,34.82-64.2,44.78-98.59,3.11-10.72,6.3-21.73,9.9-32.42,13.9,13.5,32.54,20.83,49.4,26.26,144.07,46.31,311.1,36.93,446.8-25.09,1.16-.53,2.24-1.1,3.25-1.72,4.54,9.86,13.47,33.8,14.24,37.01.92,4.59.87,9.64.8,14.99-.12,10.26-.26,21.89,7.35,31.66,4.84,6.22,41.11,29.09,50.29,28.18,2.58-.24,7.13-2.18,8.95-5.19,5.78-9.47-4.49-18.87-13.55-27.16-4.15-3.8-9.31-8.52-10.17-11.1-.61-1.85-.6-3.94-.59-6.36,0-.29,0-.58,0-.87,5.46,2.79,11.31,6.01,17.69,9.75,158.67,92.91,251.12,188.18,309.12,318.56,14.26,32.06,15.89,48.36,18.84,77.96.45,4.52.93,9.34,1.49,14.56.7,6.51,1.55,13.11,2.36,19.49,1.24,9.62,2.5,19.44,3.28,29.25-16.09-21.42-32.87-43.15-51.94-62.55-22.38-22.77-62.41-51.28-104.46-74.41-27.27-15-79.06-40.69-119.42-44.22-14.77-1.29-27.37-3-40.71-4.81-8.1-1.1-16.47-2.23-25.42-3.27-54.24-6.31-177.89,10.73-230.02,36.78ZM1082.62,1393.12c41.3-14.43,81.69-32.77,120.75-50.52l10.47-4.75c36.83-16.7,59.1-35.16,84.88-56.52,8.27-6.85,16.8-13.92,26.28-21.31l7.12,37.36-1.34,1.44c-19.92,21.45-40.51,43.63-62.1,63.59l-3.47,3.21c-37.94,35.1-80.95,74.88-125.7,96.74-81.39,39.77-132.15,62.13-228.65,59.59-115.42-3.05-220.35-24.68-316.56-47.6-37.94-9.04-72.53-20.36-109.15-32.35-17.58-5.75-35.76-11.71-54.17-17.32-7.21-2.2-13.35-3.75-18.77-5.12-14.13-3.56-24.34-6.14-41.21-17.09-11.31-7.34-36.22-24.73-42.52-31.64-4.33-4.74.06-22.21,2.17-30.6.59-2.32,1.12-4.44,1.51-6.23,4.49-20.62,9.36-42.3,14.49-61.17.13-.48.27-1.11.43-1.83.13-.57.36-1.6.63-2.61,15.75,9.77,31.52,20.02,46.81,29.96,40.07,26.05,81.51,53,125.93,73.42,107.38,49.37,209.45,73.64,310.38,73.64,18.2,0,36.38-.79,54.53-2.37,66.77-5.8,131.42-26.92,197.28-49.92ZM568.74,109.54c1.04-.87,2.64-1.98,4.8-3.33l.77-.49c14.82-9.43,56.15-19.36,71.71-23.1,123.81-29.75,227.45-27.49,326.16,7.12l1.73.61c13.8,4.84,29.09,10.19,41.4,17.51-40.68,14.47-83.36,26.14-127.02,34.73-65.45,12.87-138.11,14.58-215.94,5.09l-.77-.1c-29.63-3.61-47.52-5.8-73.2-20.41-6.73-3.83-13.62-7.99-20.29-12.02-3.12-1.88-6.24-3.77-9.35-5.62ZM1321.87,1228.18c-.62.51-1.24,1.08-1.86,1.58-30.57,24.6-89.54,62.61-122.7,76.66-78.83,33.4-235.23,19.35-317.18-15.03-79.33-33.28-133.4-89.45-160.7-166.93-23.97-68.04-26.07-151.06-6.08-240.09,14.9-66.34,57.01-143.73,115.54-212.32,59.26-69.45,129.36-122.47,192.32-145.45,19.63-7.16,42.73-10.29,66.8-10.29,50.68,0,105.63,13.86,141.3,33.02,61.06,32.79,124.5,70.64,174.84,125.11,36.15,39.11,69.86,131.94,58.49,243.36-5.01,49.05-22.52,112.26-46.84,169.08-13.07,30.52-27.54,57.88-42.74,81.19l-51.17,60.13Z"/>
      </g>
    </g>
  </g>
</svg>