<?xml version="1.0" encoding="UTF-8"?>
<svg id="Camada_2" data-name="Camada 2" xmlns="http://www.w3.org/2000/svg" viewBox="0 0 3456.11 4446.74">
  <defs>
    <style>
      .cls-1 {
        fill: #bfc9b9;
      }
    </style>
  </defs>
  <g id="Camada_1-2" data-name="Camada 1">
    <g>
      <path class="cls-1" d="M3375.48,4030.72c-55.47-34.23-114.18-52.5-172.5-.73-54.69-36.52-111.38-59.15-177.23-52.13-15.58,1.66-32.73-5.17-48.29-10.59-67.56-23.52-134.56-48.64-202.19-71.92-99.41-34.21-162.76,24.12-147.88,115.39,9.61,58.9,9.07,119.46,13.06,179.29,3.35,50.31,3.3,101.13,10.79,150.81,11.91,79.03,101.13,113.72,165.08,66.44,12.49-9.23,23.51-20.44,34.69-30.29,98.8,90.06,128,91.19,213.44,13.26,33.93,6.53,67.49,20.75,98.7,16.73,29.46-3.79,56.45-26.78,91.22-44.78,5.89,6.7,15.79,20.19,27.89,31.28,35.91,32.95,76.31,34.6,120.56,17.56,42.33-16.3,46-50.93,46.93-88.15,1.19-47.92-1.69-96.42,4.77-143.63,9.67-70.69-25.2-115.35-79.02-148.56Z"/>
      <path class="cls-1" d="M2562.38,618.33c49.68,10.54,83.31-12.44,100.48-50.91,44.35,4.79,82.48,19.96,111.93,9.85,66.87-22.96,126.41-4.79,184.08,19.39,68.11,28.55,132.47-1.08,146.16-74.91,5.24-28.23,13.87-55.99,17.22-84.4,8.4-71.36,18.04-142.85,20.77-214.52,2.31-60.61-60.01-142.22-118.49-141.27-66.47,1.08-129.8-7.16-193.87-19.28-6.86-1.3-14.75-.57-21.48,1.48-44.79,13.63-87.89,13.75-133.08-3.08-17.57-6.54-41.91,2.61-62.5,7.43-18.31,4.28-35.26,14.54-53.6,18.53-64.58,14.04-95.35,40.9-102.08,102.94-6.99,64.35-9.9,129.33-10.72,194.09-.55,43.11,2.1,86.95,9.72,129.31,10.35,57.53,48.29,93.23,105.47,105.36Z"/>
      <path class="cls-1" d="M181.09,490.73c8.45,76.81,80.56,116.83,152.65,89.57,21.43-8.1,45.65-14.05,68.17-12.87,41.91,2.2,74.9-10.14,101.91-41.93,10.05-11.83,22.79-21.38,41.35-38.44,4.96,27.64,8.5,45.73,11.4,63.92,8.78,55.1,46.28,99.15,86.69,101.45,39.15,2.22,85.4-38.66,101-89.34.71-2.29,1.15-4.67,1.62-7.02,18.58-91.67,39.25-182.99,54.97-275.15,10.33-60.52,4.39-119.42-41.44-168.13C735.64,87.52,566.65-.76,531.73,0c-18.42.4-36.85,7.22-54.96,12.31-13.72,3.86-27.04,14.04-40.32,13.67-61.18-1.72-122.43-4.61-183.38-10.08-52.46-4.71-82.72,19.52-82.53,71.92.31,81.61.37,163.25,2.13,244.84,1.14,52.75,2.66,105.7,8.42,158.07Z"/>
      <path class="cls-1" d="M772.63,4017.52c-20.67-11.8-42.8-22.71-65.67-28.55-27.28-6.96-41.76-20.88-44.22-48.72-5.4-61.13-45.02-95.04-98.36-111.87-59.3-18.71-116.67-36.82-150.98-94.86-5.58-9.43-18.3-18.63-28.96-20.37-44.91-7.32-64.08-35.4-72.45-77.08-3.19-15.92-12.94-31.13-22.04-45.14-37.41-57.63-155.92-88.27-214.89-56.34-43.03,23.3-60.26,73.52-29.79,132.08,43.06,82.74,45.93,170.22,51.51,258.97,2.4,38.07,6.63,77.23,18.18,113.28,23.09,72.04,74.1,104.03,151.58,104.83,13.56.14,28.02,4,40.42,9.71,49.27,22.7,98.73,38.32,134.96,19.6,63.94,18.81,113.22,33.3,171.09,50.32,3.05,7.25,8.52,25.66,17.99,41.7,21.69,36.71,75.01,61.64,110.51,53.84,46.35-10.18,76.3-43.88,79.99-97.02,2.82-40.61-.52-81.6.26-122.4.73-38.1-18.15-64.28-49.14-81.97Z"/>
      <path class="cls-1" d="M671.64,1011.88c-17.23,7.96-35.3,16.04-53.79,18.95-48.57,7.63-73.59,38.55-75.2,83.24-3.02,83.78-2.35,167.86,1.48,251.6.99,21.56,14.02,49.83,30.91,62.07,58.58,42.46,111.13,104.54,194.7,77.67,75.84,94.53,122.42,97.03,175.47,9.96,36.22,18.8,31.54,56.11,40.12,86.78,13.33,47.65,33.18,61.86,78.08,45.21,19.77-7.33,38.94-26.72,49.89-45.57,47.07-81.02,56.49-173.08,65.66-263.5,6.97-68.73,8.2-139.14,1.66-207.82-6.18-64.98-57.32-97.8-116.11-113.51-56.46-15.08-105.06-3.02-133.87,54.61-2.85,5.7-10.97,8.78-25.35,19.67-21.74-17.1-45.99-34.49-68.33-54.06-52.06-45.57-103.92-53.65-165.33-25.29Z"/>
      <path class="cls-1" d="M1282.54,622.47c37.2,78.02,98.06,79.58,150.31,11.32,14.14-18.47,27.06-37.87,45.9-64.37,59.59,64.84,131.82,61.48,204.14,57.82,4.79-.24,9.68-.6,14.38.06,59.88,8.41,94.09-28.03,120.47-72.79,13.11-22.23,20.2-48.78,26.19-74.27,14.26-60.66,24.79-122.21,39.44-182.77,30.11-124.47-63.78-185.77-154.3-176.16-41.46,4.41-73.96-2.88-108.25-22.28-66.66-37.7-133.43,12.88-200.55,2.44-3.43-.53-8.81,4.27-11.58,7.9-24.42,31.92-58.06,36.61-95.73,38.72-48.46,2.72-73.25,27.5-73.8,71.21-1.01,81.49-3.38,163.41,3.65,244.38,4.69,53.91,16.61,110.35,39.71,158.79Z"/>
      <path class="cls-1" d="M3060.3,2303.42c-2.49,3.67-7.52,5.6-15.42,11.25-61.32-54.92-155.56-52.65-213.56-119.31-8.71-10.01-24.7-16.13-38.38-18.98-86.19-17.93-163.34-8.55-146.74,114.76,13.47,100.01,24.73,200.32,35.86,300.62,5.33,48.02,36.01,70.15,77.7,83.78,41.08,13.43,69.58-3.64,92.79-35.79,6.87-9.51,14.43-18.51,24.41-31.23,66.76,51.01,132.66,58.07,201.74-6.97,43.02,54.11,91.69,77.34,155.65,63.82,14.93-3.15,32.38,6.73,48.85,9.63,74.56,13.12,121.42-18.3,136.2-92.16,6.13-30.62,10.85-61.59,14.75-92.58,13.04-103.85-.65-125.09-95.45-165.17-27.85-11.78-54.61-28.79-77.93-48.14-81.55-67.66-141.45-60.5-200.46,26.48Z"/>
      <path class="cls-1" d="M.56,2013c7.94,93.37,18.68,186.56,30.53,279.53,5.64,44.27,25.67,83.14,63.95,108.71,58.46,39.04,137.84,2.3,194.56,52.25,6.29,5.54,22.84.1,34.49-1.36,7.03-.88,14.02-6.11,20.63-5.45,11.35,1.13,23.47,3.32,33.39,8.59,54.52,28.97,108.44,59.08,162.64,88.66,24.1,13.16,46.6,11.82,64.57-10.4,14.94-18.47,33.84-36.25,41.39-57.71,17.48-49.64,31.15-100.88,42.62-152.3,12.35-55.41-8.27-98.9-57.04-128.64-18.27-11.14-36.34-22.6-62.56-38.94,30.87-89.18-24.37-131.15-96.73-163.22-68.84-30.51-120.62-2.85-173.24,56.55-22.73-26.55-41.69-44.58-55.68-65.87-35.89-54.59-89.54-70.75-149.62-70.74-64.87,0-99.38,36.08-93.91,100.34Z"/>
      <path class="cls-1" d="M1947.99,1437.49c-1.34.04-2.68.08-4.03.12,0,36.03-1.17,72.11.23,108.09,3.49,89.59,45.55,123.34,134.97,111.93,17.84-2.28,36.55,1.3,54.75,3.22,25.66,2.69,51.69,10.95,76.71,8.43,32.58-3.29,56.54.42,69.84,33.89,18.06,45.42,54.79,58.29,99.61,51.79,36.63-5.31,69.47-42.31,74.72-86.31,10.25-85.84,19.8-171.82,26.66-257.97,5.12-64.36-76.18-197.15-135.47-223.09-19.1-8.36-41.57-9.19-62.58-12.98-34.92-6.3-70.52-9.91-104.72-18.87-39.28-10.29-77.37-25.14-115.97-38.06-65.87-22.06-115.62,6.47-126.1,75.28-3.93,25.77-1.4,52.76.08,79.08,3.1,55.19,7.46,110.32,11.29,165.47Z"/>
      <path class="cls-1" d="M2107.4,3458.92c27.7-9.6,48.71-5.67,73.1,11.37,39.99,27.94,85.54,34.48,127.16,3.52,29.35-21.83,54.96-17.91,87.02-7.53,33.5,10.84,59.38,27.82,82.85,53.2,27.29,29.5,62.58,35.45,98.85,18.41,35.25-16.56,55.16-45.05,54.71-85.6-.24-21.57-.04-43.14-.04-64.71-1.04,0-2.09,0-3.13,0,0-21.58-.34-43.17.07-64.75,1.02-53.41-23.51-96.87-68.79-117.82-62.37-28.84-128.33-56.17-195.51-66.88-98.27-15.67-198.29-16.71-291.69-59.33-26.8-12.23-61.27-11.74-91.95-10.47-46.57,1.94-78.19,32.79-75.25,78.62,5.86,91.39,26.61,180.27,74.53,259.66,28.51,47.22,71.17,72.04,128.07,52.32Z"/>
      <path class="cls-1" d="M1238.02,3253.58c-9.88-74.33-48.91-122.37-119.72-147.01-42.67-14.85-82.78-41.85-126.3-48.43-78.1-11.81-147.75-41.33-216.27-77.1-6-3.13-14.14-2.26-21.3-3.08-71.53-8.2-106.24,24.4-97.05,94.71,10.59,80.95,22.84,161.72,36.52,242.21,8.61,50.66,48.77,87.64,100.11,86.71,34.43-.62,68.63-13.74,111.05-23.05-4.55-1.65.31-.67,4.37,1.7,77.03,45.16,165.39,69.59,232.07,134.61,25.21,24.58,62.86,19.9,93.35-2.52,30.31-22.29,39.51-51.02,31.74-88.59-11.65-56.29-20.99-113.17-28.56-170.16Z"/>
      <path class="cls-1" d="M1475.48,2508.88c59.43,16.07,123.4,35.06,165.41,88.44,26.6,33.79,56.89,62.64,103.43,47.13,44.32-14.78,70.64-48.64,76.93-95.71,4.76-35.65,7.89-71.52,11.74-107.29,6.24-115.32-13.9-148.53-116.32-198.01-15.68-7.58-31.29-21.64-39.73-36.73-31.44-56.24-77.79-80.97-141.66-81.34-27.71-.16-55.31-10.71-83.07-15.97-21-3.98-42.11-9.57-63.28-10.1-67.62-1.7-102.55,40.17-86.44,105.84,16.01,65.24,36.3,129.41,53.97,194.24,16.86,61.82,55.51,92.35,119.01,109.51Z"/>
      <path class="cls-1" d="M1792.86,3901.52c-20.47.28-44.61-5.31-60.98-16.84-56.43-39.72-118.77-48.4-184.87-45.41-9.59,0-19.18.02-28.77,0-110.52-.23-146.82,52.29-108.16,157.06,14.1,38.22,26.67,77.3,44.31,113.88,30.45,63.15,100.96,123.54,184.33,104,74.33-17.43,155.84-31.01,224.55,27.29,3.52,2.99,8.47,4.51,12.98,6.1,67.67,23.89,131.24-18.41,124.52-90.14-4.79-51.13-18.07-104.71-41.38-150.1-32.93-64.14-86.95-106.92-166.53-105.84Z"/>
    </g>
  </g>
</svg>