<?xml version="1.0" encoding="UTF-8"?>
<svg id="Camada_2" data-name="Camada 2" xmlns="http://www.w3.org/2000/svg" viewBox="0 0 1869.87 1824.74">
  <defs>
    <style>
      .cls-1 {
        fill: #bfc9b9;
      }
    </style>
  </defs>
  <g id="Camada_1-2" data-name="Camada 1">
    <path class="cls-1" d="M1869.41,878.66c5.47,112.49-38.82,209.08-84.29,305.04-27.24,57.49-48.9,114.88-57.68,179.69-5.54,40.88-39.87,78.02-61.99,116.43-7.88,13.69-18.94,25.55-26.7,39.3-55.3,97.95-133.34,167.57-242.31,201.69-22.02,6.9-41.96,22.58-60.9,36.81-81.15,60.95-173.82,71.76-271.13,65.63-81.66-5.15-164.14-3.7-244.87-15.05-67.29-9.46-132.63-32.98-198.67-50.91-15.24-4.14-29.37-13.78-44.7-15.92-195.72-27.23-313.91-159.22-424.12-306.16-63.76-85.01-102.04-176.77-113.75-281.6-6.45-57.72-16.8-115.05-26.48-172.37-30.04-177.81-2.42-346.47,78.69-506.99,11.92-23.58,28.29-46.66,33.1-71.79,25.04-130.97,115.03-215.91,205.53-301.98,46.58-44.3,103.36-63.11,163.1-74.92,162.41-32.11,324.97-37.66,486.83,4.98,10.18,2.68,20.86,7.04,30.91,6.13,97.3-8.82,186.64,26.69,279.45,45.3,95.93,19.24,170.4,67.41,239.16,131.31,34.76,32.3,72.11,61.91,105.68,95.36,27.79,27.69,53.36,58.01,76.92,89.42,22.11,29.48,40.88,61.55,59.98,93.16,12.24,20.27,27.74,40.62,32.62,62.94,23.59,107.8,44.07,216.27,65.65,324.51ZM621.04,144.52c-35.81,8.21-83.36,5.61-110.22,27.91-70.04,58.16-148.05,112.26-178.45,206.62-33.93,105.3-71.9,209.32-104.64,314.98-9.96,32.14-14.02,68.33-11.11,101.83,10.27,118.19,21.55,236.49,39.14,353.75,7.23,48.19,24.08,98.38,49.61,139.58,41.49,66.97,89.45,131.25,142.98,188.96,32.73,35.28,77.5,67.28,122.89,81.45,137.97,43.07,276.18,81.96,424.07,89.06,121.53,5.84,227.32-7.38,324.22-85.24,43.75-35.15,88.73-66.87,113.76-118.3,40.34-82.89,78.92-166.63,118.72-249.78,82.86-173.08,107.61-350.01,49.35-537.41-35.25-113.37-77.01-218.37-182.88-285.41-24.23-15.34-45-36.89-65.21-57.67-46.34-47.65-104.8-67.16-167.59-82.87-105.32-26.35-219.17,9.29-320.21-46.35-10.4-5.72-26.18-.84-39.16-2.85-36.34-5.62-72.58-11.91-108.74-18.64-30.78-5.73-61.37-12.43-96.54-19.62Z"/>
  </g>
</svg>