<?xml version="1.0" encoding="UTF-8"?>
<svg id="Camada_2" data-name="Camada 2" xmlns="http://www.w3.org/2000/svg" viewBox="0 0 2947.09 2651.75">
  <defs>
    <style>
      .cls-1 {
        fill: #bfc9b9;
      }
    </style>
  </defs>
  <g id="Camada_1-2" data-name="Camada 1">
    <g>
      <path class="cls-1" d="M2880.24,2089.91c-15.74,3.31-31.15,11.31-45.02,19.9-57.85,35.78-115.16,72.43-172.45,109.1-21.25,13.6-41.91,28.14-68.08,45.77-20.31-25.52-35.02-44.12-49.86-62.62-29.96-37.32-57.62-76.84-90.53-111.35-51.57-54.07-99.16-50.17-153.43-.97-29.2,26.47-65.4,46.86-101.32,63.94-66.32,31.54-136.87,54.6-201.73,88.66-69.14,36.31-68.48,39.51-87.29-38.18-15.86-65.54-73.62-90.57-131.09-55.6-17.13,10.42-33.73,23.23-47.06,38.1-43.08,48.06-97.23,77.88-155.99,101.67-35.82,14.51-70.12,32.79-106,47.13-37.42,14.96-75.25,29.72-114.09,40.06-51.77,13.79-73.43,4.98-87.64-46.6-20.38-73.94-66.24-124.95-123.82-170.91-55.11-43.99-59.69-46.14-118.33-3.75-7.44,5.38-14.82,10.95-21.6,17.11-84.78,77-188.06,122.09-292.02,164.05-59.99,24.21-84.81,10.49-125.19-44.08-13.02-17.59-28.78-33.45-44.86-48.42-41.78-38.89-88.02-41.83-127.15-3.16-94.45,93.34-183.64,191.5-258.42,301.85-14.44,21.3-12.77,40.46,3.1,60.55,53.87,68.18,116.01,65.97,163.94-6.21,15.28-23.02,29.5-47.08,47.35-67.98,39.22-45.92,77.44-93.3,130.03-126.96,4.39-2.81,45.37,20.39,50.35,24.3,33,25.9,63.04,58.08,100.7,77.45,20.95,10.78,44.97,17.25,68.64,15.17,20.68-1.81,37.78-14.16,56.04-23.36,29.83-15.04,58.52-32.19,87.96-47.96,60.07-32.2,119.78-65.06,180.05-96.88,49.81-26.3,87.05-7.01,102.73,47,12.25,42.21,29.25,83.27,46.96,123.6,28,63.78,61.57,77.99,127.85,57.55,7.01-2.16,13.74-5.28,20.46-8.29,149.19-66.79,298.37-133.63,450.33-201.71,6.95,13,15.6,28.86,23.93,44.89,8.5,16.35,16.06,33.21,25.11,49.24,24.21,42.86,60.9,53.78,100.7,28.59,15.36-9.72,27.91-23.86,41.87-35.84,16.73-14.34,32.37-30.36,50.61-42.45,96.14-63.74,207.04-93.98,312.58-136.47,24.71-9.95,43.46-5.43,57.58,15.66,26.45,39.49,57.38,77.25,76.38,120.19,36.17,81.75,79.2,92.56,147.42,34.25,41.59-35.55,87.57-66.1,132.64-97.38,37.81-26.24,77.6-49.61,115.69-75.47,45.62-30.98,72.69-72.34,68.37-130.13-2.96-39.58-28.01-61.12-66.4-53.06Z"/>
      <path class="cls-1" d="M2779.53,556.45c-29.31,14.74-56.57,34.53-82.39,55.02-34.6,27.46-66.48,58.31-100.38,86.7-24.96,20.91-34.4,19.03-53.32-7.28-20.38-28.34-38.31-58.83-61.41-84.73-38.18-42.79-90.74-46.41-124.05-1.56-46.47,62.57-116.77,88.06-176.99,128.68-42.02,28.34-62.31,24.2-88.05-17.06-26.8-42.97-67.36-66.49-104.57-95.96-25.97-20.57-51.95-21.49-75.55-2.12-22.33,18.33-42.32,40.52-59.59,63.8-38.08,51.32-82.29,94.19-143.45,116.27-25.75,9.3-48.39,7.79-70.92-13.57-26.55-25.18-57.35-46.11-87.51-67.17-52.82-36.89-107.32-71.4-159.68-108.91-45.03-32.25-62.46-32.67-107.04,2.91-27.22,21.72-55.01,42.78-83.36,63-17.94,12.79-39.53,21.08-55.76,35.56-61.67,55.03-133.27,91-210.45,118.48-48.42,17.25-95.51,38.52-150.49,61.1-4.96-6.33-10.09-12.61-13.88-19.61-40.67-75.05-96.18-138.75-150.7-203.72-26.57-31.67-54.39-42.6-91.34-31.6-24.23,7.21-47.85,17.53-70.41,29.06-45.66,23.34-89.01,51.71-135.88,72.09-78.06,33.96-153.84,69.37-217.99,127.96-27.01,24.67-40.19,50.75-43.8,84.81-3.6,33.97,11.27,57.47,49.32,76.85,30.01,15.29,49.04,9.14,78.42-16.75,32.88-28.97,65.82-59.96,103.9-80.48,67.96-36.63,140.02-65.59,209.91-98.71,28.4-13.46,52.54-9.71,76.82,9.53,40.4,32.03,69.21,72.53,81.97,121.63,13.24,50.96,42.59,88.47,81.36,121.47,31.77,27.05,45.03,30.65,76.94,6.47,70.65-53.51,144.81-100.09,229-129.62,15.46-5.42,29.79-14.6,43.89-23.27,56.46-34.69,114.84-66.81,168.26-105.72,54.33-39.57,102.46-42.92,152.48,3.93,7.83,7.33,19.25,10.73,28.77,16.35,50.81,30,101.97,59,131.52,114.31,8.33,15.6,22.62,30.99,38.05,39.05,18.41,9.61,42.51,18.51,61.42,14.6,27.97-5.79,56.83-18.89,79.5-36.4,56.73-43.83,110.41-91.63,164.86-138.37,31.3-26.86,47.62-27.47,73.04,4.96,15.74,20.08,26.46,44.07,39.58,66.22,28.64,48.38,78.05,62.44,127.3,35.58,11.23-6.12,20.81-15.19,31.68-22.08,64.96-41.19,130.07-82.13,197.27-124.5,35.55,44.96,83.3,65.5,112.97,111.66,33.97,52.85,79.4,47.1,118.01-2.99,3.37-4.38,7.48-8.38,9.96-13.22,30.26-59.07,76.93-102,131.69-138.01,22.94-15.09,44.02-33.58,63.86-52.69,29.37-28.28,43.31-63.31,38.55-104.85-5.55-48.46-37.84-68.93-81.3-47.08ZM787.21,892.64c.34.16.32.17,0,0h0Z"/>
      <path class="cls-1" d="M71.94,1658.53c11.28,3.35,27.24,4.31,36.52-1.22,59.93-35.74,122.17-69.08,176.55-112.17,44.01-34.87,79.18-81.34,116.2-124.45,39.14-45.6,57.9-45.8,101.85-4.98,33.61,31.22,70.5,59.46,108.46,85.33,45.6,31.07,54.02,30.2,97.8-4.53,56.99-45.22,120.34-77.29,187.98-103.4,66.84-25.8,132.25-55.55,197.32-85.63,44.66-20.65,74.26-17.03,108.95,19.6,21.53,22.73,41.65,46.88,64.09,68.66,42.17,40.93,84.28,79.8,109.16,136.53,19.84,45.23,62.91,50.82,108.35,26.85,39-20.57,76.43-46.89,117.96-59.24,61.97-18.44,113.23-52.53,164.04-89.3,10.43-7.55,20.58-15.51,30.77-23.39,19.52-15.07,38.5-13.82,53.2,5.5,22.11,29.07,44.01,58.57,62.89,89.77,21.83,36.07,37.52,45.36,76.51,31.71,18.67-6.54,36.92-16.85,52.57-29.03,81.64-63.52,169.25-117.67,259.16-168.35,21.18-11.94,43.74-25.61,66.9-8.31,49.54,37.03,106.47,64.5,135.1,126.64,22.88,49.66,70.59,53.02,105.6,12.01,37.28-43.67,74.53-85.67,129.44-109.11,21.36-9.12,39.14-27.35,57.46-42.74,29.77-25.01,42.12-59.4,48.53-90.67,1.38-54.38-30.72-76.98-75.62-57.76-15,6.42-28.27,16.96-42.1,25.98-36.81,24.02-73.33,48.47-110.27,72.28-25.12,16.19-49.84,11.58-71.91-5.72-49.27-38.6-98.74-77.05-146.31-117.7-43.26-36.98-61.96-38.28-103.28.65-71.77,67.63-158.21,113.89-241.1,165.27-9.2,5.7-20.64,7.73-30.91,11.79-19.34,7.64-36.5,4.6-50.07-11.3-22.63-26.53-45.43-52.98-66.7-80.59-26.44-34.32-63.6-50.73-101.74-36.11-19.47,7.46-37.77,22.97-51.68,39.09-63.43,73.48-138.69,124.51-236.07,143.19-38.49,7.39-70.89,2.26-96.99-23.4-40.59-39.91-82.96-79.83-114.5-126.55-25.89-38.34-56.87-65.75-94.21-90.37-32.83-21.65-62.44-26.24-97.33-5.07-51.89,31.5-103.4,64.95-158.76,89.12-85.88,37.49-174.44,69.02-262.69,100.81-53.82,19.39-77.43,12.99-108.84-34.32-19.37-29.17-43.33-48.89-72.7-65.16-62.16-34.43-79.66-35.2-131.17,16.1-45.53,45.35-86.44,95.55-127.39,145.25-46.25,56.13-104.66,92.38-173.85,111.23C34.21,1483.57,1,1514.66.04,1550.66c-1.25,46.58,30.33,95.54,71.9,107.88Z"/>
      <path class="cls-1" d="M2793.98,1669.28c-39.56,40.58-76.91,83.3-114.35,124.27-71.66-55.49-134.12-103.6-196.29-152.1-26.11-20.37-53.96-22.76-82.79-8.21-16.32,8.24-32.44,17.77-46.63,29.21-97.51,78.57-211.57,125.34-325.52,173.06-31.03,12.99-48.2,4.81-63.49-21.05-22.5-38.04-44.56-76.42-68.83-113.32-33.07-50.27-63.25-60.79-116.64-36.9-39.8,17.81-80.21,37.26-114.59,63.52-77.09,58.89-162.66,99.78-251.38,136.98-41.35,17.34-68.82,7.93-98.02-21.42-33.74-33.92-48.22-77.48-68.36-118.66-33.7-68.9-119.63-84.12-174.47-31.69-13.15,12.57-23.43,28.13-35.22,42.15-11.81,14.04-21.25,33.44-36.39,40.57-27.5,12.94-58.08,22.48-88.16,25.44-14.3,1.41-32.24-13.43-45.37-24.63-39.25-33.47-76.43-69.34-115.36-103.19-40.07-34.85-84.23-35.44-124.42-.82-16.55,14.25-30.37,31.99-43.89,49.35-37.09,47.66-73.52,95.85-109.9,144.05-26.55,35.18-58.36,56.7-104.74,63.61-68.63,10.22-96.64,64.6-74.84,130.18,2.32,6.99,3.69,14.32,6.3,21.19,15.48,40.84,42.63,60.47,85.39,51.74,27.73-5.66,58.7-17.1,78.4-36.12,48.76-47.09,91.33-100.53,137.46-150.42,32.06-34.69,65.9-67.73,98.93-101.48,51.87,31.17,87.44,63.29,99.76,119.67,11.76,53.79,69.24,85.93,108.52,64.87,40.3-21.61,79.02-46.51,116.92-72.19,38.92-26.37,76.01-55.44,116.02-84.88,37.52,46.79,72.79,88.99,105.76,132.92,10.73,14.29,14.88,33.38,23.05,49.78,22.03,44.23,74.37,53.49,117.3,24.51,44-29.7,89.43-57.58,135.9-83.26,45.01-24.88,92.2-45.81,138.3-68.76,29.66-14.77,59.54-29.21,88.46-45.35,30.76-17.18,57.74-10.73,79.96,12.97,14.81,15.79,25.74,35.4,37.39,53.95,16.59,26.41,29.2,55.95,48.95,79.62,41.04,49.2,77.04,47.52,126.46,5.66,31.85-26.97,67.39-50.41,103.8-70.98,60.86-34.39,123.72-65.26,185.78-97.54,19.62-10.21,38.7-21.98,59.3-29.58,12.77-4.71,30.13-8.08,41.65-3.17,54.54,23.24,106.49,50.21,135.56,107.35,11.47,22.55,29.05,42.35,45.71,61.81,20.12,23.51,46.11,23.48,69.81,7.63,31.87-21.31,64.53-42.02,76.67-83.52,4.77-16.32,19.05-30.95,31.76-43.58,16.89-16.79,37.27-30.02,54.74-46.28,45.72-42.54,82.45-90.7,78.84-157.37-2.39-44.18-36.26-67.28-77-51.05-20.98,8.36-40.02,24.91-56.15,41.46Z"/>
      <path class="cls-1" d="M178.81,359.43c70.12-43.93,136.35-94.01,205.21-140.02,54.61-36.48,84.41-36.05,133.06,8.92,36.14,33.4,69.55,71.04,98.05,111.15,43.35,61,91.16,51.23,138.37,23.73,25.31-14.74,51.35-28.23,77.07-42.26,66.14-36.08,133.73-69.82,197.84-109.2,32.39-19.9,58.26-22.48,91.88-4.9,77.01,40.26,153.11,80.91,209.66,149.52,2.31,2.81,5.39,5.03,8.25,7.34,28.45,22.99,57.72,29.07,91.62,9.59,76.59-43.99,156.14-83.22,230.34-130.84,43.2-27.73,80.78-33.79,121.94-4.62,62.87,44.56,126.34,88.52,186.59,136.46,52.61,41.85,86.56,40.91,132.15-8.61,43.41-47.16,87.49-93.96,134.39-137.57,37.65-35.01,41.91-33.07,84.1.08,56.43,44.34,112.5,89.13,168.65,133.82,37,29.45,75.53,31.62,102.72-1.02,47.65-57.21,102.63-104.64,163.68-147.02,33.72-23.4,55-60.2,56.29-103.49,1.38-46.16-29.22-69.97-72.08-54.04-23.55,8.75-45.51,24.31-65.14,40.49-31.24,25.76-60.26,54.26-89.57,82.29-17.79,17.01-35.23,17.5-54.06,2.66-50.5-39.8-102.68-77.67-151.19-119.75-92.88-80.58-126.45-78.81-208.9,14.9-27.97,31.8-56.62,63.34-87.85,91.85-36.16,33.01-51.86,32.6-92.37,7.15-70.1-44.04-140.32-87.88-210.14-132.37-34.54-22.01-67.87-24.95-102.86-.61-34.73,24.16-69.59,48.42-106.23,69.45-44.63,25.61-90.63,49-137.12,71.09-20.4,9.69-42.13,10.18-61.82-7.39-70.54-62.95-153.42-107.39-234.92-153.67-63.7-36.17-100.36-28.06-154.09,18.86-74.09,64.69-156.36,115.78-255.7,135-28.82,5.58-47.55-1.87-69.72-19.34-48.99-38.59-85.86-89.27-138.64-125.13-48.03-32.63-89.52-43.45-150.8.1-72.01,51.17-143.84,102.6-216.22,153.23-10.29,7.2-23.07,11.01-34.98,15.67-42.56,16.64-61.67,43.85-61.04,87.63,1.15,79.9,56.09,113.17,123.59,70.88Z"/>
    </g>
  </g>
</svg>