<?xml version="1.0" encoding="UTF-8"?>
<svg id="Camada_2" data-name="Camada 2" xmlns="http://www.w3.org/2000/svg" viewBox="0 0 2383.44 1280.5">
  <defs>
    <style>
      .cls-1 {
        fill: #90a0b5;
      }
    </style>
  </defs>
  <g id="Camada_1-2" data-name="Camada 1">
    <path class="cls-1" d="M1204.17,2.74c133.04-10.46,263.93,10.99,394.11,31.85,82.46,13.22,149.01,66.66,216.96,112.24,62.3,41.79,124.89,84.07,181.85,132.58,39.28,33.46,75.19,74.25,102.07,118.21,57.92,94.73,110.54,192.83,162.07,291.25,16.56,31.63,25.92,67.98,33.33,103.27,18.63,88.78,33.17,178.41,51.71,267.2,6.45,30.88,18.93,60.65,30.23,90.32,24.51,64.37-18.32,132.66-88.77,130.2-97.67-3.41-196.04-8.61-292.33-24.13-52.7-8.49-106.34-15.45-159.82-15.29-72.65.22-221.12,16.29-264.21-57.87-40.59-69.85-8.59-154.68-20.1-229.97-12.15-79.5-53.46-159.79-118.06-209.16-132.05-100.91-264.1-67.69-327.96,111.7-24.35,68.41-46.21,137.78-67.11,207.34-11.08,36.88-17.28,75.2-26.44,112.69-7.97,32.63-26.26,49.05-63.11,48-170.57-4.84-338.47,15.46-506.93,43.75-111.14,18.66-226.74,12.22-340.38,13.44-23.03.25-47.45-13.22-69.06-24.5-26.91-14.05-39.01-37.35-28.39-68.68,2.17-6.41,1.85-13.67,4.05-20.06,63.53-185.02,126.2-370.35,191.86-554.62,11.96-33.57,31.87-66.68,55.67-93.23,86.51-96.52,178.62-185.94,283.68-264.58,147.2-110.19,319.11-163.97,483.09-235.66,43.11-18.85,98.27-10.14,147.9-14.03,11.36-.89,22.73-1.52,34.1-2.28ZM2134.07,1117.61c-24.49-122.38-46.09-231.05-68.23-339.6-1.77-8.69-7.04-16.77-11.24-24.85-49.26-95.01-96.18-191.36-149.26-284.19-19.63-34.34-53.37-60.8-81.64-89.91-9.37-9.65-22.83-15.23-32.61-24.57-103.63-98.96-219.33-169.38-369.73-163.07-24.67,1.04-49.61-7.79-74.53-8.53-98.05-2.94-199-6.03-289.13,33.69-143.04,63.04-289.14,118.85-418.35,213.54-158.11,115.86-277.5,254.7-336.99,442.62-10.31,32.55-23.56,64.19-33.35,96.88-16.17,53.95-30.63,108.42-48.86,173.58,63.21-3.22,115.88-.28,166.27-9.6,118.72-21.95,236.28-50.31,358.15-48.47,22.39.34,39.62-7.43,48.16-30.18,25.53-68.03,60.21-134.04,75.16-204.28,19.05-89.48,76.23-152.08,127.18-220.23,10.5-14.04,26.64-25.34,42.39-33.76,116.64-62.38,116.76-59.81,252.41-56.54,71.24,1.72,134.47,26.5,193.31,59.54,114.28,64.17,202.18,156,239.28,284.39,17.16,59.4,17.43,123.67,25.91,190.11,121.34,13.66,246.92,27.8,385.7,43.43Z"/>
  </g>
</svg>