<?xml version="1.0" encoding="UTF-8"?>
<svg id="Camada_2" data-name="Camada 2" xmlns="http://www.w3.org/2000/svg" viewBox="0 0 2901.66 2753.29">
  <defs>
    <style>
      .cls-1 {
        fill: #232429;
      }
    </style>
  </defs>
  <g id="Camada_1-2" data-name="Camada 1">
    <path class="cls-1" d="M1061.81,2749.5c-297.3-141.29-448.54-447.08-675.01-668.03-46.39-45.26-96.63-78.58-150.43-113.41-52.14-33.75-44.7-87.07-52.21-142.16-16.66-122.14-32.96-240.94-43.78-363.61-19.93-215.38-39.95-430.74-60.93-646.02-9.45-97.01-11.08-195.29-27.63-291.5-15.78-91.71-83.63-207.19-33.89-300.24,64.04-119.8,266.18-92.77,378.24-109.07,180.88-26.32,360.5-65.91,543.91-69.76,164.83-3.46,328.94-37.47,493.83-42.47,133.31-4.04,266.68-14.05,399.27,46.36,186.98,85.18,374.69,190.14,546.22,308.12,86.2,59.29,169.67,122.55,249.85,189.76,78.8,66.06,130.65,148.24,194.87,227.35,12.96,15.97,19.85,40.66,21.05,61.8,14.22,250.51,27.7,501.06,39.58,751.69,6.28,132.45,10.7,264.97,16.16,397.45,4.04,98.03-9.41,195.36-16.53,292.92-6.92,94.93,3.54,193.4-39.05,281.86-62.33,129.48-225.16,122.23-350.39,137.12-153.95,18.31-308.81,27.55-463.57,35.8-265.57,14.16-532.05,15.88-798.04,16.07-29.94.02-59.88.02-89.81.01-20.28,0-63.78,8.52-81.73-.01ZM287.14,328.67c13.18,70.62,31,141.26,38.71,213,13.25,123.25,20.71,247.13,29.67,370.82,18.4,253.87,35.59,507.83,54.53,761.66,7.78,104.24,19.62,115.6,121.56,111.57,301.91-11.95,604.24-20.89,900.61-89,17.24-3.96,33.26-13.26,55.22-22.28-60.42-71.96-70.74-154.14-76.75-236.81-3.45-47.48-1.97-95.39-1.39-143.09,3.87-315.02,8.6-630.03,11.5-945.06.33-36.22-8.91-72.52-14.97-118.32-225.42,13.79-441.02,23.15-655.87,41.42-151.26,12.86-298.53,63.43-452.94,51.05-2.68-.21-5.61,2.78-9.88,5.05ZM2606.94,2283.96c15.28-25.07,20.69-30,21.12-35.34,1.79-22.12,2.84-44.36,2.82-66.55-.21-308.75-9.36-618.12-1.65-900.3,2.77-101.31-22.73-359.38-33.82-460.16-80.66-66.96-212.62-156.82-293.19-223.89-158.41-131.87-339.29-223.33-531.22-294.63-13.3-4.94-29.42-2.31-46.91-3.36-2.14,21.06-4.67,36.53-5.13,52.05-6.86,235.14-13.52,628.17-19.92,863.32-2.63,96.55-25.64,202.19,12.65,294.73,37.51,90.64,128.44,112.44,206.36,157.91,201.15,117.38,364.8,297.29,529.26,459.36,51.23,50.49,102.61,100.84,159.62,156.85ZM673.19,1997.96c17.06,28.62,21.84,39.88,29.38,48.79,119.23,140.87,239.45,280.91,357.9,422.44,29.37,35.1,65.57,49.03,108.69,49.76,111.44,1.89,223.34,10.03,334.26,3.06,244.66-15.36,488.91-37.69,733.14-59.23,41.57-3.67,82.24-17.55,124.46-26.97-7.08-19.14-7.82-26.22-11.63-30.71-131.79-155.34-271.92-302.6-426.76-435.25-26.96-23.09-58.98-24.56-91.07-39.38-34.57-15.96-64.14-37.28-104.3-26.83-139.3,36.25-290.18,39.15-432.48,62.54-164.77,27.09-332.1,45.41-499.15,32.15-34.46-2.73-69.32-.38-122.45-.38Z"/>
  </g>
</svg>