<?xml version="1.0" encoding="UTF-8"?>
<svg id="Camada_2" data-name="Camada 2" xmlns="http://www.w3.org/2000/svg" viewBox="0 0 3268.27 2645.51">
  <defs>
    <style>
      .cls-1 {
        fill: #3c608a;
      }
    </style>
  </defs>
  <g id="Camada_1-2" data-name="Camada 1">
    <g>
      <path class="cls-1" d="M2850.81,1680.14c-79.1-2.71-158.41,1.54-237.61.66-195.32-2.15-390.63-5.95-585.95-8.23-92.42-1.08-184.86-.19-277.29-.19-325.74,6.65-648.54,38.49-970.94,83.4-148.3,20.66-299.04,35.26-449.37-1.12-39.3-9.51-83.94-1.96-125.3,3.75-30.38,4.2-52.1,23.6-51.89,59.55.52,87.87,61.51,155.63,150.66,164.51,26.22,2.62,52.83,1.02,79.18,2.61,273.43,16.55,542.93-28.64,813.13-56.08,234.2-23.79,468.25-39.81,703.45-41.18,94.99-.55,190.09-2.98,284.96.52,78.65,2.91,157.08,12.63,235.48,20.61,41.94,4.27,83.51,15.1,125.43,16.24,110.53,3,221.62-3.81,331.6,4.76,118.85,9.25,230.68-2.29,337.41-57.62,41.95-21.75,62.22-56.57,51.8-102.53-13.37-59-57.59-89.52-124.35-84.33-42.09,3.27-84.19,12.77-126.03,11.45-54.92-1.74-109.47-14.91-164.39-16.79Z"/>
      <path class="cls-1" d="M347.31,1411.85c71.06,3.19,142.61-.9,213.79-4.85,118.25-6.55,234.23-38.88,354.68-23.44,147.48,18.91,293.74.59,441.28-14.5,246.77-25.23,495.14-35.34,742.99-49.09,52.2-2.9,105.03,8.58,157.59,8.83,131.65.63,263.32-1.83,394.98-2.19,105.09-.29,210.41,24.21,315.21-7.36,53.54-16.13,87.64-44.43,91.54-85.06,4.9-51.08-20.53-105.68-66.9-124.14-33.33-13.27-71.23-20.06-107.24-20.68-134.6-2.33-269.27-.93-403.92-.93,0,3.07,0,6.14,0,9.22-147.94,0-296.2-6.26-443.75,1.33-287.43,14.79-574.38,38.48-861.67,56.26-181.88,11.25-363.96,19.9-546.05,27.04-141.69,5.56-284.5,32.88-424.43-15.32-7.32-2.52-15.65-2.53-23.55-2.83-53.78-2.06-89.57,31.39-76.84,83.1,14.33,58.24,34.8,119.21,103.54,137.75,45.45,12.26,92.14,24.75,138.74,26.83Z"/>
      <path class="cls-1" d="M2691.56,535.71c-80.29,10.06-163.4-4.83-245.2-3.93-417.47,4.58-832.69,60.39-1250.93,53.08-160.71-2.81-321.39,4.57-481.78,29.74-116.51,18.28-236.77,12.67-343.38,17.21-91.61,0-170.95-2.21-250.1.68-65.49,2.4-88.25,40.09-62.66,101.62,23.58,56.7,61.07,98.98,129.21,99.89,123.97,1.66,247.93,4.02,371.9,4.86,47.5.32,96.48,4.13,142.28-5.5,153.68-32.31,309.25-32.7,464.77-42.72,103.6-6.67,204.98-1.99,307.47,2.86,36.69,1.74,73.75-3.65,110.61-6.18,63.05-4.32,126.07-8.96,189.1-13.44,76.17-5.41,152.27-12.11,228.52-15.79,60.18-2.91,122.63-12,180.18.12,48.09,10.13,92.61,13.6,139.98,6.56,70.5-10.47,142.85-33.73,211.5-25.92,118.78,13.52,236.81,13.83,355.07,8.69,45.93-2,93.32-15.65,136.11-33.45,51.44-21.4,69.52-65.91,59.01-116.56-8.28-39.89-23.85-52.43-92.27-53.36-99.72-1.36-197.98-21.16-299.4-8.45Z"/>
      <path class="cls-1" d="M2834.31,2335.99c-32.98,5.89-67.7,4.17-101.51,2.77-49.44-2.05-98.78-9.81-148.15-9.65-42.02.14-83.92,9.87-126.04,12.17-197.69,10.79-395.41,21.03-593.17,30.36-134.64,6.35-269.33,11.96-404.06,15.86-115.96,3.36-233.05-5.41-347.78,7.57-205.95,23.31-411.99,15.83-618.04,18.01-39.03.41-78.16-9.94-117.28-15.02-47.16-6.12-94.24-15.33-141.57-16.91-50.04-1.67-90.24,45.52-74.22,88.49,21.34,57.23,50.22,116.31,113.41,135.17,77.75,23.21,156.13,45.49,240.58,39.83,128.96-8.65,258.42-9.69,387.68-13.93,52.84-1.73,105.71-2.72,158.51-5.25,153.13-7.34,306.23-15.2,459.34-23,195.26-9.96,390.51-20.06,585.76-30.11,68.57-3.53,137.21-10.84,205.7-9.65,92.28,1.6,184.44,9.75,276.65,15.09.18-2.98.35-5.95.53-8.93,39.55,2.24,79.08,5.63,118.66,6.47,84.66,1.78,169.31,3.76,244.81-45.95,51.72-34.05,62.09-95.52,21.6-141.92-37.6-43.09-82.78-61.92-141.4-51.45Z"/>
      <path class="cls-1" d="M13.98,186.51c44.93,86.85,120.24,113.63,211.45,107.81,115.94-7.4,231.72-17.52,347.69-24.45,107.92-6.45,215.97-13.36,324.01-14.07,65.42-.43,131.1,17,196.34,15.07,139.85-4.13,279.42-16.7,419.21-23.79,160.75-8.15,321.59-14.92,482.44-20.64,71.18-2.53,142.61,1.24,213.75-1.83,111.03-4.8,221.07-5.19,331.79,11.95,56.3,8.72,115.92.41,173.56-5.17,65.57-6.35,130.59-18.25,195.85-27.72,18.23-2.65,37.39-2.56,54.53-8.4,43.06-14.67,68.1-63.34,62.69-116.57-4.37-43.05-28.3-68.71-78.62-74.19-39.12-4.26-80.23-7.44-118.4-.23-157.17,29.69-316.09,18.71-474.07,22.94-506.93,13.59-1013.98,22.45-1426.99,31.15-347.18,9.69-600.36,16.97-853.55,23.67-69.71,1.84-93.72,42.53-61.69,104.46Z"/>
    </g>
  </g>
</svg>