<?xml version="1.0" encoding="UTF-8"?>
<svg id="Camada_2" data-name="Camada 2" xmlns="http://www.w3.org/2000/svg" viewBox="0 0 1978.5 1854.3">
  <defs>
    <style>
      .cls-1 {
        fill: #90a0b5;
      }
    </style>
  </defs>
  <g id="Camada_1-2" data-name="Camada 1">
    <g>
      <path class="cls-1" d="M984.04,438.98c18.28,1.54,28.7-6.07,34.55-22.22,8.37-23.12,19.4-45.69,24.45-69.51,11.42-53.86,19.72-108.38,29.58-162.58,5.4-29.72,11.39-59.33,17.12-88.99-1.71-28.8-2.15-57.57-30.78-73.14-17.83-9.7-37.7-17.46-57.57-21.19-34.3-6.43-50.71,10.32-52.02,45.82-3.22,86.6-8.63,173.14-10.31,259.75-.66,34.07,4.96,68.49,10.27,102.34,2.73,17.43,15.08,28.06,34.72,29.71Z"/>
      <path class="cls-1" d="M1872.14,638.99c-9.23,2.72-18.44,5.69-27.32,9.39-98.37,40.92-199.48,71.95-305.45,85.97-9.38,1.24-18.86,4.45-27.42,8.56-31.55,15.14-37.68,38.55-18.29,67,23.66,34.71,62.63,52.63,104.72,38.76,66.61-21.94,131.9-48.2,196.76-75.02,26.5-10.96,50.22-28.54,75.6-42.37,22.29-12.15,32.57-33.07,40.73-55,8.63-23.2-1.66-36.63-28.81-38.19-2.34.17-6.66-.24-10.53.9Z"/>
      <path class="cls-1" d="M1567.38,1631.87c-44.46-83.82-107.7-152.65-177.94-215.28-22.65-20.2-48.36-36.08-71.15-38.65-44.13-.13-60.57,18.15-51.54,52.6,4.69,17.89,14.39,36.1,26.56,50.03,18.91,21.64,42.46,39.16,62.96,59.51,31.15,30.92,62.05,62.15,91.82,94.4,27.02,29.28,52.05,60.39,78.63,90.1,10.31,11.52,23.28,21.81,39.8,13.41,17.55-8.92,27-25.03,22.3-44.52-5.08-21.07-11.35-42.58-21.44-61.59Z"/>
      <path class="cls-1" d="M1730.88,892.74c0,.12.01.25.02.37-34.41,0-68.84-.79-103.22.24-30.15.9-60.28,3.47-90.35,6.02-18.68,1.58-29.76,12.9-34.35,30.75-4.82,18.76-2.14,34.14,14.48,47.66,20.13,16.38,39.94,25.13,67.4,23.42,97.18-6.08,193.74-26.52,292.16-10.24,22.93,3.79,48.63-5.86,72.43-11.81,17.25-4.31,28.02-17.35,29-36.06.99-18.83-13.01-27.62-27.24-32.08-24.79-7.77-50.37-16-76-17.47-47.97-2.74-96.21-.79-144.33-.79Z"/>
      <path class="cls-1" d="M1732.04,1433.55c-66.99-67.34-131.58-137.56-210.17-191.91-27.83-19.24-55.72-41.12-76.13-42.91-58.16-2.57-79.4,27.84-62.1,66.59,4.38,9.82,11.04,19.47,18.96,26.67,12.11,11.01,25.15,21.93,39.65,29.2,48.49,24.3,91.34,56.05,130.9,92.79,15.13,14.05,30.4,28.24,47.13,40.24,25.64,18.41,52.3,35.48,79.13,52.15,14.18,8.82,28.46,8.34,41.38-4.45,13.54-13.42,16.47-28.43,7.81-45.01-4.39-8.4-9.9-16.68-16.56-23.37Z"/>
      <path class="cls-1" d="M1316.65,528.45c3.69,1.59,7.8,2.48,11.81,2.98,55.55,6.9,99.11-17.44,135.31-55.71,28.25-29.87,52.61-63.39,79.72-94.4,17.14-19.62,37.17-36.75,54.05-56.57,18.41-21.63,16.76-47.06-1.67-67.01-37.02-40.06-101.27-34.12-130.06,11.78-13.84,22.07-27.81,44.09-42.61,65.51-28.09,40.65-57.57,80.36-84.99,121.45-13.34,19.99-27.09,40.7-29.44,64.22,4.06,4.12,5.61,6.77,7.89,7.75Z"/>
      <path class="cls-1" d="M354.84,323.63c51.7,56.8,104.42,112.95,160.45,165.39,22.41,20.97,53.79,32.95,82.24,46.6,11.7,5.61,26.46,6.63,39.81,6.54,16.53-.1,24-10.74,23.35-27.43-.81-20.78-12.29-35.19-25.6-49.95-52.44-58.14-103.94-117.13-155.76-175.83-27.2-30.82-59.89-52.34-99.61-59.66-28.2-1.61-48.54,15.41-45.23,41.81,2.29,18.27,8.44,39.45,20.34,52.52Z"/>
      <path class="cls-1" d="M599.69,1410.9c-7.39-21.05-37.71-38.61-69.7-38.37-17.18-1.98-32.69,10.56-45.86,27.91-43.27,56.95-87.08,113.49-129.88,170.78-18.91,25.31-36.58,51.62-53.49,78.32-9.05,14.3-14.7,30.78,1.42,44.68,11.22,9.68,46.92,10.59,58.69.88,25.41-20.96,51.28-41.66,74.48-64.94,49.54-49.71,97.51-101,146.12-151.64,18.44-19.21,27.44-41.36,18.23-67.61Z"/>
      <path class="cls-1" d="M1212.88,1517.82c-6.91-17.97-21.21-36.03-37.04-46.91-21.39-14.7-48.98-24.13-73.38-6.58-25.55,18.38-19.93,45.71-12.22,71.7.78,2.64,1.56,5.28,2.46,7.87,25.25,72.82,45.25,146.92,57.2,223.2,3.17,20.24,8.33,40.66,16.17,59.51,4.68,11.23,14.89,23.87,25.48,27.49,5.9,2.02,20.55-11.4,26.3-20.86,23.36-38.44,33.6-80.62,29.6-121.55-1.15-69.38-11.22-133.18-34.57-193.87Z"/>
      <path class="cls-1" d="M1453.7,595.68c-17.4,10.99-24.98,28.68-16.4,50.27,8.09,20.36,23.29,32.14,48.31,30.46,23.12-1.55,47.68-3.29,68.61-12.08,78.38-32.95,155.79-68.28,232.91-104.12,14.45-6.72,26.36-19.39,38.6-30.25,11.48-10.19,22.86-22.07,15.02-39.1-8.15-17.74-24.2-25.14-50.5-27.94-15.65,5.48-37.64,12.77-59.33,20.87-70.63,26.38-141.33,52.56-211.6,79.88-22.65,8.8-45.16,19.08-65.63,32.02Z"/>
      <path class="cls-1" d="M1274.44,384.44c27.12-46.23,55.12-91.97,81.46-138.65,8.67-15.37,14.94-32.57,19.47-49.69,7.27-27.48,2.34-39.72-22.85-55.43-26.5-16.52-53.68-37.82-87.01-17.9-9.69,5.79-19.4,17.87-21.72,28.65-15.24,70.81-49.21,133.87-78.25,199.11-11.43,25.68-17.05,53.93-26.08,83.52,64.66,14.36,107.92-3.47,134.99-49.61Z"/>
      <path class="cls-1" d="M413.96,1352.88c19.93-19.13,23.61-41.37,7.78-58.67-31.27-34.18-66.68-53.54-109.45-12.31-12.85,12.38-24.88,25.66-36.73,39.02-50.13,56.53-100.41,112.92-149.78,170.1-12.99,15.04-22.91,32.73-34.22,49.17,36.07,24.1,67.49,24.8,98.56.6,51.93-40.45,102.56-82.58,153.18-124.69,24.29-20.21,47.88-41.34,70.67-63.23Z"/>
      <path class="cls-1" d="M1871.12,1143.96c-14.97-6.58-30.97-11.41-46.99-14.88-71.33-15.45-142.93-29.68-214.21-45.38-21.29-4.69-41.84-12.73-61.51-18.86-47.28-8.18-72.96,8.53-67.27,45.44,2.08,13.47,11.78,27.87,22.04,37.56,28.03,26.47,64.09,37,101.3,42.5,62.67,9.27,125.4,18.26,188.3,25.71,21.66,2.57,43.99,1.41,65.85-.28,18.57-1.44,39.08-20.91,40.87-36.1,2.49-21.11-13.4-29.13-28.38-35.72Z"/>
      <path class="cls-1" d="M97.45,1256.12c16.51.27,33.11-.93,49.53.34,67.32,5.18,123.5-22.97,176.05-59.77,28.67-20.08,46.07-46.87,24.43-90.85-18.29,1.5-38.08-.2-55.72,5.16-62.89,19.13-126.97,23.53-192,20.68-28.87-1.27-53.98,8.47-77,24.96-28.84,20.65-30.35,43.65-3.94,67.8,22.18,20.28,48.43,31.18,78.65,31.68Z"/>
      <path class="cls-1" d="M184.06,545.8c47.74,39.4,96.91,77.23,142.78,118.7,35.21,31.83,76.88,47.89,120.62,60.56,25.32,7.34,44.36-1.48,52.79-20.28,9.5-21.2,4.91-34.44-18.01-52.67-26.91-21.42-54.01-42.62-80.53-64.51-31.87-26.31-61.97-54.94-95.14-79.43-31.08-22.94-65.05-42.16-106.44-38.13-4.12.28-8.25.57-12.37.84-17.13,1.13-27.68,10.56-33.67,26.18-6.26,16.32,3.82,25.94,14.15,35.43,5.07,4.66,10.51,8.92,15.82,13.31Z"/>
      <path class="cls-1" d="M753.38,1430.8c-43.46-14.73-67.68-3.7-81.52,41.98-21.9,72.29-41.49,145.28-61.65,218.09-3.28,11.86-4.48,24.3-7.62,41.93,2.54,5.49,4.89,20.46,11.65,22.82,9.54,3.34,22.77-1.4,33.57-5.16,5.85-2.04,10.05-9.07,14.75-14.07,59.31-63.17,97.69-139.21,131.42-217.65,17.19-39.98-.27-74.27-40.61-87.94Z"/>
      <path class="cls-1" d="M916.2,1788.53c2.89,32.33,16.79,48.06,41.54,52.54,27.05,4.9,41.13-1.98,53.22-33.75,8.41-22.11,13.93-46.72,16.51-70.86,2.78-26.04.63-52.85.63-79.32,1.35-.04,2.7-.08,4.05-.13-1.63-34.66-2.2-69.44-5.11-103.94-5.7-67.6-52.26-103.7-106.59-84.54-20.72,7.3-28.75,23.44-26.69,48.39,7.45,90.54,14.35,181.15,22.43,271.61Z"/>
      <path class="cls-1" d="M717.69,384.58c9.06,19.03,26.29,36.06,43.71,48.51,10.16,7.26,29.73,8.11,42,3.56,9.81-3.64,14.99-19.78,19.56-26.46-2.23-17.62-1.23-29.55-5.38-39.28-20.37-47.7-25.11-97.95-29.04-148.89-3.55-46.01-34.59-80.77-76.87-92.22-42.19-11.42-67.22,7.29-66.97,50.9.08,13.69-.48,28.54,4.36,40.85,21.58,54.88,43.33,109.83,68.65,163.03Z"/>
      <path class="cls-1" d="M32.53,993.14c12.46,8.29,26.36,15.71,40.68,19.63,29.08,7.95,58.88,13.26,83.09,18.5,42.98-.8,80.26.39,117.18-2.73,35.97-3.04,65.49-20.07,82.82-53.51,9.86-19.03,6.32-28.86-14-33.08-17.31-3.6-35.47-5.04-53.18-4.54-60.95,1.71-120.53.86-175.72-32.38-15.09-9.09-37.24-9.18-56.04-8.75-25.91.6-45.42,16.69-50.19,35.81-5.27,21.11,4.54,47.2,25.36,61.05Z"/>
      <path class="cls-1" d="M160.41,797.43c46.83,18.91,96.09,33.44,145.63,43.44,31.29,6.32,64.89,1.18,96.08,1.18,9.7-46.17,9.27-49.69-22.55-64.62-65.95-30.94-132.42-60.77-198.95-90.45-11.12-4.96-23.48-8.65-35.54-9.66-17.75-1.5-37.15-2.2-48.1,15.97-11.22,18.63-7.92,39.21,5.22,54.04,16.97,19.14,35.61,40.97,58.2,50.09Z"/>
    </g>
  </g>
</svg>