<?xml version="1.0" encoding="UTF-8"?>
<svg id="Camada_2" data-name="Camada 2" xmlns="http://www.w3.org/2000/svg" viewBox="0 0 3882.99 3661.98">
  <defs>
    <style>
      .cls-1 {
        fill: #90a0b5;
      }
    </style>
  </defs>
  <g id="Camada_1-2" data-name="Camada 1">
    <g>
      <path class="cls-1" d="M3371.83,2451.41c24.51-19.94,46.9-42.48,70.46-63.59,63.6-57,126.99-114.25,191.05-170.71,66.35-58.47,135.37-114.06,199.53-174.8,55.64-52.67,62.66-102,32.34-163.03-30.15-60.68-79.71-85.7-146.92-83.89-53.67,1.45-86.98,34.51-119.63,69.05-60.86,64.38-115.25,135.81-181.27,194.19-291.81,258.07-586.8,512.55-856.18,747.04-228.37,187.21-431.61,353.82-634.85,520.42-17.16,14.06-35.1,27.26-51.43,42.23-69.86,64.04-76.65,101.24-32.39,183.19,11.97,22.16,25.38,44.2,41.67,63.26,51.22,59.94,93.83,62.57,153.26,9.25,54.24-48.65,107.42-98.51,160.04-148.9,375.46-359.58,771.28-695.76,1174.31-1023.71Z"/>
      <path class="cls-1" d="M3183.94,1557.14c19.94,24.51,42.48,46.9,63.59,70.46,57,63.6,114.25,126.99,170.71,191.05,58.47,66.35,114.06,135.37,174.8,199.53,52.67,55.64,102,62.66,163.03,32.34,60.68-30.15,85.7-79.71,83.89-146.92-1.45-53.67-34.51-86.98-69.05-119.63-64.38-60.86-135.81-115.25-194.19-181.27-258.07-291.81-512.55-586.8-747.04-856.18-187.21-228.37-353.82-431.61-520.42-634.85-14.06-17.16-27.26-35.1-42.23-51.43-64.04-69.86-101.24-76.65-183.19-32.39-22.16,11.97-44.2,25.38-63.26,41.67-59.94,51.22-62.57,93.83-9.25,153.26,48.65,54.24,98.51,107.42,148.9,160.04,359.58,375.46,695.76,771.28,1023.71,1174.31Z"/>
      <path class="cls-1" d="M16.76,2018.85c53.85,104.1,144.12,136.19,253.45,129.22,138.97-8.87,277.74-21,416.74-29.3,129.35-7.73,258.86-16.02,388.35-16.87,78.41-.52,157.14,20.38,235.33,18.06,167.62-4.95,334.91-20.02,502.46-28.52,192.67-9.77,385.45-17.88,578.25-24.73,85.32-3.03,170.93,1.49,256.2-2.2,133.08-5.75,264.97-6.22,397.68,14.33,67.48,10.45,138.94.5,208.02-6.19,78.59-7.61,156.53-21.87,234.75-33.22,21.85-3.17,44.82-3.07,65.36-10.07,51.61-17.58,81.63-75.92,75.14-139.72-5.24-51.6-33.92-82.36-94.24-88.93-46.89-5.11-96.16-8.92-141.92-.28-188.38,35.58-378.86,22.42-568.21,27.5-607.6,16.29-1215.35,26.91-1710.37,37.34-416.13,11.61-719.58,20.33-1023.06,28.37-83.56,2.21-112.34,50.98-73.94,125.21Z"/>
    </g>
  </g>
</svg>