<?xml version="1.0" encoding="UTF-8"?>
<svg id="Camada_2" data-name="Camada 2" xmlns="http://www.w3.org/2000/svg" viewBox="0 0 4530.67 3993.42">
  <defs>
    <style>
      .cls-1 {
        fill: #232429;
      }
    </style>
  </defs>
  <g id="Camada_1-2" data-name="Camada 1">
    <g>
      <path class="cls-1" d="M3053.8,1635.38c48.41-31.31,100.4-59.6,141.78-98.78,116.58-110.4,230.38-223.95,337.29-343.94,62.63-70.29,116.37-149.97,185.85-212.36,138.56-124.44,275.9-248.57,384.54-401.5,35.39-49.81,30.12-103.17-20.9-137.59-33.65-22.71-71.06-25.84-114.48-23.73-39.21,17.57-67.43-6.49-95-35.82-45.27-48.15-97.08-88.46-155.28-119.84-51.91-28-109.41-27.06-164.16-17.76-36.96,6.29-63.95,35.99-82.92,71.41-9.23,17.22-28.27,29.04-42.18,43.94-67.14,71.95-136.85,141.75-200.39,216.76-93.4,110.28-188.22,218.37-305.41,304.63-16.07,11.82-32.35,25.3-40.44,44.83-20.3,48.95-52.18,89.72-84.53,131.26-20.24,25.99-48.14,46.94-62.04,76.17-30.08,63.25-74.48,113.56-125.47,160.05-39.93,36.4-46.87,103.56-11.13,145.48,39.56,46.39,83.99,92.35,141.59,114.04,73.48,27.68,146.06,57.29,218.45,87.5,32.94,13.75,65.18,14.41,94.83-4.77ZM2882.73,1354.67c16.99-31.34,34.18-62.92,54.87-91.85,65.43-91.49,138.75-176.48,219.02-255.32,31.12-30.57,59.39-63.36,81.12-101.17,11.28-19.63,28.52-43.62,15.19-63.89-21.91-33.3-3.17-48.27,16.6-70.38,97.4-108.97,220.47-189.87,320.64-295.67,19.07-20.14,42.97-31.68,68.14-12.97,45.01,33.46,95.97,58.24,137.35,97.1,21.59,20.27,22.52,38.1,2.67,58.46-8.91,9.13-17.42,18.91-27.44,26.68-168.66,130.82-305.07,293.03-444.28,452.83-99.09,113.75-216.79,208.87-324.84,313.7-10.8,10.48-22.98,20.62-41.38,19.23-24.23-11.04-50.9-20.49-74.52-34.93-15.38-9.4-10.36-28.51-3.15-41.82Z"/>
      <path class="cls-1" d="M1775.11,2738.47c-37.19-34.86-75.99-68.24-110.82-105.33-110.96-118.17-269.59-132.87-385.49-4.66-34.18,37.82-67.09,76.8-101.53,114.37-88.31,96.36-181.43,188.7-264.56,289.3-81.33,98.43-173.03,183.42-278.79,253.24-73.77,48.71-146.2,97.42-205.5,164.74-25.65,29.12-31.3,53.26-14.19,86.52,24.18,47.01,62.04,79.22,106.23,106.07,43.12,26.21,89.17,47.34,128.18,80.67,94.15,80.46,194.54,152.55,303.18,212.24,77.04,42.33,118.64,27.4,158.4-51.62,32.89-65.36,69.47-128.37,111.27-188.74,86.64-125.14,183.35-242.22,278-361.17,87.23-109.62,178.95-214.46,280.59-310.52,40.05-37.85,82.73-72.1,54.26-137.34,33.3-69.94-16.18-107.44-59.23-147.78ZM1422.27,3135.06c-146.66,180.19-284.15,367.22-418.19,556.85-36.32,51.38-35.69,51.35-82.66,9.4-70.56-63.03-144.57-121.71-228.06-166.76-29.62-15.98-30.14-31.14-7.38-51.38,13.25-11.78,27.3-22.85,41.99-32.77,136.25-91.98,251.55-207.38,366.48-323.64,107.65-108.89,217.88-215.25,328-321.66,45.31-43.79,64.51-44.61,105.66,2.41,26.74,30.56,52.05,60,99.05,72.22-71.41,89.06-137.59,172.65-204.89,255.33Z"/>
      <path class="cls-1" d="M780.22,2433.45c130.52-27.64,261.45-50.8,394.42-22.36,123.7,26.46,243.01-4.69,363.53-21.32,26.03-3.59,46.87-19.92,61.44-42.16,9.7-14.8,15.63-33.63,33.52-40.13,35.17-12.78,36.66-40.88,43.22-72.37,15.32-73.61,10.97-151.67,56.27-219.08,52.51-78.16,19.17-143.43-75.03-155.78-88.6-11.62-177.31-18.59-266.99-15.37-104.83,3.77-208.77-7.43-312.25-25.13-196.41-33.6-393.5-61.35-593.74-45.89-68.89,0-137.97-3.24-206.61.93-65.97,4.01-131.59,14.84-197.12,24.41-29.21,4.27-62.29,21.26-59.87,49.69,6.11,71.79-26.24,137.8-20.26,209.85,6.74,81.14,6.45,162.87,15.55,244.22,10.62,94.9,31.83,121.13,124.68,143.06,60.2,14.22,121.73,14.92,182.6,18.73,153.3,9.58,306.04.6,456.64-31.3ZM263.92,2284.79c-33.17-2.47-45.89-15.42-43.14-47.17,7.48-86.22,7.23-173,20.51-258.9,3.44-22.24,10.62-30.98,32.2-32.41,175.42-11.65,350.26-29.79,526.45-2.53,168.55,26.08,338.15,45.63,507.61,65.24,37.4,4.33,76.17-3.14,114.3-5.22,31.69-1.73,46.13,7.47,40.88,44.46-6.76,47.71-8.55,96.61-7.12,144.84.97,32.58-7.25,47.72-41.31,46.48-35.61-1.3-71.31-.29-106.97-.29-.03,2.11-.05,4.21-.08,6.32-33.09-1.7-66.49-1.09-99.22-5.5-169.2-22.83-336.27-1.43-502.18,27.18-147.04,25.36-293.82,28.55-441.93,17.51Z"/>
      <path class="cls-1" d="M3895.8,3340.17c-144.49-126.26-280.23-260.81-397.19-413.4-49.76-64.92-103.15-126.61-161.1-184.33-40.37-40.22-85.07-72.85-144.68-76.4-35.74-2.13-69.8-10.79-104.57-18.78-34.7-7.98-78.67-23.19-106.89,14.5-53.76,71.8-115.75,135.64-178.2,199.51-17.26,17.65-28.09,42.54-38.67,65.58-22.51,48.99-34.57,97.34,20.02,136.05,7.63,5.41,13.8,15.77,16.34,25.01,18.2,66.09,65.16,115.8,108.15,162.55,188.42,204.91,358.84,424.27,532.49,641.2,42.38,52.94,84.44,113.63,164.34,99.75,69.8,7.47,115.48-22,150.78-76.08,57.18-87.6,114.01-175.36,163.88-267.37,14.86-27.4,32.6-50.93,57.49-70.3,55.2-42.95,61.67-86.68,16.42-141.62-28.98-35.19-64.1-65.73-98.62-95.89ZM3754.04,3554.4c-50.33,60.23-98.65,122.15-151.82,188.3-64.9-56.9-111.91-126.03-163.98-189.78-120.84-147.93-238-298.86-356.39-448.78-19.56-24.76-43.92-42.16-73.3-52.84-18.8-6.83-39.94-9.57-53.22-33.39,46.83-45.37,96.41-88.52,132.2-144.22,18.3-28.47,43.61-24.11,64.6-3.17,43.26,43.14,88.25,85.22,126.41,132.66,129.92,161.57,276.58,306.02,435.93,438.09,11.76,9.75,23.39,19.7,34.49,30.2,42.68,40.37,41.4,39.47,5.09,82.92Z"/>
      <path class="cls-1" d="M4530.56,2033.43c2.2-53.36-28.69-89.04-77.46-111.32-38.01-17.37-78.02-22.32-118.38-28.44-84.08-12.75-169.95,10.24-251.96-4.57-132.01-23.84-264.32-18.19-396.62-23.52-43.38-1.75-86.28-6.8-129.06-15.4-160.67-32.27-324.7-32.5-472.35-48.97-85.95-.14-121.69,10.08-127.81,51.42-7.22,48.74-32.06,46.29-67.66,47.74-62.22,2.54-88.57,32.97-71.85,87.67,26.92,88.08,41.82,178.55,61.83,267.97,8.38,37.44,29.94,62.51,65.51,64.12,36.91,1.68,62.21,15.89,85.13,41.96,12.1,13.77,30.24,17.35,47.98,21.54,59.52,14.05,118.25,28.64,180.64,28.64,73.76,0,147.7,6.15,220.31,21.55,141.04,29.91,282.88,34.94,425.97,17.03,98.32-12.3,195.97-24.04,295.4,2.34,53.41,14.17,111.39,11.18,167.32,15.74,43.64,3.56,80.32-12.54,110.75-42.47,27.6-27.14,28.36-57.65,8.17-90.28-2.88-4.66-.55-15.15,2.92-20.74,54.63-88.04,37.28-186.89,41.2-282ZM4266.6,2284.77c-20.09-3.12-40.09-6.87-60.13-10.31-106.88-18.38-213.24-9.06-319.56,5.63-119.9,16.57-237.51,12.26-354.95-23.64-149.96-45.84-303.77-57.63-468.34-19,9.06-100.44-17.18-180.88-32-259.38,22.95-17.58,39.94-6.41,56.57-3.7,70.5,11.48,140.88,21.45,212.84,19.82,43.12-.98,87.44,0,129.4,8.77,128.24,26.85,257.5,33.97,387.89,30.3,38.23-1.07,76.45-.5,114.23,7.67,90.09,19.48,180.97,27.03,273.39,24.47,76.12-2.11,84.92,8.87,92.09,87.11,3.02,32.96,3.41,66.16,5.65,99.21,1.87,27.52-11.61,37-37.07,33.05Z"/>
      <path class="cls-1" d="M2472.02,3203.83c2.85-124.83,15.32-249.02,26.93-373.07,3.74-54.75-6.77-100.97-63.23-126.85-26.48-12.14-52.79-15.8-81.07-17.43-130.92-7.51-263.59,22.69-392.98-18.04-4.74-1.49-10.12-1.19-15.2-1.32-27.03-.66-41.97,13.45-49.22,38.7-5.75,20.03-8.27,40.3-4.61,60.48,36.51,201.38,37.44,405.59,49.37,608.94,7.8,132.91,31.52,262.46,78,387.82,17.41,46.96,46.53,86.24,95.12,86.85,76.06.95,142.35,23.18,205.5,61.16,30.58,18.39,66.62,18.51,99.27,31.56,34.01,13.59,102.98-25.17,108.93-58.02,7.64-42.2,15.48-85.62,4.57-128.8-45.76-181.2-65.65-365.29-61.38-551.98ZM2291.72,3738.53c-20.21,9.56-67.25-16.29-72.99-42-24.81-111.14-63.9-218.94-73.58-333.71-12.17-144.18-9.62-289.43-28.81-401.43q-11.31-118.78,75.99-118.48c94.49.32,91.91.15,85.87,90.59-15.45,231.14-25.6,462.36,19.5,691.93,3.42,17.43,5.04,35.28,6.42,53.02,1.66,21.23,15.21,47.01-12.41,60.07Z"/>
      <path class="cls-1" d="M2244.94,1379.49c27.69-2.2,54.08-2.43,81.9,8.58,102.79,40.65,165.35-4.03,157.21-111.67-10-132.12-22.38-264.07-33.88-396.08-2.67-30.59-1.74-60.87,1.38-91.53,12.1-118.93,30.75-237.21,24.67-357.75-3.45-68.56-.46-137.83,5.3-206.3,3.26-38.71-.03-75.42-4.65-113.41-4.32-35.59-23.79-49.26-52.76-64.9-48.89-26.39-102.59-20.73-152.77-33.72-117.83-30.5-232.92,2.83-349.12,8.19-8.46.39-18.1,8.43-24.44,15.41-22.38,24.66-43.73,31.58-78.55,17.91-54.94-21.57-70.55-7.3-73.39,52.82-4.82,102.07.71,203.75,12.25,305.15,9.01,79.12,9.83,158.82,12.21,238.32,2.68,89.92,5.33,182.71,7.49,273.75,2.07,87.28-4.26,179.24,19.11,264.24,7.35,26.49,12.8,53.49,20.3,79.96,16.48,58.19,59.12,86.74,115.64,97.01,103.33,18.77,207.46,22.35,312.09,14.04ZM1960.01,171.91c69.83,14.33,136.55-4.83,204.18-16.01,17.44-2.88,35.55-1.7,53.36-2.35,35.32-1.31,49.31,14.22,47.89,50.77-2.48,63.56-.69,127.28-.69,190.93,2.34,107.18-3.3,214.1-20.05,319.8-19.54,123.28,9.69,243.62,16.06,365.26,5.8,110.75,1.22,120.35-106.42,141.8-17.35,3.46-35.42,4.5-53.17,4.56-74.4.26-89.08-9.69-100.91-83.34-21.83-135.88-23.96-273.52-32.41-410.6-9.87-160.02-21.9-319.91-32.88-479.87-1.22-17.77-2.52-35.6-2.22-53.38.28-17,7.57-31.62,27.27-27.58Z"/>
      <path class="cls-1" d="M387.58,1066.77c143.18,152.11,291.34,298.43,483.68,390.19,112.47,53.65,224.49,108.35,335.22,165.47,41.86,21.59,91.73,39.7,105.23,92.48,16.03,62.7,61.54,85.1,117.7,90.3,57.71,5.35,105.21-16.41,133.57-70.15,16.66-31.56,30.66-64.64,48.81-95.28,20.53-34.66,37.27-68.6,63.58-99.8,33.79-40.06,94.25-74.7,102.02-129.74,8.89-62.98-7.94-155.95-65.85-191.78-30.82-19.07-64.48-31.91-95.16-51.46-46.18-29.42-91.21-60.63-135.14-93.32-87.94-65.44-171.39-136.77-251.48-211.57-102.76-95.96-193.36-203.22-292.93-301.98-55.14-54.69-120.17-86.28-198.99-80.12-30.33,2.37-55.8.27-73.07-27.49-10.55-16.94-20.76-12.68-37.53-6.18-39.5,15.29-50.28,53.22-74.18,80.99-82.88,96.31-145.63,207.96-234.83,299.78-42.31,43.54-41.31,114.02-.26,151.78,28.89,26.58,44.33,61.03,69.62,87.89ZM602.4,839.76c38.69-58.74,63.37-126.69,93.79-189.74,38.61,2.81,55.15,31.55,76.68,51.87,150.08,141.65,291.6,292.31,453.17,421.85,83.75,67.15,171.69,127.53,262.68,184.01,49.8,30.91,50.36,32.27,16.39,80.65-23.5,33.47-46.82,66.85-61.86,105-11.13,28.23-26.03,43.93-56.99,24.73-2.16-1.34-4.49-2.49-6.86-3.36-59.61-21.8-130.94-15.16-181.6-53.42-190.01-143.48-413.17-245.31-561.38-441.8-6.13-8.12-13.25-15.49-19.74-23.35-40.33-48.84-54.45-95.45-14.27-156.45Z"/>
    </g>
  </g>
</svg>