<?xml version="1.0" encoding="UTF-8"?>
<svg id="Camada_2" data-name="Camada 2" xmlns="http://www.w3.org/2000/svg" viewBox="0 0 6372.15 799.99">
  <defs>
    <style>
      .cls-1 {
        fill: #3c608a;
      }
    </style>
  </defs>
  <g id="Camada_1-2" data-name="Camada 1">
    <path class="cls-1" d="M290.93,188.74c-.86,5.77-3.88,9.5-9.84,10.47-1.97,9.4-4.09,18.4-10.89,26.16-81.32,92.81-155.1,192.13-242.73,279.51-39.61,39.5-36.12,72.92,8.88,104.37,51.35,35.89,120.79,25.72,173.31-25.24,68.28-66.25,114.9-149.33,172.58-223.79,35.72-46.11,76.39-86.67,116.64-128.11,18.48-19.03,32.83-17.84,52.34,2.61,69.24,72.56,139.13,144.66,211.82,213.72,97.7,92.82,204.39,176.56,283.28,287.87,5.32,7.51,11.5,13.85,21.02,18.4,82.13,39.26,173.48,27.43,224-49.64,33.58-51.23,73.45-99.33,116.1-143.42,84.61-87.48,160.99-181.64,235.7-277.26,37.18-47.58,46.89-50.04,90.5-10.71,36.02,32.48,64.66,71.26,95.55,108.28,83.97,100.64,178.33,192.44,254.9,299.47,14.83,20.73,36.35,34.75,58.64,46.35,33.11,17.23,70.54,21.15,98.69-2.99,40.92-35.09,90.48-56.11,131.04-92.05,76.08-67.42,135.81-146.77,189.13-232.1,24.98-39.98,51.27-79.15,76.78-118.4,21.19,10.42,25.35,28.63,35.02,42.46,66.21,94.67,126.39,194.28,221.01,265.36,14.1,10.59,22.26,25.2,29.14,41.95,26,63.33,74.67,86.42,138.06,65.2,28.34-9.48,54.01-11.02,83.76-2.72,48.75,13.61,91.58-3.03,124.12-42.16,88.79-106.77,175.24-215.25,242.73-337.39,5.21-9.42,8.17-22.58,26.75-22.4,44.3,55.72,98.17,105.65,157.17,148.18,120.91,87.18,238.85,176.62,325.65,300.38,3.3,4.7,7.61,8.71,11.63,12.87,41.49,42.91,101.28,68.39,165.18,18.98,13.09-10.12,25.43-16.18,42.21-12.39,47.24,10.66,84.97-9.19,111.92-44.46,48.06-62.9,103.63-119.56,150.74-182.89,65.76-88.4,139.13-170.11,214.34-250.06,59.46-63.2,45.58-60.93,98.11,4.17,63.24,78.38,116.21,164.2,175.78,245.32,47.32,64.44,99.76,124.92,143.82,192.12,50.3,76.71,181.78,85.68,250.07,21.78,36.52-34.17,66-75.55,101.95-109.65,96.15-91.23,165.74-201.07,232.38-313.55,42.83-72.29,49.26-72.99,103.19-9.04,96.85,114.85,196.67,226.93,306.32,329.9,15.42,14.48,28.34,30.44,40.37,48.29,37.51,55.7,104.09,77.13,161.64,56.98,26.68-9.34,38.95-24.19,40.54-54.66,3.14-60.01-37.74-90.58-76.17-120.99-80.25-63.52-148.61-138.7-217.62-213.29-68.74-74.3-124.17-160.11-198.13-230.11-17.89-16.93-35.42-34.18-50.56-54.45-26.76-35.84-129.63-45.33-165.86-17.88-7.42,5.62-15.85,12.78-18.76,21.02-31.96,90.49-93.04,163.49-144.68,242.08-10.78,16.41-13.95,41.08-40.21,43.7,0,0-1.7,1.18-1.7,1.18-.56,7.58,1.79,17.5-2.13,22.37-36.77,45.73-74.04,91.08-112.39,135.5-17.59,20.38-36.89,39.56-57.21,57.23-24.13,20.97-34.32,16.88-56.77-9.67-28.11-33.25-53-68.72-78.7-103.71-99.89-135.96-197.97-273.21-285.99-417.17-14.45-23.64-33.54-38.84-55.52-45.51-24.99-7.58-53.47-4.47-80.43-4.49-29.23-.02-48.87,11.37-60.76,41.7-20.8,53.06-55.57,98.77-98.64,135.3-67.75,57.45-120.07,128.81-180.07,193.07-29.68,31.79-60.24,63.81-87.37,98.3-45.25,57.52-89.22,116.21-152.27,158.47-5.19-10.15-7.49-20.42-13.87-26.21-53.79-48.91-106.44-99.37-163.14-144.73-65.23-52.18-133.12-100.93-188.44-164.33-9.87-4.09-16.86-11.09-21.04-20.9-37.13-35.34-71.54-73-105.7-111.35-47.22-53.02-99.03-100.52-184.17-87.8-44.66,6.68-70.35,25.36-85.16,61.72-6.9,16.95-12.62,34.76-20.78,51.39-46.55,94.81-104.18,182.62-171.76,263.55-23.29,27.9-40.16,60.9-68.45,84.77-16.23,13.7-31.91,21.81-50.18,3.38-33.68-33.97-71.83-63.56-105.5-96.8-47.94-47.34-87.11-103.64-123.4-161.16-35.13-55.69-68.63-111.94-117.08-158.73-43.84-42.32-90.97-59.65-150.66-49.12-20.51,3.62-33.19,10.11-43.83,29.48-28.67,52.18-61.98,101.79-91.25,153.66-57.51,101.94-135.35,189.11-203.73,283.13-19.94,27.41-42.51,27.27-59.27-2.37-35.42-62.62-95.85-102.25-139.2-157.83-35.91-46.04-71.33-93.32-111.06-136.05-74.86-80.48-148.6-163.79-268.18-180.41-59.1-8.21-99.08,6.58-128.87,58.38-13.95,24.25-25.96,49.9-42.22,72.48-97.11,134.9-213.81,253.01-324.55,376.25-19.49,21.69-34.06,17.82-50.94-3.28-26.51-33.16-57.28-62.02-90.42-88.97-138.04-112.24-263.31-237-368.96-380.85-14.68-19.99-33.29-37.7-52.39-53.71-51.82-43.44-161.9-32.99-196.86,23.99-31.15,50.76-79.05,82.28-118.06,123.7Z"/>
  </g>
</svg>