<?xml version="1.0" encoding="UTF-8"?>
<svg id="Camada_2" data-name="Camada 2" xmlns="http://www.w3.org/2000/svg" viewBox="0 0 2744.65 2865.55">
  <defs>
    <style>
      .cls-1 {
        fill: #bfc9b9;
      }
    </style>
  </defs>
  <g id="Camada_1-2" data-name="Camada 1">
    <g>
      <path class="cls-1" d="M1175.42,404.86c68.75,37.08,139.88,16.12,174.48-54.21,28.82-58.58,50.65-121.79,66.5-185.22,17.43-69.72-5.59-108.6-71.79-139.9-23.42-11.07-49.49-17.83-75.08-22.79-66.13-12.8-111.16,21.15-161.73,60.76-46.67,36.55-77.36,68.59-66.21,124.7-11.92,110.47,50.81,171.89,133.83,216.66Z"/>
      <path class="cls-1" d="M1472.73,1570.77c-63.99-12.46-116.01,26.48-165.57,78.88-50.71,53.63-59.26,89.66-22.04,151.82,35.88,59.94,92.01,88.17,158.52,83.52,81.44-5.7,141.4-44.12,169.01-128.97,39.21-120.51-2.59-184.98-139.92-185.25Z"/>
      <path class="cls-1" d="M1806.22,2064.41c-23.57,24.7-42.97,53.35-64.72,79.82-38.38,46.7-37.61,94.02-9.53,146.52,27.24,50.93,70.39,67.72,112.76,70.99,96.97,1.67,157.65-44.35,200.42-139.67,29.8-66.41-7.26-111.01-46.52-154.96-56.87-63.67-133.02-64.94-192.41-2.7Z"/>
      <path class="cls-1" d="M2018.95,1603.27c-5.87,73.7,16.47,116.74,84.91,142.53,38.41,14.48,81.4,23.35,122.32,23.32,87.79-.06,139.42-58.74,137.68-168.39-3.81-7.76-9.58-41.36-29.34-55.72-60.76-44.14-121.7-88.63-208.27-57.55-72.41,26-101.96,48.86-107.29,115.8Z"/>
      <path class="cls-1" d="M545.3,2412.65c-24.26-59.79-48.35-77.81-104.22-75.36-59.7,2.62-99.8,33.99-113.48,91.15-6.12,25.56-10.84,51.78-12.77,77.95-7.7,104.63,51.29,170.92,156.02,177.06,93.07,5.46,156.48-84.98,118.95-169.6-14.94-33.69-30.66-67.07-44.51-101.2Z"/>
      <path class="cls-1" d="M1771.31,594.34c45.84,35.85,146.77,30.82,181.79-9.06,48.29-55,52.53-137.36,8.55-188.29-49.65-57.51-118.65-73.92-181.42-86.69-55.99,1.21-79.34,19.37-92.93,66.44-26.14,90.54-3.52,149.14,84,217.59Z"/>
      <path class="cls-1" d="M936.81,2111.81c-71-55.18-144.75-32.41-215.83-.65-55.05,24.59-70.2,74.54-68.45,150.85,1.04,69.29,72.8,134.96,151.07,118.7,85.48-17.75,171.1-143.17,154.54-228.63-2.8-14.46-10.28-31.69-21.33-40.28Z"/>
      <path class="cls-1" d="M1895.97,971.9c-30.17-27.97-75.78-29.37-111.57-7.11-39.83,24.77-47.15,68.36-41.34,112.52,12.86,97.77,110.87,181.46,210.36,181.06,70.7-.29,119.25-66.99,82.15-129.59-35.12-59.25-88.31-109.31-139.61-156.88Z"/>
      <path class="cls-1" d="M319.93,2206.06c-13.93-62.11-74.04-128.02-167.33-98.15-86.03,27.55-110.85,49.4-118.34,122.27,12.93,39.16,19.03,82.62,40.39,116.47,32.68,51.81,84.39,60.25,139,34.5,77.43-36.51,121.09-109.1,106.29-175.1Z"/>
      <path class="cls-1" d="M1288.01,2226.11c-10.36-1.84-20.58-4.47-30.93-6.38-83.2-15.41-138.4,30.72-137.4,118.97-4.26,48.5,20.38,87.14,60.51,117.48,44.66,33.78,114.61,34.49,163.65,2.7,51.22-33.21,72.33-79.29,61.16-133.5-11.11-53.9-50.83-87.54-116.99-99.26Z"/>
      <path class="cls-1" d="M2442.42,2087.61c-89.84-23.74-158.03,46.79-139.79,137.37,1.56,7.75,3.36,15.45,4.93,23.19,14.64,72.15,69.93,113.72,140.79,105.82,77.16-8.6,131.63-62.36,133.28-149.85-2.91-7.46-5.53-39.35-22.64-52.79-34.53-27.13-74.71-52.68-116.56-63.74Z"/>
      <path class="cls-1" d="M231.76,1078.87c94.37,2.21,155.22-43.4,155.99-116.91.82-79.29-54.29-131.71-142.05-135.1-80.55-3.12-136.1,47-140.05,126.34-4,80.4,39.4,123.65,126.11,125.68Z"/>
      <path class="cls-1" d="M448.93,1490.35c76.31-3.68,153.55-82.6,151.66-154.96-1.59-60.84-75.19-127.38-139.18-125.84-66.06,1.58-133.88,84.71-132.26,162.12,1.44,68.86,54.88,121.82,119.78,118.69Z"/>
      <path class="cls-1" d="M1360.44,1152.31c98.54-8.49,129.45-59.82,90.05-150.78-8.36-19.31-17.5-38.81-29.6-55.87-29.93-42.21-107.29-65.82-157.33-50.01-51.35,16.22-80.21,57.3-80.41,114.46-.26,74.95,92.66,149.48,177.29,142.2Z"/>
      <path class="cls-1" d="M810.1,1433.19c-60.76,8.85-86.42,45.63-76.38,105.95,13.28,79.77,84.06,134.03,181.84,136.92,42.85,6.08,84.78-7.95,105-48.58,17.1-34.36,24.64-78.86-6.41-111.96-54.57-58.19-120.49-94.5-204.06-82.33Z"/>
      <path class="cls-1" d="M2375.56,928.92c65.94,8.44,99.18-21.13,100.01-88.96,1.07-88.49-83.22-179.97-171.9-186.57-50.31-3.74-95.31,34.87-96.74,83-2.5,84.19,82.76,181.53,168.63,192.52Z"/>
      <path class="cls-1" d="M1769.69,2865.46c74.15-2.86,144.4-60.57,146.66-120.46,1.98-52.6-68.52-124.82-122.27-125.25-93.69-.75-163.93,52.55-162.83,123.56,1.03,66.24,67.5,124.9,138.45,122.16Z"/>
      <path class="cls-1" d="M672.24,637.48c85.63,1.88,149.78-52.83,149.35-127.52-.35-61.69-37.4-119.53-120.74-112.72-86.62-.54-148.63,47.05-151.31,116.13-2.69,69.05,50.17,122.51,122.7,124.11Z"/>
      <path class="cls-1" d="M2638.14,1827.86c-76.95-38.67-164.3,28.94-167.81,119.92-2.25,92.04,98.53,147.07,189.6,103.53,45.72-21.86,88.7-88.58,84.43-132.96-5.28-54.88-48.64-69.96-91.37-85.24-4.95-1.77-10.19-2.91-14.84-5.24Z"/>
      <path class="cls-1" d="M1352.28,681.43c2.68,65.55,64.73,115.72,145.92,114.76,59.31,4.74,100.2-32.48,124.43-78.61,23.95-45.61-11.83-84.26-41.89-118.28-6.91-7.82-14.27-15.9-22.98-21.37-45.03-28.25-94.42-37.73-142.57-14.17-46.5,22.75-65.04,65.49-62.9,117.67Z"/>
      <path class="cls-1" d="M631.86,942.23c-.29,76.94,54.14,131.15,133.61,133.07,61.71,1.49,131.89-57.83,132.42-111.95.6-60.83-86.92-129.8-164.53-129.67-73.28.12-101.21,29.99-101.5,108.55Z"/>
      <path class="cls-1" d="M560.13,1724.16c-37.27-18.31-77.57-34.62-118.23-40.97-69.9-10.91-121.19,39.96-120.02,119.02-4.82,33.4,14.77,61.6,47.73,84.33,61.27,42.26,169.92,25.96,214.43-33.37,30.33-40.42,20.28-107.29-23.92-129.01Z"/>
      <path class="cls-1" d="M50.39,1796.39c78.66,49.9,170.81,12.83,208.05-83.71,20.83-54-6.5-107.86-63.14-121.52-17.68-4.26-36.51-3.69-54.41-5.3-16.24,1.27-32.07,1.59-47.6,3.9-53.32,7.93-78.83,32.55-88.82,84.48-12.03,62.52-.73,92.56,45.93,122.16Z"/>
      <path class="cls-1" d="M2394.63,1293.47c4.65,42.17,57.79,89.38,110.88,98.52,44.3,7.62,142.88-45.94,158.93-86.36,13.03-32.8-15.34-83.1-69.26-112.24-21.96-11.87-49.48-13.46-56.01-15.1-105.35.5-152.41,43.85-144.53,115.18Z"/>
      <path class="cls-1" d="M1196.28,2628.87c-63.78,12.02-108.87,69.27-107.63,145.24.29,2.12.01,13.12,3.45,22.8,14.24,40.13,55.4,55.58,128.77,49.52,66.41-5.49,112.77-33.21,120.06-71.8,13.67-72.34-72.65-159.33-144.65-145.75Z"/>
    </g>
  </g>
</svg>