<?xml version="1.0" encoding="UTF-8"?>
<svg id="Camada_2" data-name="Camada 2" xmlns="http://www.w3.org/2000/svg" viewBox="0 0 4141.74 4360.32">
  <defs>
    <style>
      .cls-1 {
        fill: #90a0b5;
      }
    </style>
  </defs>
  <g id="Camada_1-2" data-name="Camada 1">
    <g>
      <path class="cls-1" d="M236.22,754.52c102.47,113.76,214.52,219.08,325.09,325.28,131.47,126.28,260.72,255.61,399.99,372.86,206.35,173.72,411.91,347.57,595.48,545.81,145.44,157.05,290.41,314.53,436.11,471.34,34.16,36.77,70.31,71.7,105.7,107.32,130.37,131.17,260.6,262.49,391.39,393.25,29.83,29.82,61.54,57.78,92.65,86.3,68.03,62.38,145.22,117.35,202.38,188.44,98.76,122.84,220.79,219.3,334.55,325.37,137.18,127.91,273.05,257.23,409.62,385.8,17.29,16.27,35.17,31.93,53.12,47.46,49.83,43.1,99.55,86.34,149.88,128.86,40.23,33.99,80.47,68.05,122.24,100.08,26.96,20.67,60.25,34.03,84.33,57.28,35.58,34.36,75.32,40.09,116.44,23.18,46.2-19,64.47-59.88,73.12-113.75-15.99-34.29-23.73-77.67-49.55-101.14-73.34-66.64-155.64-123.28-231.5-187.3-108.99-91.98-221.69-180.86-321.18-282.45-100.1-102.22-202.4-198.91-318.75-283-78.68-56.87-149.2-127-215.61-198.43-91.4-98.3-168.06-210.39-283.54-285.23-26.01-16.86-46.23-43.19-67.66-66.5-141.27-153.73-280.42-309.53-443.07-441.85-12.22-9.94-22.94-21.95-33.31-33.91-102.06-117.71-200.16-239.13-306.75-352.57-130.1-138.45-264.13-273.58-402.48-403.75-97.88-92.1-206.85-172.31-308.84-260.18-113.77-98.02-226.09-197.76-337.51-298.44-141.32-127.7-270.13-267.61-391.73-413.96-48.91-58.86-99.76-118.2-136.37-184.68-48.1-87.37-99.85-115.67-201.16-76.05C3.64,359.55-19.55,408.9,26.99,476.44c65.82,95.51,131.86,192.19,209.22,278.08Z"/>
      <path class="cls-1" d="M786.26,454.2c1.97,1.75,4.39,2.99,6.35,4.74,82.61,73.97,170.86,142.61,246.68,222.99,208.43,220.97,411.63,446.86,616.92,670.79,112.4,122.6,226.66,243.55,336.69,368.25,90.81,102.92,176.13,210.67,265.08,315.26,16.71,19.65,39,34.56,58.85,51.51,31.85,27.21,66.55,51.74,95.03,82.11,34.2,36.48,61.91,78.94,94.58,116.97,203.42,236.75,432.07,449.11,651.25,670.58,118.72,119.96,248.33,229.55,362.21,353.74,91.93,100.25,187.13,193.73,302.3,265.77,31.1,19.46,64.28,37.35,98.83,49.17,63.85,21.84,103.95,6.3,136.13-45.76,34.67-56.08,31.64-103.62-18.5-149.55-30.64-28.07-68.04-49.92-105.05-69.6-56.36-29.98-108.39-62.82-152.46-111.16-67.33-73.83-140.39-142.5-212.08-212.28-149.53-145.56-300.46-289.69-449.46-435.79-111.25-109.09-223.12-217.78-329.61-331.43-88.35-94.28-167.32-197.27-253.85-293.35-187.36-208.03-377.09-413.92-565.39-621.11-39.04-42.96-74.74-89-114.32-131.42-89.96-96.4-183.21-189.78-271.63-287.54-74.35-82.2-144.62-168.17-215.06-253.81-40.19-48.87-74.23-102.99-116.15-150.22-80.52-90.73-165.67-177.36-246.87-267.51-35.86-39.81-75.19-65.98-127.64-60.22-70.09.73-161.26,56.11-173.51,107.25-16.98,70.88,37.68,103.51,80.69,141.62Z"/>
      <path class="cls-1" d="M3276.54,4147.41c-63.6-51.08-131.66-98.08-188.11-156.25-309.88-319.32-650.28-613.28-958.19-931.03-132.08-136.3-256.67-279.89-384.08-420.69-99.27-109.7-201.83-216.79-295.27-331.29-77.81-95.35-169.3-173.06-264.69-248.78-72.09-57.22-147.31-111.73-216.19-171.24-157.62-136.17-329.45-256.83-468.49-414.2-78.56-88.91-163.78-172.4-237.02-265.41-55.25-70.16-119.08-95.07-197.67-54.43-71.11,36.77-83.06,69.55-47.28,140.54,14.14,28.07,29.88,57.24,51.64,79.25,124.42,125.85,247.72,253.1,377.57,373.2,114.35,105.76,238.19,201.18,355.33,304.03,164.39,144.34,347.56,266.33,489.84,437.27,131.54,158.04,276.35,305.07,416.05,456.27,25.04,27.1,53.78,50.75,80.59,76.24,42.04,39.96,85.6,78.49,125.52,120.48,129.07,135.76,256.63,272.95,385.19,409.19,14.45,15.32,31.63,28.04,47.4,42.14,72.8,65.09,146.68,129.01,217.95,195.73,59.54,55.75,117.53,113.35,173.45,172.73,81.04,86.05,154.2,180.08,253.69,246.96,67.81,45.58,134.76,92.85,205.37,133.73,73,42.26,129.22,10.22,127.83-77.68,3.46-40.26-9.21-83.65-50.43-116.75Z"/>
      <path class="cls-1" d="M1969.07,807.85c80.09,97.23,174.9,182.96,267.55,269.06,118.56,110.17,226.54,229.23,320.75,360.42,79.96,111.33,156.55,225.09,234.14,338.11,44.81,65.28,84.12,134.91,133.99,195.99,74.64,91.45,156.62,176.89,235.03,265.29,38.56,43.47,76.74,87.3,113.99,131.88,102.94,123.22,205.28,246.94,307.94,370.39,3.36,4.03,7.43,7.55,11.51,10.89,67.24,55.14,134.42,110.35,201.84,165.25,55.25,44.99,139,45.47,180.63,1.45,48.83-51.65,47.81-129.52-4.17-184.63-21.7-23.01-46.02-43.68-70.11-64.3-168.98-144.64-323.46-302.89-456.23-481.86-17.21-23.19-37.08-45.16-58.86-64.08-131.02-113.83-226.45-257.99-331.34-393.36-103.28-133.3-193.24-276.84-292.65-413.26-62.08-85.19-128.11-167.9-197.35-247.38-74.6-85.62-156.07-165.22-232.67-249.16-119.06-130.49-232.25-266.65-356.44-391.98-63.27-63.86-129.56-122.89-180.44-198.33-24.44-36.24-58.16-69.71-95.59-69.97-72.19,1.95-122.83,21.84-160.1,67.83-33.42,41.23-34.45,98.41-4.62,130.78,141.23,153.27,299.99,289.22,433.21,450.97Z"/>
      <path class="cls-1" d="M2404.85,4095.09c-56.96-47.09-126.37-82.95-172.46-138.55-84.27-101.67-182.82-188.19-272.04-284.09-60.75-65.3-109.27-142.1-162.21-214.52-66.98-91.64-126.72-189.38-200.56-275.02-148.17-171.85-302.5-338.48-456.92-504.83-68.14-73.4-140.94-142.76-214.72-210.6-169.07-155.45-340.48-308.35-509.87-463.47-32.72-29.96-66.17-52.31-112.76-48.87-56.19,5.74-113.86,16.55-139.98,72.68-27.47,59.05,13.59,99.32,54.95,135.13,53.88,46.65,109.41,91.49,161.67,139.87,220.75,204.34,456.74,392.27,656.34,619.41,97.28,110.71,209.52,208.65,303.06,322.18,147.61,179.15,285.18,366.58,427.02,550.49,24.19,31.36,45.3,65.82,73.16,93.5,132.8,131.93,266.95,262.51,401.65,392.52,62.5,60.32,130.93,54.85,192.36-12.31,40.9-44.71,28.88-125.92-28.7-173.52Z"/>
      <path class="cls-1" d="M2627.39,762.73c29.45,33.53,52.62,72.73,83.09,105.18,92.16,98.18,186.22,194.58,280.05,291.19,101.04,104.03,203.17,206.99,303.66,311.54,27.29,28.39,50.49,60.74,75.36,91.44,24.8,30.63,49,61.76,74.11,92.14,18.46,22.33,41.85,41.5,56.35,66.03,80.19,135.74,194.1,243,299.51,357.3,16.81,18.23,42.05,33.88,65.98,39.28,46.75,10.54,116.52-36.07,139.66-86.35,27.91-60.64,16.31-110.46-36.46-153.41-113.51-92.37-203.03-206.44-293.91-319.79-84.01-104.79-169.93-208.35-260.05-307.89-83.22-91.93-173.64-177.3-259.88-266.52-56.61-58.57-111.1-119.19-167.26-178.2-23.65-24.86-52.66-45.28-73.25-72.28-150.24-197.01-330.47-370.43-459.45-584.15-23.63-39.15-57.55-61.42-105.62-57.21-65.39,4.22-128.58,17.54-157.74,84.95-27.65,63.9,11.19,109.08,51.83,154.13,129.16,143.17,256.76,287.77,384.02,432.64Z"/>
      <path class="cls-1" d="M1292.96,3648.08c-170.78-161.27-341.05-323.21-507.16-489.24-68.74-68.71-123.95-150.75-189.31-223.11-56.6-62.67-116.53-68.02-201.09-23-63.58,33.85-71.25,108.13-18.76,157.55,36.53,34.4,74.61,67.32,109.25,103.52,149.69,156.44,296.94,315.25,448.01,470.35,80.98,83.14,167.49,160.93,252.25,240.33,100.15,93.81,203.1,184.99,273.03,305.72,25.54,44.09,68.14,65.36,112.9,82.51,92.59,35.47,179.62-25.77,178.67-146.55-6.83-12.12-18.74-44.26-39.69-68.62-127.62-148.34-276.2-275.47-418.09-409.46Z"/>
      <path class="cls-1" d="M3119.27,471.75c135.5,155.04,264.03,316.71,406.76,464.71,103.19,106.99,205.27,212.66,282.2,340.38,23.19,38.5,58.26,51.57,93.97,49.46,78.03.65,139.27-41.85,158.89-105.32,17.15-55.49-8.39-113.84-64.9-156.39-18.01-13.56-31.96-32.91-46.42-50.72-31.31-38.55-58.38-81.16-93.16-116.18-118.98-119.83-240.57-237.06-361.01-355.45-7.5-7.37-14.05-15.82-20.34-24.28-97.61-131.28-194.03-263.46-293.63-393.21-17.77-23.15-47.21-48.62-73.71-51.66-75.37-8.66-140.65,18.46-183.83,85.06-24.5,37.78-16.88,80.51,14.35,114.13,61.07,65.74,121.76,131.89,180.81,199.45Z"/>
      <path class="cls-1" d="M3513.75,219.4c32.87,30.41,63.03,63.79,93.79,96.42,93.83,99.54,187.05,199.65,281.33,298.75,14.31,15.04,31.6,28.61,49.95,38.18,59.59,31.05,130.37,11.74,175.87-45.75,36.32-45.89,36.64-112.47-2.55-160.33-30.01-36.65-59.17-76.2-96.37-104.35-106.12-80.32-195.35-176.43-279.59-278.23-33.19-40.11-73.64-68.11-132.2-63.61-59.13-3.36-105.48,22.13-131.06,78.72-25.77,57.01-1.65,100.93,40.82,140.21Z"/>
      <path class="cls-1" d="M707.88,3844.98c-39.47-37.87-81.93-75.05-129.1-101.92-76.34-43.49-127.82-25.88-172.94,47.63-35.6,58.01-28.75,84.13,23.57,127.5,58.6,48.57,114.72,100.22,170.54,152.02,40.57,37.65,78.04,78.64,118.47,116.46,38.41,35.93,84.71,42.63,132.37,23.04,46.66-19.18,66.2-57.83,74.3-113.69-13.98-23.03-24.75-48.98-42.53-68.56-56.6-62.33-113.96-124.22-174.69-182.48Z"/>
    </g>
  </g>
</svg>