<?xml version="1.0" encoding="UTF-8"?>
<svg id="Camada_2" data-name="Camada 2" xmlns="http://www.w3.org/2000/svg" viewBox="0 0 2740.24 2251.07">
  <defs>
    <style>
      .cls-1 {
        fill: #3c608a;
      }
    </style>
  </defs>
  <g id="Camada_1-2" data-name="Camada 1">
    <g>
      <path class="cls-1" d="M53.62,383.53c26.56,42.57,65.21,60.11,113.8,55.43,51.65-4.97,97.74-24.49,136.59-59.45,68.07-61.25,80.25-152.51,25.87-226.2-28.91-39.19-63.2-75.03-98.68-108.55C201.51,16.71,164.88-1.58,121.45.11c-33.1-.05-63.76,7.81-82.28,37.83-12,19.45-24.18,40.55-28.81,62.48C-10.61,199.75-1.46,295.26,53.62,383.53ZM122.8,84.37c5.14-2.29,10.29-4.58,15.43-6.87,8.36,8.47,16.73,16.94,29.28,29.65-23.47,15.83-38.04,25.65-52.6,35.47-2.54-1.69-5.08-3.38-7.62-5.07,5.17-17.73,10.34-35.46,15.51-53.19Z"/>
      <path class="cls-1" d="M2382.04,400.77c29,43.3,54.34,88.17,72.44,137.56,16.06,43.83,51.67,64.35,98.09,65.49,13,.32,26.04-.38,39.05-.82,26.23-.9,46.76-11.88,62.94-32.94,32.02-41.67,56.35-85.5,68.21-138.41,13.17-58.72,4.17-105.01-43.38-143.46-10.35-8.37-20.37-21.93-22.58-34.5-3.46-19.6-5.36-38.89-27.14-44.42-18.88-4.79-39.01-7.24-58.44-6.54-19.61.71-39.03,6.56-58.53,10.16-.26-1.52-.52-3.04-.77-4.57-7.23,0-14.47-.11-21.7.02-107.74,1.82-160.84,89.21-112.29,184.78,1.31,2.58,2.49,5.26,4.09,7.65Z"/>
      <path class="cls-1" d="M1028.6,487.43c54.88,7.48,106.49-4.06,151.93-37.65,85.78-63.42,100.1-167.76,31.14-244.63-34.01-37.91-73.9-70.57-126.76-77.92-22.95-3.19-43.68-6.29-64.51-18.93-34.8-21.12-58.78-12.95-79.37,22.24-6.44,11.01-12.18,23.59-13.83,36.04-5.3,40.05-8.54,80.38-13.28,127.58,4.91,29.34,8.12,65.57,17.45,100.15,13.31,49.36,43.69,85.83,97.24,93.12Z"/>
      <path class="cls-1" d="M1791.61,558.32c20.31,10.11,43.56,15.06,66.02,19.96,32.6,7.11,60.02-3.87,80.17-30.19,13.14-17.15,23.14-36.75,36.61-53.61,52.03-65.08,34.75-147.66-15.22-196.44-19.55-19.08-42.68-34.44-62.79-52.99-25.69-23.69-56.21-29.63-88.59-24.43-23.08,3.71-41.7-.61-60.99-13.39-29.71-19.67-63.86-13.64-81.7,16.93-12.63,21.64-17.85,47.6-26.38,71.62,4.6,85.34,38.71,156.11,89.98,218.67,15.66,19.11,40.13,32.53,62.89,43.87ZM1889.78,417.21c-.55-9.51-1.1-19.03-1.75-30.41q11.11,13.3,1.75,30.41Z"/>
      <path class="cls-1" d="M409.42,1047.34c48.57,61.54,106.29,78.48,184.76,52.35,65.06-21.66,99.43-70.9,105.31-145.92-6.82-27.74-7.73-58.91-21.5-82.61-55.35-95.2-162.96-136.59-257.68-124.41-47.4,6.1-88.77,58.49-83.65,104.87,7.84,71.05,27.3,138.13,72.76,195.72ZM482.82,892.07c-2.38-16.36-4.77-32.72-7.36-50.52,32.41,5.95,32.96,8.6,7.36,50.52Z"/>
      <path class="cls-1" d="M1533.91,1873.79c-38.68-29.6-79.45-56.5-119.8-83.86-5.55-3.76-14.54-6.32-20.69-4.7-36.05,9.45-75.2,14.19-106.75,32.08-51.23,29.06-84.24,75-79.84,138.46,4.23,61.17,30.05,110.42,83.74,143.36,23.26,14.28,46.68,28.68,68.14,45.44,46.8,36.57,99.93,31.69,135.46-15.3,14.75-19.52,27.07-40.86,40.82-61.15,22.54-33.27,34.66-69.54,32.29-112.87,6-32.03-6.59-60.96-33.37-81.46ZM1443.6,1993.93c-3.32-20.67-5.06-31.56-7.67-47.84q16.77,18.1,7.67,47.84Z"/>
      <path class="cls-1" d="M2310.83,1168.54c46.85-41.14,68.28-92.63,67.78-152.62-.67-80.38-25.24-144.31-114.57-172.15-16.57-5.16-31.93-18.72-44.37-31.74-36.23-37.9-88.81-33.98-109.19,13.88-14.31,33.61-18.35,71.6-26.85,107.07,11.28,63.77,17.1,126.04,33.95,185.17,27.12,95.12,118.45,116.06,193.24,50.38Z"/>
      <path class="cls-1" d="M1184.87,884.04c-.58,11.49-.94,23.52,1.67,34.57,14.44,61.03,37.46,118.84,74.96,169.35,40.87,55.03,102.3,70.54,165.99,46.42,14.35-5.44,29.98-7.51,45.02-11.13.32,1.4.63,2.8.95,4.2,4.34,0,8.67.11,13.01-.02,57.61-1.58,73.27-28.7,49.46-81.57-7.42-16.47-7.59-36.06-12.79-53.71-6.79-23.06-10.15-49.75-24.32-67.37-18.44-22.93-44.77-40.46-69.97-56.82-58.95-38.29-127.3-33.03-193.11-36.04-32.46-1.48-49.19,18.8-50.88,52.11Z"/>
      <path class="cls-1" d="M628.34,1859.63c-53.18-24.26-87.57-7.1-103.55,50.64-24.74,89.42-5.33,175.61,23.68,258.81,24.02,68.9,78.91,79.48,145.26,48.45,75.01-35.09,90.45-106.62,107.06-181.97-7.37-26.61-12.36-56.92-24.13-84.33-19.08-44.43-48.62-77.55-103.58-77.24-14.92.09-30.49-7.87-44.75-14.37Z"/>
      <path class="cls-1" d="M2435.97,2000.31c-29.89-16.5-62.54-29.01-95.29-38.96-22.73-6.9-36.37-15.92-34.01-41.2.53-5.72-.34-11.56-.11-17.33.76-18.33-2.1-33.45-21.91-42.4-20.08-9.06-36.18-9.08-56.73,2.01-51.3,27.69-66.27,110.47-58.23,158.03,9.24,54.67,32.66,107.47,54.05,159.39,14.44,35.06,42.64,56.86,83.35,59.71,27.03,1.89,53.81,7.19,80.73,10.83,20.84,2.82,35.92-2.94,44.65-24.52,8.02-19.83,19.46-38.3,29.7-57.21,13.01-24.02,29.79-46.61,27.64-76.11.08-39.96-15.33-70.99-53.84-92.25Z"/>
      <path class="cls-1" d="M353.43,1404.57c-2.22-43.88-29.75-77.65-71.41-92.01-63.83-22-158.1,20.94-189.13,73.95-19.04,32.53-30.58,67.32-21.69,107.3,12.28,55.27,42.2,100.38,78.77,140.74,12.93,14.27,36.88,18.57,55.8,27.42,61.79-7.2,107.94-33.85,140.11-82.37,27.29-41.16,44.2-84.4,12.77-133.07-6.89-10.68-4.49-27.75-5.21-41.94Z"/>
      <path class="cls-1" d="M1840.37,1355.47c-18.77.94-37.57,1.56-56.32,2.89-50.56,3.6-99.05,84.9-77.9,130.79,15.71,34.08,31.87,67.95,48.07,101.8,30.88,64.49,89.76,86.19,155.56,56.79,72.83-32.54,115.58-89.02,130.29-167,7.83-41.51-5.6-67.58-41.77-90.82-48.65-31.25-101.82-39.14-157.93-34.45Z"/>
      <path class="cls-1" d="M2693.22,1361.68c-29.04-24.8-61.05-30.83-96.76-26.38-27.26,3.4-52.5,5.53-79.69-8.11-45.34-22.75-87.26,8.4-85.88,59.88,4.04,70.15,23.49,136.72,51.9,200.17,17.63,39.37,54.02,59.54,95.93,52.53,93.76-15.69,130.29-42.66,150.67-130.32,1.63-7.01,1.12-14.66,3.49-21.35,18.53-52.26.9-91.79-39.66-126.43Z"/>
      <path class="cls-1" d="M924.96,1570.2c37.33,73.76,109,82.31,174.63,60.38,9.84-3.29,20.92-13,24.75-22.45,21.64-53.37,45.64-106.19,50.57-164.81,2.19-25.97-3.47-50.36-22.02-67.93-37.53-35.55-80.92-60.74-143.16-62.3-36.91-.2-73.43,15.47-107.4,47.91-27.15,25.93-36.25,51.36-25.21,84.2,14.22,42.3,27.78,85.39,47.83,125.01Z"/>
    </g>
  </g>
</svg>