<?xml version="1.0" encoding="UTF-8"?>
<svg id="Camada_2" data-name="Camada 2" xmlns="http://www.w3.org/2000/svg" viewBox="0 0 1293.05 1549.41">
  <defs>
    <style>
      .cls-1 {
        fill: #bfc9b9;
      }
    </style>
  </defs>
  <g id="Camada_1-2" data-name="Camada 1">
    <g>
      <path class="cls-1" d="M682.66,1209.27c-88.22,0-177.43-21.21-271.29-64.37-38.83-17.85-75.04-41.4-110.07-64.17-13.36-8.69-27.15-17.65-40.91-26.19-.24.88-.44,1.78-.55,2.28-.14.63-.27,1.19-.38,1.6-4.49,16.49-8.74,35.44-12.67,53.47-.34,1.56-.8,3.41-1.31,5.44-1.85,7.34-5.69,22.6-1.9,26.75,5.51,6.04,27.28,21.24,37.17,27.65,14.74,9.57,23.67,11.82,36.02,14.94,4.73,1.19,10.1,2.55,16.41,4.47,16.1,4.9,31.99,10.11,47.35,15.14,32.01,10.48,62.25,20.38,95.41,28.28,84.09,20.03,175.81,38.94,276.69,41.6,84.34,2.21,128.71-17.33,199.85-52.09,39.12-19.11,76.71-53.88,109.87-84.56l3.03-2.8c18.87-17.45,36.87-36.84,54.28-55.58l1.17-1.26-6.22-32.66c-8.28,6.46-15.74,12.64-22.97,18.63-22.53,18.68-41.99,34.81-74.19,49.41l-9.15,4.15c-34.14,15.51-69.44,31.55-105.54,44.16-57.57,20.1-114.08,38.57-172.44,43.64-15.87,1.37-31.76,2.07-47.67,2.07Z"/>
      <path class="cls-1" d="M155.82,616.5c-11.96-13.72-28.83-27.97-36.06-27.97-.22,0-.44.01-.64.04h0c-11.66,1.57-25.31,32.47-30.45,44.1l-.89,2.01c-19.46,43.77-26.02,79.6-20.66,112.75,6.8,42.02,44.01,100.8,74.49,129.35,7.85,7.35,16.18,11.55,22.36,11.28,3.16-.15,5.8-1.46,8.07-4.02,19.98-22.52,25.58-87.21,24.42-122.69-1.8-54.78-3.35-102.09-40.63-144.86Z"/>
      <path class="cls-1" d="M1064.39,1187.44c-53.73,51.24-104.48,99.63-192.71,116.79-49.36,9.6-86.86,13.38-143.51,5.91-54.67-7.22-109.12-19.45-161.78-31.28-17.68-3.97-35.97-8.08-53.98-11.94-10.07-2.16-20.44-3.9-30.47-5.59-11.88-2-24.16-4.07-36.29-6.86-20.51-4.72-40.66-11.31-60.14-17.69-17.7-5.79-36-11.78-54.34-16.27-11.99-2.94-22.48-4.86-32.62-6.71-23.5-4.3-43.79-8.01-71.08-22.38-.36-.19-36.79-19.95-39.02-23.69-4.66-7.79-.73-16.24,2.74-23.69.35-.75.69-1.49,1.03-2.24-36.35,17.1-73.75,36.47-107.27,61.51.93-.03,1.87-.04,2.8-.04,17.32,0,34.9,4.74,50.94,9.05l2.8.75c47.85,12.83,90.49,35.65,137.3,61.94,56.09,31.5,108.17,67.21,158.53,101.75,143.89,98.65,279.78,191.84,481.44,169.23,33-3.7,61.37-14.16,86.72-31.97,27.23-19.13,68.68-51.03,95.24-74.98,26.21-23.64,49.32-58.32,71.67-91.87,7.18-10.77,13.96-20.94,20.71-30.54,22.83-32.46,22.96-74.15,23.08-114.47.03-8.41.05-16.35.28-24.27.15-5.27.63-11.71,1.13-18.53,2.51-33.75,6.29-84.76-21.66-96.65-11.24-4.78-25-6.02-38.3-7.22-.54-.05-1.08-.1-1.62-.15.19.41.38.82.58,1.24,8.94,19.18,16.45,37.25,10.31,47.55-1.05,1.76-3.18,3.18-16.32,10.89-6.02,3.53-12.85,7.54-15.2,9.36-26.15,20.27-48.95,42.02-71.01,63.05Z"/>
      <path class="cls-1" d="M479.51,57.03c22.45,12.78,38.08,14.68,63.98,17.84l.68.08c68.03,8.29,131.54,6.8,188.75-4.45,38.16-7.51,75.47-17.71,111.03-30.36-10.76-6.4-24.13-11.08-36.19-15.3l-1.51-.53c-86.28-30.25-176.87-32.22-285.08-6.22-13.6,3.27-49.73,11.95-62.68,20.19l-.67.42c-1.89,1.18-3.29,2.15-4.2,2.91,2.71,1.62,5.44,3.26,8.17,4.91,5.83,3.52,11.85,7.16,17.73,10.5Z"/>
      <path class="cls-1" d="M739.59,312.48c3.89-2.07,8.03-3.59,12.28-4.77,6.88-1.9,21.93-6.92,27.9-7.51,12.93-1.27,4.5,11.18,4.8,14.19.38,3.73,9.47,29.89,11.97,30.64l66.79-12.73c1.84-2.18-5.43-33.17-5.44-38.94-.04-15.74,49.91-15.95,50.91-19.7l-15.57-57.91c-1.78-1.21-36.2,8.48-42.13,8.99-7.69.65-12.42-14.39-15.15-20.9-4.61-11.01-7.57-22.77-12.17-33.78l-60.01,19.61c-2.65,13.28,12.41,43.31,5.67,53.67-4.83,7.43-38.91,8.76-47.07,17.84l15.29,50.88,1.92.42Z"/>
      <path class="cls-1" d="M915.92,717.77c-.58,8.14-1.31,16.44-2.08,25.24-1.76,20.01-3.57,40.69-3.54,59.23,0,1.22.35,2.83.72,4.54.42,1.95.87,4.05,1,6.26,4.86-.29,15.39-1.55,34.89-4.95,13.61-2.37,26.14-4.84,33.54-6.48l-64.41-90.37c.05,2.14.05,4.33-.11,6.54Z"/>
      <path class="cls-1" d="M731.34,439.19c-5.65,2.23-11.29,4.57-16.64,7.18-21.56,10.5-58.78,40.4-77.18,56.78-47.34,42.16-87.06,111.45-108.99,190.11-22.1,79.3-23.35,158.91-3.43,218.44,10.27,30.69,44.21,76.66,77.08,107.45l-1.3-1.31c-46.02-52-57.75-107.3-61.19-174.34-7.49-145.61,39.15-254.68,160.97-376.47,10.42-10.42,20.44-19.53,30.67-27.85Z"/>
      <path class="cls-1" d="M190.6,460.84c2.06.22,3.63,1.27,4.78,2.03.44.29,1.1.73,1.34.79,70.93,12.46,138.56,83.09,150.75,157.43,17.52,106.86,9.73,212.01-21.38,288.47-7.58,18.62-24.42,50.92-39.78,63.57-9.78,8.06-25.27,12.79-38.94,16.97-.96.29-1.91.59-2.85.87,20,13.59,42.02,24.87,63.4,35.82,13.75,7.05,27.98,14.33,41.58,22.18,15.49,8.94,31.9,19.97,47.78,30.64,21.15,14.22,43.02,28.92,63.11,38.97,15.12,7.56,37.47,15.53,57.18,22.56,5.2,1.85,10.15,3.62,14.65,5.27,3.27,1.2,6.64,2.44,10.05,3.7,17.3,6.38,35.2,12.99,51.49,17.75,61.84,18.07,155.97,11.86,211.25-4.58,14.38-4.28,28.51-10.42,42.17-16.37,8.63-3.76,17.44-7.59,26.45-11.02-108.2-5.58-175.38-27.39-213.18-45.14-56.98-26.77-131.99-107.46-157.38-169.3-32.53-79.25-16.72-212.21,18.47-286.66,31.69-67.06,100-187.14,201.43-237.84,45.57-22.78,153.65-37.67,201.06-32.15,7.82.91,15.14,1.9,22.22,2.86,11.66,1.58,22.67,3.07,35.58,4.2,35.28,3.08,80.55,25.54,104.39,38.65,36.76,20.21,71.74,45.14,91.3,65.04,16.67,16.96,31.34,35.95,45.4,54.67-.68-8.57-1.78-17.16-2.86-25.57-.72-5.58-1.46-11.34-2.07-17.03-.49-4.56-.91-8.77-1.3-12.72-2.58-25.87-4.01-40.12-16.47-68.14-50.7-113.96-131.5-197.24-270.19-278.45-5.57-3.26-10.69-6.08-15.46-8.52,0,.26,0,.51,0,.76-.01,2.12-.02,3.94.52,5.56.75,2.26,5.26,6.39,8.89,9.7,7.92,7.25,16.9,15.46,11.85,23.74-1.6,2.63-5.57,4.32-7.83,4.54-8.03.79-39.73-19.2-43.96-24.64-6.65-8.54-6.53-18.71-6.43-27.67.06-4.68.11-9.09-.7-13.11-.67-2.81-8.48-23.73-12.45-32.35-.88.54-1.83,1.04-2.84,1.5-118.62,54.21-264.61,62.41-390.54,21.93-14.74-4.74-31.03-11.15-43.18-22.95-3.15,9.34-5.94,18.97-8.66,28.34-8.71,30.06-17.72,61.14-39.14,86.18-14.04,16.41-24.16,23.21-30.09,20.19-3.74-1.9-5.01-4.68-5.42-6.67-.4-1.94-.17-3.9.47-5.87-5.47,4.5-11.03,8.84-16.5,13.11-8.19,6.39-16.66,13-24.53,19.93l-2.59,2.28c-40.67,35.74-82.72,72.7-109.23,118.44-21.63,37.31-35.51,76.1-50.2,117.17-1.77,4.94-3.58,9.99-5.4,15.05,8.3-3.93,16.15-7.26,26.24-9.38.24-.05,25.16-5.03,27.75-4.71ZM709.38,244.03c4.22-6.57,30.18-9.3,37.64-13.27,2.73-3.99-8.77-38.4-5.39-46.31,2.42-5.68,17.4-11.93,23.41-14.75,7.68-3.6,17.04-7.46,25.04-10.29,6.32-2.24,38.6-12.48,42.91-12.06,15.04,1.46,14.03,41.27,20.82,52.07,6.77,4.32,46.22-11.02,56.4-7.66,6.82,2.25,9.32,22,10.55,29.02,1.85,10.54,2.1,21.15,3.68,31.65.79,5.28,6.85,28.49,6.28,30.62-2.19,8.27-27.09,10.49-35.32,12.76-6,1.66-11.75,4.05-17.77,5.59-1.21,1.63,9.56,32.05,7.91,38.13-2.43,8.94-30.07,12.31-38.7,13.69-16.59,2.66-39.75,6.37-56.12,7.45-4.92.32-9.55,1.49-12.32-3.18-3.4-5.73-9.82-36.91-12.32-38.59-11.87.39-25.26,10.07-36.51,10.4-12.63.37-11.59-25.43-13.46-35.26-1.84-9.7-10.88-43.53-6.72-50Z"/>
      <path class="cls-1" d="M266.54,943.68c46.02-60.24,53.56-166.2,41.1-239.15-14.57-85.28-46.25-146.08-102.7-197.16-10.03-9.08-20.18-17.1-23.78-18.87-10.08,4.85-20.27,9.88-30.14,14.76-10.19,5.04-20.72,10.24-31.14,15.24-5.69,2.73-11.61,5.18-17.34,7.55-14.45,5.99-28.11,11.64-39.32,21.67-16.61,14.86-31.39,65.47-38.49,89.8l-1.23,4.2c-9.5,32.33-27.17,92.5-22.81,127.12,4.37,34.66,33.15,102.68,52.26,130.1,12.36,17.73,57.18,66.82,73.93,71.76,22.38,6.59,69.1,1.79,95.12-3.73,6.9-1.46,27.71-6.88,31.28-8.73,2.03-1.95,12.25-13.22,13.27-14.55ZM189.36,907.27c-10.11,13.1-22.05,19.73-35.53,19.73-.87,0-1.74-.03-2.62-.08-43.72-2.73-87.71-73.73-96.09-87.93-39.03-66.2-43.85-118.58-17.79-193.26.31-.89,32.34-88.8,64.71-95.46,15.13-3.11,25.97,4.46,36.46,11.78l1.1.77c48.06,33.47,87.75,123.26,91.12,181.18,2.87,49.25-13.07,126.61-41.36,163.28Z"/>
      <path class="cls-1" d="M1036.81,533.01c-18.47-10.8-66.07-23.86-113.76-23.86-5.27,0-10.53.16-15.77.5-127.48,8.27-243.46,138.06-238.66,267.06,1.89,50.81,15.61,99.93,39.69,142.05,25.06,43.85,61.04,79.25,104.05,102.38,19.83,10.67,34.52,12.79,56.77,16.01l.15.02c1.26.18,2.67.39,4.21.62,14.97,2.22,46.11,6.84,56.36,3.29,18.59-6.45,49.6-27.18,64.9-41.4,52.16-48.49,113.73-150.91,118.67-220.36,5.65-79.49,1.37-140.81-37.4-200.78-7.34-11.36-31.08-40.79-39.18-45.52ZM799.67,739.72c-3.07,4.32-7.37,6.98-12.79,7.9-1.96.33-3.84.49-5.63.49-16.35,0-25.97-13.04-28.37-27.17-3.58-21.05,6.88-35.79,19.07-37.88,7.56-1.3,14.96.39,20.82,4.75,5.72,4.26,9.58,10.73,10.86,18.24,1.77,10.33,2.51,24.56-3.95,33.67ZM998.18,895.1c-1.51,1.77-2.93,3.44-3.59,4.45-2,3.07-3.34,5.86-4.64,8.54-3.3,6.85-6.42,13.32-18.28,18.67-15.42,6.96-31.07,10.44-47.48,10.44-17.76,0-36.41-4.07-56.64-12.24-.35-.14-34.95-14.28-36.91-30.43-.41-3.34.35-8.21,6.28-12.49,11.47-8.28,22.62.08,30,5.61,2.09,1.57,4.07,3.05,5.8,4.05,4.77,2.75,25.94,12.64,29.98,13.67,11.16,2.87,41.87-2.38,52.16-8.91,3.53-2.24,8.01-7.6,12.35-12.78,7.41-8.86,15.07-18.02,23.6-19.77,3.95-.81,11.72-1.09,15.74,2.99,8.4,8.51-2.1,20.82-8.36,28.18ZM1012.22,812.87c-2.42,6.08-9.39,10.11-23.3,13.5-14.91,3.63-53.46,11.48-79.55,11.48-4.99,0-9.52-.29-13.34-.94-15.54-2.67-14.85-23.07-14.47-34.03.03-.79.05-1.53.07-2.22.55-20.72,4.23-46.32,7.2-66.89l.17-1.18c.32-2.26.68-4.94,1.08-7.89,1.86-13.87,4.4-32.86,7.86-42.23,1.93-5.25,6.38-10.72,13.09-10.5,3.92.16,9.97,2.84,25.1,21.57,17.53,21.71,44.65,57.54,63.4,87.08,1.08,1.7,2.13,3.33,3.14,4.89,7.35,11.37,12.66,19.59,9.56,27.37ZM1038.56,705.5c-4.33,6.28-10.57,9.64-17.63,9.64-1.81,0-3.67-.22-5.57-.67-12.77-3.01-20.98-15.64-20.91-32.15.05-12.18,5.08-26.42,16.01-28.9,11.93-2.71,21.94.87,28.19,10.1,7.89,11.64,7.85,30.48-.08,41.99Z"/>
      <path class="cls-1" d="M1250.8,474.03c3.54,13.37,7.11,27.16,9.43,41.07,6.75,40.35,12.66,101.44,8.99,151.88-.48,6.56-1.68,13.12-2.85,19.47-1.21,6.58-2.46,13.38-2.84,19.99-.5,8.62-.32,17.52-.15,26.12.14,7.03.28,14.19.06,21.38,13.7-23.12,23.19-52.2,26.59-82.2,9.6-84.85-5.51-137.21-19.92-166.22l-19.31-31.49Z"/>
      <path class="cls-1" d="M1030.98,426.02c-31.19-16.75-79.21-28.86-123.51-28.86-21.04,0-41.23,2.73-58.39,8.99-55.03,20.09-116.3,66.43-168.1,127.14-51.16,59.96-87.97,127.6-100.99,185.58-17.48,77.82-15.64,150.39,5.31,209.86,23.86,67.73,71.12,116.82,140.46,145.91,71.63,30.05,208.34,42.33,277.24,13.14,28.98-12.28,80.53-45.51,107.25-67.01,29.75-23.94,59.48-68.29,83.71-124.9,21.26-49.66,36.57-104.91,40.95-147.78,9.94-97.38-19.53-178.53-51.12-212.71-44-47.61-99.45-80.7-152.82-109.36ZM1128.49,935.45c-20.76,38.64-52.33,63.49-85.75,89.8-3.03,2.38-6.06,4.77-9.11,7.19-22.69,17.99-57.25,30.45-97.3,35.09-11.03,1.28-22.04,1.91-32.81,1.91-26.12,0-50.77-3.7-70.52-10.8-34.98-12.59-61.45-25.43-83.33-40.42-27.17-18.62-47.67-40.89-62.68-68.06-38.26-69.3-49.7-134.79-38.24-218.97,7.25-53.27,31.87-106.95,69.32-151.16,38.43-45.36,87.78-77.27,138.96-89.83,29-7.12,49.86-11.04,63.8-11.97,43.45-2.89,115.06,15.18,156.37,39.5,82.41,48.51,99.79,109.04,103.02,203.77,2.26,66.17-18.53,152.15-51.73,213.96Z"/>
    </g>
  </g>
</svg>