<?xml version="1.0" encoding="UTF-8"?>
<svg id="Camada_2" data-name="Camada 2" xmlns="http://www.w3.org/2000/svg" viewBox="0 0 1386.45 1648.8">
  <defs>
    <style>
      .cls-1 {
        fill: #232429;
      }
    </style>
  </defs>
  <g id="Camada_1-2" data-name="Camada 1">
    <g>
      <path class="cls-1" d="M938.91,349.93c8.23-2.28,33.13-4.5,35.32-12.76.56-2.13-5.49-25.34-6.28-30.62-1.58-10.49-1.83-21.11-3.68-31.65-1.23-7.02-3.74-26.77-10.56-29.02-10.18-3.36-49.63,11.98-56.4,7.66-6.79-10.79-5.78-50.61-20.82-52.07-4.31-.42-36.58,9.82-42.91,12.06-7.99,2.83-17.35,6.69-25.03,10.29-6.01,2.82-20.99,9.07-23.41,14.75-3.38,7.91,8.12,42.32,5.39,46.31-7.46,3.97-33.42,6.71-37.64,13.27-4.16,6.47,4.87,40.3,6.72,50,1.87,9.83.83,35.63,13.46,35.27,11.25-.32,24.64-10,36.51-10.4,2.5,1.68,8.92,32.86,12.32,38.6,2.77,4.67,7.4,3.5,12.32,3.18,16.37-1.08,39.53-4.79,56.13-7.45,8.63-1.38,36.27-4.76,38.7-13.69,1.65-6.08-9.12-36.5-7.91-38.13,6.01-1.54,11.77-3.93,17.77-5.59ZM906.86,386.43l-66.79,12.74c-2.51-.75-11.6-26.91-11.97-30.64-.31-3.01,8.13-15.46-4.8-14.19-5.97.59-21.02,5.61-27.9,7.51-4.25,1.17-8.39,2.69-12.28,4.77l-1.92-.42-15.29-50.88c8.15-9.07,42.23-10.41,47.07-17.84,6.74-10.36-8.33-40.39-5.67-53.67l60.01-19.61c4.6,11.01,7.56,22.77,12.17,33.78,2.73,6.51,7.46,21.55,15.15,20.9,5.93-.5,40.35-10.2,42.13-8.99l15.57,57.91c-.99,3.75-50.95,3.96-50.91,19.7.01,5.78,7.28,36.76,5.44,38.94Z"/>
      <path class="cls-1" d="M1120.73,571.85c-41.31-24.32-112.92-42.39-156.37-39.5-13.93.93-34.8,4.84-63.8,11.97-51.18,12.57-100.53,44.47-138.96,89.83-37.45,44.2-62.07,97.89-69.32,151.16-11.46,84.18-.03,149.67,38.24,218.97,15,27.17,35.51,49.44,62.68,68.06,21.87,14.99,48.35,27.84,83.33,40.42,19.75,7.1,44.39,10.8,70.52,10.8,10.76,0,21.78-.63,32.81-1.91,40.06-4.64,74.62-17.11,97.31-35.09,3.04-2.41,6.08-4.8,9.11-7.19,33.42-26.31,64.99-51.16,85.75-89.8,33.2-61.8,53.99-147.79,51.73-213.96-3.23-94.73-20.6-155.26-103.02-203.77ZM1156.92,833.43c-4.94,69.45-66.5,171.87-118.67,220.36-15.3,14.22-46.31,34.95-64.9,41.41-10.24,3.56-41.39-1.07-56.36-3.29-1.54-.23-2.95-.44-4.21-.62l-.15-.02c-22.24-3.22-36.93-5.34-56.76-16.01-43.01-23.13-78.99-58.53-104.05-102.38-24.07-42.12-37.79-91.24-39.69-142.05-4.8-129.01,111.19-258.79,238.66-267.06,5.23-.34,10.5-.5,15.77-.5,47.7,0,95.3,13.07,113.76,23.86,8.1,4.74,31.84,34.16,39.18,45.52,38.77,59.97,43.05,121.29,37.4,200.78Z"/>
      <path class="cls-1" d="M194.73,981.04c.88.05,1.75.08,2.62.08,13.48,0,25.42-6.63,35.53-19.73,28.29-36.67,44.23-114.03,41.36-163.28-3.37-57.91-43.06-147.7-91.12-181.18l-1.1-.77c-10.49-7.32-21.33-14.89-36.46-11.78-32.37,6.66-64.4,94.57-64.71,95.46-26.06,74.69-21.24,127.06,17.79,193.27,8.37,14.21,52.37,85.21,96.09,87.93ZM131.3,688.81l.89-2.01c5.14-11.63,18.79-42.53,30.45-44.1h0c.2-.03.42-.04.64-.04,7.24,0,24.1,14.24,36.06,27.97,37.29,42.77,38.84,90.08,40.64,144.86,1.16,35.48-4.44,100.17-24.42,122.69-2.27,2.56-4.91,3.87-8.07,4.02-6.18.26-14.51-3.94-22.36-11.28-30.49-28.55-67.69-87.34-74.49-129.35-5.36-33.15,1.2-68.98,20.66-112.75Z"/>
      <path class="cls-1" d="M1043.04,834.74c-18.74-29.54-45.86-65.37-63.4-87.08-15.13-18.73-21.18-21.41-25.1-21.57-6.71-.22-11.16,5.25-13.09,10.5-3.45,9.36-6,28.36-7.86,42.23-.4,2.95-.76,5.63-1.08,7.89l-.17,1.18c-2.97,20.57-6.65,46.17-7.2,66.89-.02.69-.04,1.43-.07,2.22-.37,10.96-1.07,31.36,14.47,34.03,3.82.66,8.36.94,13.34.94,26.1,0,64.65-7.85,79.56-11.48,13.91-3.39,20.88-7.42,23.3-13.5,3.1-7.77-2.21-15.99-9.57-27.37-1.01-1.56-2.06-3.19-3.14-4.89ZM990.42,862.21c-19.49,3.4-30.02,4.66-34.89,4.95-.12-2.2-.58-4.3-1-6.26-.37-1.71-.72-3.32-.72-4.54-.03-18.54,1.79-39.22,3.54-59.23.77-8.79,1.5-17.1,2.08-25.24.16-2.21.16-4.39.11-6.54l64.42,90.37c-7.4,1.64-19.94,4.11-33.55,6.48Z"/>
      <path class="cls-1" d="M1034.32,918.06c-8.53,1.75-16.19,10.91-23.6,19.77-4.33,5.18-8.82,10.54-12.35,12.78-10.29,6.52-41.01,11.78-52.16,8.9-4.04-1.04-25.21-10.92-29.98-13.67-1.74-1-3.71-2.48-5.8-4.05-7.38-5.53-18.53-13.89-30-5.61-5.92,4.28-6.68,9.15-6.28,12.49,1.96,16.15,36.56,30.29,36.91,30.43,20.24,8.16,38.89,12.24,56.64,12.23,16.41,0,32.06-3.48,47.48-10.44,11.86-5.35,14.98-11.82,18.28-18.67,1.3-2.69,2.64-5.47,4.64-8.54.66-1.02,2.08-2.69,3.59-4.45,6.27-7.36,16.76-19.67,8.36-28.18-4.02-4.08-11.79-3.8-15.74-2.99Z"/>
      <path class="cls-1" d="M836.29,741.94c-5.87-4.36-13.26-6.05-20.82-4.75-12.19,2.09-22.65,16.83-19.07,37.88,2.4,14.13,12.02,27.17,28.37,27.17,1.8,0,3.67-.16,5.63-.49,5.42-.91,9.73-3.57,12.8-7.9,6.47-9.12,5.72-23.34,3.95-33.67-1.28-7.51-5.14-13.98-10.86-18.24Z"/>
      <path class="cls-1" d="M1053.98,707.53c-10.93,2.49-15.96,16.73-16.01,28.9-.07,16.52,8.14,29.14,20.91,32.15,1.9.45,3.76.67,5.58.67,7.06,0,13.3-3.35,17.63-9.64,7.93-11.51,7.97-30.35.08-41.99-6.25-9.22-16.26-12.8-28.19-10.1Z"/>
      <path class="cls-1" d="M1386.45,667.85l-56.43-163.72-47.25-72.4-83.78-128.8-129.81-110.33-103.02-59.02-39.27-70.19-59.48-26.13-1.26-.4c-55.98-17.7-85.56-26.97-87.91-27.57-2.83-.71-5.06-1.26-143.86-9.05l-4.29-.24-124.65,37.1-73.03,48.68-30.53,98.53-139.08,87.52-81.58,112.72-39.74,117.68-5.2,24.22-36.52,21.45-51.17,44.68-33.46,121.13L0,802.7l9.93,42.2c.29,5.27.88,10.22,1.92,14.59,2.48,10.47,6.55,20.99,11.69,31.46l14.7,40.77,68.74,98.15,29.01,17.57c2.02,2.37,4.05,4.73,6.19,6.99,7.45,7.84,15.88,16.73,29.15,17.63l.54.04,58.91-10.51,11.14-.44,13.08,12.2,4.93,6.58-10.39,37.04-67.53,48.15-128.01,83.25,5.94,23.4c-9.02,13.63-14.25,29.23-5.64,43.07,7.94,12.76,28.11,28.24,39.89,35.16,80.8,47.45,171.64,69.21,257.75,87.43,10.24,2.17,21.24,3.87,31.88,5.51,12.73,1.97,25.9,4,37.58,6.82.16.04.32.09.48.13l131.28,70.04c9.38,5.97,18.44,11.61,27.11,16.59,19.69,11.31,37.75,19.99,55.48,27.47l22.79,12.16,105.37,45.04,46.57,7.71c27.27,7.02,56.81,12,84.98,14.08,0,0,.02,0,.03,0l35.04,5.8,17.69-5.32c25.57-1.56,48.48-5.88,67.65-12.93,51.39-18.92,118.13-71.56,155.25-122.45,2.92-4,5.31-8.21,7.61-12.29.86-1.51,1.71-2.99,2.56-4.45l14.43-17.55c.44-.41.84-.8,1.28-1.21,3.2-2.95,6.51-6.01,9.35-9.28,8.21-9.47,15.94-19.71,23.25-30.72l13.98-17.01,38.74-78.46,11.72-80.89-.2-35.85c1.45-10.96,2.46-21.91,1.86-32.22-.29-4.9-1.21-10.08-2.12-15.11l-.28-51.1-28.4-50.27-58.79-4.59,38.25-44.94,14.91-31.96c1.71-2.74,3.4-5.55,5.05-8.51,6.31-11.33,11.43-23.62,15.85-36.3l5.09-10.92,20.47-72.81,13.82-11.97c19.16-13.15,35.1-34.94,44.91-56.8l8.69-11.27,13.28-113.76ZM1259.59,1253.85l-10.56,72.93-34.57,70-100.12,121.81c-9.52,7.72-19.47,15.54-29.18,22.96l-72.09,46.04c-1.32.53-2.62,1.11-3.96,1.61l-22.61,6.8c-7.78,1.81-15.84,3.19-24.19,4.13-38.23,4.29-74.09,4.4-108.09,1.11l-65.37-10.82c-8.18-1.93-16.23-4.07-24.22-6.37l-91.16-38.97-109.99-58.68c-27.59-17.78-54.96-36.53-82.61-55.49-50.37-34.53-102.45-70.24-158.53-101.74-46.82-26.29-89.46-49.11-137.31-61.94l-2.8-.75c-16.04-4.32-33.62-9.05-50.94-9.05-.94,0-1.87.01-2.8.04,33.51-25.04,70.92-44.41,107.27-61.51-.34.75-.69,1.5-1.03,2.24-3.47,7.46-7.4,15.9-2.74,23.69,2.23,3.74,38.66,23.49,39.02,23.69,27.29,14.37,47.58,18.08,71.08,22.38,10.14,1.86,20.63,3.77,32.62,6.71,18.34,4.49,36.64,10.48,54.34,16.27,19.48,6.38,39.63,12.97,60.14,17.69,12.13,2.79,24.41,4.86,36.29,6.86,10.03,1.69,20.4,3.43,30.47,5.59,18.01,3.86,36.29,7.96,53.98,11.94,52.66,11.83,107.1,24.07,161.78,31.28,56.66,7.47,94.15,3.69,143.51-5.91,88.23-17.16,138.98-65.55,192.71-116.79,22.06-21.03,44.86-42.78,71.01-63.04,2.35-1.82,9.18-5.83,15.2-9.36,13.14-7.71,15.28-9.14,16.32-10.89,6.14-10.3-1.37-28.37-10.31-47.55-.2-.42-.39-.84-.58-1.24.54.05,1.08.1,1.62.15,13.3,1.2,27.06,2.44,38.3,7.22,10.2,4.34,16.14,13.92,19.5,25.93l.61,111.07ZM67.01,695.84l1.23-4.2c7.1-24.32,21.89-74.94,38.49-89.8,11.21-10.03,24.86-15.68,39.32-21.67,5.73-2.37,11.65-4.82,17.34-7.55,10.42-5,20.95-10.21,31.14-15.24,9.87-4.88,20.06-9.91,30.14-14.76,3.61,1.77,13.75,9.8,23.78,18.87,56.46,51.08,88.13,111.88,102.7,197.16,12.47,72.95,4.92,178.91-41.1,239.15-1.02,1.33-11.24,12.6-13.27,14.55-3.57,1.85-24.38,7.27-31.28,8.73-26.03,5.52-72.74,10.32-95.12,3.73-16.75-4.93-61.57-54.03-73.93-71.76-19.11-27.42-47.89-95.44-52.26-130.11-4.36-34.62,13.31-94.79,22.81-127.12ZM1330.94,612.54c5.63,28.71,7.98,65.94,2.62,113.33-3.4,30-12.89,59.08-26.58,82.2.22-7.19.07-14.35-.06-21.38-.17-8.61-.34-17.51.16-26.13.38-6.61,1.63-13.41,2.84-19.99,1.16-6.35,2.37-12.91,2.85-19.47,3.66-50.44-2.24-111.52-8.99-151.88-2.33-13.91-5.9-27.69-9.43-41.07l17.19,28.03,19.43,56.36ZM583.21,897.63c3.45,67.03,15.17,122.34,61.19,174.34l1.3,1.31c-32.88-30.79-66.81-76.76-77.09-107.45-19.92-59.52-18.67-139.14,3.43-218.43,21.92-78.66,61.64-147.95,108.98-190.11,18.4-16.38,55.62-46.29,77.18-56.79,5.36-2.61,11-4.96,16.64-7.18-10.24,8.32-20.25,17.43-30.67,27.85-121.82,121.79-168.46,230.86-160.97,376.47ZM766.5,451.07c-101.44,50.7-169.74,170.78-201.43,237.84-35.19,74.45-51,207.41-18.46,286.66,25.39,61.84,100.4,142.53,157.38,169.3,37.8,17.75,104.99,39.56,213.18,45.14-9.01,3.43-17.81,7.26-26.45,11.02-13.66,5.94-27.79,12.09-42.17,16.37-55.28,16.45-149.41,22.66-211.25,4.58-16.3-4.76-34.19-11.36-51.49-17.75-3.42-1.26-6.77-2.5-10.05-3.7-4.5-1.64-9.45-3.41-14.65-5.27-19.72-7.03-42.06-15-57.18-22.56-20.1-10.05-41.96-24.75-63.12-38.97-15.87-10.67-32.29-21.7-47.78-30.64-13.61-7.85-27.83-15.14-41.59-22.19-21.37-10.95-43.4-22.23-63.39-35.82.94-.29,1.89-.58,2.85-.87,13.66-4.18,29.15-8.91,38.93-16.97,15.36-12.65,32.21-44.95,39.78-63.57,31.11-76.46,38.9-181.6,21.38-288.47-12.19-74.34-79.82-144.96-150.75-157.43-.25-.06-.91-.5-1.34-.79-1.15-.76-2.72-1.81-4.78-2.03-2.6-.32-27.51,4.66-27.75,4.71-10.09,2.12-17.94,5.45-26.23,9.39,1.83-5.06,3.63-10.11,5.4-15.06,14.69-41.06,28.56-79.85,50.2-117.17,26.51-45.74,68.57-82.7,109.23-118.44l2.59-2.28c7.88-6.92,16.34-13.53,24.53-19.93,5.47-4.27,11.02-8.6,16.5-13.1-.65,1.97-.87,3.93-.47,5.87.41,2,1.69,4.77,5.42,6.68,5.93,3.02,16.05-3.78,30.09-20.19,21.42-25.04,30.43-56.12,39.14-86.18,2.72-9.37,5.51-19,8.65-28.34,12.15,11.8,28.44,18.21,43.18,22.95,125.93,40.48,271.92,32.28,390.54-21.93,1.01-.46,1.96-.96,2.84-1.5,3.97,8.62,11.78,29.54,12.44,32.35.81,4.01.76,8.43.7,13.1-.11,8.97-.23,19.13,6.42,27.68,4.23,5.43,35.93,25.42,43.96,24.63,2.25-.21,6.23-1.91,7.83-4.54,5.05-8.28-3.93-16.49-11.85-23.74-3.63-3.32-8.14-7.45-8.89-9.71-.53-1.61-.53-3.44-.51-5.56,0-.25,0-.5,0-.76,4.77,2.44,9.89,5.26,15.46,8.52,138.69,81.21,219.5,164.48,270.19,278.45,12.47,28.02,13.89,42.27,16.47,68.14.39,3.95.82,8.16,1.31,12.72.61,5.69,1.35,11.46,2.07,17.03,1.08,8.41,2.18,16.99,2.87,25.57-14.06-18.73-28.73-37.71-45.4-54.67-19.56-19.9-54.55-44.82-91.31-65.04-23.84-13.11-69.1-35.57-104.39-38.65-12.91-1.13-23.92-2.62-35.58-4.2-7.08-.96-14.4-1.95-22.22-2.86-47.41-5.52-155.49,9.38-201.06,32.15ZM946.29,1217.69c36.1-12.61,71.4-28.65,105.54-44.16l9.15-4.15c32.19-14.6,51.66-30.73,74.19-49.41,7.23-5.99,14.68-12.17,22.97-18.63l6.22,32.66-1.17,1.26c-17.41,18.75-35.41,38.13-54.28,55.58l-3.03,2.81c-33.17,30.68-70.76,65.45-109.87,84.56-71.14,34.76-115.51,54.3-199.85,52.09-100.88-2.66-192.6-21.57-276.69-41.6-33.16-7.9-63.4-17.8-95.41-28.28-15.36-5.03-31.25-10.23-47.35-15.14-6.3-1.92-11.67-3.28-16.41-4.47-12.35-3.12-21.28-5.37-36.02-14.94-9.89-6.42-31.66-21.61-37.17-27.65-3.79-4.15.06-19.41,1.9-26.75.51-2.03.98-3.88,1.32-5.45,3.93-18.02,8.18-36.98,12.67-53.46.11-.42.24-.97.38-1.6.11-.5.31-1.4.55-2.28,13.77,8.54,27.55,17.5,40.91,26.19,35.03,22.77,71.24,46.32,110.07,64.17,93.86,43.15,183.07,64.37,271.29,64.37,15.91,0,31.8-.69,47.67-2.07,58.36-5.07,114.87-23.53,172.44-43.64ZM497.12,95.75c.91-.76,2.31-1.73,4.2-2.91l.67-.43c12.95-8.24,49.08-16.92,62.68-20.19,108.22-26,198.81-24.03,285.08,6.22l1.51.53c12.06,4.23,25.43,8.91,36.19,15.31-35.56,12.65-72.87,22.85-111.03,30.35-57.21,11.25-120.72,12.75-188.75,4.45l-.68-.08c-25.9-3.16-41.53-5.07-63.98-17.84-5.88-3.35-11.91-6.98-17.73-10.5-2.73-1.65-5.46-3.29-8.17-4.91ZM1155.41,1073.52c-.54.45-1.08.94-1.63,1.38-26.72,21.5-78.27,54.72-107.25,67.01-68.9,29.2-205.61,16.91-277.24-13.14-69.34-29.09-116.6-78.18-140.46-145.91-20.95-59.47-22.79-132.04-5.31-209.86,13.02-57.98,49.83-125.63,100.99-185.58,51.8-60.71,113.07-107.05,168.1-127.14,17.15-6.26,37.35-9,58.38-9,44.3,0,92.32,12.11,123.51,28.86,53.37,28.66,108.82,61.74,152.82,109.35,31.59,34.18,61.07,115.33,51.12,212.71-4.38,42.88-19.69,98.12-40.95,147.79-11.42,26.68-24.07,50.59-37.36,70.97l-44.73,52.56Z"/>
    </g>
  </g>
</svg>