<?xml version="1.0" encoding="UTF-8"?>
<svg id="Camada_2" data-name="Camada 2" xmlns="http://www.w3.org/2000/svg" viewBox="0 0 2209.4 2007.81">
  <defs>
    <style>
      .cls-1 {
        fill: #fff;
      }
    </style>
  </defs>
  <g id="Camada_1-2" data-name="Camada 1">
    <g>
      <path class="cls-1" d="M873.67,325.16c-3.64-3.49-6.23-4.18-7.81-4.18-.72,0-1.22.14-1.54.22-7.06,1.94-14.01,16.24-17.47,28.71-9.47,34.04-8.3,70.58,3.58,111.73,9.28,32.12,17.32,39.53,19.41,39.6.05,0,3.93-.56,9.16-15.19,8.94-25.08,13.65-75.53,11.73-102.19-1.03-14.21-9.95-51.88-17.07-58.69Z"/>
      <path class="cls-1" d="M854.94,268.18c-10.48,2.16-19.5,16.16-25.47,25.42l-.43.65c-36.87,57.12-44.52,137.92-19.05,201.07,8.66,21.46,24.61,47.18,43.45,55.02,8.02,3.34,15.89,3.29,24.06-.15,61.94-26.07,72.07-147.4,56.95-204.78-3.91-14.83-26.04-88.32-79.51-77.22ZM896.85,515.04c-7.78,10.96-17.19,16.93-27.2,17.26-.27,0-.55.01-.84.01-6.84,0-16.77-2.71-26.72-14.94-32.58-40.04-33.22-134.27-19.34-181.54,9.03-30.78,25.95-46.92,49.03-46.85,28.8.16,44.7,53.31,48.01,71.92,6.52,36.71-1.51,123.95-22.94,154.15Z"/>
      <path class="cls-1" d="M894.65,206.89l-1.66,2.81c-5.4,9.13-10.19,17.22-12.03,26.71l61.1,3.12,1.25.75c77.95,46.65,96.65,172.75,61.29,254.33-6.28,14.48-33.48,60.27-44.81,70.93-3.44,3.22-5.61,4.94-10.73,6.69-13.11,4.49-29.73,6.11-45.8,7.67-7.08.69-13.87,1.35-20.07,2.23,6.44,31.02,26.48,55.13,54.4,81.33,105.27,98.82,234.66,138.09,384.57,116.66,98.47-14.06,188.09-76.04,245.88-170.05,59.19-96.28,74.85-211.82,41.9-309.08-36.32-107.23-62.27-152.27-153.84-225.15-98.3-78.23-225.08-96.98-347.8-51.44-72.51,26.91-172.35,112.18-213.64,182.48ZM1307.23,212.62c26.04-2.34,90.9,1.72,116.89,8.59,35.1,9.27,109.91,63.72,133.43,90.07,77.33,86.62,29.48,225.88,5.32,281.73-40.05,92.56-124.3,113.3-205.98,113.3-19.1,0-38.04-1.13-56.25-2.74-98.57-8.74-170.56-74.9-197.52-181.52-17.96-71.05,24.07-172.22,56.71-222.88,28.13-43.67,92.88-81.69,147.4-86.55Z"/>
      <path class="cls-1" d="M921.34,551.51c11.42-1.72,18.38-4.6,27.65-16.19,50.8-63.51,69.19-176.21,10.29-247.53-7.4-8.96-17.03-18.62-26.66-22.52,6.3,6.7,12.09,14.89,17.51,24.7,30.42,55.15,24.47,154.86,1.53,215.61-6.74,17.84-18.25,32.34-30.32,45.93Z"/>
      <path class="cls-1" d="M772.72,609.73c-.45,1.86-.92,3.74-1.39,5.62,23.86-12.83,53.11-23.67,82.8-30.6-1.01-2.72-3.93-4.29-10.34-7.06-4.06-1.76-8.66-3.75-12.91-6.96-5-3.78-11.83-10.25-16.29-17.22-28.79,2.92-35.15,28.84-41.87,56.21Z"/>
      <path class="cls-1" d="M743.69,1047.99l-58.84-13.66c-1.07,8.65-3.38,17.65-5.63,26.41-2.79,10.86-5.43,21.12-5.7,30.14-.47,15.52,16.47,42.64,36.25,58.04,10.99,8.55,21.63,12.67,30.41,11.92l3.5-112.85Z"/>
      <path class="cls-1" d="M1252.33,1010.82c11.46,11.77,15.55,67.13,18.46,69.24l63.65-10.58c-.19-13.19-6.19-56.56,2.79-65.27,2.96-2.87,18.61-3.84,24.23-5.68,9.89-3.25,18.6-9.89,28.93-11.29v-46.41c0-.3-2.15-5.05-3.29-5.16l-64.82,11.56c-1.36-.64-3.07-1.19-4.07-2.28-5.59-6.06-4.45-38.08-6.69-49.01-.64-3.16-6.25-20.26-7.67-21.23-4.22-2.88-28.63,4.56-36.22,5.23-9.08.81-18.7-.5-27.82.02.43,19.58-.51,39.28-.08,58.88.17,7.54,5.08,15.57.27,22.79-4.24,5.49-13.04.74-19.67.75-16.16.02-32.56,2.67-48.53,4.27l6.17,47.36c15.29,2.22,64.12-13.7,74.35-3.19Z"/>
      <path class="cls-1" d="M1207.33,639.03c-45.47-60.07-63.32-144.82-46.6-223.29,13.41-62.94,46.52-114.05,94.36-146.58-50.71,27.84-91.02,75.74-112.16,136.3-15.07,43.18-21.4,80.24-6.43,131.56,13.32,45.65,36.17,78.76,70.83,102Z"/>
      <path class="cls-1" d="M745.96,693.71c6.27-1.21,12.67-1.75,19.08-1.75,25.28,0,50.81,8.47,69.28,18.42,66.61,35.88,97.01,120.95,123.83,196,9.22,25.82,17.94,50.21,27.63,71.49,23.62,51.88,45.18,88.26,59.17,99.82,16.82,13.9,86.66,55.2,104.88,57.7,11.37,1.6,43.37-5.89,66.71-11.33,11.18-2.6,20.84-4.85,27.59-6.04,10.94-1.92,21.13-3.55,30.71-5.09,63.34-10.17,98.24-15.76,150.58-71.68,55.66-59.47,87.73-97.01,99.59-176.92,10.18-68.72,11.24-98.29,10.34-110.98-1.14-15.93-9.11-20.37-23.59-28.43l-1.3-.73-1.17.19c-7,4.79-14.14,10.02-21.06,15.07-13.33,9.74-27.11,19.81-41.27,27.99-41.51,23.99-89.79,50.11-137.3,56.36-46.79,6.16-104.97,4.73-163.79-4.01-33.93-5.04-73.4-25.23-111.01-46.29-45.46-25.46-104.87-61.72-129.73-89.91-12.25-13.9-20.69-29.13-28.85-43.86-3.12-5.64-6.33-11.43-9.74-17.13-5.67,1.7-11.46,3.31-17.31,4.93-26.23,7.3-53.35,14.83-73.56,31.54-6.26,5.18-23.31,19.28-29.7,34.64ZM1154.45,942.06c3.2-2,32.56-4.4,38.93-4.49,7.67-.11,14.19,2.47,21.69,2.23,3.05-2.99-6.5-68.48-4.13-81.48.9-4.91,4.93-6.42,9.41-7.09,19.94-2.98,43.48-2.71,63.79-4.28,17.05-1.32,41.91-13.57,46.2,9.53,3.93,21.18,6.62,43.24,6.42,64.74,2.08,2.07,47.93-14.06,56.95-14.33,20.86-.62,13.94,36.52,15.44,50.2,1.17,10.66,10.45,28.69,6.51,37.82-5.93,13.75-39.88,15.26-51.57,23.77-10.43,29.07,13.82,57.71-24.79,69.05-15.82,4.65-70.94,13.32-85.61,10.38-23.74-4.77-12.21-43.7-22.34-61.19-2.46-2.14-53.33,1.52-62.66-.26-3.52-.67-5.32-2.35-7.02-5.35l-11.74-83.39c.9-2.35,2.33-4.53,4.5-5.88Z"/>
      <path class="cls-1" d="M668.02,1161.44c-1.83-2.21-3.24-4.58-4.54-6.92-1.5,10.14-2.02,17.31,4.79,26.85,11.17,15.63,36.86,30.24,54.44,26.39,7.05-1.54,12.13-6.02,15.17-13.38-25.06.76-52.55-12.1-69.86-32.95Z"/>
      <path class="cls-1" d="M1211.93,351.52c-36.12,60.71-40.65,158.96-10.55,228.53,14.01,32.38,41.97,73.46,95.61,85.3,74.62,16.48,177.11,1.91,220.14-57.51,18.46-25.5,49.62-121.82,52.26-154.55,5.66-70.09-49.3-146.08-105.7-179.06-20.85-12.19-63.73-19.95-92.49-19.95-1.04,0-2.05.01-3.05.03-58.69,1.18-129.44,52.18-156.23,97.2ZM1349.24,302.95c47.56-5.22,123.98,27.14,151.21,64.21,27.62,37.58,36.34,87.73,23.94,137.57-13.49,54.19-49.32,99.93-95.85,122.36-19.55,9.42-39.87,14.15-60.3,14.15-16.65,0-33.35-3.14-49.76-9.42-42.02-16.11-78.05-52.43-96.4-97.14-18.4-44.83-11.35-103.81,18.39-153.91,26.56-44.75,66.21-73.11,108.76-77.81Z"/>
      <path class="cls-1" d="M1362.54,602.08c40.68,10.66,80.38-18.02,95.29-51.87,14.29-32.49,1.22-144.37-16.56-175.47-12.88-22.51-46.56-41.69-73.55-41.87h-.57c-47.59,0-84.08,41.08-102.4,79.65-24.13,50.8-23.07,103.79,2.71,134.98,16.89,20.42,66.4,47.08,95.1,54.58Z"/>
      <path class="cls-1" d="M264.12,807.75c9.82,4.97,19.37,10.52,28.66,15.91,9.3,5.42,18.94,11.01,28.6,15.87,61.61,30.92,121.91,63.57,173.6,91.74,4.37,2.38,8.46,5.62,12.41,8.75,4.26,3.37,8.29,6.56,12.14,8.3,12.41,5.63,39.09,12.86,56.74,17.64l8.49,2.31c34.96,9.63,71.29,17.03,106.42,24.2,19.62,4,39.89,8.13,59.75,12.61,11.18-2.63,23.26-8.37,34.97-13.93,12.91-6.13,26.25-12.47,39.06-15.02,6.22-1.25,14.64-1.71,19.4,3.15,1.57,1.59,4,5.17,2.69,11.13-2.12,9.68-18.51,19.51-38.39,30.39l14.63,7.18.7,2.52c1.95,7.04-.25,11.36-2.43,13.75-6.69,7.31-20.54,5.44-36.6,2.45-1.47-.27-2.85-.53-4.07-.74-2.11,4.91-3.71,19.03-4.77,42.07-.15,3.15-.26,5.58-.38,6.87-2.94,33.36-4.4,62.01-1.96,93.42.37,4.7,1.54,13.91,2.27,16.36,2.55,5.89,36.69,41.34,47.07,51.24,26.91,25.64,108.8,103.66,163.95,121.7,35.02,11.45,121.47,29.52,152.39,25.11,3.06-.43,5.34-1.28,7.87-2.93,7.17-4.67,35.72-36.62,40.45-45.18,8.63-25.18,18.51-50.38,28.08-74.76,15.35-39.13,31.19-79.52,42.13-120.63-1.59.33-3.18.66-4.78.99-32.24,6.71-65.58,13.64-99.3,9.09-39.21-5.31-61.42-13.01-99-34.34l-2.19-1.24c-24.17-13.7-57.28-32.47-70.71-56.87-23.72-43.11-39-90.66-53.78-136.64-12.65-39.36-25.74-80.06-43.99-117.4-45.54-93.14-106.42-98.1-196.21-75.22l-1.33.18-98.58,1.87c4.16,6.64,11.24,16.83,16.47,24.34,12.65,18.19,18.31,26.58,19.46,30.59,2.31,8.1-.04,12.56-2.41,14.87-2.35,2.28-6.8,4.5-14.69,2.06-2.61-.81-4.02-2.18-19.71-21.3-6.3-7.68-13.45-16.39-16.08-18.89-17.08-16.28-44.42-37.3-69.94-47.52-41.44-16.59-85.4-28.62-127.92-40.26-20.41-5.59-41.42-11.34-62.07-17.57.64,3.89,1.34,7.78,2.02,11.6,1.8,10.04,3.66,20.42,4.62,30.79,2.27,24.48,2.56,38.84.92,45.21-4.95,19.23-22.17,27.42-37.37,34.65-6.5,3.09-12.69,6.04-17.31,9.54Z"/>
      <path class="cls-1" d="M877.24,1628.9c-9.16,4.03-23.42,10.32-29.62,13.75,8.26,16.92,22.72,30.19,36.58,39.85-3.94-19.7-.53-40.09,3.69-58.32-3.03,1.37-6.58,2.93-10.64,4.73Z"/>
      <path class="cls-1" d="M1182.85,1431.53c-36.99,7.43-135.6,3.64-172.98-6.66-23.51-6.48-40.63-16.12-62.25-30.59-45.49-30.45-84.48-62.88-134.59-111.91l-55.39-57.35c-7.32,10.09-15.48,19.92-23.42,29.48-12.09,14.57-24.6,29.64-33.88,45.35-27.26,46.13-49.61,96.18-71.22,144.57-10.59,23.7-21.54,48.22-32.91,71.92-8.66,18.04-17.84,25.49-27.27,22.12-13.1-4.65-17.47-30.74-12.63-50.96l.23-.73c1.57-4.11,9.03-15.32,22.07-34.8,9.55-14.27,24.25-36.21,30.38-47.23-18.26,1-39.01,4.73-58.23,10.52-35.64,10.76-49.3,27.27-54.12,65.46-3.98,31.5-4.64,74.06,14.83,97.91,32.5,39.82,70.89,83.25,115.28,94.55,14.15,3.58,58.5-6.71,84.86-14.53,44.47-13.18,89.9-33.55,133.83-53.26,6.7-3,13.34-5.98,19.92-8.91,14.16-6.3,27.23-12.64,39.88-18.78,46.94-22.78,87.65-42.54,149.57-42.54,1.8,0,3.61.02,5.44.05,11.7.21,19.63,4.72,21.2,12.04,1.57,7.31-3.81,14.67-14.41,19.69-21.87,10.35-47.99,15.9-73.25,21.28-21.22,4.51-43.15,9.17-62.06,16.62-2.44.96-4.41,1.63-6.05,2.2q-4.81,1.65-7.69,9.47c-15.1,41.04,19.03,74.23,58.16,103.99,2.6,1.98,5.23,4.46,7.77,6.86,5.25,4.97,11.16,10.56,15.87,10.56.03,0,.06,0,.08,0,16.44-7.41,36.04-12.77,55.02-17.97,20.14-5.51,40.96-11.21,56.99-19.17,20.63-10.25,52.36-66.82,77.86-112.27,15.64-27.89,29.18-52.02,39.49-65.12l62.98-129.61c-2.05.85-4.1,1.7-6.16,2.55-33.3,13.8-67.73,28.07-103.21,35.2Z"/>
      <path class="cls-1" d="M945.87,1982.76c-.1-26.89-.63-53.16-3-78.5-1.99-21.34-6.32-42.88-10.51-63.7-6.06-30.14-12.33-61.25-11.85-93.09-26.19-3.22-46.22-18.37-65.46-35.93-11.04,36.08-13.47,88.64-15.62,135.16-.96,20.81-1.87,40.47-3.46,57.53l-.11.71-13.39,60.77-4.07-34.22c-9.6-80.7,9.04-163.04,24.12-229.32-.16-1.36-1.36-2.56-3.98-4.88-1.59-1.41-3.4-3.01-4.91-4.99-2.49-3.28-4.7-6.7-6.83-10.02-.9-1.38-1.78-2.76-2.67-4.09-3.42,25.39-7.37,51.81-12.93,77.55-5.35,24.79-11.3,48.22-17.06,70.88-11.78,46.36-22.9,90.15-28.41,141.99-.67,6.36-.95,12.9-1.23,19.82-.17,4.02-.34,8.1-.59,12.18,12.68-14.54,28.71-29.63,48.14-29.63.43,0,.86,0,1.3.02,18.59.64,31.5,16.45,42.89,30.4,1.81,2.2,3.57,4.37,5.31,6.41,1.78-14.12,5.6-28.56,10.57-39.27,5.05-10.86,12.32-16.87,21.63-17.88,17.83-2.06,38.53,16.71,52.12,32.1ZM889.41,1910.48l-4.95.04h-.09c-7.68,0-8.47-8.83-8.82-12.6-.06-.71-.1-1.34-.19-1.8-5.79-29.4-5.29-59.96-4.8-89.52.23-13.94.47-28.36.03-42.28l-.17-5.26,5.22-.71c2.48-.35,4.81.36,6.48,1.99,2.89,2.81,2.49,6.7,2.23,9.29-.05.47-.11.92-.11,1.28,1.43,34.96,3.9,72.05,8.01,120.23l.06.7-2.89,18.63Z"/>
      <path class="cls-1" d="M2170.16,573.12c-5.15.11-9.22.19-11.95.03-6.01-.34-11.67-.72-17.06-1.08-40.6-2.71-65.11-4.35-106.61,18.04-43.09,23.26-70.9,59.48-94.25,95.66.83.87,1.65,1.72,2.47,2.57,5.87,6.09,11.41,11.83,16.54,19.69l2.54,3.87c6.19,9.42,15.56,23.65,18.67,30.23,1.04,2.21,1.91,5.47,2.82,8.93.46,1.72,1.09,4.12,1.58,5.56,6.03,1.46,30.18,2.01,34.77.84,11.18-2.85,19.24-11.4,27.76-20.44,9.58-10.15,19.48-20.65,34.29-22.7,6.93-.96,14.67-1.6,22.88-2.28,15.61-1.29,31.74-2.63,43.8-6.27,4.75-1.43,14.15-13.09,19.6-20.2l-67.45,11.2-.76-.07c-4.98-.48-9.2-3.25-11.27-7.41-1.99-3.99-1.7-8.6.8-12.67,3.21-5.23,13.86-7.41,54.43-13.76,19.71-3.09,45.9-7.19,55.83-10.9l-1.14-15.67c-4.6.78-9.2,1.64-13.8,2.5-8.93,1.67-18.17,3.39-27.35,4.52-6.41.79-13.22,1-19.82,1.2-6.43.2-12.51.39-18.09,1.07-10.51,1.28-20.18,10.73-30.42,20.75-7.92,7.75-16.1,15.75-25.61,20.9-2.28,1.23-7.32,3.1-14.74,5.8-2.55.93-5.72,2.08-7.87,2.92-.04,1.18-.07,2.62-.09,3.9-.28,15.69-.77,41.96-16.52,42.06h-.11c-13.34,0-14.14-16.3-14.57-25.07-.09-1.92-.14-3.58-.35-4.68-.34-1.75-.96-3.84-1.62-6.08-2.45-8.35-5.51-18.74.04-25.8,3.68-4.68,10.93-6.98,17.93-9.21,3.09-.98,6-1.91,7.81-2.82,26.27-13.15,49.18-34.55,62-57.43-22.41,6.37-76.98,27.23-86.04,33.57l-1.84,1.29-2.23-.28c-9.31-1.16-11.66-6.21-12.24-9.11-1.42-7.13,5.13-14.46,11.82-18.25,18.1-10.27,84.14-36.67,105.7-36.67h.02c7.95,0,13.68,2.51,17.02,7.44,5.88,8.68,1.7,21.48-1.76,30.36,19.31-1.21,59.27-4.46,67.21-14.59,2.2-2.81,11.53-19.5,14.03-24.5.35-.7.82-1.49,1.33-2.32.33-.53.8-1.3,1.12-1.93-5.59-3.35-30.73-2.85-39.24-2.69Z"/>
      <path class="cls-1" d="M1939.68,730.76l-39.5-34.47c-12.4,3.86-25,7.55-37.24,11.14-44.55,13.06-90.61,26.57-131.7,49.24l-1.31.72h-1.49c-14.03.05-28.49-.38-42.37-.79-35.69-1.07-72.57-2.16-108.12,4.86-11.07,30.48-13.16,63.45-15.19,95.36-1.32,20.84-2.69,42.4-6.51,63.29-8.38,45.79-38.51,75.14-67.65,103.52-10.34,10.07-21.03,20.48-30.45,31.39-3.6,4.18-6.85,8.96-10.29,14.03-3.98,5.85-8.09,11.91-12.94,17.2-18.65,20.31-65.55,42.14-79.48,48.34-8.18,3.65-16.72,6.46-24.98,9.17-9.25,3.04-18.02,5.92-26.37,9.89-1.32,5.2-2.62,10.43-3.93,15.66-5.98,23.95-12.18,48.71-19.57,72.41l-1.55,4.97c-13.38,43.14-28.18,88.77-36.46,100.15-3.1,4.25-7.38,8.15-11.53,11.93-3.44,3.13-6.99,6.36-9.56,9.55-4.65,5.78-9.04,12.57-13.28,19.13-.66,1.01-1.32,2.03-1.98,3.05,91.92-17.17,151.11-52.31,185.63-109.99,32.75-54.71,67.62-127.83,106.62-223.54,2.66-6.55,5.07-13.67,7.61-21.21,7.99-23.66,17.03-50.48,37.67-66.3.3-.23,30.26-22.45,43.67-14.42,3.24,1.94,6.79,6.17,5.29,15.28-.92,5.6-8.46,15.79-24.25,36.12-1.58,2.03-3.3,4.25-5.02,6.48,4.9-2.34,9.8-4.69,14.7-7.03,46.31-22.19,94.2-45.14,144.41-61.16,7.16-2.28,16.94-4.55,27.3-6.95,15.44-3.58,32.96-7.64,41.01-11.81,6.64-3.44,15.35-11.87,23.78-20.02,5.77-5.59,11.23-10.86,16.23-14.79,8.13-6.37,16.73-12.31,25.06-18.06,9.9-6.84,20.14-13.91,29.42-21.62l.51-.38,71.85-47.45c4.87-22.68-5.51-45.44-15.56-67.48l-2.47-5.42Z"/>
      <path class="cls-1" d="M395.87,1476.6c-2.52-8.49-3.83-16.11-5.09-23.48-.14-.79-.27-1.58-.41-2.37-16.5,38.86-40.15,74.03-63.12,108.15-16.06,23.88-32.68,48.57-46.53,74.12-13.78,25.42-25.44,52.52-36.71,78.73-.79,1.85-1.59,3.69-2.38,5.53,5.67-5.48,11.7-10.77,19.06-14.31,5.46-2.62,10.91-3.94,16.18-3.94,4.11,0,8.09.8,11.88,2.39,10.26,4.33,18.4,14.15,22.92,27.63,5.88,17.52,6.69,37.41,7.48,56.66,0,.18.01.35.02.53.48-.65.97-1.32,1.46-1.98,13.69-18.55,30.31-41.06,48.63-46.79l2.03-51.51c1.74-6.76,3.4-13.54,5.06-20.31,5.41-22.06,11-44.87,19.13-66.71l17.68-39.98,10.92,4.01-51.38,173.66c1.52-.29,3.04-.5,4.59-.53.24,0,.48,0,.72,0,17.02,0,36.16,14.52,39.68,30.27l1.29,4.93c.17-1.08.34-2.17.51-3.25,3.45-22.18,7.02-45.11,9.27-67.76.76-7.61.84-16.28.92-24.66.1-9.93.19-20.19,1.37-29.45,2.98-23.45,12.26-45.23,21.23-66.31,1.07-2.51,2.13-5.01,3.19-7.51-26.37-21.87-47.97-56.48-59.61-95.74ZM362.72,1617.81c-9.03,27.1-18.37,55.13-29.17,82.19l-1.28,3.19-3.41.43c-.45.06-.89.08-1.29.08-3.21,0-5-1.63-5.82-2.69-2.58-3.34-1.07-7.16-.25-9.23.12-.32.26-.62.34-.89,8.36-39.91,24.64-81.36,40.39-121.45,3.06-7.8,6.08-15.49,8.98-23.01l.31-.66,15.76-29.39,10.5,5.05c-13.4,31.4-24.4,64.43-35.05,96.37Z"/>
      <path class="cls-1" d="M124.66,631.17c-1.12,23.6,13.23,29.16,32.62,36.66,7.68,2.97,15.62,6.04,22.77,10.58,11.77,7.46,16.61,20.27,21.3,32.67,3.13,8.28,6.09,16.1,10.91,22.28.21.19.78.63,1.43,1.15,3.71,3.01,9.31,7.57,9.11,14.05-.08,2.5-1.11,6.14-5.59,9.33-1.7,1.21-4.26,2.38-7.78,2.38-1.74,0-3.71-.28-5.93-.99-15.08-4.76-35.7-27.39-39.59-38.34-1.05-2.94-1.82-7.79-2.64-12.93-.56-3.47-1.44-9.03-2.15-11.23-2.18-1.2-8.16-3.48-12.65-5.2-7.47-2.85-15.19-5.81-19.59-8.56-10.6-6.62-17.84-14.08-22.05-22.67-1.39,1.31-3.08,2.32-5,2.86l-1.59.22H23.92c-2.39,0-5.25-1.01-9.41-2.7.32,1.09.64,2.2.97,3.32,1.92,6.61,4.83,16.6,7.84,18.59,3.87,1.99,35.59,9.3,44.32,10.88,3.33.61,8.38.8,13.26.99,7.2.27,14,.53,18.75,2,3.89,1.21,6.66,4.4,7.42,8.53.91,4.95-1.19,10.54-5.09,13.58-8.33,6.48-29.77,2.26-61.54-4.93-5.46-1.24-10.47-2.37-14.38-3.14.54,4.86,4.94,7.11,15.47,11l2.47.92c6.85,2.57,14.09,4.16,21.76,5.84,9.1,1.99,18.51,4.05,27.19,7.92,4.67,2.08,8.86,4.86,12.91,7.54,3.76,2.49,7.32,4.85,11.19,6.66l3.32,1.55c23.54,11.06,85.91,40.36,108.12,40.36h.25c9.29-.1,40.52-18.01,44.55-25.56,1.38-2.93,8.19-28.41,8.75-32.78,1.93-15.13.56-37.52-9.67-50.81-7.84-10.2-25.37-25.28-44.74-39.64-.05,2.38-.68,4.8-1.94,7.03-2.44,4.33-6.74,7.1-11.04,6.85-1.78-.02-2.75-.41-13.08-5.19-4.91-2.27-11.63-5.38-13.82-6.08-9.36-2.98-49.62-13.26-63.09-15.02Z"/>
      <path class="cls-1" d="M551.99,1388.76c5.51-1.45,10.82-2.83,16.05-4.4-3.19-2-6.43-4.24-9.75-6.54-9.72-6.72-19.76-13.67-27.88-13.67-.1,0-.2,0-.3,0-37.41.8-68.5,13.5-85.31,34.84-13.88,17.61-17.92,40.22-12.03,67.18,1.56,7.08,14.12,31.56,22.02,43.17.22-23.77,2.76-53.12,11.93-76.31,5.6-14.17,30.51-25.54,54.14-34.78,10.5-4.1,20.99-6.85,31.13-9.5Z"/>
      <path class="cls-1" d="M64.54,599.2c-19.72,1.46-39.12,7.82-57.88,13.98-2.23.73-4.44,1.46-6.66,2.18,7.88,22.39,30.36,23.19,62.85,21.7,12.51-.58,24.33-1.1,34.41.84.83.16,1.63.38,2.39.64-1-11.61,0-25.23,7.85-30.18,16.12-10.15,83.75,11.98,84.41,12.2.08.03,1.93.69,4.72,1.75-13.1-8.23-25.17-14.77-33.72-17.81-16.64-5.92-75.36-7.01-98.38-5.3Z"/>
    </g>
  </g>
</svg>