<?xml version="1.0" encoding="UTF-8"?>
<svg id="Camada_2" data-name="Camada 2" xmlns="http://www.w3.org/2000/svg" viewBox="0 0 2166.16 2011.95">
  <defs>
    <style>
      .cls-1 {
        fill: #232429;
      }
    </style>
  </defs>
  <g id="Camada_1-2" data-name="Camada 1">
    <g>
      <path class="cls-1" d="M1081.27,536.07c25.43,100.56,93.32,162.96,186.29,171.2,17.18,1.52,35.05,2.59,53.06,2.59,77.04,0,156.51-19.56,194.28-106.86,22.79-52.68,67.92-184.02-5.02-265.72-22.19-24.85-92.75-76.21-125.85-84.95-24.51-6.48-85.69-10.31-110.25-8.1-51.42,4.59-112.49,40.44-139.03,81.63-30.78,47.79-70.43,143.2-53.49,210.21ZM1331.24,283.54c.94-.02,1.89-.03,2.87-.03,27.12,0,67.57,7.32,87.24,18.81,53.19,31.1,105.03,102.78,99.69,168.88-2.49,30.87-31.88,121.72-49.29,145.77-40.59,56.05-137.25,69.78-207.63,54.24-50.6-11.17-76.97-49.91-90.18-80.45-28.4-65.62-24.12-158.28,9.95-215.54,25.27-42.46,92-90.56,147.35-91.68ZM1118.82,426.11c19.93-57.12,57.96-102.3,105.78-128.56-45.12,30.68-76.35,78.89-89,138.25-15.76,74.01,1.07,153.94,43.96,210.6-32.69-21.91-54.24-53.14-66.81-96.2-14.12-48.4-8.15-83.36,6.06-124.08Z"/>
      <path class="cls-1" d="M874.82,1713.95c0-.34.05-.77.1-1.21.25-2.44.63-6.11-2.1-8.76-1.57-1.53-3.77-2.21-6.11-1.87l-4.92.67.16,4.96c.42,13.13.19,26.73-.03,39.87-.46,27.88-.94,56.7,4.53,84.43.09.44.12,1.03.18,1.7.32,3.56,1.07,11.89,8.31,11.89h.09l4.67-.04,2.72-17.57-.06-.66c-3.88-45.44-6.21-80.43-7.56-113.4Z"/>
      <path class="cls-1" d="M391.23,1501.61l-.29.62c-2.73,7.1-5.58,14.35-8.47,21.7-14.85,37.81-30.21,76.91-38.09,114.55-.07.26-.2.54-.32.84-.77,1.94-2.2,5.55.24,8.7.77,1,2.46,2.54,5.49,2.54.38,0,.79-.03,1.22-.08l3.22-.41,1.2-3.01c10.18-25.53,18.99-51.96,27.51-77.52,10.04-30.13,20.42-61.28,33.06-90.9l-9.9-4.76-14.87,27.71Z"/>
      <path class="cls-1" d="M863.08,316.24c-21.76-.06-37.73,15.16-46.24,44.19-13.09,44.59-12.49,133.46,18.24,171.23,9.38,11.54,18.74,14.09,25.19,14.09.27,0,.54,0,.79-.01,9.44-.31,18.31-5.94,25.65-16.28,20.22-28.48,27.79-110.76,21.64-145.38-3.12-17.55-18.12-67.68-45.28-67.83ZM869.89,502.1c-4.93,13.8-8.59,14.33-8.64,14.33-1.97-.06-9.56-7.05-18.31-37.35-11.2-38.81-12.3-73.28-3.38-105.38,3.27-11.76,9.82-25.24,16.48-27.08.3-.08.77-.21,1.45-.21,1.49,0,3.93.65,7.36,3.94,6.71,6.42,15.13,41.95,16.1,55.35,1.81,25.15-2.63,72.73-11.06,96.38Z"/>
      <path class="cls-1" d="M1193.48,547.97c17.3,42.17,51.29,76.43,90.92,91.62,15.47,5.93,31.23,8.89,46.93,8.89,19.26,0,38.44-4.46,56.87-13.34,43.88-21.15,77.68-64.29,90.4-115.4,11.7-47.01,3.47-94.31-22.58-129.75-25.68-34.97-97.76-65.49-142.61-60.56-40.14,4.44-77.53,31.18-102.58,73.39-28.05,47.25-34.7,102.87-17.34,145.16ZM1233.69,432.76c17.28-36.38,51.7-75.12,96.58-75.12h.54c25.46.18,57.23,18.27,69.37,39.49,16.77,29.33,29.1,134.85,15.62,165.49-14.06,31.93-51.5,58.97-89.87,48.92-27.07-7.08-73.77-32.23-89.69-51.48-24.32-29.42-25.32-79.39-2.56-127.31Z"/>
      <path class="cls-1" d="M1143.13,1021.45c8.8,1.68,56.78-1.78,59.1.24,9.55,16.49-1.32,53.21,21.07,57.71,13.84,2.78,65.83-5.4,80.75-9.79,36.41-10.7,13.54-37.71,23.38-65.13,11.02-8.03,43.05-9.46,48.64-22.42,3.72-8.62-5.04-25.62-6.14-35.67-1.42-12.9,5.11-47.92-14.57-47.34-8.51.25-51.75,15.47-53.71,13.51.19-20.28-2.35-41.09-6.06-61.06-4.04-21.79-27.49-10.23-43.57-8.99-19.16,1.48-41.35,1.23-60.16,4.03-4.23.63-8.03,2.05-8.88,6.68-2.24,12.26,6.77,74.03,3.89,76.84-7.08.22-13.22-2.2-20.46-2.1-6.01.08-33.71,2.35-36.72,4.24-2.04,1.28-3.39,3.33-4.24,5.55l11.07,78.65c1.61,2.83,3.31,4.42,6.62,5.05ZM1191.83,951.38c6.26,0,14.56,4.47,18.55-.71,4.54-6.81-.09-14.38-.25-21.49-.41-18.48.48-37.06.07-55.53,8.61-.5,17.68.74,26.24-.02,7.15-.64,30.17-7.65,34.16-4.94,1.34.91,6.63,17.04,7.23,20.02,2.11,10.31,1.03,40.51,6.31,46.22.95,1.03,2.56,1.55,3.84,2.15l61.13-10.91c1.07.1,3.1,4.58,3.1,4.86v43.77c-9.74,1.32-17.96,7.59-27.28,10.65-5.3,1.74-20.06,2.65-22.85,5.36-8.48,8.22-2.81,49.12-2.63,61.56l-60.03,9.98c-2.75-1.99-6.6-54.2-17.41-65.3-9.65-9.91-55.71,5.11-70.13,3.01l-5.82-44.67c15.07-1.5,30.53-4,45.77-4.02Z"/>
      <path class="cls-1" d="M2166.16,581.87l-.27-2.42-.13-.6c-5.82-25.82-31.86-29.04-47.42-30.96l-3.67-.46c-18.51-2.47-40.77-3.67-56.17-4.24l-5.84-.23c-12.72-.49-31.94-1.23-49.36-1.23s-29.79.75-37.38,2.28c-18.83,3.82-78.4,54.38-88.52,67.6-6.3,8.23-10.25,15.33-13.73,21.61-4.83,8.68-8.64,15.54-17.97,24.22-.27.25-.54.52-.79.78-4.65-2.46-10.05-4.7-15.72-4.95l-1.14-.03c-6.04,0-13.82,1.99-21.92,4.19l-2.06.56c-37.63,10.04-69.67,23.6-103.71,37.99-8.18,3.46-16.43,6.95-24.86,10.43-26.17,10.8-40.94,12.91-57.6,12.91-7.16,0-14.95-.41-23.97-.88-6.7-.35-14.02-.73-22.21-1-1.34-.05-2.75-.08-4.2-.08-4.53,0-9.58.24-14.86.49l.52,10.98-1.34-10.95c-5.25.24-10.58.49-15.38.49-3.3,0-5.99-.12-8.01-.37-2.4-1.72-7.31-6.02-9.58-7.99-3.35-2.91-6.75-5.87-10.17-8.61.1-.08.2-.16.3-.24,0,0,74.88-83.63,88.56-136.53,13.68-52.9,10.47-193.19,0-261.94-3.7-24.27-26.73-68.87-54.98-116.41.9,5.59,1.7,11.14,2.66,16.76l-.06-.08c-.96-5.63-1.77-11.18-2.66-16.78-6.11-10.29-12.46-20.7-18.92-31.09-53.9-66.34-127.18-115.28-209.56-139.22-36.3-10.55-73.49-15.9-110.53-15.9-59.97,0-119.46,14.37-172.02,41.55-103,53.27-149.41,111.69-199.02,200.85-2.21,3.97-3.93,8.64-5.77,13.61-.92,2.5-2.52,6.86-3.49,8.82-.67.43-1.46.88-2.13,1.28-3.01,1.8-6.76,4.03-10.01,7.3-25.48,25.68-45.64,81.32-51.81,112.62-9.04,45.82-4.84,92.93,12.1,137.08-33.25,12.7-47.81,60.25-56.1,87.29l-.54,1.78c-3.02,9.86-5.2,21.7-7.35,33.39-2.22,12.06-4.51,24.54-7.28,31.53-1.06,2.29-6.99,10.31-10.25,14.73-4.54,6.14-9.68,13.09-12.62,18.29-.68,1.2-1.26,2.39-1.78,3.55l-96.94,1.76c-50.51-24.13-104.33-37.95-156.42-51.32-21.73-5.57-44.19-11.33-66.24-17.84-2.62-.77-5.68-2.02-8.95-3.37-7.78-3.19-17.46-7.15-28.3-7.15-3.62,0-7.14.45-10.55,1.35-8.84-6.61-17.75-13.92-26.5-21.09-36.69-30.1-74.64-61.24-126.91-61.24l-2.38.02c-13.65.26-25.81,3.7-36.59,6.75-6.64,1.88-12.92,3.66-18.65,4.41-6.21.82-12.03,1.22-18,1.63-20.78,1.42-40.41,2.76-64.29,23.18-20.3,17.38-17.11,49.05-5.56,71.12,7.05,13.47,8.32,16.35,13.54,30.84,1.39,3.87,3.49,7.52,5.35,10.76.66,1.15,1.82,3.17,2.33,4.23-.02.84-.39,2.64-.66,4-1.4,6.97-4.7,23.29,13.24,35.58,10.96,7.51,25.06,12.14,38.88,16.7,6.73,2.21,13.09,4.31,17.95,6.43,10.23,4.48,20.66,9.82,31.7,15.48,16.63,8.51,33.82,17.32,51.65,23.79,10.31,3.73,22.97,6.51,35.32,9.23,14.56,3.2,29.62,6.52,38.81,10.98,1.41.68,4.45,3.07,6.68,4.82,3.39,2.66,7.24,5.67,11.42,8.01,40.66,22.73,81.42,46.84,121.13,70.32l3.3,1.95c19.41,11.48,38.83,22.96,58.34,34.34,3.78,2.2,7.89,4.72,12.34,7.44,13.65,8.36,29.12,17.83,42.75,22.81,15.66,5.71,33.26,8.36,50.28,10.92,13.28,2,27,4.07,38.62,7.52,7.09,2.11,14.19,5.25,21.73,8.6,3.38,1.5,7,3.11,10.77,4.67-5.88,20.83-8.97,41.57-11.98,61.74-1.01,6.79-2.03,13.62-3.15,20.47-1.06,6.48-2.48,12.64-3.9,18.86-3.54,15.39-7.2,31.31-4.98,52.16,4.56,42.83,22.93,70.44,54.68,82.29-10.79,14.62-19.26,31.31-26.95,46.48l-1.34,2.63c-1.41,2.76-3.8,8.44-7.58,17.5-1.65,3.96-4.4,10.55-6.77,16-5.38-2.75-17.79-9.75-45.05-27.4-4.11-2.67-8.79-6.37-13.87-10.39-14.75-11.68-33.11-26.21-54.38-26.21-6.19,0-12.26,1.26-18.46,3.94l-85.13,41-2.74,1.88-.6.56c-10.73,10.03-16.52,31.03-23.22,55.38-3.63,13.18-7.75,28.12-11.35,34.51-7.04,12.45-19.41,27.72-31.37,42.5-10.2,12.6-20.75,25.64-28.8,37.83-37.46,56.77-71.95,147.95-94.3,214.45l-.19.56c-6.37,18.95-14.29,42.54,1.36,53.61,3.45,2.44,7.54,3.73,11.83,3.73,8.94,0,17.11-5.51,23.21-10.3,4.24-3.32,9.64-8.68,16.02-15.02,11.33-11.25,19.58-18.83,24.65-22.66,2.06,9.81,3.65,29.63,4.49,40.24,1.17,14.68,2.28,28.55,4.32,37.49,1.92,8.41,7.03,30.74,25.63,32.72.68.06,1.36.09,2.03.09,18.6,0,28.49-21.24,38.97-43.73,2.22-4.77,4.51-9.71,6.01-12.24,9.73-16.46,15.7-23.49,18.84-26.45,1.35,2.42,3.28,6.77,5.34,14.27,3.6,13.06,4.24,26.54,4.91,40.81.37,7.74.78,16.51,1.78,25.26.74,6.43,2.69,23.53,17.04,28.7,2.35.85,4.81,1.27,7.32,1.27,9.82,0,17.76-6.42,23.58-12.02,16.44-15.78,39.42-96.52,41.97-109.89,4.97-26.08,4.82-52.41,4.68-77.9-.13-25.02-.26-48.99,4.21-71.59,6.91,8.56,14.21,16.73,22.46,24.15,18,16.23,78.54,58.32,106.73,64.06,5.8,1.18,12.3,1.51,18.58,1.83,4.23.22,8.61.45,11.99.92,4.44.63,8.41,1.46,12.28,2.26,6.48,1.35,13.19,2.74,20.77,2.74,8.65,0,17.04-1.77,26.39-5.57l.44-.18,48.88-25c-.47,2.09-.94,4.17-1.4,6.26-1.67,7.48-3.4,15.21-5.51,22.4-3.96,13.49-8.59,27.2-13.07,40.47-10.59,31.33-21.54,63.72-25.63,98.36-9.36,79.23-11.89,135.29-7.53,166.6l.23,1.68c1.24,9.11,2.79,20.45,10.51,30.21l4.95,6.27h15.81l3.58-1.85c9.69-5.04,20.14-17.02,33.39-32.23,5.98-6.85,19.04-21.83,25.56-26.91,3.1,2.08,8.8,6.74,16.78,15.66.67.79,1.97,2.62,3.39,4.59l.38.52c13.61,18.85,23.49,31.21,36.41,31.21,3.87,0,7.64-1.23,10.89-3.53,6.05-4.25,8.63-10.39,19.27-40.29,1.33-3.73,3.11-8.74,4.69-13.06,3.31,3.51,8.01,9.31,14.25,18.8,1.24,1.9,2.7,4.6,4.18,7.33,5.62,10.39,12.62,23.31,26.45,23.31.76,0,1.53-.04,2.22-.12,15.89-1.66,21.21-19.71,23.48-27.42,13.68-46.41,16.34-121.49,5.83-163.97-2.15-8.7-7.62-23.62-13.4-39.41-5.27-14.39-15.08-41.17-15.47-46.59v-8.14c3.09,1.71,6.4,3.31,9.96,4.63,7.88,2.93,16.5,5.65,26.21,5.65l1.59-.02c22.96-.82,83.45-17.41,104.21-26.22,7.78-3.3,48.54-27.11,55.73-34.06,7.8-7.54,21.06-28.51,42.8-64.57l1.26-2.09c2.18-3.61,4.03-6.68,5.44-8.95,24.74-40.11,45.43-81.14,65.45-120.81,9.35-18.52,19.01-37.68,29.15-56.86l.37-.68c30.04-56.85,42.94-74.39,48.46-79.09,1-.81,4.72-2.74,7.03-3.95,4.94-2.57,10.03-5.23,14.48-8.72,39.57-31.13,60.76-90.11,79.47-142.18,6.78-18.87,13.19-36.7,19.93-51.73,7.78-17.39,24.97-52.03,28.68-56.65,3.98-4.16,34.85-24.53,44.04-29.06,37.31-18.39,75.32-29.3,115.57-40.87,17.5-5.02,35.59-10.22,53.58-16.08,40.4-13.15,51.09-23.06,68.89-39.56,5.79-5.37,12.35-11.45,21.29-18.88,14.12-11.75,29.86-22.63,45.09-33.17,12.12-8.38,24.66-17.05,36.65-26.32,12.43-9.62,34.57-27.19,43.19-36.87,6.84-7.68,8.58-16.07,8.44-23.56,6.39.85,12.89,1.32,18.99,1.32,15.3,0,27.08-2.79,35-8.28,6.22-4.3,12.35-11.31,18.84-18.73,3.96-4.54,11.34-12.98,13.91-14.41,6.18-2.75,14.84-3.12,22.49-3.12,2.8,0,5.67.05,8.58.11,3.06.05,6.14.11,9.22.11h0c12.77,0,27.63-.92,41.09-7.74,12.18-6.17,20.56-18.63,28.67-30.67,4.45-6.62,9.06-13.46,12.54-16.51.69-.43,1.58-.75,2.56-1.17,2.64-1.12,6.26-2.66,9.64-5.44,19.2-15.65,9.34-40.47,4.02-53.85-.74-1.87-1.46-3.68-2.06-5.31l15.55-40.46v-13.14ZM1848.8,671.08c1.41-2.05,2.88-4.18,4.39-5.58,10.61-9.88,15.01-17.79,20.1-26.95,3.46-6.24,7.05-12.68,12.85-20.26,9.66-12.62,66.96-60.45,81.97-63.5,3.2-.65,7.34-1.11,12.12-1.43-4.76.32-8.9.79-12.08,1.43-15.01,3.05-72.31,50.88-81.97,63.5-5.8,7.58-9.38,14.02-12.85,20.26-5.09,9.16-9.49,17.06-20.1,26.95-1.51,1.4-2.98,3.53-4.39,5.58-.31.44-.67.97-1.03,1.48,0,0-.02-.01-.03-.02.35-.5.71-1.02,1.01-1.46ZM1679.7,716.59c8.47-3.5,16.75-7,24.95-10.47,33.6-14.21,65.33-27.64,102.26-37.49l2.11-.57c5.84-1.59,11.46-3.04,15.83-3.58-4.37.54-9.97,1.99-15.79,3.58l-2.11.57c-36.93,9.85-68.66,23.28-102.26,37.49-8.2,3.47-16.48,6.97-24.95,10.47-21.02,8.68-35.4,12.2-49.77,13.31,14.36-1.12,28.73-4.64,49.73-13.31ZM1414.17,115.22c86.36,68.73,110.84,111.22,145.09,212.35,31.07,91.73,16.3,200.71-39.52,291.51-54.5,88.66-139.03,147.12-231.9,160.38-141.39,20.21-263.43-16.83-362.72-110.03-26.33-24.71-45.23-47.44-51.3-76.7,5.86-.83,12.26-1.45,18.93-2.1,15.16-1.47,30.83-3,43.2-7.23,4.83-1.65,6.88-3.27,10.12-6.31,10.69-10.05,36.35-53.24,42.27-66.9,33.35-76.94,15.71-195.87-57.81-239.87l-1.18-.7-57.63-2.94c1.74-8.95,6.26-16.58,11.35-25.19l1.57-2.65c38.95-66.31,133.11-146.73,201.5-172.11,115.75-42.95,235.31-25.27,328.03,48.52ZM936.97,317.17c-5.11-9.26-10.58-16.98-16.52-23.3,9.09,3.68,18.17,12.79,25.15,21.24,55.55,67.27,38.21,173.57-9.71,233.47-8.74,10.93-15.31,13.65-26.08,15.27,11.39-12.82,22.24-26.5,28.59-43.32,21.64-57.3,27.24-151.34-1.44-203.36ZM922.18,369.45c14.26,54.12,4.71,168.56-53.71,193.14-7.71,3.24-15.13,3.3-22.69.15-17.77-7.4-32.82-31.66-40.98-51.9-24.02-59.55-16.81-135.76,17.97-189.64l.4-.62c5.63-8.73,14.14-21.93,24.03-23.97,50.43-10.47,71.3,58.85,74.99,72.83ZM809.14,565.74c4.21,6.57,10.65,12.68,15.37,16.24,4.02,3.03,8.35,4.9,12.18,6.56,6.04,2.62,8.79,4.1,9.75,6.66-28.01,6.54-55.59,16.76-78.1,28.86.45-1.77.88-3.54,1.31-5.3,6.34-25.82,12.34-50.26,39.49-53.02ZM772.42,665.3c19.06-15.76,44.64-22.87,69.38-29.75,5.52-1.53,10.98-3.05,16.33-4.65,3.22,5.38,6.25,10.84,9.19,16.16,7.7,13.89,15.66,28.26,27.22,41.37,23.45,26.59,79.48,60.79,122.36,84.8,35.47,19.87,72.7,38.91,104.7,43.66,55.48,8.24,110.35,9.59,154.48,3.78,44.81-5.89,90.34-30.53,129.5-53.16,13.35-7.71,26.35-17.21,38.92-26.4,6.53-4.76,13.26-9.69,19.86-14.21l1.1-.18,1.22.69c13.66,7.6,21.18,11.78,22.25,26.81.85,11.97-.15,39.85-9.75,104.67-11.18,75.37-41.43,110.77-93.93,166.86-49.37,52.74-82.28,58.02-142.02,67.61-9.04,1.45-18.65,2.99-28.97,4.8-6.37,1.12-15.47,3.24-26.02,5.7-22.02,5.13-52.2,12.2-62.92,10.69-17.18-2.35-83.05-41.31-98.91-54.42-13.19-10.9-33.53-45.22-55.81-94.15-9.14-20.07-17.36-43.08-26.06-67.43-25.3-70.79-53.97-151.02-116.79-184.86-17.42-9.38-41.5-17.38-65.34-17.38-6.05,0-12.09.51-18,1.65,6.03-14.48,22.11-27.78,28.02-32.67ZM683.21,724.53c.92-2.93,1.88-5.95,3.6-8.99,2.57-4.53,7.3-10.96,11.89-17.16,4.62-6.26,10.37-14.05,11.57-17.07,3.24-8.16,5.63-21.22,7.95-33.84,2.06-11.19,4.18-22.76,7.03-32.05l.55-1.79c8.82-28.81,24.66-80.47,60.73-82.62-20.24-45.61-25.94-94.79-16.47-142.83,5.74-29.08,25.22-83.2,48.83-107,2.27-2.29,5.24-4.06,7.85-5.62,1.78-1.06,4.22-2.51,4.85-3.35,1.68-2.23,3.67-7.62,5.43-12.39,1.68-4.55,3.27-8.85,5.06-12.06,48.57-87.28,93.93-144.43,194.46-196.43,46.98-24.29,98.37-37.72,150.98-39.98-52.59,2.27-103.97,15.69-150.93,39.97-100.53,51.99-145.9,109.15-194.46,196.43-1.79,3.22-3.38,7.51-5.06,12.06-1.76,4.76-3.75,10.16-5.43,12.39-.63.84-3.07,2.29-4.86,3.35-2.61,1.56-5.58,3.32-7.85,5.62-23.61,23.79-43.09,77.91-48.83,107-9.48,48.04-3.77,97.22,16.47,142.83-36.07,2.15-51.91,53.81-60.73,82.62l-.55,1.79c-2.85,9.29-4.97,20.86-7.03,32.05-2.32,12.62-4.72,25.68-7.95,33.84-1.2,3.03-6.95,10.81-11.57,17.07-4.59,6.2-9.32,12.63-11.89,17.16-1.72,3.04-2.68,6.06-3.6,8.99,0,0,0,0,0,0h-.04s0,0,0,0ZM341.52,763.85c1.55-6,1.27-19.55-.87-42.64-.91-9.79-2.66-19.57-4.36-29.04-.64-3.6-1.3-7.27-1.91-10.94,19.48,5.88,39.29,11.3,58.54,16.57,40.1,10.97,81.57,22.32,120.65,37.97,24.07,9.64,49.85,29.47,65.96,44.82,2.48,2.36,9.22,10.57,15.16,17.82,14.79,18.04,16.12,19.33,18.58,20.09,7.44,2.31,11.64.22,13.86-1.94,2.23-2.19,4.45-6.39,2.27-14.03-1.08-3.78-6.42-11.69-18.35-28.85-4.93-7.08-11.61-16.69-15.53-22.96l92.97-1.77,1.26-.17c84.69-21.59,142.11-16.91,185.06,70.94,17.22,35.22,29.56,73.61,41.49,110.73,13.94,43.37,28.35,88.21,50.72,128.87,12.67,23.02,43.89,40.72,66.69,53.64l2.06,1.17c35.44,20.11,56.39,27.38,93.37,32.39,31.81,4.29,63.25-2.25,93.66-8.58,1.5-.31,3.01-.62,4.51-.93-10.31,38.78-25.25,76.87-39.74,113.78-9.02,22.99-18.34,46.76-26.48,70.51-4.46,8.08-31.39,38.21-38.15,42.61-2.39,1.56-4.53,2.36-7.42,2.77-29.17,4.16-110.7-12.89-143.73-23.69-52.01-17.02-129.25-90.61-154.63-114.79-9.8-9.33-41.99-42.78-44.4-48.33-.69-2.3-1.79-10.99-2.14-15.43-2.3-29.62-.92-56.64,1.85-88.11.11-1.22.21-3.51.35-6.48.99-21.73,2.51-35.05,4.49-39.68,1.15.2,2.45.44,3.84.7,15.14,2.82,28.2,4.59,34.51-2.31,2.06-2.25,4.14-6.32,2.29-12.97l-.66-2.38-13.8-6.77c18.75-10.26,34.2-19.53,36.21-28.66,1.24-5.62-1.06-8.99-2.53-10.5-4.49-4.59-12.44-4.16-18.3-2.98-12.08,2.41-24.67,8.38-36.84,14.17-11.04,5.25-22.44,10.66-32.98,13.14-18.74-4.23-37.85-8.13-56.35-11.9-33.13-6.76-67.39-13.74-100.37-22.82l-8-2.18c-16.65-4.51-41.81-11.33-53.52-16.64-3.63-1.64-7.43-4.65-11.45-7.83-3.73-2.95-7.58-6-11.7-8.25-48.75-26.57-105.63-57.36-163.74-86.53-9.11-4.58-18.2-9.86-26.97-14.96-8.75-5.09-17.76-10.32-27.03-15.01,4.36-3.3,10.2-6.08,16.33-9,14.33-6.82,30.57-14.55,35.24-32.68ZM710.28,1127.3c-18.65-14.52-34.63-40.1-34.19-54.74.25-8.51,2.74-18.19,5.37-28.43,2.12-8.27,4.3-16.75,5.31-24.91l55.5,12.89-3.3,106.44c-8.28.7-18.31-3.18-28.68-11.25ZM736.79,1170.19c-2.87,6.93-7.66,11.17-14.3,12.62-16.58,3.63-40.81-10.15-51.34-24.9-6.42-9-5.94-15.76-4.52-25.32,1.22,2.21,2.55,4.44,4.28,6.53,16.33,19.66,42.25,31.79,65.89,31.08ZM315.97,646.88c-3.21.27-6.46,1.05-9.72,2.52,0,0,0,0-.01,0,3.26-1.48,6.52-2.25,9.73-2.52ZM243.3,663.77c4.05.24,8.12-2.37,10.41-6.46,1.19-2.11,1.78-4.39,1.83-6.63,18.28,13.55,34.81,27.77,42.2,37.39,9.65,12.54,10.94,33.66,9.12,47.93-.53,4.12-6.96,28.16-8.26,30.92-3.8,7.12-33.26,24.02-42.02,24.11h-.24c-20.95,0-79.78-27.64-101.98-38.07l-3.13-1.47c-3.65-1.71-7-3.93-10.55-6.28-3.82-2.53-7.77-5.15-12.18-7.11-8.18-3.65-17.06-5.6-25.64-7.47-7.24-1.58-14.07-3.08-20.52-5.51l-2.33-.87c-9.93-3.67-14.08-5.8-14.59-10.38,3.69.73,8.41,1.79,13.56,2.96,29.97,6.78,50.19,10.76,58.05,4.65,3.68-2.87,5.65-8.13,4.8-12.8-.71-3.9-3.33-6.91-7-8.05-4.48-1.39-10.9-1.63-17.69-1.89-4.6-.17-9.37-.35-12.5-.93-8.23-1.49-38.15-8.38-41.8-10.26-2.84-1.87-5.58-11.3-7.39-17.53-.31-1.06-.61-2.11-.92-3.13,3.92,1.6,6.62,2.55,8.87,2.55h70.08l1.5-.21c1.82-.52,3.41-1.47,4.72-2.7,3.97,8.09,10.8,15.13,20.8,21.38,4.15,2.59,11.44,5.38,18.48,8.07,4.23,1.62,9.87,3.78,11.93,4.9.67,2.08,1.5,7.32,2.03,10.59.77,4.84,1.5,9.42,2.49,12.19,3.67,10.33,23.12,31.68,37.34,36.16,2.1.66,3.96.93,5.6.93,3.32,0,5.74-1.1,7.34-2.24,4.22-3.01,5.2-6.45,5.27-8.8.19-6.11-5.09-10.41-8.59-13.25-.61-.49-1.14-.9-1.34-1.09-4.55-5.83-7.34-13.21-10.29-21.02-4.43-11.69-9-23.77-20.09-30.81-6.75-4.28-14.23-7.18-21.47-9.98-18.28-7.08-31.81-12.32-30.76-34.58,12.7,1.66,50.67,11.35,59.5,14.16,2.07.66,8.41,3.59,13.04,5.73,9.74,4.51,10.66,4.87,12.34,4.89ZM194.5,613.83c8.07,2.87,19.45,9.03,31.81,16.79-2.63-.99-4.38-1.62-4.45-1.65-.63-.21-64.42-21.08-79.62-11.51-7.41,4.67-8.35,17.52-7.41,28.47-.72-.25-1.47-.46-2.26-.61-9.51-1.84-20.66-1.34-32.46-.8-30.64,1.41-51.84.65-59.28-20.46,2.09-.68,4.18-1.37,6.28-2.06,17.69-5.8,35.99-11.81,54.59-13.18,21.71-1.61,77.09-.58,92.79,5ZM639.6,1317.7c3.2-7.65,5.96-14.25,7.23-16.75l1.34-2.63c9.98-19.69,21.15-41.68,36.65-57.58-37.71-6.66-58.42-32.01-63.24-77.34-2.03-19.03,1.27-33.38,4.76-48.57,1.42-6.2,2.9-12.61,4.03-19.51,1.13-6.92,2.16-13.79,3.18-20.64,3.43-22.96,6.96-46.65,14.61-69.96-6.82-2.35-13.41-5.27-19.82-8.12-7.86-3.49-15.29-6.78-23.06-9.09-12.32-3.66-26.45-5.8-40.11-7.85-16.49-2.48-33.55-5.05-48.15-10.38-12.62-4.61-27.62-13.8-40.85-21.9-4.39-2.69-8.6-5.26-12.47-7.52-20.6-12.01-41.09-24.14-61.58-36.25-39.56-23.4-80.47-47.6-121.36-70.46-3.42-1.91-6.76-4.53-10-7.07-3.05-2.39-6.19-4.86-8.66-6.06-10.37-5.04-26.08-8.49-41.28-11.83-11.92-2.62-24.25-5.33-33.9-8.82-17.17-6.23-34.05-14.87-50.38-23.24-11.2-5.74-21.79-11.16-32.31-15.76-5.37-2.35-12.01-4.53-19.05-6.85-12.92-4.25-26.29-8.65-35.99-15.29-11.93-8.17-10.05-17.51-8.67-24.33.67-3.3,1.24-6.16.58-8.92-.36-1.52-2.04-4.43-3.51-6.99-1.71-2.97-3.47-6.04-4.53-8.98-5.39-14.95-6.84-18.26-14.14-32.22-9.6-18.33-12.76-44.19,2.96-57.66,21.1-18.05,38.15-19.21,57.88-20.56,5.9-.41,12-.82,18.69-1.7,6.53-.86,13.2-2.75,20.26-4.75,10.58-2.99,21.53-6.09,33.76-6.32h0c-12.22.24-23.15,3.32-33.72,6.31-7.06,2-13.73,3.89-20.26,4.75-6.69.88-12.79,1.29-18.69,1.7-19.74,1.35-36.78,2.51-57.88,20.56-15.73,13.47-12.56,39.33-2.96,57.66,7.3,13.96,8.75,17.27,14.14,32.22,1.06,2.94,2.82,6.01,4.53,8.98,1.47,2.56,3.14,5.47,3.51,6.99.66,2.77.09,5.62-.58,8.92-1.38,6.82-3.26,16.16,8.67,24.33,9.69,6.64,23.06,11.03,35.99,15.29,7.04,2.32,13.68,4.5,19.05,6.85,10.52,4.61,21.1,10.03,32.31,15.76,16.33,8.36,33.21,17.01,50.38,23.24,9.65,3.5,21.98,6.2,33.9,8.82,15.19,3.34,30.91,6.79,41.28,11.83,2.46,1.2,5.61,3.67,8.66,6.06,3.23,2.54,6.58,5.16,10,7.07,40.88,22.85,81.8,47.06,121.36,70.46,20.49,12.12,40.98,24.25,61.58,36.25,3.87,2.26,8.08,4.83,12.47,7.52,13.23,8.1,28.23,17.29,40.85,21.9,14.59,5.32,31.65,7.9,48.15,10.38,13.66,2.06,27.79,4.19,40.11,7.85,7.78,2.31,15.2,5.6,23.06,9.09,6.41,2.85,13,5.76,19.82,8.12-7.65,23.32-11.18,47-14.61,69.96-1.02,6.84-2.05,13.72-3.18,20.64-1.13,6.9-2.61,13.31-4.03,19.51-3.49,15.19-6.79,29.54-4.76,48.57,4.82,45.34,25.53,70.68,63.24,77.34-15.51,15.9-26.67,37.9-36.65,57.58l-1.34,2.63c-1.27,2.5-4.03,9.1-7.23,16.75-3.29,7.87-8.54,20.43-10.78,24.79-.01,0-.03,0-.04,0,2.24-4.37,7.49-16.92,10.78-24.79ZM223.88,1701.03l-.19.56c-7.58,22.56-10.25,35.79-2.72,41.12,1.62,1.15,3.38,1.66,5.21,1.71-1.85-.04-3.62-.55-5.26-1.71-7.54-5.33-4.86-18.56,2.72-41.12l.19-.56c22.14-65.89,56.26-156.14,93.05-211.9,7.76-11.75,18.14-24.58,28.18-36.98,12.25-15.12,24.91-30.77,32.39-43.99,4.28-7.58,8.4-22.54,12.39-37.02,5.99-21.77,11.65-42.35,20.12-50.25l1.37-.94,84.37-40.64c4.23-1.82,8.42-2.69,12.55-2.83-4.12.14-8.3,1.01-12.51,2.83l-84.37,40.64-1.37.94c-8.46,7.91-14.13,28.48-20.12,50.25-3.98,14.48-8.11,29.44-12.39,37.02-7.48,13.23-20.14,28.87-32.39,43.99-10.04,12.4-20.42,25.23-28.18,36.98-36.79,55.76-70.91,146.01-93.05,211.9ZM325.74,1806.94c-9.41-1-13.44-13.47-15.9-24.22-1.87-8.16-2.94-21.65-4.08-35.93-1.48-18.56-3.51-43.99-7.63-50.09-1.94-2.86-2-2.85-5.3-2.73,0,0,0,0,.01,0,3.34-.11,3.39-.13,5.33,2.73,4.12,6.1,6.14,31.52,7.63,50.09,1.14,14.29,2.21,27.77,4.08,35.93,2.46,10.75,6.49,23.22,15.9,24.22.7.06,1.39.06,2.06,0-.69.07-1.39.07-2.11,0ZM423.4,1834.26c-6.99-2.52-8.9-11.32-9.84-19.6-.94-8.26-1.34-16.53-1.72-24.53-.71-14.9-1.38-28.98-5.3-43.21-5.75-20.88-11.69-23.84-13.98-24.14-.57-.08-1.17-.06-1.79.05.63-.12,1.25-.14,1.84-.06,2.29.31,8.23,3.27,13.98,24.14,3.91,14.23,4.59,28.31,5.3,43.21.38,8,.77,16.27,1.72,24.53.95,8.28,2.85,17.08,9.84,19.6,1.75.63,3.5.75,5.23.5-1.74.26-3.51.14-5.27-.5ZM467.43,1533.75c-8.46,19.88-17.21,40.43-20.02,62.54-1.11,8.74-1.2,18.42-1.29,27.78-.08,7.91-.15,16.08-.87,23.26-2.12,21.37-5.49,43-8.74,63.91-.16,1.02-.32,2.05-.48,3.07l-1.21-4.65c-3.32-14.86-21.37-28.55-37.43-28.55-.23,0-.46,0-.68,0-1.45.04-2.89.23-4.32.5l48.46-163.78-10.3-3.79-16.68,37.71c-7.67,20.59-12.94,42.11-18.05,62.92-1.57,6.39-3.14,12.78-4.77,19.16l-1.92,48.59c-17.28,5.41-32.95,26.64-45.87,44.13-.47.62-.92,1.25-1.38,1.87,0-.17-.02-.33-.02-.5-.74-18.15-1.51-36.92-7.05-53.44-4.27-12.72-11.95-21.98-21.62-26.06-3.57-1.5-7.33-2.26-11.2-2.26-4.97,0-10.11,1.24-15.26,3.71-6.94,3.34-12.63,8.33-17.98,13.5.75-1.74,1.5-3.48,2.24-5.22,10.63-24.72,21.62-50.28,34.62-74.26,13.07-24.1,28.73-47.39,43.89-69.91,21.66-32.18,43.97-65.35,59.53-102,.13.75.26,1.49.39,2.23,1.19,6.96,2.43,14.15,4.8,22.15,10.98,37.03,31.35,69.67,56.22,90.3-.99,2.36-2,4.72-3.01,7.08ZM481.03,1395.27c-8.65,21.87-11.05,49.55-11.25,71.97-7.46-10.95-19.3-34.04-20.77-40.72-5.55-25.43-1.74-46.75,11.35-63.36,15.85-20.13,45.18-32.11,80.46-32.86.09,0,.19,0,.28,0,7.66,0,17.13,6.55,26.3,12.89,3.14,2.18,6.19,4.29,9.2,6.17-4.93,1.48-9.94,2.79-15.14,4.15-9.57,2.5-19.46,5.09-29.36,8.96-22.28,8.72-45.78,19.43-51.06,32.8ZM675.67,1656.94c-4.02-.84-8.17-1.7-12.94-2.38-3.85-.54-8.49-.78-12.98-1.02-5.88-.3-11.97-.61-16.96-1.62-24.47-4.98-82.05-43.88-101.55-61.45-13.3-11.98-24.15-26.23-34.54-40.21,0-.01,0-.03.01-.04,10.4,13.99,21.26,28.25,34.57,40.25,19.49,17.57,77.07,56.47,101.55,61.45,5,1.01,11.08,1.32,16.96,1.62,4.49.23,9.13.47,12.98,1.02,4.77.68,8.92,1.54,12.94,2.38,7.81,1.63,14.95,3.12,23.47,2.28-8.54.84-15.69-.65-23.51-2.28ZM735.29,1808.47c-9.24,78.28-11.79,133.4-7.56,163.82l.23,1.69c1.12,8.19,2.39,17.48,8.24,24.88l1.65,2.09h7.76,0s-7.79,0-7.79,0l-1.65-2.09c-5.85-7.4-7.13-16.69-8.25-24.88l-.23-1.69c-4.23-30.42-1.69-85.53,7.56-163.82,3.95-33.48,14.72-65.33,25.13-96.12,4.52-13.37,9.19-27.2,13.21-40.89,2.24-7.62,4.02-15.63,5.75-23.37,2.17-9.73,4.39-19.68,7.58-29.4l.05-.03c-3.2,9.73-5.42,19.68-7.59,29.42-1.73,7.74-3.51,15.75-5.75,23.37-4.02,13.69-8.69,27.52-13.21,40.89-10.41,30.79-21.17,62.64-25.13,96.12ZM840.3,1965.29c-1.9-2.63-3.69-5.11-4.45-5.96-13.75-15.37-22.64-20.55-25.45-20.39,0,0,.02,0,.02,0,2.79-.18,11.69,5,25.47,20.39.76.85,2.55,3.34,4.45,5.96,11.67,16.18,20.89,27.87,28.73,26.53-7.85,1.39-17.08-10.33-28.77-26.53ZM883.8,1883.47c-8.78.95-15.64,6.62-20.4,16.87-4.68,10.1-8.29,23.72-9.97,37.04-1.64-1.93-3.3-3.97-5.01-6.05-10.74-13.15-22.91-28.06-40.45-28.67-.41-.02-.82-.02-1.22-.02-18.32,0-33.44,14.23-45.4,27.95.24-3.85.4-7.7.56-11.49.27-6.53.53-12.69,1.16-18.69,5.2-48.9,15.69-90.2,26.8-133.92,5.43-21.37,11.04-43.47,16.09-66.85,5.25-24.28,8.97-49.19,12.2-73.14.84,1.26,1.67,2.55,2.52,3.86,2.01,3.13,4.1,6.35,6.45,9.45,1.42,1.87,3.13,3.38,4.63,4.71,2.47,2.19,3.6,3.32,3.76,4.6-14.23,62.51-31.81,140.17-22.75,216.28l3.84,32.27,12.63-57.32.11-.67c1.5-16.09,2.35-34.63,3.26-54.26,2.03-43.87,4.31-93.45,14.73-127.48,18.14,16.56,37.03,30.85,61.74,33.89-.46,30.04,5.45,59.38,11.17,87.8,3.95,19.64,8.04,39.95,9.91,60.08,2.23,23.9,2.73,48.68,2.83,74.04-12.82-14.51-32.34-32.22-49.16-30.28ZM874.79,1630.55c-13.07-9.1-26.7-21.62-34.5-37.58,5.85-3.23,19.3-9.16,27.94-12.97,3.83-1.69,7.18-3.17,10.04-4.46-3.98,17.2-7.2,36.42-3.48,55.01ZM948.59,1984.43c-7.85.89-12.75-8.06-17.85-17.48-1.55-2.85-3.14-5.8-4.65-8.11-17.78-27.11-25.88-28.63-27.32-28.66-.11-.01-.23-.02-.36,0,.15-.02.28-.01.4,0,1.44.03,9.54,1.55,27.32,28.66,1.51,2.31,3.1,5.26,4.65,8.11,5.09,9.41,9.99,18.35,17.82,17.48,0,0,0,0-.01,0ZM987.55,1709.1c-8.68.26-16.72-2.38-23.57-4.94-6.78-2.52-12.61-6.3-18.24-9.95-2.21-1.44-4.36-2.83-6.52-4.12v-.03c2.17,1.3,4.34,2.7,6.56,4.15,5.63,3.65,11.46,7.43,18.24,9.95,6.85,2.55,14.89,5.2,23.57,4.94-.01,0-.03,0-.04,0ZM1200.21,1480.49c-9.72,12.35-22.49,35.12-37.25,61.42-24.05,42.87-53.97,96.23-73.43,105.89-15.12,7.51-34.76,12.89-53.75,18.08-17.9,4.9-36.39,9.96-51.89,16.95-.03,0-.05,0-.08,0-4.44,0-10.02-5.28-14.97-9.96-2.4-2.27-4.87-4.61-7.33-6.47-36.91-28.06-69.1-59.37-54.86-98.08q2.72-7.38,7.25-8.93c1.54-.53,3.41-1.17,5.71-2.07,17.83-7.02,38.52-11.42,58.53-15.67,23.82-5.07,48.46-10.31,69.09-20.07,10-4.73,15.07-11.67,13.59-18.57-1.49-6.91-8.96-11.16-20-11.36-1.73-.03-3.44-.05-5.13-.05-58.4,0-96.8,18.64-141.07,40.12-11.93,5.79-24.26,11.77-37.61,17.71-6.2,2.76-12.47,5.57-18.78,8.4-41.43,18.58-84.28,37.8-126.22,50.23-24.86,7.37-66.69,17.09-80.04,13.71-41.87-10.66-78.07-51.62-108.73-89.18-18.36-22.49-17.74-62.63-13.99-92.35,4.55-36.01,17.43-51.59,51.04-61.74,18.13-5.47,37.69-8.99,54.92-9.93-5.78,10.4-19.64,31.09-28.65,44.55-12.31,18.37-19.34,28.95-20.82,32.82l-.21.69c-4.57,19.07-.44,43.67,11.91,48.06,8.9,3.17,17.55-3.85,25.72-20.87,10.73-22.36,21.06-45.48,31.04-67.84,20.38-45.64,41.46-92.84,67.18-136.36,8.76-14.82,20.55-29.03,31.95-42.77,7.48-9.02,15.18-18.29,22.09-27.81l52.25,54.09c47.27,46.25,84.04,76.83,126.94,105.55,20.39,13.64,36.53,22.74,58.71,28.85,35.26,9.71,128.26,13.29,163.15,6.28,33.46-6.72,65.93-20.18,97.34-33.2,1.94-.81,3.87-1.61,5.81-2.41l-59.4,122.24ZM1887.28,801.67l-67.76,44.76-.48.35c-8.76,7.27-18.41,13.94-27.75,20.39-7.85,5.42-15.97,11.03-23.63,17.04-4.72,3.71-9.87,8.68-15.31,13.95-7.94,7.69-16.16,15.64-22.42,18.88-7.6,3.93-24.11,7.76-38.68,11.13-9.77,2.27-19,4.4-25.75,6.56-47.36,15.11-92.53,36.75-136.21,57.68-4.62,2.21-9.24,4.43-13.86,6.63,1.62-2.1,3.24-4.19,4.73-6.11,14.89-19.18,22-28.79,22.87-34.07,1.42-8.59-1.93-12.58-4.99-14.41-12.65-7.57-40.91,13.38-41.19,13.6-19.46,14.93-28,40.22-35.53,62.54-2.4,7.11-4.67,13.83-7.18,20.01-36.78,90.27-69.67,159.24-100.56,210.84-32.55,54.4-88.38,87.54-175.08,103.74.63-.96,1.25-1.92,1.87-2.88,4-6.19,8.14-12.6,12.52-18.05,2.42-3.01,5.77-6.06,9.01-9.01,3.91-3.56,7.95-7.25,10.87-11.25,7.81-10.73,21.76-53.77,34.39-94.46l1.46-4.69c6.97-22.36,12.81-45.71,18.45-68.3,1.24-4.94,2.47-9.87,3.71-14.77,7.87-3.74,16.15-6.46,24.87-9.33,7.79-2.56,15.84-5.21,23.56-8.65,13.14-5.85,57.37-26.44,74.96-45.6,4.58-5,8.46-10.7,12.21-16.23,3.24-4.77,6.3-9.29,9.71-13.23,8.88-10.29,18.97-20.11,28.72-29.61,27.49-26.76,55.91-54.45,63.81-97.64,3.61-19.7,4.9-40.03,6.14-59.69,1.91-30.1,3.89-61.2,14.32-89.94,33.53-6.63,68.32-5.6,101.98-4.59,13.09.39,26.73.8,39.96.75h1.41s1.24-.68,1.24-.68c38.75-21.38,82.2-34.12,124.21-46.44,11.54-3.38,23.43-6.87,35.12-10.51l37.26,32.51,2.32,5.11c9.48,20.79,19.28,42.26,14.68,63.65ZM1913.99,785.47s0,0,0-.01c10.29,2.63,24.12,4.45,36.58,3.92-12.46.53-26.28-1.29-36.58-3.91ZM2045.11,745.05c-6.64-.13-13.08-.24-19.1.23,6.03-.47,12.49-.36,19.15-.23,5.77.1,11.61.21,17.4-.07-5.8.28-11.66.18-17.44.08ZM2123.62,588.58c-.48.78-.92,1.53-1.25,2.19-2.36,4.71-11.16,20.46-13.23,23.11-7.48,9.56-45.18,12.62-63.39,13.76,3.26-8.38,7.2-20.45,1.66-28.63-3.15-4.66-8.55-7.01-16.05-7.02h-.02c-20.33,0-82.61,24.9-99.69,34.58-6.31,3.58-12.49,10.49-11.15,17.21.54,2.74,2.77,7.5,11.54,8.59l2.1.26,1.73-1.21c8.55-5.98,60.02-25.66,81.15-31.66-12.09,21.58-33.7,41.77-58.48,54.17-1.71.86-4.45,1.73-7.36,2.66-6.61,2.1-13.44,4.28-16.91,8.69-5.23,6.66-2.35,16.46-.04,24.34.62,2.12,1.21,4.09,1.53,5.74.2,1.03.25,2.6.33,4.41.41,8.27,1.16,23.65,13.74,23.65h.1c14.86-.1,15.31-24.87,15.58-39.67.02-1.2.05-2.56.09-3.67,2.03-.79,5.02-1.88,7.42-2.76,7-2.55,11.75-4.31,13.9-5.47,8.97-4.86,16.69-12.41,24.16-19.71,9.65-9.44,18.77-18.36,28.69-19.57,5.26-.64,10.99-.82,17.06-1,6.22-.19,12.65-.39,18.69-1.13,8.66-1.06,17.37-2.69,25.79-4.26,4.35-.81,8.69-1.62,13.02-2.36l1.07,14.78c-9.36,3.5-34.06,7.37-52.65,10.28-38.27,5.99-48.31,8.05-51.34,12.98-2.35,3.83-2.63,8.19-.75,11.95,1.96,3.93,5.93,6.54,10.63,6.99l.71.07,63.62-10.56c-5.14,6.7-14,17.7-18.48,19.05-11.37,3.44-26.59,4.7-41.31,5.91-7.74.64-15.05,1.25-21.58,2.15-13.97,1.93-23.31,11.83-32.34,21.41-8.04,8.53-15.64,16.59-26.18,19.28-4.33,1.1-27.11.59-32.8-.79-.46-1.36-1.06-3.62-1.49-5.24-.87-3.26-1.68-6.34-2.66-8.42-2.94-6.2-11.77-19.63-17.61-28.51l-2.4-3.65c-4.84-7.41-10.07-12.83-15.6-18.57-.77-.8-1.55-1.61-2.33-2.42,22.02-34.12,48.25-68.28,88.89-90.22,39.14-21.12,62.26-19.57,100.55-17.02,5.09.34,10.43.7,16.09,1.02,2.57.15,6.41.08,11.27-.03,8.03-.16,31.74-.63,37.01,2.54-.3.59-.75,1.32-1.06,1.82Z"/>
    </g>
  </g>
</svg>