<?xml version="1.0" encoding="UTF-8"?>
<svg id="Camada_2" data-name="Camada 2" xmlns="http://www.w3.org/2000/svg" viewBox="0 0 2004.28 1306.55">
  <defs>
    <style>
      .cls-1 {
        fill: #bfc9b9;
      }
    </style>
  </defs>
  <g id="Camada_1-2" data-name="Camada 1">
    <g>
      <path class="cls-1" d="M1187.14,997.48c-30.31,3.38-97.32-11.83-125.22-25.62-6.86-3.39-13.39-7.69-19.72-11.86-5.59-3.68-10.87-7.15-16.3-10.02-7.27-3.84-14.82-7.47-22.13-10.99-27.98-13.48-56.83-27.38-75.87-55.18-7.55,13.53-13.57,28.19-19.43,42.45-6.03,14.69-12.26,29.88-20.23,44.1-7.28,13.01-16.26,25.38-24.93,37.33-7.76,10.69-15.78,21.74-22.25,32.86-5.31,9.12-9.75,19.22-14.04,28.99-3.68,8.36-7.46,16.98-11.87,25.2,13.48,21.07,31.29,41.99,50.44,59.19,29.83,26.79,44.12,31.69,81.03,41.9,35.92,9.94,78.88,20.13,125.32,20.48,8.5-2.06,37.88-29.76,49.73-43.25,25.92-29.51,46.63-58.87,61.56-87.28,20.36-38.73,34.84-73.43,44.12-105.71-3.92,1.75-7.77,3.94-11.73,6.2-8.64,4.91-17.58,9.99-28.48,11.2ZM1091.01,1149.31c-12.06,21.13-41.25-10.17-57.17-14.15l-31.14,49.58c-1.66,1.61-5.48,2.5-7.78,2.3-3.37-.3-38.97-19.35-44.44-22.64-19.42-11.68-36.77-27.06-56.26-38.72-1.92-3.19-.58-5.75.58-8.77,3.34-8.72,19.23-23.98,24.58-33.1.02-2.26-31.3-22.11-35.19-26.19-2.53-2.65-4.1-5.23-3.83-9.04.43-6.13,18.96-33.86,23.27-41.97,3.9-7.34,12.5-33.08,18.94-35.07,13.64-4.22,50.38,30.59,54.51,27.59,2.16-9.43,14.81-40.87,25.15-40.8,12.97,8.56,76.08,35.04,81.9,44.53,5.99,9.76-16.67,38.39-19.42,49.13,14.13,7.61,26.99,16,40.16,25.02,4.76,3.26,11.94,1.69,11.95,10.49-9.6,18.71-15.71,44.08-25.83,61.82Z"/>
      <path class="cls-1" d="M893.54,1215.12c-22.27-9.46-43.28-29.65-61.82-47.46-2.06-1.97-4.07-3.91-6.05-5.79-7.26,7.8-11.24,13.12-11.38,24.07-.16,12.43,2.09,27.22,4.27,41.52,1.97,12.94,4.01,26.32,4.39,38.48.39,12.53-.63,25.74-3.11,40.3l.05.07c15.3,2.12,71.16-10.58,91.37-16.77,13.75-4.22,31.76-11.2,44.8-17.39,9.87-4.68,19.38-10.77,28.58-16.65,6.41-4.1,12.95-8.29,19.77-12.12-12.4-3.32-25.41-5.96-39.03-8.72-24.32-4.93-49.47-10.04-71.84-19.54Z"/>
      <path class="cls-1" d="M1285.95,1234.59c10.24-1.37,22.27-4.24,34.66-8.29,49.17-16.07,106.28-65.35,133.08-103.71,4.55-6.51,26.85-44.97,35.5-62.82l-161.53,44.41c1.95,51.31-18.27,93.03-41.71,130.41Z"/>
      <path class="cls-1" d="M853.27,963.27c-37.81-5.43-79.04-7.27-111.23-4.94-5.41.39-10.85,1.53-16.61,2.74-6.02,1.26-12.24,2.56-18.62,3-43.71,2.99-79.8-3.69-107.29-19.85l-89.06-57.79c.28.68.56,1.36.84,2.04,6.03,14.63,11.72,28.47,22.65,38.09,11.74,7.66,23.37,15.54,34.62,23.15,44.7,30.27,86.93,58.85,138.27,76.98,11.41,4.03,23.02,6.1,35.31,8.3,9.22,1.65,18.75,3.35,28.11,5.95,5.85,1.63,11.25,3.87,16.47,6.04,3.99,1.66,7.82,3.25,11.66,4.5,9.19-23.87,24.07-44.62,38.49-64.74,5.5-7.66,11.14-15.53,16.39-23.48Z"/>
      <path class="cls-1" d="M1043.12,1060.54c-3.95-7.96,17.31-35.69,16.91-46.58l-50.35-31.54-27.49,44.09c-6.32,7.31-26.63-12.66-33.16-16.97-3.14-2.07-17.86-11.75-19.79-12.03-5.49-.81-9.58,8.51-12.47,12.94-7.43,11.39-12.72,24.35-19.68,36.04l44.37,24.61c3.99,11.81-20.68,33.26-17.51,47.16l70.89,39.15c8.51.02,20.91-43.36,35.41-44.75,9.28-.89,38.93,24.1,48.28,29.75l21.4-50.19c-10.12-1.87-16.03-10.26-24.78-15.25-6.3-3.59-29.49-11.26-32.04-16.41Z"/>
      <path class="cls-1" d="M1613.21,35.87c-90.57-37.03-239.33-53.16-336.63-10.1-56.24,24.89-89.97,56.46-129.03,93.02-11.44,10.71-23.27,21.77-36.27,33.27-17.63,15.58-36.32,30.43-54.39,44.78-24.62,19.57-50.09,39.8-72.97,61.98-32.89,31.89-60.41,68.71-87.02,104.33-40.97,54.84-83.33,111.56-145.78,150.36-22.73,14.13-92.59,54.26-151.77,54.26-10.62,0-20.91-1.29-30.5-4.26-6.08-1.88-10.83-4.75-15.42-7.53-2.91-1.76-5.66-3.42-8.56-4.7-3.7-1.63-7.49-2.92-11.15-4.18-9.81-3.36-19.95-6.84-29-16.72-8.73-9.54-32.84-56.29-37.41-67.86-42.71-108.03,2.86-144.67,65.93-195.39,9.91-7.97,20.15-16.21,30.69-25.21l8.13-6.94c25.15-21.46,53.66-45.78,76.26-68.12,11.07-10.95,30.91-41.44,37.64-56.21,7.57-16.61-3.29-54.56-13.42-76.21-2.44-5.22-10.71-20.42-12.89-22.88-.88-.73-1.02-.72-3.74-.44l-.9.09c-8.22.81-29.66,19.88-45.32,33.81-13.19,11.73-25.65,22.81-34.74,28.21-24.9,14.79-50.93,19.19-76.11,23.44-39.67,6.7-73.92,12.48-95.29,57.22-2.05,4.29-4.28,10.72-6.64,17.52-5.05,14.56-10.27,29.61-17.53,36.59-15.18,14.63-30.54.04-37.92-6.96-6.35-6.03-11.21-11.95-15.91-17.69-10.45-12.75-18.7-22.81-38.55-28.19-12.71-3.44-25.8-6.27-39.65-9.25-48.76-10.51-99.19-21.38-133.52-60.42-8.71-9.9-16.87-22.14-24.77-33.98-9.97-14.95-20.29-30.42-31.59-41.01-9.08-8.49-10.92-8.67-21.94-2.11C9.62,23.78-3.25,81.55.7,112.97c2.64,20.97,22.31,97.17,31.12,117.63,4.4,10.21,37.45,36.82,51.12,43.8,19.88,10.15,46.03,17.77,73.71,25.84,48.95,14.27,99.56,29.02,126.09,60.49,23.97,28.43,71.22,124.63,80.49,159.3,4.51,16.87,8.02,34.67,11.42,51.88,3.89,19.69,7.9,40.04,13.41,58.98,15.06,51.8,44.02,102.26,72.03,151.06,7.32,12.75,14.88,25.93,21.92,38.68,45.94,43.09,105.05,79.24,175.72,107.47,16.19,1.92,31.78-1.8,48.26-5.72,7.24-1.72,14.73-3.5,22.25-4.76,51.22-8.54,102.85-13.81,153.52-15.66,1.43-2.65,3.81-7.89,5.96-12.63,10.74-23.65,21.31-45.46,32.44-52.34,10.83-6.7,28.59-6.07,44.26-5.53,6.74.24,13.13.47,17.98.06,18.98-6.85,36.93-17.46,54.29-27.72,6-3.55,12.11-7.16,18.32-10.64-1.92-1.11-3.67-2.57-5.13-4.32-3.1-3.7-4.44-8.16-3.78-12.56.68-4.46,4.14-12.42,19.77-15.58,14.01-2.84,38-1.01,43.71,8.32,4.01,6.55.43,21.58-3.03,26.19-1.43,1.9-3.37,2.97-4.92,3.83-.54.3-1.37.76-1.48.83-1.17,1.6-2.12,3.51-3.12,5.53-1.3,2.62-2.65,5.34-4.66,7.73-21.28,25.22-61.42,52.64-92.33,71.73,2.26,2.03,5.24,4.47,7.02,5.75,20.24,14.51,104.04,50.42,126.02,52.45,19.05,1.76,39.3-1.3,58.88-4.25,2.63-.4,5.24-.79,7.84-1.17,4.65-10.75,7.76-22.1,11.03-34.06,3.82-13.96,7.77-28.39,14.41-41.73,9.53-19.11,24.71-41.35,38.11-60.96,3.77-5.52,7.41-10.85,10.76-15.87,4.56-6.83,9.49-14.43,14.71-22.47,24.55-37.83,55.11-84.9,83.02-107.88,1.53-1.26,3.32-3.24,5.22-5.33,5.69-6.27,15.21-16.78,25.49-9.4,5.69,4.08,7.05,8.79,7.19,12.03.44,10-9.84,18.83-17.34,25.28-1.67,1.43-3.24,2.79-4.28,3.81-16.87,16.66-24.05,32.57-32.37,51-5.31,11.78-10.81,23.96-19.35,37.4-6.47,10.19-13.76,19.89-20.81,29.27-6.63,8.82-13.48,17.95-19.48,27.26-13.71,21.32-21.14,44.3-29,68.64-1.8,5.58-3.66,11.33-5.6,17.06,1.72,2.31,3.69,4.59,5.73,6.96,6,6.96,12.8,14.86,14.48,25.57,3.2,20.39-25.94,91.81-30.45,101.88-2.42,5.41-5.24,10.57-7.96,15.57-1.8,3.29-3.54,6.49-5.15,9.7,3.6-.61,7.19-1.17,10.72-1.72,10.63-1.66,21.62-3.37,31.88-6.3,11.08-3.16,22.23-7.57,34.03-12.24,10.25-4.06,20.85-8.25,31.36-11.53,33.67-10.49,67.61-19.83,100.43-28.86,106.18-29.22,206.47-56.81,300.19-120.96,22.31-15.27,63.83-43.68,83.16-64.01,60.5-63.62,143.38-160.08,164.62-262.84.69-3.32.97-7.59,1.24-11.73.09-1.37.18-2.76.29-4.14-9.46-.57-18.29-3.2-26.87-5.75-8.12-2.41-15.78-4.69-23.93-5.36-64.04-5.29-116.19,13.72-171.4,33.84-14.79,5.39-30.09,10.96-45.84,16.15-69.88,23.01-172.31,32.15-274.03,24.44-3.28-.25-6.37-1.44-8.86-2.4-1.11-.43-2.74-1.06-3.46-1.17-1.73.55-5.97,4.32-8.8,6.84-7.21,6.4-15.35,13.65-24.03,12.84-2.79-.27-6.86-1.54-10.37-6.1-2.73-3.55-3.76-7.99-3.06-13.21,2.74-20.35,32.19-48.74,39.85-54.54,7.36-5.57,21.79-13.35,31.54-16.05,6.94-1.92,40.21-6.3,48.31-4.68,7.73,1.56,13.22,9.9,14.45,16.96,1.13,6.44-1.14,12.08-6.07,15.06-2.63,1.59-5.76,1.96-8.79,2.3-1.99.23-4.72.54-5.67,1.22l-15.86,8.41c57.52-1.39,118.69-10.18,165.68-23.94,16.24-4.75,32.45-11.23,48.12-17.5,13.95-5.57,28.37-11.34,42.95-15.96,60.63-19.22,151.19-38.22,240.67-20.83,20.34-43.74,17.87-93.18-7.12-139.73-69.06-128.69-221.35-261.11-370.32-322.03ZM1511.14,452.78c-33.93,25.94-44.73-6.87-73.72-19.03-4.86-.4-23.75,14.42-26.24,19.56-8.75,18.04,14.37,70.02-25.9,54.82-12.4-4.68-19.83-13.1-22.09-26.29-1.72-10.01-3.57-41.23-2.66-51.27.78-8.62,4.03-16.37,9.94-22.62,28.84-30.51,101-33.26,131.54-3.51,11.48,11.18,25.08,36.15,9.14,48.34Z"/>
    </g>
  </g>
</svg>