<?xml version="1.0" encoding="UTF-8"?>
<svg id="Camada_2" data-name="Camada 2" xmlns="http://www.w3.org/2000/svg" viewBox="0 0 2114.7 1439.2">
  <defs>
    <style>
      .cls-1 {
        fill: #232429;
      }
    </style>
  </defs>
  <g id="Camada_1-2" data-name="Camada 1">
    <g>
      <path class="cls-1" d="M.39,222.43c2.51,41.68,12.38,60.29,26.04,86.05,3.66,6.91,7.82,14.74,12.17,23.68,3.6,7.4,6.14,13.78,8.39,19.41,7.2,18.09,11.95,30.03,38.81,46.04,23.44,13.98,50.83,25.73,77.31,37.1,23.83,10.23,48.47,20.81,70.51,33.07,37.13,20.67,64.33,38.19,69.29,44.64,6.98,9.08,24.59,47.17,32.03,64.61,8.47,19.83,14.49,40.52,20.87,62.43,5.29,18.16,10.76,36.95,17.73,55.03,6.15,15.96,13.51,31.3,20.63,46.13,6.05,12.6,12.3,25.63,17.58,38.63,13.3,32.75,23.88,67.9,34.12,101.9,9.79,32.51,19.91,66.13,32.4,97.65,16.21,40.89,32.28,66.03,49.13,76.86,44.47,28.57,96.76,49.88,147.32,70.49,44.13,17.99,89.77,36.59,130.17,59.97,10.42,6.03,20.44,13.63,22.96,17.28-.96,1.59-1.97,3.23-3,4.93-12.26,20.07-29.06,47.55-29.82,70.58-.26,7.89.92,17.28,2.06,26.37.77,6.12,1.5,11.9,1.77,16.97.32,6.07.57,12.38.8,18.48.89,23.1,1.81,47,7.25,69.59,2.23,9.25,7.58,25.12,18.37,27.52,4.26.95,9.04,1.37,14.2,1.37,26.29,0,62.51-10.97,90.18-19.35,6.99-2.12,13.6-4.12,19.1-5.65,61.08-16.98,90.25-26.26,141.52-68.3,1.88-1.54,4.22-4.11,6.71-6.83,1.87-2.04,4.95-5.43,6.14-6.27,2.82-1.12,5.83-.62,9.3-.04,2.83.47,6.04,1,9.39.62,13.15-1.51,60.2-28.46,68.95-39.5,3.24-4.08,5.52-9.11,7.72-13.98,1.6-3.53,3.11-6.87,4.87-9.62,4.21-6.6,8.73-13.22,13.1-19.63,8.19-12,16.64-24.41,23.76-37.56l1.55-1.34c.12,0,.24,0,.37,0,17.22,0,34.18-3.69,50.6-7.26,8.27-1.8,16.75-3.64,25.17-4.98-1.32,5.38-2.49,10.91-3.63,16.32-2.53,11.93-5.14,24.26-9.23,34.63-2.14,5.41-6.75,13.82-11.63,22.74-13.46,24.58-22.91,42.9-21.78,54.68,1.85,19.23,39.05,30.1,43.29,31.28,29.8,8.27,77.26-12.04,100.6-25.36,79.38-45.26,143.57-118.31,185.75-211.37,33.15-14.27,67.65-25.54,101.03-36.44,42.23-13.79,85.89-28.04,127.35-48.53,31.78-15.7,42.76-28.8,57.95-46.94,5.16-6.16,11.01-13.15,18.41-21.08,5.27-5.64,10.46-11.18,15.59-16.64,44.51-47.39,82.95-88.31,116.11-147.67,27.02-48.35,31.67-111.53,32.82-154.85.15-5.52-.45-12.82-1.07-20.55-.82-10.06-1.74-21.47-.62-26.4.53-2.34,4.83-7.93,7.66-11.63,2.53-3.3,4.92-6.41,6.51-9.16.36-.63,35.99-63.41,31.23-89.03-.61-3.29-2.23-6.5-3.65-9.33-.44-.88-.87-1.73-1.24-2.54-47.3-103.4-132.26-205.26-215.22-300.74-3.33-3.83-7.11-9.06-11.1-14.59-5.83-8.07-11.86-16.41-17.25-21.31-11.92-10.84-50.19-31.83-85.12-50.65-3.8-2.05-7.12-3.83-9.77-5.28-69.53-37.87-146.7-66.65-235.94-88.01-30-7.17-139.83,23.34-158.79,29.26-53.39,16.65-89.73,38.42-138.12,72.77-74.53,52.9-160.6,117.76-233.9,197.75-24.53,26.78-47.81,56.37-70.31,84.98-25.01,31.8-50.88,64.69-78.45,93.65-29.35,30.84-78.56,62.26-118.11,87.51l-9.61,6.14c-2.14,1.37-4.22,2.72-6.27,4.04-24.62,15.93-42.42,27.43-73.65,25.25-22.04-1.54-80.72-28.63-86.95-45.63-7.14-19.5-2.95-78.73,5.08-98.51,2.94-7.24,37.35-56.83,45.12-65.77,16.67-19.17,35.51-38.24,53.72-56.69,27.87-28.23,56.69-57.42,80.23-89.16,41.42-55.83,25.21-116.75,6.46-163.59-8.64-21.59-23.37-37.04-40.41-42.39-14.73-4.62-30.63-1.73-45.97,8.36-17.39,11.44-34.53,25.79-51.1,39.68-14.31,11.98-29.08,24.36-43.78,34.64-9.07.25-19.23-.37-29.93-1.01-34.09-2.05-72.74-4.37-96.18,20.23-19.82,20.8-34.45,47.29-41.11,74.05-1.52-2.59-3.11-5.25-5.14-7.65-34.19-40.48-64.86-38.84-97.34-37.11-18.44.98-37.52,2-58.94-4.68-35.78-11.17-44.89-25.67-57.49-45.73-5.86-9.33-12.5-19.91-22.66-31.63-12.83-14.8-55.95-51.24-81.73-49.39-30.02,2.14-53.2,28.41-67.01,75.97C1.97,153.11-1.2,196.1.39,222.43ZM1321.96,1316.36c23.43-37.38,43.66-79.1,41.71-130.41l161.53-44.41c-8.66,17.86-30.96,56.32-35.51,62.83-26.8,38.36-83.9,87.63-133.08,103.71-12.39,4.05-24.42,6.92-34.66,8.29ZM982.64,1277.62c-36.92-10.21-51.21-15.1-81.04-41.9-19.15-17.2-36.96-38.11-50.44-59.19,4.41-8.23,8.19-16.84,11.87-25.21,4.29-9.77,8.73-19.87,14.04-28.99,6.47-11.12,14.5-22.18,22.25-32.87,8.68-11.96,17.65-24.32,24.93-37.33,7.96-14.23,14.2-29.41,20.23-44.1,5.85-14.26,11.87-28.92,19.43-42.45,19.05,27.8,47.89,41.7,75.87,55.18,7.3,3.52,14.85,7.15,22.12,10.99,5.44,2.86,10.71,6.34,16.3,10.02,6.32,4.16,12.86,8.47,19.72,11.86,27.9,13.79,94.91,29,125.22,25.62,10.9-1.21,19.84-6.29,28.48-11.2,3.97-2.26,7.82-4.45,11.73-6.2-9.27,32.28-23.76,66.98-44.11,105.71-14.93,28.4-35.64,57.77-61.56,87.28-11.85,13.49-41.23,41.2-49.73,43.25-46.44-.35-89.39-10.54-125.32-20.48ZM850.31,1267.71c.14-10.94,4.12-16.27,11.38-24.07,1.98,1.88,3.99,3.82,6.05,5.79,18.54,17.81,39.55,38,61.82,47.46,22.37,9.5,47.52,14.61,71.83,19.54,13.62,2.76,26.63,5.4,39.03,8.72-6.81,3.82-13.36,8.01-19.77,12.11-9.2,5.89-18.71,11.98-28.58,16.65-13.04,6.18-31.04,13.17-44.8,17.39-20.21,6.2-76.07,18.89-91.37,16.77l-.05-.07c2.48-14.56,3.49-27.77,3.11-40.3-.38-12.16-2.42-25.54-4.39-38.48-2.18-14.3-4.43-29.09-4.27-41.52ZM546.47,968.21l89.06,57.79c27.49,16.16,63.58,22.84,107.29,19.85,6.38-.44,12.6-1.74,18.62-3,5.76-1.21,11.2-2.35,16.61-2.74,32.2-2.34,73.43-.49,111.24,4.94-5.25,7.95-10.9,15.82-16.39,23.49-14.42,20.11-29.31,40.86-38.49,64.74-3.84-1.24-7.67-2.84-11.66-4.5-5.22-2.17-10.62-4.41-16.47-6.04-9.35-2.6-18.89-4.3-28.11-5.95-12.29-2.2-23.9-4.27-35.31-8.3-51.35-18.13-93.57-46.71-138.27-76.98-11.25-7.61-22.88-15.49-34.62-23.15-10.93-9.62-16.62-23.45-22.65-38.09-.28-.68-.56-1.36-.84-2.04ZM71.53,90.15c11.03-6.56,12.87-6.38,21.94,2.11,11.3,10.59,21.62,26.05,31.59,41.01,7.9,11.84,16.06,24.08,24.77,33.98,34.33,39.04,84.76,49.91,133.52,60.42,13.85,2.99,26.94,5.81,39.65,9.25,19.85,5.38,28.1,15.45,38.55,28.2,4.7,5.73,9.56,11.66,15.91,17.69,7.38,7.01,22.74,21.59,37.92,6.97,7.25-6.98,12.47-22.04,17.53-36.59,2.36-6.8,4.59-13.23,6.64-17.52,21.36-44.74,55.62-50.52,95.29-57.22,25.18-4.25,51.22-8.65,76.11-23.44,9.09-5.4,21.55-16.48,34.74-28.21,15.66-13.93,37.1-33,45.32-33.81l.91-.09c2.72-.28,2.86-.29,3.74.44,2.18,2.47,10.45,17.66,12.89,22.88,10.13,21.65,20.99,59.6,13.42,76.21-6.73,14.77-26.56,45.26-37.64,56.21-22.6,22.34-51.11,46.66-76.26,68.12l-8.13,6.94c-10.54,9.01-20.78,17.24-30.69,25.21-63.07,50.72-108.64,87.37-65.93,195.39,4.57,11.56,28.68,58.31,37.41,67.86,9.05,9.88,19.19,13.36,29,16.72,3.66,1.25,7.44,2.55,11.14,4.18,2.9,1.28,5.65,2.94,8.56,4.7,4.59,2.78,9.34,5.65,15.42,7.53,9.6,2.97,19.89,4.26,30.51,4.26,59.18,0,129.03-40.13,151.77-54.26,62.45-38.81,104.81-95.52,145.78-150.36,26.61-35.62,54.12-72.45,87.01-104.33,22.88-22.18,48.35-42.41,72.97-61.97,18.07-14.36,36.76-29.2,54.39-44.78,13.01-11.49,24.84-22.56,36.27-33.27,39.06-36.55,72.79-68.12,129.03-93.02,97.3-43.06,246.06-26.94,336.63,10.1,148.98,60.92,301.26,193.34,370.33,322.03,24.98,46.55,27.46,95.99,7.11,139.73-89.49-17.39-180.04,1.62-240.68,20.84-14.58,4.62-29,10.39-42.95,15.96-15.68,6.27-31.88,12.75-48.12,17.5-46.99,13.75-108.16,22.55-165.68,23.94l15.86-8.41c.95-.68,3.67-.99,5.66-1.22,3.03-.35,6.16-.71,8.79-2.3,4.93-2.98,7.19-8.62,6.07-15.06-1.23-7.06-6.72-15.41-14.45-16.97-8.09-1.62-41.36,2.75-48.31,4.68-9.75,2.7-24.18,10.48-31.54,16.05-7.67,5.8-37.12,34.19-39.85,54.54-.7,5.22.33,9.66,3.05,13.21,3.51,4.56,7.57,5.83,10.37,6.1,8.68.82,16.83-6.43,24.03-12.83,2.83-2.52,7.07-6.28,8.8-6.84.71.11,2.35.75,3.46,1.17,2.49.96,5.58,2.16,8.86,2.4,101.71,7.71,204.15-1.43,274.03-24.44,15.75-5.19,31.05-10.76,45.84-16.15,55.22-20.12,107.36-39.13,171.4-33.84,8.15.67,15.81,2.95,23.93,5.36,8.59,2.55,17.41,5.18,26.87,5.75-.11,1.38-.2,2.77-.29,4.14-.27,4.13-.56,8.4-1.24,11.73-21.24,102.77-104.12,199.23-164.62,262.84-19.32,20.32-60.85,48.74-83.16,64.01-93.72,64.14-194.01,91.74-300.19,120.96-32.82,9.03-66.76,18.37-100.43,28.86-10.51,3.27-21.11,7.47-31.36,11.52-11.8,4.67-22.95,9.08-34.03,12.24-10.26,2.93-21.25,4.64-31.88,6.3-3.53.55-7.12,1.11-10.72,1.72,1.61-3.21,3.35-6.41,5.15-9.7,2.72-5,5.54-10.17,7.96-15.57,4.51-10.07,33.65-81.49,30.45-101.88-1.68-10.71-8.48-18.61-14.48-25.57-2.05-2.38-4.01-4.65-5.73-6.96,1.94-5.74,3.8-11.48,5.6-17.06,7.86-24.34,15.28-47.33,29-68.64,5.99-9.32,12.85-18.44,19.48-27.27,7.05-9.38,14.34-19.09,20.81-29.27,8.53-13.44,14.03-25.62,19.35-37.4,8.32-18.43,15.5-34.35,32.37-51,1.04-1.02,2.61-2.38,4.28-3.81,7.5-6.45,17.78-15.28,17.34-25.28-.14-3.23-1.5-7.94-7.19-12.03-10.27-7.38-19.8,3.12-25.49,9.4-1.9,2.09-3.69,4.07-5.22,5.33-27.92,22.98-58.47,70.05-83.02,107.88-5.22,8.04-10.15,15.64-14.71,22.47-3.35,5.02-6.99,10.35-10.76,15.87-13.4,19.61-28.58,41.85-38.11,60.96-6.65,13.34-10.6,27.77-14.42,41.73-3.27,11.97-6.38,23.32-11.03,34.06-2.59.38-5.21.78-7.84,1.17-19.59,2.96-39.83,6.02-58.88,4.25-21.97-2.03-105.77-37.93-126.01-52.45-1.78-1.28-4.77-3.72-7.03-5.75,30.92-19.1,71.06-46.51,92.33-71.73,2.02-2.39,3.36-5.1,4.66-7.73,1-2.02,1.95-3.93,3.12-5.53.11-.07.93-.53,1.48-.83,1.55-.86,3.49-1.93,4.92-3.83,3.46-4.61,7.05-19.64,3.03-26.19-5.71-9.32-29.7-11.15-43.71-8.32-15.63,3.16-19.09,11.12-19.77,15.58-.67,4.4.67,8.86,3.78,12.56,1.46,1.74,3.21,3.2,5.13,4.32-6.21,3.49-12.31,7.1-18.31,10.65-17.36,10.26-35.31,20.87-54.29,27.72-4.85.41-11.24.18-17.98-.06-15.67-.55-33.43-1.17-44.26,5.53-11.13,6.88-21.7,28.69-32.44,52.34-2.15,4.74-4.53,9.98-5.96,12.63-50.66,1.85-102.3,7.12-153.52,15.66-7.52,1.25-15.01,3.03-22.25,4.76-16.49,3.92-32.08,7.63-48.26,5.72-70.68-28.23-129.79-64.38-175.72-107.47-7.04-12.75-14.6-25.93-21.92-38.68-28.01-48.8-56.96-99.26-72.03-151.06-5.51-18.95-9.53-39.3-13.41-58.98-3.4-17.21-6.91-35.01-11.42-51.89-9.26-34.66-56.52-130.86-80.49-159.3-26.53-31.47-77.14-46.23-126.09-60.49-27.68-8.07-53.83-15.69-73.71-25.83-13.67-6.98-46.72-33.59-51.12-43.8-8.81-20.45-28.48-96.66-31.12-117.63-3.96-31.42,8.91-89.18,34.81-104.59Z"/>
      <path class="cls-1" d="M1406.48,489.73c28.84-30.51,101-33.26,131.53-3.51,11.48,11.18,25.08,36.15,9.14,48.34-33.92,25.94-44.72-6.87-73.72-19.03-4.87-.4-23.76,14.42-26.25,19.56-8.75,18.04,14.37,70.02-25.9,54.82-12.4-4.68-19.82-13.1-22.09-26.29-1.72-10.01-3.57-41.23-2.66-51.27.78-8.62,4.03-16.37,9.94-22.62Z"/>
      <path class="cls-1" d="M930.24,1207.46c19.49,11.66,36.84,27.04,56.26,38.72,5.47,3.29,41.07,22.34,44.44,22.64,2.3.2,6.11-.69,7.78-2.3l31.14-49.58c15.91,3.98,45.11,35.28,57.17,14.15,10.12-17.74,16.23-43.11,25.83-61.82,0-8.8-7.19-7.23-11.95-10.49-13.17-9.02-26.03-17.41-40.16-25.02,2.75-10.74,25.4-39.37,19.42-49.13-5.82-9.49-68.93-35.97-81.9-44.53-10.34-.07-22.99,31.37-25.15,40.8-4.13,3-40.88-31.81-54.51-27.59-6.44,2-15.04,27.73-18.94,35.07-4.31,8.11-22.84,35.84-23.27,41.97-.27,3.82,1.3,6.4,3.83,9.04,3.9,4.08,35.21,23.93,35.19,26.19-5.35,9.12-21.24,24.38-24.58,33.1-1.16,3.03-2.5,5.58-.58,8.78ZM977.48,1152.86l-44.37-24.61c6.95-11.69,12.24-24.65,19.68-36.04,2.89-4.43,6.98-13.75,12.47-12.94,1.93.29,16.66,9.96,19.79,12.03,6.53,4.32,26.84,24.28,33.16,16.97l27.49-44.09,50.35,31.54c.4,10.9-20.86,38.63-16.91,46.58,2.56,5.15,25.74,12.83,32.04,16.41,8.76,4.99,14.66,13.39,24.78,15.25l-21.4,50.19c-9.35-5.66-39-30.64-48.28-29.75-14.5,1.39-26.91,44.77-35.41,44.75l-70.89-39.15c-3.17-13.9,21.5-35.35,17.51-47.16Z"/>
    </g>
  </g>
</svg>